G04 EAGLE Gerber RS-274X export*
G75*
%MOMM*%
%FSLAX34Y34*%
%LPD*%
%INBottom Copper*%
%IPPOS*%
%AMOC8*
5,1,8,0,0,1.08239X$1,22.5*%
G01*
%ADD10P,1.429621X8X292.500000*%
%ADD11P,1.429621X8X112.500000*%
%ADD12C,1.676400*%
%ADD13C,1.524000*%
%ADD14C,3.556000*%
%ADD15P,1.855758X8X22.500000*%
%ADD16R,1.778000X1.778000*%
%ADD17C,1.778000*%
%ADD18R,1.058000X1.058000*%
%ADD19C,1.058000*%
%ADD20C,1.879600*%
%ADD21C,5.080000*%
%ADD22C,2.247900*%
%ADD23C,0.304800*%
%ADD24C,0.609600*%
%ADD25C,0.812800*%
%ADD26R,1.350000X1.350000*%

G36*
X9103Y4222D02*
X9103Y4222D01*
X9205Y4221D01*
X9301Y4239D01*
X9349Y4243D01*
X9384Y4254D01*
X9445Y4266D01*
X10760Y4623D01*
X10804Y4640D01*
X10944Y4685D01*
X11773Y5029D01*
X11786Y5030D01*
X12752Y5001D01*
X12769Y5003D01*
X12797Y5001D01*
X1206300Y5001D01*
X1206348Y5006D01*
X1206449Y5008D01*
X1207654Y5127D01*
X1207754Y5148D01*
X1207855Y5160D01*
X1207948Y5190D01*
X1207995Y5200D01*
X1208028Y5216D01*
X1208088Y5235D01*
X1210314Y6158D01*
X1210316Y6159D01*
X1210318Y6159D01*
X1210466Y6242D01*
X1210619Y6327D01*
X1210620Y6328D01*
X1210622Y6329D01*
X1210808Y6488D01*
X1212512Y8192D01*
X1212514Y8193D01*
X1212515Y8195D01*
X1212625Y8334D01*
X1212729Y8465D01*
X1212730Y8466D01*
X1212731Y8468D01*
X1212842Y8686D01*
X1213765Y10912D01*
X1213793Y11010D01*
X1213830Y11105D01*
X1213847Y11201D01*
X1213860Y11247D01*
X1213862Y11284D01*
X1213873Y11346D01*
X1213992Y12551D01*
X1213991Y12599D01*
X1213999Y12700D01*
X1213999Y13978D01*
X1214001Y14000D01*
X1215267Y947134D01*
X1215265Y947148D01*
X1215266Y947157D01*
X1215259Y947202D01*
X1215257Y947219D01*
X1215257Y947305D01*
X1215237Y947392D01*
X1215227Y947480D01*
X1215199Y947561D01*
X1215179Y947645D01*
X1215140Y947725D01*
X1215110Y947809D01*
X1215064Y947881D01*
X1215026Y947958D01*
X1214970Y948027D01*
X1214922Y948102D01*
X1214860Y948161D01*
X1214806Y948228D01*
X1214707Y948309D01*
X1214671Y948344D01*
X1214649Y948358D01*
X1214617Y948384D01*
X1214190Y948683D01*
X1214181Y948688D01*
X1214173Y948695D01*
X1213960Y948816D01*
X1212181Y949645D01*
X1212171Y949649D01*
X1212162Y949654D01*
X1211932Y949736D01*
X1210036Y950244D01*
X1210025Y950246D01*
X1210015Y950250D01*
X1209774Y950290D01*
X1207819Y950461D01*
X1207774Y950460D01*
X1207686Y950467D01*
X6714Y950467D01*
X6669Y950462D01*
X6581Y950461D01*
X4577Y950286D01*
X4567Y950284D01*
X4556Y950284D01*
X4316Y950240D01*
X2373Y949719D01*
X2363Y949716D01*
X2352Y949714D01*
X2123Y949629D01*
X1286Y949238D01*
X1187Y949177D01*
X1084Y949124D01*
X1039Y949086D01*
X989Y949056D01*
X907Y948974D01*
X818Y948899D01*
X783Y948852D01*
X742Y948811D01*
X680Y948712D01*
X611Y948619D01*
X587Y948565D01*
X556Y948516D01*
X518Y948406D01*
X472Y948299D01*
X462Y948241D01*
X443Y948186D01*
X431Y948071D01*
X410Y947956D01*
X413Y947898D01*
X407Y947840D01*
X422Y947724D01*
X427Y947608D01*
X444Y947552D01*
X451Y947494D01*
X492Y947385D01*
X524Y947273D01*
X552Y947222D01*
X572Y947167D01*
X636Y947071D01*
X1446Y945108D01*
X177Y9334D01*
X183Y9278D01*
X181Y9223D01*
X203Y9106D01*
X216Y8987D01*
X235Y8935D01*
X245Y8880D01*
X329Y8671D01*
X333Y8659D01*
X335Y8657D01*
X336Y8653D01*
X525Y8274D01*
X580Y8188D01*
X627Y8098D01*
X689Y8021D01*
X715Y7981D01*
X741Y7956D01*
X780Y7907D01*
X2670Y5902D01*
X2672Y5900D01*
X2673Y5899D01*
X2800Y5792D01*
X2937Y5677D01*
X2939Y5676D01*
X2940Y5675D01*
X3155Y5557D01*
X5668Y4428D01*
X5670Y4427D01*
X5672Y4426D01*
X5839Y4374D01*
X6000Y4322D01*
X6002Y4322D01*
X6004Y4322D01*
X6247Y4295D01*
X9001Y4213D01*
X9103Y4222D01*
G37*
%LPC*%
G36*
X995356Y63449D02*
X995356Y63449D01*
X993151Y64363D01*
X991463Y66051D01*
X990549Y68256D01*
X990549Y84144D01*
X991463Y86349D01*
X993151Y88037D01*
X995356Y88951D01*
X1006192Y88951D01*
X1006318Y88965D01*
X1006444Y88972D01*
X1006491Y88985D01*
X1006539Y88991D01*
X1006658Y89033D01*
X1006779Y89068D01*
X1006821Y89092D01*
X1006867Y89108D01*
X1006973Y89177D01*
X1007083Y89238D01*
X1007130Y89278D01*
X1007160Y89297D01*
X1007193Y89332D01*
X1007269Y89397D01*
X1014109Y96237D01*
X1014188Y96336D01*
X1014272Y96429D01*
X1014296Y96472D01*
X1014326Y96510D01*
X1014380Y96624D01*
X1014441Y96734D01*
X1014454Y96781D01*
X1014475Y96825D01*
X1014501Y96948D01*
X1014536Y97070D01*
X1014541Y97131D01*
X1014548Y97165D01*
X1014547Y97213D01*
X1014555Y97314D01*
X1014555Y99908D01*
X1014541Y100034D01*
X1014534Y100160D01*
X1014521Y100207D01*
X1014515Y100255D01*
X1014473Y100373D01*
X1014438Y100495D01*
X1014414Y100537D01*
X1014398Y100583D01*
X1014329Y100689D01*
X1014268Y100799D01*
X1014228Y100845D01*
X1014209Y100875D01*
X1014174Y100909D01*
X1014109Y100985D01*
X1011508Y103586D01*
X1009901Y107466D01*
X1009877Y107510D01*
X1009860Y107557D01*
X1009792Y107662D01*
X1009732Y107770D01*
X1009698Y107808D01*
X1009671Y107850D01*
X1009581Y107936D01*
X1009498Y108029D01*
X1009456Y108057D01*
X1009420Y108092D01*
X1009313Y108156D01*
X1009211Y108227D01*
X1009164Y108245D01*
X1009121Y108271D01*
X1009003Y108309D01*
X1008887Y108355D01*
X1008837Y108362D01*
X1008789Y108377D01*
X1008665Y108387D01*
X1008542Y108405D01*
X1008492Y108401D01*
X1008442Y108405D01*
X1008319Y108387D01*
X1008195Y108376D01*
X1008147Y108361D01*
X1008097Y108354D01*
X1007982Y108308D01*
X1007863Y108269D01*
X1007820Y108243D01*
X1007773Y108225D01*
X1007671Y108154D01*
X1007565Y108090D01*
X1007528Y108055D01*
X1007487Y108026D01*
X1007404Y107934D01*
X1007315Y107847D01*
X1007287Y107804D01*
X1007254Y107767D01*
X1007194Y107658D01*
X1007126Y107554D01*
X1007109Y107506D01*
X1007085Y107462D01*
X1007051Y107342D01*
X1007010Y107225D01*
X1007004Y107175D01*
X1006990Y107127D01*
X1006971Y106883D01*
X1006971Y103498D01*
X1006057Y101293D01*
X1004369Y99605D01*
X1002164Y98691D01*
X989191Y98691D01*
X989121Y98711D01*
X989038Y98745D01*
X988954Y98759D01*
X988873Y98782D01*
X988783Y98787D01*
X988694Y98801D01*
X988609Y98795D01*
X988524Y98799D01*
X988436Y98783D01*
X988346Y98777D01*
X988231Y98746D01*
X988182Y98737D01*
X988155Y98725D01*
X988110Y98713D01*
X939887Y81402D01*
X939862Y81390D01*
X939819Y81376D01*
X938528Y80841D01*
X938479Y80835D01*
X938339Y80826D01*
X938298Y80814D01*
X938271Y80811D01*
X938224Y80795D01*
X938181Y80783D01*
X936795Y80850D01*
X936767Y80848D01*
X936722Y80851D01*
X882129Y80851D01*
X882127Y80851D01*
X882125Y80851D01*
X881954Y80831D01*
X881783Y80811D01*
X881781Y80811D01*
X881779Y80810D01*
X881546Y80735D01*
X879373Y79835D01*
X875767Y79835D01*
X873594Y80735D01*
X873592Y80736D01*
X873590Y80737D01*
X873428Y80783D01*
X873259Y80831D01*
X873257Y80831D01*
X873255Y80832D01*
X873011Y80851D01*
X631874Y80851D01*
X631812Y80844D01*
X631750Y80846D01*
X631639Y80824D01*
X631528Y80811D01*
X631469Y80790D01*
X631408Y80778D01*
X631229Y80704D01*
X631200Y80694D01*
X631193Y80689D01*
X631182Y80685D01*
X629851Y80006D01*
X626256Y79721D01*
X622061Y81082D01*
X621947Y81105D01*
X621835Y81136D01*
X621760Y81142D01*
X621719Y81151D01*
X621675Y81149D01*
X621591Y81156D01*
X621462Y81156D01*
X620183Y81686D01*
X620143Y81697D01*
X620070Y81727D01*
X618754Y82154D01*
X618655Y82238D01*
X618559Y82303D01*
X618467Y82375D01*
X618401Y82409D01*
X618366Y82433D01*
X618325Y82448D01*
X618250Y82487D01*
X618130Y82536D01*
X617152Y83515D01*
X617119Y83541D01*
X617063Y83596D01*
X616010Y84495D01*
X615951Y84610D01*
X615887Y84707D01*
X615830Y84809D01*
X615782Y84866D01*
X615759Y84900D01*
X615726Y84931D01*
X615672Y84995D01*
X613345Y87321D01*
X611965Y90653D01*
X611965Y96939D01*
X611954Y97041D01*
X611952Y97143D01*
X611934Y97214D01*
X611925Y97286D01*
X611891Y97382D01*
X611866Y97481D01*
X611832Y97545D01*
X611808Y97614D01*
X611752Y97700D01*
X611705Y97790D01*
X611658Y97845D01*
X611619Y97907D01*
X611545Y97978D01*
X611479Y98055D01*
X611421Y98098D01*
X611368Y98149D01*
X611280Y98201D01*
X611198Y98262D01*
X611132Y98290D01*
X611069Y98328D01*
X610972Y98359D01*
X610878Y98399D01*
X610806Y98412D01*
X610737Y98434D01*
X610635Y98442D01*
X610535Y98460D01*
X610462Y98456D01*
X610390Y98462D01*
X610289Y98447D01*
X610187Y98441D01*
X610092Y98417D01*
X610045Y98410D01*
X610011Y98396D01*
X609960Y98383D01*
X608495Y98477D01*
X608459Y98475D01*
X608398Y98480D01*
X606932Y98480D01*
X606890Y98497D01*
X606767Y98533D01*
X606646Y98575D01*
X606588Y98584D01*
X606555Y98593D01*
X606507Y98595D01*
X606404Y98610D01*
X606359Y98613D01*
X605043Y99259D01*
X605009Y99271D01*
X604954Y99299D01*
X603601Y99860D01*
X603568Y99892D01*
X603468Y99972D01*
X603373Y100057D01*
X603323Y100087D01*
X603295Y100109D01*
X603251Y100130D01*
X603163Y100182D01*
X603122Y100203D01*
X602153Y101303D01*
X602126Y101327D01*
X602087Y101374D01*
X600645Y102815D01*
X599745Y104988D01*
X599744Y104990D01*
X599744Y104992D01*
X599659Y105144D01*
X599576Y105293D01*
X599575Y105294D01*
X599574Y105296D01*
X599415Y105482D01*
X595917Y108980D01*
X595818Y109059D01*
X595724Y109143D01*
X595682Y109167D01*
X595644Y109197D01*
X595530Y109251D01*
X595419Y109312D01*
X595373Y109325D01*
X595329Y109346D01*
X595206Y109372D01*
X595084Y109407D01*
X595023Y109412D01*
X594988Y109419D01*
X594940Y109418D01*
X594840Y109426D01*
X430188Y109426D01*
X430063Y109412D01*
X429936Y109405D01*
X429890Y109392D01*
X429842Y109386D01*
X429723Y109344D01*
X429602Y109309D01*
X429559Y109285D01*
X429514Y109269D01*
X429408Y109200D01*
X429297Y109139D01*
X429251Y109099D01*
X429221Y109080D01*
X429188Y109045D01*
X429111Y108980D01*
X427842Y107711D01*
X424511Y106331D01*
X397433Y106331D01*
X394102Y107711D01*
X392706Y109107D01*
X392607Y109186D01*
X392513Y109270D01*
X392471Y109294D01*
X392433Y109324D01*
X392319Y109378D01*
X392208Y109439D01*
X392161Y109452D01*
X392118Y109473D01*
X391994Y109499D01*
X391873Y109534D01*
X391812Y109539D01*
X391777Y109546D01*
X391729Y109545D01*
X391629Y109553D01*
X325532Y109553D01*
X325506Y109550D01*
X325480Y109552D01*
X325333Y109530D01*
X325186Y109513D01*
X325161Y109505D01*
X325135Y109501D01*
X324997Y109446D01*
X324858Y109396D01*
X324836Y109382D01*
X324811Y109372D01*
X324690Y109287D01*
X324565Y109207D01*
X324547Y109188D01*
X324525Y109173D01*
X324426Y109063D01*
X324323Y108956D01*
X324309Y108934D01*
X324292Y108914D01*
X324220Y108784D01*
X324144Y108657D01*
X324136Y108632D01*
X324123Y108609D01*
X324083Y108466D01*
X324038Y108325D01*
X324036Y108299D01*
X324028Y108274D01*
X324009Y108030D01*
X324009Y107375D01*
X321819Y102089D01*
X317773Y98043D01*
X312487Y95853D01*
X306765Y95853D01*
X301479Y98043D01*
X298003Y101519D01*
X297983Y101535D01*
X297966Y101555D01*
X297846Y101643D01*
X297730Y101735D01*
X297706Y101746D01*
X297685Y101762D01*
X297549Y101821D01*
X297415Y101884D01*
X297389Y101890D01*
X297365Y101900D01*
X297219Y101926D01*
X297074Y101958D01*
X297048Y101957D01*
X297022Y101962D01*
X296874Y101954D01*
X296726Y101952D01*
X296700Y101945D01*
X296674Y101944D01*
X296532Y101903D01*
X296388Y101867D01*
X296365Y101855D01*
X296339Y101847D01*
X296210Y101775D01*
X296078Y101707D01*
X296058Y101690D01*
X296035Y101677D01*
X295849Y101519D01*
X292373Y98043D01*
X287087Y95853D01*
X281365Y95853D01*
X276079Y98043D01*
X272033Y102089D01*
X271011Y104556D01*
X270991Y104592D01*
X270978Y104631D01*
X270906Y104744D01*
X270841Y104861D01*
X270814Y104891D01*
X270792Y104926D01*
X270697Y105020D01*
X270607Y105119D01*
X270574Y105142D01*
X270545Y105171D01*
X270431Y105241D01*
X270321Y105317D01*
X270283Y105332D01*
X270248Y105354D01*
X270121Y105396D01*
X269996Y105445D01*
X269956Y105451D01*
X269917Y105464D01*
X269784Y105476D01*
X269652Y105496D01*
X269611Y105493D01*
X269570Y105496D01*
X269438Y105478D01*
X269304Y105467D01*
X269265Y105454D01*
X269225Y105449D01*
X269100Y105401D01*
X268973Y105360D01*
X268938Y105339D01*
X268900Y105324D01*
X268789Y105249D01*
X268674Y105180D01*
X268645Y105152D01*
X268611Y105129D01*
X268520Y105031D01*
X268424Y104937D01*
X268402Y104903D01*
X268374Y104873D01*
X268246Y104665D01*
X268168Y104511D01*
X267157Y103120D01*
X265942Y101905D01*
X264551Y100894D01*
X263019Y100114D01*
X261619Y99659D01*
X261619Y117348D01*
X261616Y117374D01*
X261618Y117400D01*
X261596Y117547D01*
X261579Y117694D01*
X261571Y117719D01*
X261567Y117745D01*
X261512Y117882D01*
X261462Y118022D01*
X261448Y118044D01*
X261438Y118069D01*
X261353Y118190D01*
X261273Y118315D01*
X261254Y118333D01*
X261239Y118355D01*
X261129Y118454D01*
X261022Y118557D01*
X261000Y118571D01*
X260980Y118588D01*
X260923Y118620D01*
X260938Y118631D01*
X261063Y118711D01*
X261081Y118730D01*
X261103Y118745D01*
X261202Y118855D01*
X261305Y118962D01*
X261319Y118985D01*
X261336Y119004D01*
X261408Y119134D01*
X261484Y119261D01*
X261492Y119286D01*
X261505Y119309D01*
X261545Y119452D01*
X261590Y119593D01*
X261592Y119619D01*
X261600Y119644D01*
X261619Y119888D01*
X261619Y137577D01*
X263019Y137122D01*
X264551Y136342D01*
X265942Y135331D01*
X267157Y134116D01*
X268168Y132725D01*
X268246Y132571D01*
X268269Y132537D01*
X268285Y132500D01*
X268365Y132392D01*
X268439Y132281D01*
X268469Y132253D01*
X268493Y132220D01*
X268595Y132134D01*
X268693Y132042D01*
X268728Y132021D01*
X268759Y131995D01*
X268878Y131934D01*
X268994Y131867D01*
X269033Y131855D01*
X269069Y131836D01*
X269199Y131804D01*
X269327Y131765D01*
X269368Y131762D01*
X269407Y131752D01*
X269541Y131750D01*
X269675Y131741D01*
X269715Y131748D01*
X269756Y131747D01*
X269887Y131776D01*
X270019Y131797D01*
X270056Y131813D01*
X270096Y131821D01*
X270218Y131879D01*
X270341Y131930D01*
X270374Y131953D01*
X270411Y131971D01*
X270516Y132055D01*
X270625Y132132D01*
X270652Y132163D01*
X270683Y132188D01*
X270766Y132293D01*
X270855Y132394D01*
X270874Y132430D01*
X270899Y132462D01*
X271011Y132680D01*
X271920Y134875D01*
X271920Y134876D01*
X271952Y134988D01*
X272016Y135210D01*
X272016Y135211D01*
X272019Y135281D01*
X272033Y135558D01*
X272033Y135559D01*
X271997Y135801D01*
X251163Y226014D01*
X251161Y226018D01*
X251161Y226022D01*
X251086Y226254D01*
X250777Y226999D01*
X250777Y227509D01*
X250771Y227559D01*
X250774Y227610D01*
X250738Y227852D01*
X250623Y228349D01*
X250756Y229144D01*
X250757Y229147D01*
X250758Y229151D01*
X250777Y229395D01*
X250777Y230201D01*
X250972Y230672D01*
X250986Y230721D01*
X251008Y230767D01*
X251068Y231004D01*
X251152Y231507D01*
X251579Y232190D01*
X251580Y232194D01*
X251583Y232197D01*
X251694Y232415D01*
X252003Y233159D01*
X252363Y233520D01*
X252395Y233559D01*
X252432Y233594D01*
X252578Y233790D01*
X252848Y234222D01*
X253504Y234690D01*
X253507Y234693D01*
X253511Y234695D01*
X253697Y234853D01*
X254267Y235423D01*
X254738Y235619D01*
X254782Y235643D01*
X254830Y235660D01*
X255040Y235786D01*
X255455Y236082D01*
X256240Y236263D01*
X256244Y236265D01*
X256248Y236265D01*
X256480Y236340D01*
X257225Y236649D01*
X257735Y236649D01*
X257785Y236655D01*
X257836Y236652D01*
X258078Y236688D01*
X258575Y236803D01*
X259370Y236670D01*
X259373Y236669D01*
X259377Y236668D01*
X259621Y236649D01*
X441278Y236649D01*
X441304Y236652D01*
X441330Y236650D01*
X441477Y236672D01*
X441624Y236689D01*
X441649Y236697D01*
X441675Y236701D01*
X441813Y236756D01*
X441952Y236806D01*
X441974Y236820D01*
X441999Y236830D01*
X442120Y236915D01*
X442245Y236995D01*
X442263Y237014D01*
X442285Y237029D01*
X442384Y237139D01*
X442487Y237246D01*
X442501Y237268D01*
X442518Y237288D01*
X442590Y237418D01*
X442666Y237545D01*
X442674Y237570D01*
X442687Y237593D01*
X442727Y237736D01*
X442772Y237877D01*
X442774Y237903D01*
X442782Y237928D01*
X442801Y238172D01*
X442801Y834721D01*
X444027Y837679D01*
X497091Y890743D01*
X500049Y891969D01*
X509965Y891969D01*
X510015Y891974D01*
X510065Y891972D01*
X510188Y891994D01*
X510311Y892009D01*
X510358Y892026D01*
X510408Y892035D01*
X510522Y892084D01*
X510639Y892126D01*
X510681Y892153D01*
X510728Y892173D01*
X510827Y892248D01*
X510932Y892315D01*
X510967Y892351D01*
X511007Y892381D01*
X511088Y892476D01*
X511174Y892566D01*
X511200Y892609D01*
X511232Y892647D01*
X511289Y892758D01*
X511353Y892865D01*
X511368Y892913D01*
X511391Y892958D01*
X511421Y893078D01*
X511459Y893197D01*
X511463Y893247D01*
X511475Y893296D01*
X511477Y893420D01*
X511487Y893544D01*
X511480Y893594D01*
X511480Y893644D01*
X511454Y893766D01*
X511435Y893889D01*
X511417Y893936D01*
X511406Y893985D01*
X511353Y894097D01*
X511307Y894213D01*
X511278Y894254D01*
X511256Y894300D01*
X511179Y894397D01*
X511108Y894499D01*
X511070Y894533D01*
X511039Y894572D01*
X510941Y894649D01*
X510849Y894732D01*
X510805Y894757D01*
X510765Y894788D01*
X510548Y894899D01*
X509045Y895522D01*
X503770Y900796D01*
X500915Y907688D01*
X500915Y915148D01*
X503770Y922040D01*
X509044Y927314D01*
X515936Y930169D01*
X523396Y930169D01*
X530288Y927314D01*
X535562Y922040D01*
X538417Y915148D01*
X538417Y907688D01*
X535562Y900796D01*
X530287Y895522D01*
X525718Y893629D01*
X525674Y893605D01*
X525627Y893588D01*
X525522Y893520D01*
X525414Y893460D01*
X525376Y893426D01*
X525334Y893399D01*
X525248Y893309D01*
X525155Y893226D01*
X525127Y893184D01*
X525092Y893148D01*
X525028Y893041D01*
X524957Y892939D01*
X524939Y892892D01*
X524913Y892849D01*
X524875Y892731D01*
X524829Y892615D01*
X524822Y892565D01*
X524807Y892517D01*
X524797Y892393D01*
X524779Y892270D01*
X524783Y892220D01*
X524779Y892170D01*
X524797Y892047D01*
X524808Y891923D01*
X524823Y891875D01*
X524830Y891825D01*
X524876Y891710D01*
X524915Y891591D01*
X524941Y891548D01*
X524959Y891501D01*
X525030Y891399D01*
X525094Y891293D01*
X525129Y891256D01*
X525158Y891215D01*
X525250Y891132D01*
X525337Y891043D01*
X525380Y891015D01*
X525417Y890982D01*
X525526Y890922D01*
X525630Y890854D01*
X525678Y890837D01*
X525722Y890813D01*
X525842Y890779D01*
X525959Y890738D01*
X526009Y890732D01*
X526057Y890718D01*
X526301Y890699D01*
X618335Y890699D01*
X618461Y890713D01*
X618587Y890720D01*
X618633Y890733D01*
X618681Y890739D01*
X618800Y890781D01*
X618922Y890816D01*
X618964Y890840D01*
X619009Y890856D01*
X619116Y890925D01*
X619226Y890986D01*
X619272Y891026D01*
X619302Y891045D01*
X619336Y891080D01*
X619412Y891145D01*
X631919Y903652D01*
X631998Y903751D01*
X632082Y903845D01*
X632106Y903887D01*
X632136Y903925D01*
X632190Y904039D01*
X632251Y904150D01*
X632264Y904196D01*
X632285Y904240D01*
X632311Y904363D01*
X632346Y904485D01*
X632351Y904546D01*
X632358Y904581D01*
X632357Y904629D01*
X632365Y904729D01*
X632365Y912092D01*
X633591Y915050D01*
X636069Y917529D01*
X648635Y930095D01*
X648636Y930095D01*
X651114Y932573D01*
X654072Y933799D01*
X1010315Y933799D01*
X1013273Y932573D01*
X1057113Y888733D01*
X1058339Y885775D01*
X1058339Y878580D01*
X1058347Y878505D01*
X1058346Y878428D01*
X1058367Y878332D01*
X1058379Y878234D01*
X1058404Y878162D01*
X1058421Y878088D01*
X1058463Y877999D01*
X1058496Y877906D01*
X1058538Y877842D01*
X1058570Y877773D01*
X1058632Y877696D01*
X1058685Y877613D01*
X1058740Y877560D01*
X1058788Y877500D01*
X1058865Y877439D01*
X1058936Y877371D01*
X1059001Y877332D01*
X1059061Y877284D01*
X1059195Y877216D01*
X1059235Y877192D01*
X1059253Y877186D01*
X1059279Y877173D01*
X1062999Y875632D01*
X1069688Y868943D01*
X1073309Y860202D01*
X1073309Y850742D01*
X1069688Y842001D01*
X1062999Y835312D01*
X1054258Y831691D01*
X1044798Y831691D01*
X1036057Y835312D01*
X1029368Y842001D01*
X1025747Y850742D01*
X1025747Y860202D01*
X1029368Y868943D01*
X1036057Y875632D01*
X1041301Y877804D01*
X1041368Y877841D01*
X1041439Y877870D01*
X1041520Y877926D01*
X1041606Y877974D01*
X1041662Y878025D01*
X1041725Y878069D01*
X1041791Y878142D01*
X1041864Y878208D01*
X1041907Y878271D01*
X1041958Y878327D01*
X1042006Y878413D01*
X1042062Y878494D01*
X1042090Y878566D01*
X1042127Y878632D01*
X1042154Y878727D01*
X1042190Y878819D01*
X1042201Y878894D01*
X1042222Y878968D01*
X1042234Y879117D01*
X1042241Y879163D01*
X1042239Y879183D01*
X1042241Y879212D01*
X1042241Y880209D01*
X1042227Y880335D01*
X1042220Y880461D01*
X1042207Y880507D01*
X1042201Y880555D01*
X1042159Y880674D01*
X1042124Y880796D01*
X1042100Y880838D01*
X1042084Y880883D01*
X1042015Y880990D01*
X1041954Y881100D01*
X1041914Y881146D01*
X1041895Y881176D01*
X1041860Y881210D01*
X1041795Y881286D01*
X1005826Y917255D01*
X1005727Y917334D01*
X1005633Y917418D01*
X1005591Y917442D01*
X1005553Y917472D01*
X1005439Y917526D01*
X1005328Y917587D01*
X1005282Y917600D01*
X1005238Y917621D01*
X1005115Y917647D01*
X1004993Y917682D01*
X1004932Y917687D01*
X1004897Y917694D01*
X1004849Y917693D01*
X1004749Y917701D01*
X659638Y917701D01*
X659512Y917687D01*
X659386Y917680D01*
X659340Y917667D01*
X659292Y917661D01*
X659173Y917619D01*
X659051Y917584D01*
X659009Y917560D01*
X658964Y917544D01*
X658857Y917475D01*
X658747Y917414D01*
X658701Y917374D01*
X658671Y917355D01*
X658637Y917320D01*
X658561Y917255D01*
X648909Y907603D01*
X648830Y907504D01*
X648746Y907410D01*
X648722Y907368D01*
X648692Y907330D01*
X648638Y907216D01*
X648577Y907105D01*
X648564Y907059D01*
X648543Y907015D01*
X648517Y906892D01*
X648482Y906770D01*
X648477Y906709D01*
X648470Y906674D01*
X648471Y906626D01*
X648463Y906526D01*
X648463Y899163D01*
X647237Y896205D01*
X630795Y879762D01*
X630716Y879663D01*
X630632Y879569D01*
X630608Y879527D01*
X630578Y879489D01*
X630524Y879375D01*
X630463Y879264D01*
X630450Y879218D01*
X630429Y879174D01*
X630403Y879051D01*
X630368Y878929D01*
X630363Y878868D01*
X630356Y878833D01*
X630357Y878785D01*
X630349Y878685D01*
X630349Y854185D01*
X630352Y854159D01*
X630350Y854134D01*
X630361Y854061D01*
X630362Y853985D01*
X630380Y853913D01*
X630389Y853839D01*
X630398Y853813D01*
X630401Y853789D01*
X630428Y853722D01*
X630447Y853647D01*
X630481Y853581D01*
X630506Y853511D01*
X630522Y853486D01*
X630530Y853465D01*
X630570Y853408D01*
X630607Y853337D01*
X630655Y853280D01*
X630695Y853218D01*
X630717Y853197D01*
X630729Y853179D01*
X630779Y853134D01*
X630832Y853072D01*
X630892Y853027D01*
X630946Y852976D01*
X630973Y852960D01*
X630988Y852946D01*
X631046Y852914D01*
X631113Y852864D01*
X631181Y852835D01*
X631245Y852797D01*
X631275Y852787D01*
X631293Y852777D01*
X631356Y852760D01*
X631433Y852726D01*
X631506Y852713D01*
X631577Y852691D01*
X631609Y852688D01*
X631628Y852683D01*
X631715Y852676D01*
X631776Y852665D01*
X631821Y852667D01*
X631872Y852663D01*
X631873Y852663D01*
X631892Y852665D01*
X631924Y852663D01*
X632024Y852677D01*
X632124Y852683D01*
X632177Y852698D01*
X632219Y852703D01*
X632239Y852710D01*
X632269Y852714D01*
X632362Y852751D01*
X632459Y852779D01*
X632505Y852805D01*
X632548Y852820D01*
X632567Y852833D01*
X632593Y852843D01*
X632675Y852900D01*
X632763Y852949D01*
X632811Y852991D01*
X632840Y853009D01*
X632858Y853027D01*
X632879Y853042D01*
X632903Y853068D01*
X632949Y853108D01*
X639071Y859230D01*
X646977Y862505D01*
X655535Y862505D01*
X663441Y859230D01*
X669492Y853179D01*
X672767Y845273D01*
X672767Y836715D01*
X669492Y828809D01*
X663441Y822758D01*
X655535Y819483D01*
X646977Y819483D01*
X645155Y820238D01*
X645010Y820279D01*
X644867Y820325D01*
X644843Y820327D01*
X644820Y820334D01*
X644669Y820341D01*
X644520Y820353D01*
X644496Y820350D01*
X644472Y820351D01*
X644324Y820324D01*
X644175Y820301D01*
X644153Y820293D01*
X644129Y820288D01*
X643991Y820228D01*
X643851Y820173D01*
X643831Y820159D01*
X643809Y820149D01*
X643688Y820060D01*
X643565Y819974D01*
X643549Y819956D01*
X643529Y819941D01*
X643432Y819827D01*
X643332Y819715D01*
X643320Y819694D01*
X643304Y819675D01*
X643236Y819542D01*
X643163Y819410D01*
X643157Y819387D01*
X643146Y819365D01*
X643109Y819220D01*
X643068Y819075D01*
X643066Y819045D01*
X643061Y819027D01*
X643061Y818980D01*
X643049Y818831D01*
X643049Y712120D01*
X643052Y712094D01*
X643050Y712068D01*
X643072Y711921D01*
X643089Y711774D01*
X643097Y711749D01*
X643101Y711723D01*
X643156Y711585D01*
X643206Y711446D01*
X643220Y711424D01*
X643230Y711399D01*
X643315Y711278D01*
X643395Y711153D01*
X643414Y711135D01*
X643429Y711113D01*
X643539Y711014D01*
X643646Y710911D01*
X643668Y710897D01*
X643688Y710880D01*
X643818Y710808D01*
X643945Y710732D01*
X643970Y710724D01*
X643993Y710711D01*
X644136Y710671D01*
X644277Y710626D01*
X644303Y710624D01*
X644328Y710616D01*
X644572Y710597D01*
X649814Y710597D01*
X654820Y708523D01*
X658652Y704692D01*
X660725Y699685D01*
X660725Y694267D01*
X658652Y689260D01*
X654820Y685429D01*
X650955Y683828D01*
X650815Y683750D01*
X650674Y683675D01*
X650663Y683666D01*
X650651Y683659D01*
X650532Y683551D01*
X650412Y683446D01*
X650403Y683434D01*
X650392Y683425D01*
X650302Y683293D01*
X650208Y683163D01*
X650202Y683150D01*
X650194Y683138D01*
X650136Y682990D01*
X650074Y682841D01*
X650072Y682827D01*
X650066Y682814D01*
X650043Y682655D01*
X650017Y682498D01*
X650018Y682483D01*
X650016Y682469D01*
X650029Y682309D01*
X650039Y682150D01*
X650043Y682136D01*
X650044Y682122D01*
X650094Y681969D01*
X650140Y681816D01*
X650147Y681804D01*
X650152Y681790D01*
X650234Y681653D01*
X650314Y681514D01*
X650324Y681504D01*
X650331Y681491D01*
X650443Y681376D01*
X650552Y681260D01*
X650564Y681252D01*
X650574Y681241D01*
X650710Y681154D01*
X650842Y681066D01*
X650858Y681059D01*
X650867Y681053D01*
X650904Y681040D01*
X650944Y681024D01*
X652430Y680266D01*
X653724Y679326D01*
X654855Y678195D01*
X655795Y676901D01*
X656521Y675476D01*
X656963Y674115D01*
X640501Y674115D01*
X640475Y674112D01*
X640449Y674114D01*
X640302Y674092D01*
X640155Y674075D01*
X640130Y674067D01*
X640104Y674063D01*
X639966Y674008D01*
X639826Y673958D01*
X639804Y673944D01*
X639780Y673934D01*
X639658Y673849D01*
X639534Y673769D01*
X639515Y673750D01*
X639494Y673735D01*
X639480Y673719D01*
X639395Y673801D01*
X639372Y673815D01*
X639353Y673832D01*
X639223Y673904D01*
X639095Y673980D01*
X639071Y673988D01*
X639048Y674001D01*
X638905Y674041D01*
X638764Y674086D01*
X638737Y674088D01*
X638712Y674096D01*
X638468Y674115D01*
X622006Y674115D01*
X622448Y675476D01*
X623174Y676901D01*
X624114Y678195D01*
X625245Y679326D01*
X626539Y680266D01*
X628071Y681047D01*
X628080Y681053D01*
X628194Y681102D01*
X628205Y681111D01*
X628219Y681117D01*
X628345Y681215D01*
X628474Y681310D01*
X628483Y681321D01*
X628494Y681330D01*
X628596Y681455D01*
X628699Y681576D01*
X628705Y681589D01*
X628714Y681600D01*
X628784Y681744D01*
X628857Y681886D01*
X628861Y681901D01*
X628867Y681913D01*
X628903Y682069D01*
X628942Y682225D01*
X628942Y682239D01*
X628945Y682253D01*
X628944Y682413D01*
X628947Y682573D01*
X628944Y682587D01*
X628943Y682602D01*
X628906Y682757D01*
X628872Y682914D01*
X628866Y682927D01*
X628863Y682941D01*
X628791Y683085D01*
X628723Y683228D01*
X628714Y683239D01*
X628707Y683253D01*
X628604Y683377D01*
X628505Y683501D01*
X628494Y683510D01*
X628485Y683521D01*
X628357Y683618D01*
X628232Y683717D01*
X628216Y683724D01*
X628207Y683732D01*
X628172Y683747D01*
X628014Y683828D01*
X624149Y685429D01*
X620317Y689260D01*
X618244Y694267D01*
X618244Y699685D01*
X620317Y704692D01*
X624149Y708523D01*
X626011Y709294D01*
X626078Y709331D01*
X626149Y709360D01*
X626230Y709416D01*
X626316Y709464D01*
X626372Y709515D01*
X626435Y709559D01*
X626501Y709632D01*
X626574Y709698D01*
X626617Y709761D01*
X626668Y709817D01*
X626716Y709904D01*
X626772Y709984D01*
X626800Y710056D01*
X626837Y710122D01*
X626864Y710217D01*
X626900Y710309D01*
X626911Y710384D01*
X626932Y710458D01*
X626944Y710607D01*
X626951Y710653D01*
X626949Y710673D01*
X626951Y710702D01*
X626951Y815185D01*
X626937Y815311D01*
X626930Y815437D01*
X626917Y815483D01*
X626911Y815531D01*
X626869Y815650D01*
X626834Y815772D01*
X626810Y815814D01*
X626794Y815859D01*
X626725Y815966D01*
X626664Y816076D01*
X626624Y816122D01*
X626605Y816152D01*
X626570Y816186D01*
X626505Y816262D01*
X615477Y827291D01*
X614251Y830249D01*
X614251Y873078D01*
X614248Y873104D01*
X614250Y873130D01*
X614228Y873277D01*
X614211Y873424D01*
X614203Y873449D01*
X614199Y873475D01*
X614144Y873613D01*
X614094Y873752D01*
X614080Y873774D01*
X614070Y873799D01*
X613985Y873920D01*
X613905Y874045D01*
X613886Y874063D01*
X613871Y874085D01*
X613761Y874184D01*
X613654Y874287D01*
X613632Y874301D01*
X613612Y874318D01*
X613482Y874390D01*
X613355Y874466D01*
X613330Y874474D01*
X613307Y874487D01*
X613164Y874527D01*
X613023Y874572D01*
X612997Y874574D01*
X612972Y874582D01*
X612728Y874601D01*
X545219Y874601D01*
X545119Y874590D01*
X545019Y874588D01*
X544947Y874570D01*
X544873Y874561D01*
X544778Y874527D01*
X544681Y874503D01*
X544615Y874469D01*
X544545Y874444D01*
X544460Y874389D01*
X544371Y874343D01*
X544314Y874295D01*
X544252Y874255D01*
X544182Y874183D01*
X544105Y874118D01*
X544061Y874058D01*
X544010Y874004D01*
X543958Y873918D01*
X543898Y873837D01*
X543869Y873769D01*
X543831Y873705D01*
X543800Y873609D01*
X543760Y873517D01*
X543747Y873444D01*
X543724Y873373D01*
X543716Y873273D01*
X543699Y873174D01*
X543702Y873100D01*
X543697Y873026D01*
X543711Y872926D01*
X543717Y872826D01*
X543737Y872755D01*
X543748Y872681D01*
X543785Y872588D01*
X543813Y872491D01*
X543849Y872426D01*
X543877Y872357D01*
X543934Y872275D01*
X543983Y872187D01*
X544048Y872111D01*
X544076Y872071D01*
X544102Y872047D01*
X544142Y872001D01*
X544990Y871153D01*
X545391Y870183D01*
X545429Y870116D01*
X545457Y870045D01*
X545513Y869964D01*
X545561Y869878D01*
X545612Y869822D01*
X545656Y869759D01*
X545729Y869693D01*
X545795Y869620D01*
X545858Y869577D01*
X545915Y869526D01*
X546001Y869478D01*
X546082Y869422D01*
X546153Y869394D01*
X546220Y869357D01*
X546314Y869330D01*
X546406Y869294D01*
X546481Y869283D01*
X546555Y869262D01*
X546704Y869250D01*
X546751Y869243D01*
X546770Y869245D01*
X546799Y869243D01*
X548280Y869243D01*
X550678Y868249D01*
X580231Y838697D01*
X580330Y838618D01*
X580423Y838534D01*
X580466Y838510D01*
X580504Y838480D01*
X580618Y838426D01*
X580728Y838365D01*
X580775Y838352D01*
X580819Y838331D01*
X580942Y838305D01*
X581064Y838270D01*
X581125Y838265D01*
X581159Y838258D01*
X581207Y838259D01*
X581308Y838251D01*
X592144Y838251D01*
X594349Y837337D01*
X596037Y835649D01*
X596951Y833444D01*
X596951Y817556D01*
X596037Y815351D01*
X594349Y813663D01*
X592144Y812749D01*
X576256Y812749D01*
X574051Y813663D01*
X572363Y815351D01*
X571449Y817556D01*
X571449Y828392D01*
X571435Y828518D01*
X571428Y828644D01*
X571415Y828691D01*
X571409Y828739D01*
X571367Y828858D01*
X571332Y828979D01*
X571308Y829021D01*
X571292Y829067D01*
X571223Y829173D01*
X571162Y829283D01*
X571122Y829329D01*
X571103Y829360D01*
X571068Y829393D01*
X571003Y829469D01*
X546667Y853806D01*
X546646Y853822D01*
X546629Y853842D01*
X546510Y853930D01*
X546394Y854022D01*
X546370Y854034D01*
X546349Y854049D01*
X546213Y854108D01*
X546079Y854171D01*
X546053Y854177D01*
X546029Y854187D01*
X545883Y854214D01*
X545738Y854245D01*
X545712Y854244D01*
X545686Y854249D01*
X545537Y854241D01*
X545390Y854239D01*
X545364Y854232D01*
X545338Y854231D01*
X545195Y854190D01*
X545052Y854154D01*
X545028Y854142D01*
X545003Y854135D01*
X544874Y854062D01*
X544742Y853994D01*
X544722Y853977D01*
X544699Y853964D01*
X544513Y853806D01*
X541802Y851095D01*
X541786Y851075D01*
X541766Y851058D01*
X541677Y850938D01*
X541585Y850822D01*
X541574Y850798D01*
X541558Y850777D01*
X541500Y850641D01*
X541436Y850507D01*
X541431Y850481D01*
X541420Y850457D01*
X541394Y850311D01*
X541363Y850166D01*
X541363Y850140D01*
X541359Y850114D01*
X541366Y849966D01*
X541369Y849818D01*
X541375Y849792D01*
X541377Y849766D01*
X541418Y849624D01*
X541454Y849480D01*
X541466Y849457D01*
X541473Y849431D01*
X541546Y849302D01*
X541613Y849170D01*
X541630Y849150D01*
X541643Y849127D01*
X541802Y848941D01*
X544990Y845753D01*
X547257Y840280D01*
X547257Y834356D01*
X546855Y833386D01*
X546834Y833313D01*
X546804Y833243D01*
X546786Y833146D01*
X546759Y833051D01*
X546756Y832975D01*
X546742Y832900D01*
X546747Y832801D01*
X546742Y832703D01*
X546756Y832628D01*
X546760Y832551D01*
X546787Y832457D01*
X546805Y832360D01*
X546835Y832290D01*
X546857Y832217D01*
X546905Y832131D01*
X546944Y832040D01*
X546989Y831979D01*
X547027Y831912D01*
X547123Y831799D01*
X547152Y831761D01*
X547166Y831748D01*
X547185Y831726D01*
X587682Y791230D01*
X589731Y789180D01*
X590058Y788391D01*
X590095Y788324D01*
X590124Y788253D01*
X590180Y788172D01*
X590228Y788086D01*
X590279Y788030D01*
X590322Y787967D01*
X590395Y787901D01*
X590462Y787828D01*
X590525Y787785D01*
X590581Y787734D01*
X590667Y787686D01*
X590748Y787630D01*
X590819Y787602D01*
X590886Y787565D01*
X590981Y787538D01*
X591073Y787502D01*
X591148Y787491D01*
X591222Y787470D01*
X591371Y787458D01*
X591417Y787451D01*
X591436Y787453D01*
X591465Y787451D01*
X592144Y787451D01*
X594349Y786537D01*
X596037Y784849D01*
X596951Y782644D01*
X596951Y766756D01*
X596037Y764551D01*
X594349Y762863D01*
X592144Y761949D01*
X576256Y761949D01*
X574051Y762863D01*
X572363Y764551D01*
X571449Y766756D01*
X571449Y782644D01*
X572363Y784849D01*
X572908Y785394D01*
X572924Y785415D01*
X572944Y785432D01*
X573033Y785551D01*
X573125Y785667D01*
X573136Y785691D01*
X573151Y785712D01*
X573210Y785848D01*
X573274Y785982D01*
X573279Y786008D01*
X573289Y786032D01*
X573316Y786178D01*
X573347Y786323D01*
X573347Y786349D01*
X573351Y786375D01*
X573344Y786524D01*
X573341Y786672D01*
X573335Y786697D01*
X573333Y786723D01*
X573292Y786866D01*
X573256Y787010D01*
X573244Y787033D01*
X573237Y787058D01*
X573164Y787187D01*
X573096Y787319D01*
X573079Y787339D01*
X573067Y787362D01*
X572908Y787549D01*
X549857Y810600D01*
X549779Y810662D01*
X549706Y810732D01*
X549642Y810770D01*
X549584Y810816D01*
X549493Y810859D01*
X549407Y810911D01*
X549336Y810933D01*
X549269Y810965D01*
X549171Y810986D01*
X549075Y811017D01*
X549001Y811023D01*
X548928Y811038D01*
X548828Y811037D01*
X548728Y811045D01*
X548654Y811034D01*
X548580Y811032D01*
X548483Y811008D01*
X548383Y810993D01*
X548314Y810966D01*
X548242Y810947D01*
X548152Y810901D01*
X548059Y810864D01*
X547998Y810822D01*
X547932Y810788D01*
X547855Y810723D01*
X547773Y810665D01*
X547723Y810610D01*
X547667Y810562D01*
X547607Y810481D01*
X547540Y810407D01*
X547504Y810342D01*
X547459Y810282D01*
X547420Y810190D01*
X547371Y810102D01*
X547351Y810030D01*
X547321Y809962D01*
X547304Y809863D01*
X547276Y809766D01*
X547268Y809666D01*
X547260Y809619D01*
X547262Y809583D01*
X547257Y809522D01*
X547257Y808956D01*
X544990Y803483D01*
X541802Y800295D01*
X541786Y800275D01*
X541766Y800258D01*
X541677Y800138D01*
X541585Y800022D01*
X541574Y799998D01*
X541558Y799977D01*
X541500Y799841D01*
X541436Y799707D01*
X541431Y799681D01*
X541420Y799657D01*
X541394Y799511D01*
X541363Y799366D01*
X541363Y799340D01*
X541359Y799314D01*
X541366Y799166D01*
X541369Y799018D01*
X541375Y798992D01*
X541377Y798966D01*
X541418Y798824D01*
X541454Y798680D01*
X541466Y798657D01*
X541473Y798631D01*
X541546Y798502D01*
X541613Y798370D01*
X541630Y798350D01*
X541643Y798327D01*
X541802Y798141D01*
X544990Y794953D01*
X547257Y789480D01*
X547257Y783556D01*
X544990Y778083D01*
X541802Y774895D01*
X541786Y774875D01*
X541766Y774858D01*
X541677Y774738D01*
X541585Y774622D01*
X541574Y774598D01*
X541558Y774577D01*
X541500Y774441D01*
X541436Y774307D01*
X541431Y774281D01*
X541420Y774257D01*
X541394Y774111D01*
X541363Y773966D01*
X541363Y773940D01*
X541359Y773914D01*
X541366Y773766D01*
X541369Y773618D01*
X541375Y773592D01*
X541377Y773566D01*
X541418Y773424D01*
X541454Y773280D01*
X541466Y773257D01*
X541473Y773231D01*
X541546Y773102D01*
X541613Y772970D01*
X541630Y772950D01*
X541643Y772927D01*
X541802Y772741D01*
X544990Y769553D01*
X545391Y768583D01*
X545429Y768516D01*
X545457Y768445D01*
X545513Y768364D01*
X545561Y768278D01*
X545612Y768222D01*
X545656Y768159D01*
X545729Y768093D01*
X545795Y768020D01*
X545858Y767977D01*
X545915Y767926D01*
X546001Y767878D01*
X546082Y767822D01*
X546153Y767794D01*
X546220Y767757D01*
X546314Y767730D01*
X546406Y767694D01*
X546481Y767683D01*
X546555Y767662D01*
X546704Y767650D01*
X546751Y767643D01*
X546770Y767645D01*
X546799Y767643D01*
X560980Y767643D01*
X563378Y766649D01*
X580231Y749797D01*
X580330Y749718D01*
X580423Y749634D01*
X580466Y749610D01*
X580504Y749580D01*
X580618Y749526D01*
X580728Y749465D01*
X580775Y749452D01*
X580819Y749431D01*
X580942Y749405D01*
X581064Y749370D01*
X581125Y749365D01*
X581159Y749358D01*
X581207Y749359D01*
X581308Y749351D01*
X592144Y749351D01*
X594349Y748437D01*
X596037Y746749D01*
X596951Y744544D01*
X596951Y728656D01*
X596037Y726451D01*
X594349Y724763D01*
X592144Y723849D01*
X576256Y723849D01*
X574051Y724763D01*
X572363Y726451D01*
X571449Y728656D01*
X571449Y739492D01*
X571435Y739618D01*
X571428Y739744D01*
X571415Y739791D01*
X571409Y739839D01*
X571367Y739958D01*
X571332Y740079D01*
X571308Y740121D01*
X571292Y740167D01*
X571223Y740273D01*
X571162Y740383D01*
X571122Y740430D01*
X571103Y740460D01*
X571068Y740493D01*
X571003Y740569D01*
X557425Y754147D01*
X557326Y754226D01*
X557233Y754310D01*
X557190Y754334D01*
X557152Y754364D01*
X557038Y754418D01*
X556928Y754479D01*
X556881Y754492D01*
X556837Y754513D01*
X556714Y754539D01*
X556592Y754574D01*
X556531Y754579D01*
X556497Y754586D01*
X556449Y754585D01*
X556348Y754593D01*
X546799Y754593D01*
X546723Y754585D01*
X546646Y754586D01*
X546550Y754565D01*
X546453Y754553D01*
X546381Y754528D01*
X546306Y754511D01*
X546217Y754469D01*
X546124Y754436D01*
X546060Y754394D01*
X545991Y754362D01*
X545914Y754300D01*
X545832Y754247D01*
X545779Y754192D01*
X545719Y754144D01*
X545658Y754067D01*
X545589Y753996D01*
X545550Y753931D01*
X545503Y753871D01*
X545435Y753737D01*
X545411Y753697D01*
X545405Y753679D01*
X545391Y753653D01*
X544990Y752683D01*
X541802Y749495D01*
X541786Y749475D01*
X541766Y749458D01*
X541677Y749338D01*
X541585Y749222D01*
X541574Y749198D01*
X541558Y749177D01*
X541500Y749041D01*
X541436Y748907D01*
X541431Y748881D01*
X541420Y748857D01*
X541394Y748711D01*
X541363Y748566D01*
X541363Y748540D01*
X541359Y748514D01*
X541366Y748366D01*
X541369Y748218D01*
X541375Y748192D01*
X541377Y748166D01*
X541418Y748024D01*
X541454Y747880D01*
X541466Y747857D01*
X541473Y747831D01*
X541546Y747702D01*
X541613Y747570D01*
X541630Y747550D01*
X541643Y747527D01*
X541802Y747341D01*
X544990Y744153D01*
X547257Y738680D01*
X547257Y732756D01*
X544990Y727283D01*
X541802Y724095D01*
X541786Y724075D01*
X541766Y724058D01*
X541677Y723938D01*
X541585Y723822D01*
X541574Y723798D01*
X541558Y723777D01*
X541500Y723641D01*
X541436Y723507D01*
X541431Y723481D01*
X541420Y723457D01*
X541394Y723311D01*
X541363Y723166D01*
X541363Y723140D01*
X541359Y723114D01*
X541366Y722966D01*
X541369Y722818D01*
X541375Y722792D01*
X541377Y722766D01*
X541418Y722624D01*
X541454Y722480D01*
X541466Y722457D01*
X541473Y722431D01*
X541546Y722302D01*
X541613Y722170D01*
X541630Y722150D01*
X541643Y722127D01*
X541802Y721941D01*
X544990Y718753D01*
X547257Y713280D01*
X547257Y707356D01*
X544990Y701883D01*
X541802Y698695D01*
X541786Y698675D01*
X541766Y698658D01*
X541677Y698538D01*
X541585Y698422D01*
X541574Y698398D01*
X541558Y698377D01*
X541500Y698241D01*
X541436Y698107D01*
X541431Y698081D01*
X541420Y698057D01*
X541394Y697911D01*
X541363Y697766D01*
X541363Y697740D01*
X541359Y697714D01*
X541366Y697566D01*
X541369Y697418D01*
X541375Y697392D01*
X541377Y697366D01*
X541418Y697224D01*
X541454Y697080D01*
X541466Y697057D01*
X541473Y697031D01*
X541546Y696902D01*
X541613Y696770D01*
X541630Y696750D01*
X541643Y696727D01*
X541802Y696541D01*
X544990Y693353D01*
X547257Y687880D01*
X547257Y681956D01*
X544990Y676483D01*
X541802Y673295D01*
X541786Y673275D01*
X541766Y673258D01*
X541677Y673138D01*
X541585Y673022D01*
X541574Y672998D01*
X541558Y672977D01*
X541500Y672841D01*
X541436Y672707D01*
X541431Y672681D01*
X541420Y672657D01*
X541394Y672511D01*
X541363Y672366D01*
X541363Y672340D01*
X541359Y672314D01*
X541366Y672166D01*
X541369Y672018D01*
X541375Y671992D01*
X541377Y671966D01*
X541418Y671824D01*
X541454Y671680D01*
X541466Y671657D01*
X541473Y671631D01*
X541546Y671502D01*
X541613Y671370D01*
X541630Y671350D01*
X541643Y671327D01*
X541802Y671141D01*
X544990Y667953D01*
X547257Y662480D01*
X547257Y656556D01*
X544990Y651083D01*
X541802Y647895D01*
X541786Y647875D01*
X541766Y647858D01*
X541677Y647738D01*
X541585Y647622D01*
X541574Y647598D01*
X541558Y647577D01*
X541500Y647441D01*
X541436Y647307D01*
X541431Y647281D01*
X541420Y647257D01*
X541394Y647111D01*
X541363Y646966D01*
X541363Y646940D01*
X541359Y646914D01*
X541366Y646766D01*
X541369Y646618D01*
X541375Y646592D01*
X541377Y646566D01*
X541418Y646424D01*
X541454Y646280D01*
X541466Y646257D01*
X541473Y646231D01*
X541546Y646102D01*
X541613Y645970D01*
X541630Y645950D01*
X541643Y645927D01*
X541802Y645741D01*
X544990Y642553D01*
X547257Y637080D01*
X547257Y631156D01*
X546855Y630186D01*
X546834Y630113D01*
X546804Y630043D01*
X546786Y629946D01*
X546759Y629851D01*
X546756Y629775D01*
X546742Y629700D01*
X546747Y629601D01*
X546742Y629503D01*
X546756Y629428D01*
X546760Y629351D01*
X546787Y629257D01*
X546805Y629160D01*
X546835Y629090D01*
X546857Y629017D01*
X546905Y628931D01*
X546944Y628840D01*
X546989Y628779D01*
X547027Y628712D01*
X547123Y628599D01*
X547152Y628561D01*
X547166Y628548D01*
X547185Y628526D01*
X613082Y562630D01*
X615131Y560580D01*
X615458Y559791D01*
X615495Y559724D01*
X615524Y559653D01*
X615580Y559572D01*
X615628Y559486D01*
X615679Y559430D01*
X615722Y559367D01*
X615795Y559301D01*
X615862Y559228D01*
X615925Y559185D01*
X615981Y559134D01*
X616067Y559086D01*
X616148Y559030D01*
X616219Y559002D01*
X616286Y558965D01*
X616381Y558938D01*
X616473Y558902D01*
X616548Y558891D01*
X616622Y558870D01*
X616771Y558858D01*
X616817Y558851D01*
X616836Y558853D01*
X616865Y558851D01*
X617544Y558851D01*
X619749Y557937D01*
X621437Y556249D01*
X622351Y554044D01*
X622351Y538156D01*
X621437Y535951D01*
X619749Y534263D01*
X617544Y533349D01*
X601656Y533349D01*
X599451Y534263D01*
X597763Y535951D01*
X596849Y538156D01*
X596849Y554044D01*
X597763Y556249D01*
X598308Y556794D01*
X598324Y556815D01*
X598344Y556832D01*
X598433Y556951D01*
X598525Y557067D01*
X598536Y557091D01*
X598551Y557112D01*
X598610Y557248D01*
X598674Y557382D01*
X598679Y557408D01*
X598689Y557432D01*
X598716Y557578D01*
X598747Y557723D01*
X598747Y557749D01*
X598751Y557775D01*
X598744Y557924D01*
X598741Y558072D01*
X598735Y558097D01*
X598733Y558123D01*
X598692Y558266D01*
X598656Y558410D01*
X598644Y558433D01*
X598637Y558458D01*
X598564Y558587D01*
X598496Y558719D01*
X598479Y558739D01*
X598467Y558762D01*
X598308Y558949D01*
X549857Y607400D01*
X549779Y607462D01*
X549706Y607532D01*
X549642Y607570D01*
X549584Y607616D01*
X549493Y607659D01*
X549407Y607711D01*
X549336Y607733D01*
X549269Y607765D01*
X549171Y607786D01*
X549075Y607817D01*
X549001Y607823D01*
X548928Y607838D01*
X548828Y607837D01*
X548728Y607845D01*
X548654Y607834D01*
X548580Y607832D01*
X548483Y607808D01*
X548383Y607793D01*
X548314Y607766D01*
X548242Y607747D01*
X548152Y607701D01*
X548059Y607664D01*
X547998Y607622D01*
X547932Y607588D01*
X547855Y607523D01*
X547773Y607465D01*
X547723Y607410D01*
X547667Y607362D01*
X547607Y607281D01*
X547540Y607207D01*
X547504Y607142D01*
X547459Y607082D01*
X547420Y606990D01*
X547371Y606902D01*
X547351Y606830D01*
X547321Y606762D01*
X547304Y606663D01*
X547276Y606566D01*
X547268Y606466D01*
X547260Y606419D01*
X547262Y606383D01*
X547257Y606322D01*
X547257Y605756D01*
X544990Y600283D01*
X541802Y597095D01*
X541786Y597075D01*
X541766Y597058D01*
X541677Y596938D01*
X541585Y596822D01*
X541574Y596798D01*
X541558Y596777D01*
X541500Y596641D01*
X541436Y596507D01*
X541431Y596481D01*
X541420Y596457D01*
X541394Y596311D01*
X541363Y596166D01*
X541363Y596140D01*
X541359Y596114D01*
X541366Y595966D01*
X541369Y595818D01*
X541375Y595792D01*
X541377Y595766D01*
X541418Y595624D01*
X541454Y595480D01*
X541466Y595457D01*
X541473Y595431D01*
X541546Y595302D01*
X541613Y595170D01*
X541630Y595150D01*
X541643Y595127D01*
X541802Y594941D01*
X544990Y591753D01*
X547257Y586280D01*
X547257Y580356D01*
X546855Y579386D01*
X546834Y579313D01*
X546804Y579243D01*
X546786Y579146D01*
X546759Y579051D01*
X546756Y578975D01*
X546742Y578900D01*
X546747Y578801D01*
X546742Y578703D01*
X546756Y578628D01*
X546760Y578551D01*
X546787Y578457D01*
X546805Y578360D01*
X546835Y578290D01*
X546857Y578217D01*
X546905Y578131D01*
X546944Y578040D01*
X546989Y577979D01*
X547027Y577912D01*
X547123Y577799D01*
X547152Y577761D01*
X547166Y577748D01*
X547185Y577726D01*
X589731Y535180D01*
X590058Y534391D01*
X590095Y534324D01*
X590124Y534253D01*
X590180Y534172D01*
X590228Y534086D01*
X590279Y534030D01*
X590322Y533967D01*
X590395Y533901D01*
X590462Y533828D01*
X590525Y533785D01*
X590581Y533734D01*
X590667Y533686D01*
X590748Y533630D01*
X590819Y533602D01*
X590886Y533565D01*
X590981Y533538D01*
X591073Y533502D01*
X591148Y533491D01*
X591222Y533470D01*
X591371Y533458D01*
X591417Y533451D01*
X591436Y533453D01*
X591465Y533451D01*
X592144Y533451D01*
X594349Y532537D01*
X596037Y530849D01*
X596951Y528644D01*
X596951Y512756D01*
X596037Y510551D01*
X594349Y508863D01*
X592144Y507949D01*
X576256Y507949D01*
X574051Y508863D01*
X572363Y510551D01*
X571449Y512756D01*
X571449Y528644D01*
X572363Y530849D01*
X572908Y531394D01*
X572924Y531415D01*
X572944Y531432D01*
X573032Y531551D01*
X573125Y531667D01*
X573136Y531691D01*
X573151Y531712D01*
X573210Y531848D01*
X573274Y531982D01*
X573279Y532008D01*
X573289Y532032D01*
X573316Y532178D01*
X573347Y532323D01*
X573347Y532349D01*
X573351Y532375D01*
X573344Y532524D01*
X573341Y532672D01*
X573335Y532697D01*
X573333Y532723D01*
X573292Y532866D01*
X573256Y533010D01*
X573244Y533033D01*
X573237Y533058D01*
X573164Y533187D01*
X573096Y533319D01*
X573079Y533339D01*
X573067Y533362D01*
X572908Y533549D01*
X549857Y556600D01*
X549779Y556662D01*
X549706Y556732D01*
X549642Y556770D01*
X549584Y556816D01*
X549493Y556859D01*
X549407Y556911D01*
X549336Y556933D01*
X549269Y556965D01*
X549171Y556986D01*
X549075Y557017D01*
X549001Y557023D01*
X548928Y557038D01*
X548828Y557037D01*
X548728Y557045D01*
X548654Y557034D01*
X548580Y557032D01*
X548483Y557008D01*
X548383Y556993D01*
X548314Y556966D01*
X548242Y556947D01*
X548152Y556901D01*
X548059Y556864D01*
X547998Y556822D01*
X547932Y556788D01*
X547855Y556723D01*
X547773Y556665D01*
X547723Y556610D01*
X547667Y556562D01*
X547607Y556481D01*
X547540Y556407D01*
X547504Y556342D01*
X547459Y556282D01*
X547420Y556190D01*
X547371Y556102D01*
X547351Y556030D01*
X547321Y555962D01*
X547304Y555863D01*
X547276Y555766D01*
X547268Y555666D01*
X547260Y555619D01*
X547262Y555583D01*
X547257Y555522D01*
X547257Y554956D01*
X546855Y553986D01*
X546834Y553913D01*
X546804Y553843D01*
X546786Y553746D01*
X546759Y553651D01*
X546756Y553575D01*
X546742Y553500D01*
X546747Y553401D01*
X546742Y553303D01*
X546756Y553228D01*
X546760Y553151D01*
X546787Y553057D01*
X546805Y552960D01*
X546835Y552890D01*
X546857Y552817D01*
X546905Y552731D01*
X546944Y552640D01*
X546989Y552579D01*
X547027Y552512D01*
X547123Y552399D01*
X547152Y552361D01*
X547166Y552348D01*
X547185Y552326D01*
X562282Y537230D01*
X564331Y535180D01*
X565325Y532782D01*
X565325Y496874D01*
X565328Y496848D01*
X565326Y496822D01*
X565348Y496675D01*
X565365Y496528D01*
X565373Y496503D01*
X565377Y496477D01*
X565432Y496339D01*
X565482Y496200D01*
X565496Y496178D01*
X565506Y496153D01*
X565591Y496032D01*
X565671Y495907D01*
X565690Y495889D01*
X565705Y495867D01*
X565815Y495768D01*
X565922Y495665D01*
X565944Y495651D01*
X565964Y495634D01*
X566094Y495562D01*
X566221Y495486D01*
X566246Y495478D01*
X566269Y495465D01*
X566412Y495425D01*
X566553Y495380D01*
X566579Y495378D01*
X566604Y495370D01*
X566718Y495361D01*
X568949Y494437D01*
X570637Y492749D01*
X571551Y490544D01*
X571551Y474656D01*
X570637Y472451D01*
X568949Y470763D01*
X566744Y469849D01*
X550856Y469849D01*
X548651Y470763D01*
X546926Y472487D01*
X546872Y472593D01*
X546856Y472612D01*
X546844Y472633D01*
X546743Y472744D01*
X546646Y472859D01*
X546627Y472873D01*
X546610Y472891D01*
X546486Y472977D01*
X546366Y473066D01*
X546343Y473075D01*
X546324Y473089D01*
X546183Y473145D01*
X546046Y473204D01*
X546022Y473208D01*
X545999Y473217D01*
X545851Y473239D01*
X545703Y473266D01*
X545678Y473264D01*
X545655Y473268D01*
X545505Y473255D01*
X545354Y473248D01*
X545331Y473241D01*
X545307Y473239D01*
X545164Y473193D01*
X545020Y473151D01*
X544999Y473139D01*
X544976Y473132D01*
X544846Y473054D01*
X544715Y472981D01*
X544693Y472962D01*
X544677Y472952D01*
X544643Y472919D01*
X544529Y472823D01*
X541802Y470095D01*
X541786Y470075D01*
X541766Y470058D01*
X541677Y469938D01*
X541585Y469822D01*
X541574Y469798D01*
X541558Y469777D01*
X541500Y469641D01*
X541436Y469507D01*
X541431Y469481D01*
X541420Y469457D01*
X541394Y469311D01*
X541363Y469166D01*
X541363Y469140D01*
X541359Y469114D01*
X541366Y468966D01*
X541369Y468818D01*
X541375Y468792D01*
X541377Y468766D01*
X541418Y468624D01*
X541454Y468480D01*
X541466Y468457D01*
X541473Y468431D01*
X541545Y468302D01*
X541613Y468170D01*
X541630Y468150D01*
X541643Y468127D01*
X541802Y467941D01*
X544990Y464753D01*
X547257Y459280D01*
X547257Y453356D01*
X544990Y447883D01*
X540801Y443694D01*
X539128Y443001D01*
X539044Y442955D01*
X538956Y442917D01*
X538892Y442870D01*
X538823Y442832D01*
X538752Y442768D01*
X538675Y442711D01*
X538624Y442651D01*
X538565Y442598D01*
X538511Y442519D01*
X538448Y442446D01*
X538412Y442376D01*
X538367Y442311D01*
X538332Y442222D01*
X538288Y442137D01*
X538268Y442060D01*
X538239Y441987D01*
X538225Y441892D01*
X538201Y441800D01*
X538200Y441721D01*
X538188Y441642D01*
X538196Y441547D01*
X538194Y441451D01*
X538210Y441374D01*
X538217Y441295D01*
X538246Y441204D01*
X538266Y441110D01*
X538300Y441039D01*
X538324Y440963D01*
X538373Y440881D01*
X538414Y440795D01*
X538463Y440732D01*
X538504Y440664D01*
X538570Y440596D01*
X538630Y440521D01*
X538712Y440450D01*
X538747Y440414D01*
X538774Y440397D01*
X538815Y440362D01*
X539813Y439637D01*
X541085Y438365D01*
X542142Y436909D01*
X542959Y435306D01*
X543515Y433595D01*
X543543Y433417D01*
X533342Y433417D01*
X533316Y433414D01*
X533290Y433416D01*
X533143Y433394D01*
X532996Y433377D01*
X532971Y433369D01*
X532945Y433365D01*
X532808Y433310D01*
X532668Y433260D01*
X532646Y433246D01*
X532621Y433236D01*
X532500Y433151D01*
X532375Y433071D01*
X532357Y433052D01*
X532335Y433037D01*
X532236Y432927D01*
X532133Y432820D01*
X532119Y432798D01*
X532102Y432778D01*
X532030Y432648D01*
X531954Y432521D01*
X531946Y432496D01*
X531933Y432473D01*
X531893Y432330D01*
X531848Y432189D01*
X531846Y432163D01*
X531839Y432138D01*
X531819Y431894D01*
X531819Y429942D01*
X531822Y429916D01*
X531820Y429890D01*
X531842Y429743D01*
X531859Y429596D01*
X531868Y429571D01*
X531872Y429545D01*
X531926Y429407D01*
X531976Y429268D01*
X531991Y429246D01*
X532000Y429221D01*
X532085Y429100D01*
X532165Y428975D01*
X532184Y428957D01*
X532199Y428935D01*
X532309Y428836D01*
X532416Y428733D01*
X532439Y428719D01*
X532458Y428702D01*
X532588Y428630D01*
X532715Y428554D01*
X532740Y428546D01*
X532763Y428533D01*
X532906Y428493D01*
X533047Y428448D01*
X533073Y428445D01*
X533098Y428438D01*
X533342Y428419D01*
X543543Y428419D01*
X543515Y428241D01*
X542959Y426530D01*
X542142Y424927D01*
X541085Y423471D01*
X539813Y422199D01*
X538815Y421474D01*
X538745Y421410D01*
X538668Y421353D01*
X538617Y421292D01*
X538559Y421239D01*
X538505Y421160D01*
X538443Y421087D01*
X538407Y421016D01*
X538362Y420951D01*
X538328Y420862D01*
X538284Y420776D01*
X538265Y420700D01*
X538236Y420626D01*
X538223Y420531D01*
X538200Y420438D01*
X538199Y420359D01*
X538188Y420281D01*
X538196Y420186D01*
X538195Y420090D01*
X538212Y420012D01*
X538219Y419934D01*
X538249Y419843D01*
X538269Y419749D01*
X538303Y419678D01*
X538328Y419603D01*
X538378Y419521D01*
X538419Y419435D01*
X538468Y419373D01*
X538510Y419305D01*
X538577Y419237D01*
X538636Y419162D01*
X538699Y419113D01*
X538754Y419057D01*
X538835Y419005D01*
X538910Y418946D01*
X539007Y418897D01*
X539049Y418870D01*
X539079Y418860D01*
X539128Y418835D01*
X540801Y418142D01*
X544990Y413953D01*
X547041Y409002D01*
X547114Y408871D01*
X547182Y408737D01*
X547198Y408718D01*
X547210Y408697D01*
X547311Y408586D01*
X547408Y408471D01*
X547428Y408457D01*
X547444Y408439D01*
X547568Y408354D01*
X547689Y408264D01*
X547711Y408255D01*
X547731Y408241D01*
X547871Y408186D01*
X548009Y408126D01*
X548032Y408122D01*
X548055Y408113D01*
X548204Y408091D01*
X548352Y408064D01*
X548376Y408066D01*
X548400Y408062D01*
X548550Y408075D01*
X548700Y408082D01*
X548723Y408089D01*
X548747Y408091D01*
X548890Y408137D01*
X549035Y408179D01*
X549056Y408191D01*
X549079Y408198D01*
X549208Y408276D01*
X549339Y408349D01*
X549361Y408368D01*
X549377Y408378D01*
X549411Y408411D01*
X549525Y408508D01*
X699231Y558214D01*
X699232Y558215D01*
X699234Y558217D01*
X699342Y558354D01*
X699448Y558487D01*
X699449Y558489D01*
X699450Y558490D01*
X699561Y558708D01*
X699805Y559295D01*
X728105Y587596D01*
X728184Y587695D01*
X728268Y587789D01*
X728292Y587831D01*
X728322Y587869D01*
X728376Y587983D01*
X728437Y588094D01*
X728450Y588140D01*
X728471Y588184D01*
X728497Y588307D01*
X728532Y588429D01*
X728537Y588490D01*
X728544Y588525D01*
X728543Y588573D01*
X728551Y588673D01*
X728551Y702895D01*
X729777Y705853D01*
X735597Y711673D01*
X738555Y712899D01*
X764382Y712899D01*
X764408Y712902D01*
X764434Y712900D01*
X764581Y712922D01*
X764728Y712939D01*
X764753Y712947D01*
X764779Y712951D01*
X764917Y713006D01*
X765056Y713056D01*
X765078Y713070D01*
X765103Y713080D01*
X765224Y713165D01*
X765349Y713245D01*
X765367Y713264D01*
X765389Y713279D01*
X765488Y713389D01*
X765591Y713496D01*
X765605Y713518D01*
X765622Y713538D01*
X765694Y713668D01*
X765770Y713795D01*
X765778Y713820D01*
X765791Y713843D01*
X765831Y713986D01*
X765876Y714127D01*
X765878Y714153D01*
X765886Y714178D01*
X765905Y714422D01*
X765905Y720259D01*
X767979Y725266D01*
X771031Y728318D01*
X771110Y728417D01*
X771194Y728511D01*
X771218Y728553D01*
X771248Y728591D01*
X771302Y728705D01*
X771363Y728816D01*
X771376Y728862D01*
X771397Y728906D01*
X771423Y729029D01*
X771458Y729151D01*
X771463Y729212D01*
X771470Y729247D01*
X771469Y729295D01*
X771477Y729395D01*
X771477Y736677D01*
X771651Y737096D01*
X771672Y737170D01*
X771702Y737240D01*
X771720Y737337D01*
X771747Y737432D01*
X771750Y737508D01*
X771764Y737583D01*
X771759Y737682D01*
X771764Y737780D01*
X771750Y737855D01*
X771746Y737931D01*
X771719Y738026D01*
X771701Y738123D01*
X771671Y738193D01*
X771649Y738266D01*
X771601Y738352D01*
X771562Y738442D01*
X771517Y738504D01*
X771479Y738570D01*
X771448Y738607D01*
X770207Y741603D01*
X770207Y877443D01*
X770199Y877518D01*
X770200Y877594D01*
X770179Y877691D01*
X770167Y877789D01*
X770142Y877860D01*
X770126Y877935D01*
X770083Y878024D01*
X770050Y878117D01*
X770009Y878181D01*
X769976Y878250D01*
X769914Y878327D01*
X769861Y878410D01*
X769806Y878463D01*
X769759Y878522D01*
X769721Y878552D01*
X766633Y881640D01*
X766613Y881656D01*
X766596Y881676D01*
X766476Y881764D01*
X766360Y881856D01*
X766336Y881868D01*
X766315Y881883D01*
X766179Y881942D01*
X766045Y882005D01*
X766019Y882011D01*
X765995Y882021D01*
X765849Y882048D01*
X765704Y882079D01*
X765678Y882078D01*
X765652Y882083D01*
X765504Y882075D01*
X765356Y882073D01*
X765330Y882066D01*
X765304Y882065D01*
X765162Y882024D01*
X765018Y881988D01*
X764995Y881976D01*
X764969Y881968D01*
X764840Y881896D01*
X764708Y881828D01*
X764688Y881811D01*
X764665Y881798D01*
X764479Y881640D01*
X761579Y878740D01*
X755919Y876395D01*
X749793Y876395D01*
X744133Y878740D01*
X741233Y881640D01*
X741213Y881656D01*
X741196Y881676D01*
X741076Y881764D01*
X740960Y881856D01*
X740936Y881868D01*
X740915Y881883D01*
X740779Y881942D01*
X740645Y882005D01*
X740619Y882011D01*
X740595Y882021D01*
X740449Y882048D01*
X740304Y882079D01*
X740278Y882078D01*
X740252Y882083D01*
X740104Y882075D01*
X739956Y882073D01*
X739930Y882066D01*
X739904Y882065D01*
X739762Y882024D01*
X739618Y881988D01*
X739595Y881976D01*
X739569Y881968D01*
X739440Y881896D01*
X739308Y881828D01*
X739288Y881811D01*
X739265Y881798D01*
X739079Y881640D01*
X736179Y878740D01*
X730519Y876395D01*
X724393Y876395D01*
X718733Y878740D01*
X715833Y881640D01*
X715813Y881656D01*
X715796Y881676D01*
X715676Y881764D01*
X715560Y881856D01*
X715536Y881868D01*
X715515Y881883D01*
X715379Y881942D01*
X715245Y882005D01*
X715219Y882011D01*
X715195Y882021D01*
X715049Y882048D01*
X714904Y882079D01*
X714878Y882078D01*
X714852Y882083D01*
X714704Y882075D01*
X714556Y882073D01*
X714530Y882066D01*
X714504Y882065D01*
X714362Y882024D01*
X714218Y881988D01*
X714195Y881976D01*
X714169Y881968D01*
X714040Y881896D01*
X713908Y881828D01*
X713888Y881811D01*
X713865Y881798D01*
X713679Y881640D01*
X710779Y878740D01*
X705119Y876395D01*
X698993Y876395D01*
X693333Y878740D01*
X690433Y881640D01*
X690413Y881656D01*
X690396Y881676D01*
X690276Y881764D01*
X690160Y881856D01*
X690136Y881868D01*
X690115Y881883D01*
X689979Y881942D01*
X689845Y882005D01*
X689819Y882011D01*
X689795Y882021D01*
X689649Y882048D01*
X689504Y882079D01*
X689478Y882078D01*
X689452Y882083D01*
X689304Y882075D01*
X689156Y882073D01*
X689130Y882066D01*
X689104Y882065D01*
X688962Y882024D01*
X688818Y881988D01*
X688795Y881976D01*
X688769Y881968D01*
X688640Y881896D01*
X688508Y881828D01*
X688488Y881811D01*
X688465Y881798D01*
X688279Y881640D01*
X685379Y878740D01*
X679719Y876395D01*
X673593Y876395D01*
X667933Y878740D01*
X663602Y883071D01*
X661257Y888731D01*
X661257Y894857D01*
X663602Y900517D01*
X667933Y904848D01*
X673593Y907193D01*
X679719Y907193D01*
X685379Y904848D01*
X688279Y901948D01*
X688299Y901932D01*
X688316Y901912D01*
X688436Y901824D01*
X688552Y901732D01*
X688576Y901720D01*
X688597Y901705D01*
X688733Y901646D01*
X688867Y901583D01*
X688893Y901577D01*
X688917Y901567D01*
X689063Y901540D01*
X689208Y901509D01*
X689234Y901510D01*
X689260Y901505D01*
X689408Y901513D01*
X689556Y901515D01*
X689582Y901522D01*
X689608Y901523D01*
X689750Y901564D01*
X689894Y901600D01*
X689917Y901612D01*
X689943Y901620D01*
X690072Y901692D01*
X690204Y901760D01*
X690224Y901777D01*
X690247Y901790D01*
X690433Y901948D01*
X693333Y904848D01*
X698993Y907193D01*
X705119Y907193D01*
X710779Y904848D01*
X713679Y901948D01*
X713699Y901932D01*
X713716Y901912D01*
X713836Y901824D01*
X713952Y901732D01*
X713976Y901720D01*
X713997Y901705D01*
X714133Y901646D01*
X714267Y901583D01*
X714293Y901577D01*
X714317Y901567D01*
X714463Y901540D01*
X714608Y901509D01*
X714634Y901510D01*
X714660Y901505D01*
X714808Y901513D01*
X714956Y901515D01*
X714982Y901522D01*
X715008Y901523D01*
X715150Y901564D01*
X715294Y901600D01*
X715317Y901612D01*
X715343Y901620D01*
X715472Y901692D01*
X715604Y901760D01*
X715624Y901777D01*
X715647Y901790D01*
X715833Y901948D01*
X718733Y904848D01*
X724393Y907193D01*
X730519Y907193D01*
X736179Y904848D01*
X739079Y901948D01*
X739099Y901932D01*
X739116Y901912D01*
X739236Y901824D01*
X739352Y901732D01*
X739376Y901720D01*
X739397Y901705D01*
X739533Y901646D01*
X739667Y901583D01*
X739693Y901577D01*
X739717Y901567D01*
X739863Y901540D01*
X740008Y901509D01*
X740034Y901510D01*
X740060Y901505D01*
X740208Y901513D01*
X740356Y901515D01*
X740382Y901522D01*
X740408Y901523D01*
X740550Y901564D01*
X740694Y901600D01*
X740717Y901612D01*
X740743Y901620D01*
X740872Y901692D01*
X741004Y901760D01*
X741024Y901777D01*
X741047Y901790D01*
X741233Y901948D01*
X744133Y904848D01*
X749793Y907193D01*
X755919Y907193D01*
X761579Y904848D01*
X764479Y901948D01*
X764499Y901932D01*
X764516Y901912D01*
X764636Y901824D01*
X764752Y901732D01*
X764776Y901720D01*
X764797Y901705D01*
X764933Y901646D01*
X765067Y901583D01*
X765093Y901577D01*
X765117Y901567D01*
X765263Y901540D01*
X765408Y901509D01*
X765434Y901510D01*
X765460Y901505D01*
X765608Y901513D01*
X765756Y901515D01*
X765782Y901522D01*
X765808Y901523D01*
X765950Y901564D01*
X766094Y901600D01*
X766117Y901612D01*
X766143Y901620D01*
X766272Y901692D01*
X766404Y901760D01*
X766424Y901777D01*
X766447Y901790D01*
X766633Y901948D01*
X769533Y904848D01*
X775193Y907193D01*
X781319Y907193D01*
X786979Y904848D01*
X789879Y901948D01*
X789899Y901932D01*
X789916Y901912D01*
X790036Y901824D01*
X790152Y901732D01*
X790176Y901720D01*
X790197Y901705D01*
X790333Y901646D01*
X790467Y901583D01*
X790493Y901577D01*
X790517Y901567D01*
X790663Y901540D01*
X790808Y901509D01*
X790834Y901510D01*
X790860Y901505D01*
X791008Y901513D01*
X791156Y901515D01*
X791182Y901522D01*
X791208Y901523D01*
X791350Y901564D01*
X791494Y901600D01*
X791517Y901612D01*
X791543Y901620D01*
X791672Y901692D01*
X791804Y901760D01*
X791824Y901777D01*
X791847Y901790D01*
X792033Y901948D01*
X794933Y904848D01*
X800593Y907193D01*
X806719Y907193D01*
X812379Y904848D01*
X816710Y900517D01*
X819055Y894857D01*
X819055Y888731D01*
X816710Y883071D01*
X814238Y880599D01*
X814176Y880521D01*
X814106Y880448D01*
X814068Y880384D01*
X814022Y880326D01*
X813979Y880235D01*
X813927Y880149D01*
X813904Y880078D01*
X813873Y880011D01*
X813852Y879913D01*
X813821Y879817D01*
X813815Y879743D01*
X813799Y879670D01*
X813801Y879570D01*
X813793Y879470D01*
X813804Y879396D01*
X813805Y879322D01*
X813830Y879225D01*
X813845Y879125D01*
X813872Y879056D01*
X813890Y878984D01*
X813936Y878895D01*
X813973Y878801D01*
X814016Y878740D01*
X814050Y878674D01*
X814115Y878598D01*
X814172Y878515D01*
X814227Y878465D01*
X814276Y878409D01*
X814357Y878349D01*
X814431Y878282D01*
X814496Y878246D01*
X814556Y878201D01*
X814648Y878162D01*
X814736Y878113D01*
X814808Y878093D01*
X814876Y878063D01*
X814975Y878046D01*
X815071Y878018D01*
X815172Y878010D01*
X815219Y878002D01*
X815255Y878004D01*
X815315Y877999D01*
X842797Y877999D01*
X842897Y878010D01*
X842997Y878012D01*
X843069Y878030D01*
X843143Y878039D01*
X843237Y878072D01*
X843335Y878097D01*
X843401Y878131D01*
X843471Y878156D01*
X843555Y878211D01*
X843645Y878257D01*
X843701Y878305D01*
X843764Y878345D01*
X843834Y878417D01*
X843910Y878482D01*
X843954Y878542D01*
X844006Y878596D01*
X844058Y878682D01*
X844117Y878763D01*
X844147Y878831D01*
X844185Y878895D01*
X844216Y878991D01*
X844255Y879083D01*
X844268Y879156D01*
X844291Y879227D01*
X844299Y879327D01*
X844317Y879426D01*
X844313Y879500D01*
X844319Y879574D01*
X844304Y879674D01*
X844299Y879774D01*
X844278Y879845D01*
X844267Y879919D01*
X844230Y880012D01*
X844202Y880109D01*
X844166Y880174D01*
X844139Y880243D01*
X844081Y880325D01*
X844032Y880413D01*
X843967Y880489D01*
X843940Y880529D01*
X843913Y880553D01*
X843874Y880599D01*
X841402Y883071D01*
X839057Y888731D01*
X839057Y894857D01*
X841402Y900517D01*
X845733Y904848D01*
X851393Y907193D01*
X857519Y907193D01*
X863179Y904848D01*
X867510Y900517D01*
X867895Y899588D01*
X867942Y899504D01*
X867979Y899417D01*
X868026Y899353D01*
X868064Y899284D01*
X868129Y899213D01*
X868185Y899136D01*
X868245Y899084D01*
X868298Y899025D01*
X868377Y898971D01*
X868450Y898909D01*
X868520Y898872D01*
X868585Y898827D01*
X868674Y898792D01*
X868759Y898748D01*
X868836Y898728D01*
X868909Y898699D01*
X869004Y898685D01*
X869097Y898662D01*
X869176Y898660D01*
X869254Y898649D01*
X869350Y898656D01*
X869445Y898654D01*
X869522Y898671D01*
X869601Y898677D01*
X869692Y898707D01*
X869786Y898727D01*
X869858Y898760D01*
X869933Y898785D01*
X870015Y898834D01*
X870102Y898874D01*
X870164Y898923D01*
X870232Y898964D01*
X870300Y899031D01*
X870375Y899090D01*
X870446Y899173D01*
X870482Y899207D01*
X870499Y899234D01*
X870535Y899276D01*
X870750Y899572D01*
X872078Y900900D01*
X873599Y902005D01*
X875273Y902858D01*
X877060Y903439D01*
X877317Y903479D01*
X877317Y892810D01*
X877320Y892784D01*
X877318Y892758D01*
X877340Y892611D01*
X877357Y892464D01*
X877365Y892439D01*
X877369Y892413D01*
X877424Y892276D01*
X877474Y892136D01*
X877488Y892114D01*
X877498Y892089D01*
X877583Y891968D01*
X877663Y891843D01*
X877682Y891825D01*
X877697Y891803D01*
X877807Y891704D01*
X877914Y891601D01*
X877936Y891587D01*
X877956Y891570D01*
X878086Y891498D01*
X878213Y891422D01*
X878238Y891414D01*
X878261Y891401D01*
X878404Y891361D01*
X878545Y891316D01*
X878571Y891314D01*
X878596Y891307D01*
X878840Y891287D01*
X879349Y891287D01*
X879349Y890778D01*
X879352Y890752D01*
X879350Y890726D01*
X879372Y890579D01*
X879389Y890432D01*
X879398Y890407D01*
X879402Y890381D01*
X879456Y890243D01*
X879506Y890104D01*
X879521Y890082D01*
X879530Y890057D01*
X879615Y889936D01*
X879695Y889811D01*
X879714Y889793D01*
X879729Y889771D01*
X879839Y889672D01*
X879946Y889569D01*
X879969Y889555D01*
X879988Y889538D01*
X880118Y889466D01*
X880245Y889390D01*
X880270Y889382D01*
X880293Y889369D01*
X880436Y889329D01*
X880577Y889284D01*
X880603Y889281D01*
X880628Y889274D01*
X880872Y889255D01*
X904240Y889255D01*
X904266Y889258D01*
X904292Y889256D01*
X904439Y889278D01*
X904586Y889295D01*
X904611Y889303D01*
X904637Y889307D01*
X904774Y889362D01*
X904914Y889412D01*
X904936Y889426D01*
X904961Y889436D01*
X905082Y889521D01*
X905207Y889601D01*
X905225Y889620D01*
X905247Y889635D01*
X905346Y889745D01*
X905449Y889852D01*
X905463Y889874D01*
X905480Y889894D01*
X905552Y890023D01*
X905628Y890151D01*
X905636Y890176D01*
X905649Y890199D01*
X905689Y890342D01*
X905734Y890483D01*
X905736Y890509D01*
X905743Y890534D01*
X905763Y890778D01*
X905763Y891287D01*
X906272Y891287D01*
X906298Y891290D01*
X906324Y891288D01*
X906471Y891310D01*
X906618Y891327D01*
X906643Y891336D01*
X906669Y891340D01*
X906807Y891394D01*
X906946Y891444D01*
X906968Y891459D01*
X906993Y891468D01*
X907114Y891553D01*
X907239Y891633D01*
X907257Y891652D01*
X907279Y891667D01*
X907378Y891777D01*
X907481Y891884D01*
X907495Y891907D01*
X907512Y891926D01*
X907584Y892056D01*
X907660Y892183D01*
X907668Y892208D01*
X907681Y892231D01*
X907721Y892374D01*
X907766Y892515D01*
X907768Y892541D01*
X907776Y892566D01*
X907795Y892810D01*
X907795Y903479D01*
X908052Y903439D01*
X909839Y902858D01*
X911513Y902005D01*
X913034Y900900D01*
X914362Y899572D01*
X914577Y899276D01*
X914642Y899205D01*
X914699Y899128D01*
X914759Y899077D01*
X914813Y899019D01*
X914892Y898965D01*
X914965Y898903D01*
X915036Y898867D01*
X915101Y898823D01*
X915190Y898788D01*
X915275Y898745D01*
X915352Y898725D01*
X915426Y898697D01*
X915521Y898684D01*
X915614Y898660D01*
X915693Y898659D01*
X915771Y898648D01*
X915866Y898657D01*
X915962Y898655D01*
X916040Y898672D01*
X916118Y898679D01*
X916209Y898709D01*
X916303Y898730D01*
X916374Y898764D01*
X916449Y898789D01*
X916531Y898838D01*
X916617Y898879D01*
X916679Y898929D01*
X916747Y898970D01*
X916815Y899037D01*
X916890Y899097D01*
X916939Y899159D01*
X916995Y899215D01*
X917046Y899295D01*
X917106Y899370D01*
X917155Y899467D01*
X917182Y899509D01*
X917192Y899540D01*
X917217Y899588D01*
X917602Y900517D01*
X921933Y904848D01*
X927593Y907193D01*
X933719Y907193D01*
X939379Y904848D01*
X942279Y901948D01*
X942299Y901932D01*
X942316Y901912D01*
X942436Y901824D01*
X942552Y901732D01*
X942576Y901720D01*
X942597Y901705D01*
X942733Y901646D01*
X942867Y901583D01*
X942893Y901577D01*
X942917Y901567D01*
X943063Y901540D01*
X943208Y901509D01*
X943234Y901510D01*
X943260Y901505D01*
X943408Y901513D01*
X943556Y901515D01*
X943582Y901522D01*
X943608Y901523D01*
X943750Y901564D01*
X943894Y901600D01*
X943917Y901612D01*
X943943Y901620D01*
X944072Y901692D01*
X944204Y901760D01*
X944224Y901777D01*
X944247Y901790D01*
X944433Y901948D01*
X947333Y904848D01*
X952993Y907193D01*
X959119Y907193D01*
X964779Y904848D01*
X967679Y901948D01*
X967699Y901932D01*
X967716Y901912D01*
X967836Y901824D01*
X967952Y901732D01*
X967976Y901720D01*
X967997Y901705D01*
X968133Y901646D01*
X968267Y901583D01*
X968293Y901577D01*
X968317Y901567D01*
X968463Y901540D01*
X968608Y901509D01*
X968634Y901510D01*
X968660Y901505D01*
X968808Y901513D01*
X968956Y901515D01*
X968982Y901522D01*
X969008Y901523D01*
X969150Y901564D01*
X969294Y901600D01*
X969317Y901612D01*
X969343Y901620D01*
X969472Y901692D01*
X969604Y901760D01*
X969624Y901777D01*
X969647Y901790D01*
X969833Y901948D01*
X972733Y904848D01*
X978393Y907193D01*
X984519Y907193D01*
X990179Y904848D01*
X994510Y900517D01*
X996855Y894857D01*
X996855Y888731D01*
X994510Y883071D01*
X990179Y878740D01*
X984519Y876395D01*
X978393Y876395D01*
X972733Y878740D01*
X969833Y881640D01*
X969813Y881656D01*
X969796Y881676D01*
X969676Y881764D01*
X969560Y881856D01*
X969536Y881868D01*
X969515Y881883D01*
X969379Y881942D01*
X969245Y882005D01*
X969219Y882011D01*
X969195Y882021D01*
X969049Y882048D01*
X968904Y882079D01*
X968878Y882078D01*
X968852Y882083D01*
X968704Y882075D01*
X968556Y882073D01*
X968530Y882066D01*
X968504Y882065D01*
X968362Y882024D01*
X968218Y881988D01*
X968195Y881976D01*
X968169Y881968D01*
X968040Y881896D01*
X967908Y881828D01*
X967888Y881811D01*
X967865Y881798D01*
X967679Y881640D01*
X964779Y878740D01*
X959119Y876395D01*
X952993Y876395D01*
X947333Y878740D01*
X944433Y881640D01*
X944413Y881656D01*
X944396Y881676D01*
X944276Y881764D01*
X944160Y881856D01*
X944136Y881868D01*
X944115Y881883D01*
X943979Y881942D01*
X943845Y882005D01*
X943819Y882011D01*
X943795Y882021D01*
X943649Y882048D01*
X943504Y882079D01*
X943478Y882078D01*
X943452Y882083D01*
X943304Y882075D01*
X943156Y882073D01*
X943130Y882066D01*
X943104Y882065D01*
X942962Y882024D01*
X942818Y881988D01*
X942795Y881976D01*
X942769Y881968D01*
X942640Y881896D01*
X942508Y881828D01*
X942488Y881811D01*
X942465Y881798D01*
X942279Y881640D01*
X939379Y878740D01*
X933719Y876395D01*
X929811Y876395D01*
X929685Y876381D01*
X929559Y876374D01*
X929513Y876361D01*
X929465Y876355D01*
X929346Y876313D01*
X929224Y876278D01*
X929182Y876254D01*
X929137Y876238D01*
X929030Y876169D01*
X928920Y876108D01*
X928874Y876068D01*
X928844Y876049D01*
X928810Y876014D01*
X928734Y875949D01*
X915911Y863127D01*
X912953Y861901D01*
X789098Y861901D01*
X789072Y861898D01*
X789046Y861900D01*
X788899Y861878D01*
X788752Y861861D01*
X788727Y861853D01*
X788701Y861849D01*
X788563Y861794D01*
X788424Y861744D01*
X788402Y861730D01*
X788377Y861720D01*
X788256Y861635D01*
X788131Y861555D01*
X788113Y861536D01*
X788091Y861521D01*
X787992Y861411D01*
X787889Y861304D01*
X787875Y861282D01*
X787858Y861262D01*
X787786Y861132D01*
X787710Y861005D01*
X787702Y860980D01*
X787689Y860957D01*
X787649Y860814D01*
X787604Y860673D01*
X787602Y860647D01*
X787594Y860622D01*
X787575Y860378D01*
X787575Y746172D01*
X787578Y746146D01*
X787576Y746120D01*
X787598Y745973D01*
X787615Y745826D01*
X787623Y745801D01*
X787627Y745775D01*
X787682Y745637D01*
X787732Y745498D01*
X787746Y745476D01*
X787756Y745451D01*
X787841Y745330D01*
X787921Y745205D01*
X787940Y745187D01*
X787955Y745165D01*
X788065Y745066D01*
X788172Y744963D01*
X788194Y744949D01*
X788214Y744932D01*
X788344Y744860D01*
X788471Y744784D01*
X788496Y744776D01*
X788519Y744763D01*
X788662Y744723D01*
X788803Y744678D01*
X788829Y744676D01*
X788854Y744668D01*
X789098Y744649D01*
X1076021Y744649D01*
X1078979Y743423D01*
X1099023Y723379D01*
X1100249Y720421D01*
X1100249Y367536D01*
X1099023Y364578D01*
X1049266Y314821D01*
X1046308Y313595D01*
X1028650Y313595D01*
X1026670Y314415D01*
X1026668Y314416D01*
X1026666Y314417D01*
X1026505Y314463D01*
X1026335Y314511D01*
X1026333Y314511D01*
X1026331Y314512D01*
X1026087Y314531D01*
X1005252Y314531D01*
X1005226Y314528D01*
X1005200Y314530D01*
X1005053Y314508D01*
X1004906Y314491D01*
X1004881Y314483D01*
X1004855Y314479D01*
X1004717Y314424D01*
X1004578Y314374D01*
X1004556Y314360D01*
X1004531Y314350D01*
X1004410Y314265D01*
X1004285Y314185D01*
X1004267Y314166D01*
X1004245Y314151D01*
X1004146Y314041D01*
X1004043Y313934D01*
X1004029Y313912D01*
X1004012Y313892D01*
X1003940Y313762D01*
X1003864Y313635D01*
X1003856Y313610D01*
X1003843Y313587D01*
X1003803Y313444D01*
X1003758Y313303D01*
X1003756Y313277D01*
X1003748Y313252D01*
X1003729Y313008D01*
X1003729Y121631D01*
X1003743Y121505D01*
X1003750Y121379D01*
X1003763Y121332D01*
X1003769Y121284D01*
X1003811Y121165D01*
X1003846Y121044D01*
X1003870Y121002D01*
X1003886Y120956D01*
X1003955Y120850D01*
X1004016Y120740D01*
X1004056Y120693D01*
X1004075Y120663D01*
X1004110Y120630D01*
X1004175Y120553D01*
X1006057Y118671D01*
X1006971Y116466D01*
X1006971Y113081D01*
X1006976Y113031D01*
X1006974Y112981D01*
X1006996Y112858D01*
X1007011Y112735D01*
X1007028Y112688D01*
X1007037Y112638D01*
X1007086Y112524D01*
X1007128Y112407D01*
X1007155Y112365D01*
X1007175Y112318D01*
X1007250Y112218D01*
X1007317Y112114D01*
X1007353Y112079D01*
X1007383Y112039D01*
X1007478Y111958D01*
X1007568Y111872D01*
X1007611Y111846D01*
X1007649Y111813D01*
X1007760Y111757D01*
X1007867Y111693D01*
X1007915Y111678D01*
X1007960Y111655D01*
X1008080Y111625D01*
X1008199Y111587D01*
X1008249Y111583D01*
X1008298Y111571D01*
X1008422Y111569D01*
X1008546Y111559D01*
X1008596Y111566D01*
X1008646Y111566D01*
X1008768Y111592D01*
X1008891Y111610D01*
X1008938Y111629D01*
X1008987Y111640D01*
X1009099Y111693D01*
X1009215Y111739D01*
X1009256Y111768D01*
X1009302Y111790D01*
X1009399Y111867D01*
X1009501Y111938D01*
X1009535Y111975D01*
X1009574Y112007D01*
X1009651Y112105D01*
X1009734Y112197D01*
X1009759Y112241D01*
X1009790Y112281D01*
X1009901Y112498D01*
X1011508Y116378D01*
X1014684Y119554D01*
X1018834Y121273D01*
X1023326Y121273D01*
X1027476Y119554D01*
X1030652Y116378D01*
X1032373Y112223D01*
X1032421Y112135D01*
X1032461Y112043D01*
X1032506Y111983D01*
X1032542Y111918D01*
X1032609Y111844D01*
X1032669Y111763D01*
X1032726Y111715D01*
X1032776Y111660D01*
X1032859Y111603D01*
X1032935Y111538D01*
X1033002Y111504D01*
X1033063Y111462D01*
X1033156Y111425D01*
X1033246Y111380D01*
X1033318Y111362D01*
X1033387Y111334D01*
X1033486Y111320D01*
X1033584Y111295D01*
X1033658Y111294D01*
X1033732Y111283D01*
X1033832Y111292D01*
X1033932Y111290D01*
X1034005Y111306D01*
X1034079Y111312D01*
X1034175Y111343D01*
X1034273Y111365D01*
X1034340Y111397D01*
X1034411Y111419D01*
X1034497Y111471D01*
X1034588Y111514D01*
X1034646Y111561D01*
X1034709Y111599D01*
X1034782Y111669D01*
X1034860Y111732D01*
X1034906Y111790D01*
X1034959Y111842D01*
X1035014Y111927D01*
X1035076Y112005D01*
X1035122Y112095D01*
X1035148Y112135D01*
X1035160Y112169D01*
X1035187Y112223D01*
X1036908Y116378D01*
X1040084Y119554D01*
X1044234Y121273D01*
X1048726Y121273D01*
X1052876Y119554D01*
X1056052Y116378D01*
X1057771Y112228D01*
X1057771Y107788D01*
X1057773Y107764D01*
X1057772Y107741D01*
X1057786Y107645D01*
X1057792Y107536D01*
X1057805Y107489D01*
X1057811Y107441D01*
X1057821Y107412D01*
X1057823Y107397D01*
X1057854Y107320D01*
X1057888Y107201D01*
X1057912Y107159D01*
X1057928Y107113D01*
X1057949Y107081D01*
X1057952Y107073D01*
X1057981Y107031D01*
X1057997Y107007D01*
X1058058Y106897D01*
X1058098Y106850D01*
X1058117Y106820D01*
X1058149Y106790D01*
X1058151Y106787D01*
X1058155Y106783D01*
X1058217Y106710D01*
X1069057Y95871D01*
X1069156Y95792D01*
X1069249Y95708D01*
X1069292Y95684D01*
X1069330Y95654D01*
X1069444Y95600D01*
X1069554Y95539D01*
X1069601Y95526D01*
X1069645Y95505D01*
X1069768Y95479D01*
X1069890Y95444D01*
X1069951Y95439D01*
X1069985Y95432D01*
X1070033Y95433D01*
X1070134Y95425D01*
X1084152Y95425D01*
X1084178Y95428D01*
X1084204Y95426D01*
X1084351Y95448D01*
X1084498Y95465D01*
X1084523Y95473D01*
X1084549Y95477D01*
X1084687Y95532D01*
X1084826Y95582D01*
X1084848Y95596D01*
X1084873Y95606D01*
X1084994Y95691D01*
X1085119Y95771D01*
X1085137Y95790D01*
X1085159Y95805D01*
X1085258Y95915D01*
X1085361Y96022D01*
X1085375Y96044D01*
X1085392Y96064D01*
X1085464Y96194D01*
X1085540Y96321D01*
X1085548Y96346D01*
X1085561Y96369D01*
X1085601Y96512D01*
X1085646Y96653D01*
X1085648Y96679D01*
X1085656Y96704D01*
X1085675Y96948D01*
X1085675Y110966D01*
X1085661Y111092D01*
X1085654Y111218D01*
X1085641Y111265D01*
X1085635Y111313D01*
X1085593Y111432D01*
X1085558Y111553D01*
X1085534Y111595D01*
X1085518Y111641D01*
X1085449Y111747D01*
X1085388Y111857D01*
X1085348Y111904D01*
X1085329Y111934D01*
X1085294Y111967D01*
X1085229Y112043D01*
X1045493Y151779D01*
X1045394Y151858D01*
X1045301Y151942D01*
X1045258Y151966D01*
X1045220Y151996D01*
X1045106Y152050D01*
X1044996Y152111D01*
X1044949Y152124D01*
X1044905Y152145D01*
X1044782Y152171D01*
X1044660Y152206D01*
X1044599Y152211D01*
X1044565Y152218D01*
X1044517Y152217D01*
X1044416Y152225D01*
X1040102Y152225D01*
X1037704Y153219D01*
X1035869Y155054D01*
X1034875Y157452D01*
X1034875Y221838D01*
X1034872Y221864D01*
X1034874Y221890D01*
X1034852Y222037D01*
X1034835Y222184D01*
X1034827Y222209D01*
X1034823Y222235D01*
X1034768Y222373D01*
X1034718Y222512D01*
X1034704Y222534D01*
X1034694Y222559D01*
X1034609Y222680D01*
X1034529Y222805D01*
X1034510Y222823D01*
X1034495Y222845D01*
X1034385Y222944D01*
X1034278Y223047D01*
X1034256Y223061D01*
X1034236Y223078D01*
X1034106Y223150D01*
X1033979Y223226D01*
X1033954Y223234D01*
X1033931Y223247D01*
X1033788Y223287D01*
X1033647Y223332D01*
X1033621Y223334D01*
X1033596Y223342D01*
X1033352Y223361D01*
X1032369Y223361D01*
X1024985Y230745D01*
X1024985Y241187D01*
X1032369Y248571D01*
X1042811Y248571D01*
X1050195Y241187D01*
X1050195Y230745D01*
X1048371Y228921D01*
X1048292Y228822D01*
X1048208Y228728D01*
X1048184Y228686D01*
X1048154Y228648D01*
X1048100Y228534D01*
X1048039Y228423D01*
X1048026Y228377D01*
X1048005Y228333D01*
X1047979Y228210D01*
X1047944Y228088D01*
X1047939Y228027D01*
X1047932Y227992D01*
X1047933Y227944D01*
X1047925Y227844D01*
X1047925Y166758D01*
X1047933Y166682D01*
X1047932Y166605D01*
X1047953Y166509D01*
X1047965Y166412D01*
X1047990Y166340D01*
X1048007Y166265D01*
X1048049Y166176D01*
X1048082Y166083D01*
X1048124Y166019D01*
X1048156Y165950D01*
X1048218Y165873D01*
X1048271Y165791D01*
X1048326Y165737D01*
X1048374Y165678D01*
X1048451Y165617D01*
X1048522Y165548D01*
X1048587Y165509D01*
X1048647Y165462D01*
X1048780Y165394D01*
X1048821Y165370D01*
X1048839Y165364D01*
X1048865Y165350D01*
X1051446Y164281D01*
X1097731Y117996D01*
X1098725Y115598D01*
X1098725Y87602D01*
X1097731Y85204D01*
X1095896Y83369D01*
X1093498Y82375D01*
X1065502Y82375D01*
X1063104Y83369D01*
X1048228Y98245D01*
X1048129Y98324D01*
X1048035Y98408D01*
X1047992Y98432D01*
X1047955Y98462D01*
X1047840Y98516D01*
X1047730Y98577D01*
X1047683Y98590D01*
X1047639Y98611D01*
X1047516Y98637D01*
X1047394Y98672D01*
X1047333Y98677D01*
X1047299Y98684D01*
X1047251Y98683D01*
X1047150Y98691D01*
X1044234Y98691D01*
X1040084Y100410D01*
X1036908Y103586D01*
X1035187Y107741D01*
X1035139Y107829D01*
X1035098Y107921D01*
X1035054Y107981D01*
X1035018Y108046D01*
X1034951Y108120D01*
X1034891Y108201D01*
X1034834Y108249D01*
X1034784Y108304D01*
X1034701Y108361D01*
X1034625Y108426D01*
X1034558Y108459D01*
X1034497Y108502D01*
X1034404Y108539D01*
X1034314Y108584D01*
X1034242Y108602D01*
X1034173Y108630D01*
X1034074Y108644D01*
X1033976Y108669D01*
X1033902Y108670D01*
X1033828Y108681D01*
X1033728Y108672D01*
X1033628Y108674D01*
X1033555Y108658D01*
X1033481Y108652D01*
X1033385Y108621D01*
X1033287Y108599D01*
X1033220Y108567D01*
X1033149Y108545D01*
X1033063Y108493D01*
X1032972Y108450D01*
X1032914Y108403D01*
X1032851Y108365D01*
X1032778Y108295D01*
X1032700Y108232D01*
X1032654Y108174D01*
X1032601Y108122D01*
X1032546Y108037D01*
X1032484Y107959D01*
X1032438Y107869D01*
X1032412Y107829D01*
X1032400Y107795D01*
X1032373Y107741D01*
X1030652Y103586D01*
X1028051Y100985D01*
X1027972Y100886D01*
X1027888Y100793D01*
X1027864Y100750D01*
X1027834Y100712D01*
X1027780Y100598D01*
X1027719Y100487D01*
X1027706Y100441D01*
X1027685Y100397D01*
X1027659Y100274D01*
X1027624Y100152D01*
X1027619Y100091D01*
X1027612Y100057D01*
X1027613Y100009D01*
X1027605Y99908D01*
X1027605Y92682D01*
X1026611Y90284D01*
X1016497Y80169D01*
X1016418Y80070D01*
X1016334Y79977D01*
X1016310Y79934D01*
X1016280Y79896D01*
X1016226Y79782D01*
X1016165Y79672D01*
X1016152Y79625D01*
X1016131Y79581D01*
X1016105Y79458D01*
X1016070Y79336D01*
X1016065Y79275D01*
X1016058Y79241D01*
X1016059Y79193D01*
X1016051Y79092D01*
X1016051Y68256D01*
X1015137Y66051D01*
X1013449Y64363D01*
X1011244Y63449D01*
X995356Y63449D01*
G37*
%LPD*%
G36*
X695680Y96952D02*
X695680Y96952D01*
X695706Y96950D01*
X695854Y96972D01*
X696002Y96989D01*
X696025Y96997D01*
X696050Y97001D01*
X696189Y97056D01*
X696330Y97106D01*
X696351Y97120D01*
X696374Y97129D01*
X696497Y97214D01*
X696623Y97295D01*
X696640Y97313D01*
X696661Y97328D01*
X696761Y97438D01*
X696865Y97546D01*
X696878Y97567D01*
X696895Y97586D01*
X696967Y97717D01*
X697044Y97845D01*
X697051Y97869D01*
X697064Y97891D01*
X697104Y98035D01*
X697150Y98177D01*
X697152Y98202D01*
X697159Y98226D01*
X697166Y98375D01*
X697178Y98524D01*
X697174Y98549D01*
X697175Y98574D01*
X697148Y98721D01*
X697126Y98869D01*
X697117Y98892D01*
X697112Y98917D01*
X697052Y99054D01*
X696997Y99193D01*
X696983Y99213D01*
X696973Y99237D01*
X696884Y99356D01*
X696798Y99479D01*
X696780Y99496D01*
X696765Y99516D01*
X696651Y99612D01*
X696540Y99712D01*
X696518Y99725D01*
X696498Y99741D01*
X696365Y99809D01*
X696235Y99881D01*
X696210Y99888D01*
X696188Y99899D01*
X695953Y99966D01*
X694946Y100166D01*
X693521Y100757D01*
X692238Y101614D01*
X691148Y102704D01*
X690291Y103987D01*
X689700Y105412D01*
X689549Y106173D01*
X697230Y106173D01*
X704911Y106173D01*
X704760Y105412D01*
X704169Y103987D01*
X703312Y102704D01*
X702222Y101614D01*
X700939Y100757D01*
X699514Y100166D01*
X698507Y99966D01*
X698483Y99958D01*
X698458Y99955D01*
X698318Y99905D01*
X698176Y99859D01*
X698154Y99846D01*
X698130Y99838D01*
X698005Y99757D01*
X697877Y99680D01*
X697859Y99662D01*
X697837Y99649D01*
X697734Y99541D01*
X697626Y99438D01*
X697613Y99416D01*
X697595Y99398D01*
X697518Y99270D01*
X697438Y99145D01*
X697429Y99121D01*
X697416Y99099D01*
X697371Y98957D01*
X697321Y98816D01*
X697318Y98791D01*
X697310Y98767D01*
X697298Y98619D01*
X697281Y98470D01*
X697284Y98445D01*
X697282Y98420D01*
X697304Y98272D01*
X697322Y98124D01*
X697330Y98100D01*
X697334Y98075D01*
X697389Y97937D01*
X697440Y97796D01*
X697453Y97775D01*
X697463Y97751D01*
X697548Y97629D01*
X697629Y97503D01*
X697647Y97486D01*
X697662Y97465D01*
X697773Y97365D01*
X697880Y97261D01*
X697902Y97249D01*
X697920Y97232D01*
X698051Y97159D01*
X698179Y97083D01*
X698203Y97075D01*
X698225Y97063D01*
X698369Y97022D01*
X698511Y96977D01*
X698536Y96975D01*
X698561Y96968D01*
X698805Y96949D01*
X867236Y96949D01*
X867262Y96952D01*
X867288Y96950D01*
X867435Y96972D01*
X867582Y96989D01*
X867607Y96997D01*
X867633Y97001D01*
X867771Y97056D01*
X867910Y97106D01*
X867932Y97120D01*
X867957Y97130D01*
X868078Y97215D01*
X868203Y97295D01*
X868221Y97314D01*
X868243Y97329D01*
X868342Y97439D01*
X868445Y97546D01*
X868459Y97568D01*
X868476Y97588D01*
X868548Y97718D01*
X868624Y97845D01*
X868632Y97870D01*
X868645Y97893D01*
X868685Y98036D01*
X868730Y98177D01*
X868732Y98203D01*
X868740Y98228D01*
X868759Y98472D01*
X868759Y103712D01*
X868756Y103738D01*
X868758Y103764D01*
X868736Y103911D01*
X868719Y104058D01*
X868711Y104083D01*
X868707Y104109D01*
X868652Y104247D01*
X868602Y104386D01*
X868588Y104408D01*
X868578Y104433D01*
X868493Y104554D01*
X868413Y104679D01*
X868394Y104697D01*
X868379Y104719D01*
X868269Y104818D01*
X868162Y104921D01*
X868140Y104935D01*
X868120Y104952D01*
X867990Y105024D01*
X867863Y105100D01*
X867838Y105108D01*
X867815Y105121D01*
X867672Y105161D01*
X867531Y105206D01*
X867505Y105208D01*
X867480Y105216D01*
X867236Y105235D01*
X790169Y105235D01*
X786837Y106615D01*
X774106Y119347D01*
X774007Y119425D01*
X773913Y119510D01*
X773871Y119533D01*
X773833Y119563D01*
X773719Y119617D01*
X773608Y119678D01*
X773561Y119692D01*
X773518Y119712D01*
X773394Y119739D01*
X773273Y119773D01*
X773212Y119778D01*
X773177Y119786D01*
X773129Y119785D01*
X773029Y119793D01*
X768410Y119793D01*
X759873Y128330D01*
X759873Y140402D01*
X768410Y148939D01*
X780482Y148939D01*
X786069Y143353D01*
X786089Y143336D01*
X786106Y143316D01*
X786226Y143228D01*
X786342Y143136D01*
X786366Y143125D01*
X786387Y143109D01*
X786523Y143051D01*
X786657Y142987D01*
X786683Y142982D01*
X786707Y142971D01*
X786853Y142945D01*
X786998Y142914D01*
X787024Y142914D01*
X787050Y142910D01*
X787198Y142917D01*
X787346Y142920D01*
X787372Y142926D01*
X787398Y142928D01*
X787540Y142969D01*
X787684Y143005D01*
X787707Y143017D01*
X787733Y143024D01*
X787862Y143096D01*
X787994Y143164D01*
X788014Y143181D01*
X788037Y143194D01*
X788223Y143353D01*
X793129Y148259D01*
X793208Y148358D01*
X793292Y148452D01*
X793316Y148494D01*
X793346Y148532D01*
X793400Y148646D01*
X793461Y148757D01*
X793474Y148803D01*
X793495Y148847D01*
X793521Y148970D01*
X793556Y149092D01*
X793561Y149153D01*
X793568Y149188D01*
X793567Y149236D01*
X793575Y149336D01*
X793575Y220822D01*
X793572Y220848D01*
X793574Y220874D01*
X793552Y221021D01*
X793535Y221168D01*
X793527Y221193D01*
X793523Y221219D01*
X793468Y221357D01*
X793418Y221496D01*
X793404Y221518D01*
X793394Y221543D01*
X793309Y221664D01*
X793229Y221789D01*
X793210Y221807D01*
X793195Y221829D01*
X793085Y221928D01*
X792978Y222031D01*
X792956Y222045D01*
X792936Y222062D01*
X792806Y222134D01*
X792679Y222210D01*
X792654Y222218D01*
X792631Y222231D01*
X792488Y222271D01*
X792347Y222316D01*
X792321Y222318D01*
X792296Y222326D01*
X792052Y222345D01*
X781925Y222345D01*
X774541Y229729D01*
X774541Y240171D01*
X781925Y247555D01*
X792367Y247555D01*
X798001Y241921D01*
X798100Y241842D01*
X798194Y241758D01*
X798236Y241734D01*
X798274Y241704D01*
X798388Y241650D01*
X798499Y241589D01*
X798545Y241576D01*
X798589Y241555D01*
X798712Y241529D01*
X798834Y241494D01*
X798895Y241489D01*
X798930Y241482D01*
X798978Y241483D01*
X799078Y241475D01*
X801398Y241475D01*
X803796Y240481D01*
X805631Y238646D01*
X806625Y236248D01*
X806625Y160448D01*
X806628Y160422D01*
X806626Y160396D01*
X806648Y160249D01*
X806665Y160102D01*
X806673Y160077D01*
X806677Y160051D01*
X806732Y159913D01*
X806782Y159774D01*
X806796Y159752D01*
X806806Y159727D01*
X806891Y159606D01*
X806971Y159481D01*
X806990Y159463D01*
X807005Y159441D01*
X807115Y159342D01*
X807222Y159239D01*
X807244Y159225D01*
X807264Y159208D01*
X807394Y159136D01*
X807521Y159060D01*
X807546Y159052D01*
X807569Y159039D01*
X807712Y158999D01*
X807853Y158954D01*
X807879Y158952D01*
X807904Y158944D01*
X808148Y158925D01*
X883948Y158925D01*
X886346Y157931D01*
X895908Y148369D01*
X896007Y148291D01*
X896101Y148206D01*
X896143Y148183D01*
X896181Y148153D01*
X896295Y148099D01*
X896406Y148038D01*
X896452Y148024D01*
X896496Y148004D01*
X896619Y147977D01*
X896741Y147943D01*
X896802Y147938D01*
X896837Y147930D01*
X896885Y147931D01*
X896985Y147923D01*
X909260Y147923D01*
X917797Y139386D01*
X917797Y127314D01*
X909260Y118777D01*
X897188Y118777D01*
X891601Y124363D01*
X891581Y124380D01*
X891564Y124400D01*
X891444Y124488D01*
X891328Y124580D01*
X891304Y124591D01*
X891283Y124607D01*
X891147Y124665D01*
X891013Y124729D01*
X890987Y124734D01*
X890963Y124745D01*
X890817Y124771D01*
X890672Y124802D01*
X890646Y124802D01*
X890620Y124806D01*
X890472Y124799D01*
X890324Y124796D01*
X890298Y124790D01*
X890272Y124788D01*
X890130Y124747D01*
X889986Y124711D01*
X889962Y124699D01*
X889937Y124692D01*
X889808Y124620D01*
X889676Y124552D01*
X889656Y124535D01*
X889633Y124522D01*
X889447Y124363D01*
X887335Y122251D01*
X887256Y122152D01*
X887172Y122058D01*
X887148Y122016D01*
X887118Y121978D01*
X887064Y121864D01*
X887003Y121753D01*
X886990Y121707D01*
X886969Y121663D01*
X886943Y121540D01*
X886908Y121418D01*
X886903Y121357D01*
X886896Y121322D01*
X886897Y121274D01*
X886889Y121174D01*
X886889Y98472D01*
X886892Y98446D01*
X886890Y98420D01*
X886912Y98273D01*
X886929Y98126D01*
X886937Y98101D01*
X886941Y98075D01*
X886996Y97937D01*
X887046Y97798D01*
X887060Y97776D01*
X887070Y97751D01*
X887155Y97630D01*
X887235Y97505D01*
X887254Y97487D01*
X887269Y97465D01*
X887379Y97366D01*
X887486Y97263D01*
X887508Y97249D01*
X887528Y97232D01*
X887658Y97160D01*
X887785Y97084D01*
X887810Y97076D01*
X887833Y97063D01*
X887976Y97023D01*
X888117Y96978D01*
X888143Y96976D01*
X888168Y96968D01*
X888412Y96949D01*
X935286Y96949D01*
X935424Y96965D01*
X935564Y96974D01*
X935605Y96986D01*
X935632Y96989D01*
X935679Y97005D01*
X935800Y97038D01*
X983381Y114118D01*
X983482Y114169D01*
X983587Y114210D01*
X983638Y114245D01*
X983693Y114273D01*
X983780Y114345D01*
X983873Y114409D01*
X983914Y114455D01*
X983962Y114494D01*
X984031Y114584D01*
X984106Y114668D01*
X984136Y114722D01*
X984174Y114771D01*
X984220Y114874D01*
X984275Y114973D01*
X984292Y115033D01*
X984317Y115089D01*
X984339Y115200D01*
X984370Y115308D01*
X984376Y115389D01*
X984384Y115431D01*
X984383Y115473D01*
X984389Y115552D01*
X984389Y116466D01*
X985303Y118671D01*
X987185Y120553D01*
X987264Y120652D01*
X987348Y120746D01*
X987372Y120789D01*
X987402Y120826D01*
X987456Y120941D01*
X987517Y121051D01*
X987530Y121098D01*
X987551Y121142D01*
X987577Y121265D01*
X987612Y121387D01*
X987617Y121447D01*
X987624Y121482D01*
X987623Y121530D01*
X987631Y121631D01*
X987631Y324181D01*
X988857Y327139D01*
X989142Y327425D01*
X989205Y327503D01*
X989275Y327576D01*
X989313Y327640D01*
X989359Y327698D01*
X989402Y327789D01*
X989453Y327875D01*
X989476Y327946D01*
X989508Y328013D01*
X989529Y328111D01*
X989560Y328207D01*
X989566Y328281D01*
X989581Y328354D01*
X989579Y328454D01*
X989588Y328554D01*
X989577Y328628D01*
X989575Y328702D01*
X989551Y328800D01*
X989536Y328899D01*
X989508Y328968D01*
X989490Y329040D01*
X989444Y329129D01*
X989407Y329223D01*
X989365Y329284D01*
X989331Y329350D01*
X989265Y329426D01*
X989208Y329509D01*
X989153Y329559D01*
X989105Y329615D01*
X989024Y329675D01*
X988949Y329742D01*
X988884Y329778D01*
X988825Y329823D01*
X988732Y329862D01*
X988644Y329911D01*
X988573Y329931D01*
X988505Y329961D01*
X988406Y329978D01*
X988309Y330006D01*
X988209Y330014D01*
X988162Y330022D01*
X988126Y330020D01*
X988065Y330025D01*
X975608Y330025D01*
X975482Y330011D01*
X975356Y330004D01*
X975310Y329991D01*
X975262Y329985D01*
X975143Y329943D01*
X975021Y329908D01*
X974979Y329884D01*
X974934Y329868D01*
X974827Y329799D01*
X974717Y329738D01*
X974671Y329698D01*
X974641Y329679D01*
X974607Y329644D01*
X974531Y329579D01*
X967119Y322167D01*
X959152Y322167D01*
X959026Y322153D01*
X958900Y322146D01*
X958853Y322133D01*
X958805Y322127D01*
X958686Y322085D01*
X958565Y322050D01*
X958523Y322026D01*
X958477Y322010D01*
X958371Y321941D01*
X958261Y321880D01*
X958214Y321840D01*
X958184Y321821D01*
X958151Y321786D01*
X958075Y321721D01*
X946771Y310417D01*
X946692Y310318D01*
X946608Y310225D01*
X946584Y310182D01*
X946554Y310144D01*
X946500Y310030D01*
X946439Y309920D01*
X946426Y309873D01*
X946405Y309829D01*
X946379Y309706D01*
X946344Y309584D01*
X946339Y309523D01*
X946332Y309489D01*
X946333Y309441D01*
X946325Y309340D01*
X946325Y306374D01*
X946328Y306348D01*
X946326Y306322D01*
X946348Y306175D01*
X946365Y306028D01*
X946373Y306003D01*
X946377Y305977D01*
X946432Y305839D01*
X946482Y305700D01*
X946496Y305678D01*
X946506Y305653D01*
X946591Y305532D01*
X946671Y305407D01*
X946690Y305389D01*
X946705Y305367D01*
X946815Y305268D01*
X946922Y305165D01*
X946944Y305151D01*
X946964Y305134D01*
X947094Y305062D01*
X947221Y304986D01*
X947246Y304978D01*
X947269Y304965D01*
X947412Y304925D01*
X947553Y304880D01*
X947579Y304878D01*
X947604Y304870D01*
X947718Y304861D01*
X949949Y303937D01*
X951637Y302249D01*
X952551Y300044D01*
X952551Y284156D01*
X951637Y281951D01*
X949949Y280263D01*
X947744Y279349D01*
X931856Y279349D01*
X929651Y280263D01*
X927963Y281951D01*
X927049Y284156D01*
X927049Y300044D01*
X927963Y302249D01*
X929651Y303937D01*
X931889Y304864D01*
X931951Y304874D01*
X932098Y304891D01*
X932123Y304899D01*
X932149Y304903D01*
X932287Y304958D01*
X932426Y305008D01*
X932448Y305022D01*
X932473Y305032D01*
X932594Y305117D01*
X932719Y305197D01*
X932737Y305216D01*
X932759Y305231D01*
X932858Y305341D01*
X932961Y305448D01*
X932975Y305470D01*
X932992Y305490D01*
X933064Y305620D01*
X933140Y305747D01*
X933148Y305772D01*
X933161Y305795D01*
X933201Y305938D01*
X933246Y306079D01*
X933248Y306105D01*
X933256Y306130D01*
X933275Y306374D01*
X933275Y313972D01*
X934269Y316370D01*
X948847Y330949D01*
X948926Y331048D01*
X949010Y331141D01*
X949034Y331184D01*
X949064Y331222D01*
X949118Y331336D01*
X949179Y331446D01*
X949192Y331493D01*
X949213Y331537D01*
X949239Y331660D01*
X949274Y331782D01*
X949279Y331843D01*
X949286Y331877D01*
X949285Y331925D01*
X949293Y332026D01*
X949293Y339993D01*
X956677Y347377D01*
X967119Y347377D01*
X970975Y343521D01*
X971074Y343442D01*
X971168Y343358D01*
X971210Y343334D01*
X971248Y343304D01*
X971362Y343250D01*
X971473Y343189D01*
X971519Y343176D01*
X971563Y343155D01*
X971686Y343129D01*
X971808Y343094D01*
X971869Y343089D01*
X971904Y343082D01*
X971952Y343083D01*
X972052Y343075D01*
X1024642Y343075D01*
X1024768Y343089D01*
X1024894Y343096D01*
X1024940Y343109D01*
X1024988Y343115D01*
X1025107Y343157D01*
X1025229Y343192D01*
X1025271Y343216D01*
X1025316Y343232D01*
X1025423Y343301D01*
X1025533Y343362D01*
X1025579Y343402D01*
X1025609Y343421D01*
X1025643Y343456D01*
X1025719Y343521D01*
X1032369Y350171D01*
X1042811Y350171D01*
X1050195Y342787D01*
X1050195Y342192D01*
X1050206Y342092D01*
X1050208Y341992D01*
X1050226Y341919D01*
X1050235Y341845D01*
X1050268Y341751D01*
X1050293Y341654D01*
X1050327Y341587D01*
X1050352Y341517D01*
X1050407Y341433D01*
X1050453Y341344D01*
X1050501Y341287D01*
X1050541Y341225D01*
X1050613Y341155D01*
X1050678Y341078D01*
X1050738Y341034D01*
X1050792Y340982D01*
X1050878Y340931D01*
X1050959Y340871D01*
X1051027Y340842D01*
X1051091Y340804D01*
X1051187Y340773D01*
X1051279Y340733D01*
X1051352Y340720D01*
X1051423Y340697D01*
X1051523Y340689D01*
X1051622Y340671D01*
X1051696Y340675D01*
X1051770Y340669D01*
X1051870Y340684D01*
X1051970Y340689D01*
X1052041Y340710D01*
X1052115Y340721D01*
X1052208Y340758D01*
X1052305Y340786D01*
X1052370Y340822D01*
X1052439Y340850D01*
X1052521Y340907D01*
X1052609Y340956D01*
X1052685Y341021D01*
X1052725Y341049D01*
X1052749Y341075D01*
X1052795Y341115D01*
X1083705Y372025D01*
X1083784Y372124D01*
X1083868Y372218D01*
X1083892Y372260D01*
X1083922Y372298D01*
X1083976Y372412D01*
X1084037Y372523D01*
X1084050Y372569D01*
X1084071Y372613D01*
X1084097Y372736D01*
X1084132Y372858D01*
X1084137Y372919D01*
X1084144Y372953D01*
X1084143Y373001D01*
X1084151Y373102D01*
X1084151Y397535D01*
X1084140Y397635D01*
X1084138Y397735D01*
X1084120Y397807D01*
X1084111Y397881D01*
X1084078Y397975D01*
X1084053Y398073D01*
X1084019Y398139D01*
X1083994Y398209D01*
X1083939Y398293D01*
X1083893Y398383D01*
X1083845Y398439D01*
X1083805Y398502D01*
X1083733Y398572D01*
X1083668Y398648D01*
X1083608Y398692D01*
X1083554Y398744D01*
X1083468Y398796D01*
X1083387Y398855D01*
X1083319Y398885D01*
X1083255Y398923D01*
X1083159Y398954D01*
X1083067Y398993D01*
X1082994Y399006D01*
X1082923Y399029D01*
X1082823Y399037D01*
X1082724Y399055D01*
X1082650Y399051D01*
X1082576Y399057D01*
X1082476Y399042D01*
X1082376Y399037D01*
X1082305Y399016D01*
X1082231Y399005D01*
X1082138Y398968D01*
X1082041Y398940D01*
X1081976Y398904D01*
X1081907Y398877D01*
X1081825Y398819D01*
X1081737Y398770D01*
X1081661Y398705D01*
X1081621Y398678D01*
X1081597Y398651D01*
X1081551Y398612D01*
X1079079Y396140D01*
X1073419Y393795D01*
X1067293Y393795D01*
X1061633Y396140D01*
X1057302Y400471D01*
X1056917Y401400D01*
X1056870Y401484D01*
X1056833Y401571D01*
X1056786Y401635D01*
X1056748Y401704D01*
X1056683Y401775D01*
X1056627Y401852D01*
X1056567Y401904D01*
X1056514Y401963D01*
X1056435Y402017D01*
X1056362Y402079D01*
X1056292Y402116D01*
X1056227Y402161D01*
X1056138Y402196D01*
X1056053Y402240D01*
X1055976Y402260D01*
X1055903Y402289D01*
X1055808Y402303D01*
X1055715Y402326D01*
X1055636Y402328D01*
X1055558Y402339D01*
X1055462Y402332D01*
X1055367Y402334D01*
X1055290Y402317D01*
X1055211Y402311D01*
X1055120Y402281D01*
X1055026Y402261D01*
X1054954Y402228D01*
X1054879Y402203D01*
X1054797Y402154D01*
X1054710Y402114D01*
X1054648Y402065D01*
X1054580Y402024D01*
X1054512Y401957D01*
X1054437Y401898D01*
X1054366Y401815D01*
X1054330Y401781D01*
X1054313Y401754D01*
X1054277Y401712D01*
X1054062Y401416D01*
X1052734Y400088D01*
X1051213Y398983D01*
X1049539Y398130D01*
X1047752Y397549D01*
X1047495Y397509D01*
X1047495Y408178D01*
X1047492Y408204D01*
X1047494Y408230D01*
X1047472Y408377D01*
X1047455Y408524D01*
X1047447Y408549D01*
X1047443Y408575D01*
X1047388Y408712D01*
X1047338Y408852D01*
X1047324Y408874D01*
X1047314Y408899D01*
X1047229Y409020D01*
X1047149Y409145D01*
X1047130Y409163D01*
X1047115Y409185D01*
X1047099Y409199D01*
X1047181Y409284D01*
X1047195Y409307D01*
X1047212Y409326D01*
X1047284Y409456D01*
X1047360Y409583D01*
X1047368Y409608D01*
X1047381Y409631D01*
X1047421Y409774D01*
X1047466Y409915D01*
X1047468Y409941D01*
X1047476Y409966D01*
X1047495Y410210D01*
X1047495Y420879D01*
X1047752Y420839D01*
X1049539Y420258D01*
X1051213Y419405D01*
X1052734Y418300D01*
X1054062Y416972D01*
X1054277Y416676D01*
X1054342Y416605D01*
X1054399Y416528D01*
X1054459Y416477D01*
X1054513Y416419D01*
X1054592Y416365D01*
X1054665Y416303D01*
X1054736Y416267D01*
X1054801Y416223D01*
X1054890Y416188D01*
X1054975Y416145D01*
X1055052Y416125D01*
X1055126Y416097D01*
X1055221Y416084D01*
X1055314Y416060D01*
X1055393Y416059D01*
X1055471Y416048D01*
X1055566Y416057D01*
X1055662Y416055D01*
X1055740Y416072D01*
X1055818Y416079D01*
X1055909Y416109D01*
X1056003Y416130D01*
X1056074Y416164D01*
X1056149Y416189D01*
X1056231Y416238D01*
X1056317Y416279D01*
X1056379Y416329D01*
X1056447Y416370D01*
X1056515Y416437D01*
X1056590Y416497D01*
X1056639Y416559D01*
X1056695Y416615D01*
X1056746Y416695D01*
X1056806Y416770D01*
X1056855Y416867D01*
X1056882Y416909D01*
X1056892Y416940D01*
X1056917Y416988D01*
X1057302Y417917D01*
X1061633Y422248D01*
X1067293Y424593D01*
X1073419Y424593D01*
X1079079Y422248D01*
X1081551Y419776D01*
X1081629Y419714D01*
X1081702Y419644D01*
X1081766Y419606D01*
X1081824Y419560D01*
X1081915Y419517D01*
X1082001Y419465D01*
X1082072Y419442D01*
X1082139Y419411D01*
X1082237Y419390D01*
X1082333Y419359D01*
X1082407Y419353D01*
X1082480Y419337D01*
X1082580Y419339D01*
X1082680Y419331D01*
X1082754Y419342D01*
X1082828Y419343D01*
X1082925Y419368D01*
X1083025Y419383D01*
X1083094Y419410D01*
X1083166Y419428D01*
X1083255Y419474D01*
X1083349Y419511D01*
X1083410Y419554D01*
X1083476Y419588D01*
X1083552Y419653D01*
X1083635Y419710D01*
X1083685Y419765D01*
X1083741Y419814D01*
X1083801Y419895D01*
X1083868Y419969D01*
X1083904Y420034D01*
X1083949Y420094D01*
X1083988Y420186D01*
X1084037Y420274D01*
X1084057Y420346D01*
X1084087Y420414D01*
X1084104Y420513D01*
X1084132Y420609D01*
X1084140Y420710D01*
X1084148Y420757D01*
X1084146Y420793D01*
X1084151Y420853D01*
X1084151Y714855D01*
X1084137Y714981D01*
X1084130Y715107D01*
X1084117Y715153D01*
X1084111Y715201D01*
X1084069Y715320D01*
X1084034Y715442D01*
X1084010Y715484D01*
X1083994Y715529D01*
X1083925Y715636D01*
X1083864Y715746D01*
X1083824Y715792D01*
X1083805Y715822D01*
X1083770Y715856D01*
X1083705Y715932D01*
X1071532Y728105D01*
X1071433Y728184D01*
X1071339Y728268D01*
X1071297Y728292D01*
X1071259Y728322D01*
X1071145Y728376D01*
X1071034Y728437D01*
X1070988Y728450D01*
X1070944Y728471D01*
X1070821Y728497D01*
X1070699Y728532D01*
X1070638Y728537D01*
X1070603Y728544D01*
X1070555Y728543D01*
X1070455Y728551D01*
X1014959Y728551D01*
X1014913Y728546D01*
X1014868Y728549D01*
X1014741Y728526D01*
X1014612Y728511D01*
X1014569Y728496D01*
X1014525Y728488D01*
X1014406Y728437D01*
X1014284Y728394D01*
X1014246Y728369D01*
X1014204Y728351D01*
X1014100Y728275D01*
X1013991Y728205D01*
X1013960Y728172D01*
X1013923Y728145D01*
X1013839Y728047D01*
X1013749Y727954D01*
X1013726Y727915D01*
X1013696Y727881D01*
X1013637Y727766D01*
X1013570Y727655D01*
X1013557Y727612D01*
X1013536Y727571D01*
X1013504Y727446D01*
X1013464Y727323D01*
X1013461Y727278D01*
X1013449Y727234D01*
X1013447Y727104D01*
X1013436Y726976D01*
X1013443Y726931D01*
X1013442Y726885D01*
X1013469Y726759D01*
X1013488Y726631D01*
X1013505Y726589D01*
X1013514Y726544D01*
X1013569Y726427D01*
X1013617Y726307D01*
X1013643Y726270D01*
X1013662Y726229D01*
X1013742Y726127D01*
X1013816Y726021D01*
X1013849Y725991D01*
X1013878Y725955D01*
X1014063Y725796D01*
X1014745Y725300D01*
X1015876Y724169D01*
X1016816Y722875D01*
X1017542Y721450D01*
X1018037Y719929D01*
X1018287Y718350D01*
X1018287Y712469D01*
X1009142Y712469D01*
X1009116Y712466D01*
X1009090Y712468D01*
X1008943Y712446D01*
X1008796Y712429D01*
X1008771Y712421D01*
X1008745Y712417D01*
X1008608Y712362D01*
X1008468Y712312D01*
X1008446Y712298D01*
X1008421Y712288D01*
X1008300Y712203D01*
X1008175Y712123D01*
X1008157Y712104D01*
X1008135Y712089D01*
X1008036Y711979D01*
X1007933Y711872D01*
X1007919Y711850D01*
X1007902Y711830D01*
X1007830Y711700D01*
X1007754Y711573D01*
X1007746Y711548D01*
X1007733Y711525D01*
X1007693Y711382D01*
X1007648Y711241D01*
X1007646Y711215D01*
X1007639Y711190D01*
X1007619Y710946D01*
X1007619Y710437D01*
X1007110Y710437D01*
X1007084Y710434D01*
X1007058Y710436D01*
X1006911Y710414D01*
X1006764Y710397D01*
X1006739Y710388D01*
X1006713Y710384D01*
X1006575Y710330D01*
X1006436Y710280D01*
X1006414Y710265D01*
X1006389Y710256D01*
X1006268Y710171D01*
X1006143Y710091D01*
X1006125Y710072D01*
X1006103Y710057D01*
X1006004Y709947D01*
X1005901Y709840D01*
X1005887Y709817D01*
X1005870Y709798D01*
X1005798Y709668D01*
X1005722Y709541D01*
X1005714Y709516D01*
X1005701Y709493D01*
X1005661Y709350D01*
X1005616Y709209D01*
X1005613Y709183D01*
X1005606Y709158D01*
X1005587Y708914D01*
X1005587Y692451D01*
X1004226Y692894D01*
X1002801Y693620D01*
X1001507Y694560D01*
X1000376Y695691D01*
X999436Y696985D01*
X998655Y698516D01*
X998649Y698526D01*
X998600Y698639D01*
X998591Y698651D01*
X998585Y698664D01*
X998488Y698790D01*
X998392Y698919D01*
X998381Y698928D01*
X998372Y698940D01*
X998248Y699041D01*
X998126Y699144D01*
X998113Y699151D01*
X998102Y699160D01*
X997958Y699230D01*
X997816Y699303D01*
X997801Y699306D01*
X997788Y699313D01*
X997633Y699348D01*
X997477Y699387D01*
X997463Y699387D01*
X997449Y699390D01*
X997289Y699390D01*
X997129Y699392D01*
X997115Y699389D01*
X997100Y699389D01*
X996945Y699352D01*
X996788Y699318D01*
X996775Y699311D01*
X996761Y699308D01*
X996617Y699236D01*
X996474Y699168D01*
X996462Y699159D01*
X996449Y699152D01*
X996325Y699050D01*
X996201Y698951D01*
X996192Y698939D01*
X996181Y698930D01*
X996084Y698802D01*
X995985Y698677D01*
X995977Y698662D01*
X995970Y698652D01*
X995955Y698617D01*
X995874Y698459D01*
X994273Y694594D01*
X990442Y690763D01*
X985435Y688689D01*
X980017Y688689D01*
X975010Y690763D01*
X971103Y694670D01*
X971083Y694687D01*
X971066Y694707D01*
X970946Y694795D01*
X970830Y694887D01*
X970806Y694898D01*
X970785Y694914D01*
X970649Y694972D01*
X970515Y695036D01*
X970489Y695041D01*
X970465Y695052D01*
X970319Y695078D01*
X970174Y695109D01*
X970148Y695109D01*
X970122Y695113D01*
X969974Y695106D01*
X969826Y695103D01*
X969800Y695097D01*
X969774Y695095D01*
X969632Y695054D01*
X969488Y695018D01*
X969465Y695006D01*
X969439Y694999D01*
X969310Y694927D01*
X969178Y694859D01*
X969158Y694842D01*
X969135Y694829D01*
X968949Y694670D01*
X968330Y694051D01*
X968314Y694031D01*
X968294Y694014D01*
X968206Y693894D01*
X968113Y693778D01*
X968102Y693755D01*
X968087Y693734D01*
X968028Y693597D01*
X967965Y693463D01*
X967959Y693438D01*
X967949Y693414D01*
X967922Y693267D01*
X967891Y693123D01*
X967892Y693097D01*
X967887Y693071D01*
X967895Y692922D01*
X967897Y692774D01*
X967904Y692749D01*
X967905Y692723D01*
X967946Y692580D01*
X967982Y692436D01*
X967994Y692413D01*
X968001Y692388D01*
X968074Y692258D01*
X968142Y692126D01*
X968159Y692106D01*
X968172Y692084D01*
X968330Y691897D01*
X1000432Y659796D01*
X1002481Y657746D01*
X1003475Y655348D01*
X1003475Y630348D01*
X1003478Y630322D01*
X1003476Y630296D01*
X1003498Y630149D01*
X1003515Y630002D01*
X1003523Y629977D01*
X1003527Y629951D01*
X1003582Y629813D01*
X1003632Y629674D01*
X1003646Y629652D01*
X1003656Y629627D01*
X1003741Y629506D01*
X1003821Y629381D01*
X1003840Y629363D01*
X1003855Y629341D01*
X1003965Y629242D01*
X1004072Y629139D01*
X1004094Y629125D01*
X1004114Y629108D01*
X1004244Y629036D01*
X1004371Y628960D01*
X1004396Y628952D01*
X1004419Y628939D01*
X1004562Y628899D01*
X1004703Y628854D01*
X1004729Y628852D01*
X1004754Y628844D01*
X1004998Y628825D01*
X1010948Y628825D01*
X1013346Y627831D01*
X1040581Y600596D01*
X1041575Y598198D01*
X1041575Y426692D01*
X1040581Y424294D01*
X1039190Y422902D01*
X1039087Y422773D01*
X1038983Y422645D01*
X1038979Y422637D01*
X1038973Y422629D01*
X1038902Y422479D01*
X1038830Y422332D01*
X1038828Y422323D01*
X1038824Y422314D01*
X1038790Y422154D01*
X1038753Y421992D01*
X1038753Y421983D01*
X1038751Y421973D01*
X1038753Y421810D01*
X1038754Y421644D01*
X1038756Y421635D01*
X1038757Y421625D01*
X1038797Y421464D01*
X1038835Y421305D01*
X1038839Y421296D01*
X1038842Y421287D01*
X1038918Y421140D01*
X1038991Y420993D01*
X1038997Y420986D01*
X1039001Y420977D01*
X1039108Y420852D01*
X1039213Y420725D01*
X1039221Y420719D01*
X1039227Y420712D01*
X1039359Y420614D01*
X1039491Y420514D01*
X1039500Y420510D01*
X1039507Y420505D01*
X1039659Y420439D01*
X1039809Y420372D01*
X1039819Y420370D01*
X1039827Y420367D01*
X1039990Y420337D01*
X1040151Y420306D01*
X1040161Y420307D01*
X1040170Y420305D01*
X1040335Y420313D01*
X1040499Y420320D01*
X1040511Y420322D01*
X1040518Y420323D01*
X1040548Y420331D01*
X1040737Y420376D01*
X1042160Y420839D01*
X1042417Y420879D01*
X1042417Y410210D01*
X1042420Y410184D01*
X1042418Y410158D01*
X1042440Y410011D01*
X1042457Y409864D01*
X1042465Y409839D01*
X1042469Y409813D01*
X1042524Y409676D01*
X1042574Y409536D01*
X1042588Y409514D01*
X1042598Y409489D01*
X1042683Y409368D01*
X1042763Y409243D01*
X1042782Y409225D01*
X1042797Y409203D01*
X1042813Y409189D01*
X1042731Y409104D01*
X1042717Y409081D01*
X1042700Y409062D01*
X1042628Y408932D01*
X1042552Y408805D01*
X1042544Y408780D01*
X1042531Y408757D01*
X1042491Y408614D01*
X1042446Y408473D01*
X1042443Y408447D01*
X1042436Y408422D01*
X1042417Y408178D01*
X1042417Y397509D01*
X1042160Y397549D01*
X1040373Y398130D01*
X1038699Y398983D01*
X1037178Y400088D01*
X1035850Y401416D01*
X1035635Y401712D01*
X1035570Y401783D01*
X1035513Y401860D01*
X1035453Y401911D01*
X1035399Y401969D01*
X1035320Y402023D01*
X1035247Y402085D01*
X1035176Y402121D01*
X1035111Y402165D01*
X1035022Y402200D01*
X1034937Y402243D01*
X1034860Y402263D01*
X1034786Y402291D01*
X1034691Y402304D01*
X1034598Y402328D01*
X1034519Y402329D01*
X1034441Y402340D01*
X1034346Y402331D01*
X1034250Y402333D01*
X1034172Y402316D01*
X1034094Y402309D01*
X1034003Y402279D01*
X1033909Y402258D01*
X1033838Y402224D01*
X1033763Y402199D01*
X1033681Y402150D01*
X1033595Y402109D01*
X1033533Y402059D01*
X1033465Y402018D01*
X1033397Y401951D01*
X1033322Y401891D01*
X1033273Y401829D01*
X1033217Y401773D01*
X1033166Y401693D01*
X1033106Y401618D01*
X1033057Y401521D01*
X1033030Y401479D01*
X1033020Y401448D01*
X1032995Y401400D01*
X1032610Y400471D01*
X1028279Y396140D01*
X1022619Y393795D01*
X1016493Y393795D01*
X1010833Y396140D01*
X1007933Y399040D01*
X1007913Y399056D01*
X1007896Y399076D01*
X1007776Y399164D01*
X1007660Y399256D01*
X1007636Y399268D01*
X1007615Y399283D01*
X1007479Y399342D01*
X1007345Y399405D01*
X1007319Y399411D01*
X1007295Y399421D01*
X1007149Y399448D01*
X1007004Y399479D01*
X1006978Y399478D01*
X1006952Y399483D01*
X1006804Y399475D01*
X1006656Y399473D01*
X1006630Y399466D01*
X1006604Y399465D01*
X1006462Y399424D01*
X1006318Y399388D01*
X1006295Y399376D01*
X1006269Y399368D01*
X1006140Y399296D01*
X1006008Y399228D01*
X1005988Y399211D01*
X1005965Y399198D01*
X1005779Y399040D01*
X1002879Y396140D01*
X997219Y393795D01*
X991093Y393795D01*
X985433Y396140D01*
X982533Y399040D01*
X982513Y399056D01*
X982496Y399076D01*
X982376Y399164D01*
X982260Y399256D01*
X982236Y399268D01*
X982215Y399283D01*
X982079Y399342D01*
X981945Y399405D01*
X981919Y399411D01*
X981895Y399421D01*
X981749Y399448D01*
X981604Y399479D01*
X981578Y399478D01*
X981552Y399483D01*
X981404Y399475D01*
X981256Y399473D01*
X981230Y399466D01*
X981204Y399465D01*
X981062Y399424D01*
X980918Y399388D01*
X980895Y399376D01*
X980869Y399368D01*
X980740Y399296D01*
X980608Y399228D01*
X980588Y399211D01*
X980565Y399198D01*
X980379Y399040D01*
X977479Y396140D01*
X971819Y393795D01*
X965693Y393795D01*
X960033Y396140D01*
X957133Y399040D01*
X957113Y399056D01*
X957096Y399076D01*
X956976Y399164D01*
X956860Y399256D01*
X956836Y399268D01*
X956815Y399283D01*
X956679Y399342D01*
X956545Y399405D01*
X956519Y399411D01*
X956495Y399421D01*
X956349Y399448D01*
X956204Y399479D01*
X956178Y399478D01*
X956152Y399483D01*
X956004Y399475D01*
X955856Y399473D01*
X955830Y399466D01*
X955804Y399465D01*
X955662Y399424D01*
X955518Y399388D01*
X955495Y399376D01*
X955469Y399368D01*
X955340Y399296D01*
X955208Y399228D01*
X955188Y399211D01*
X955165Y399198D01*
X954979Y399040D01*
X952079Y396140D01*
X946419Y393795D01*
X940293Y393795D01*
X934633Y396140D01*
X931733Y399040D01*
X931713Y399056D01*
X931696Y399076D01*
X931576Y399164D01*
X931460Y399256D01*
X931436Y399268D01*
X931415Y399283D01*
X931279Y399342D01*
X931145Y399405D01*
X931119Y399411D01*
X931095Y399421D01*
X930949Y399448D01*
X930804Y399479D01*
X930778Y399478D01*
X930752Y399483D01*
X930604Y399475D01*
X930456Y399473D01*
X930430Y399466D01*
X930404Y399465D01*
X930262Y399424D01*
X930118Y399388D01*
X930095Y399376D01*
X930069Y399368D01*
X929940Y399296D01*
X929808Y399228D01*
X929788Y399211D01*
X929765Y399198D01*
X929579Y399040D01*
X926679Y396140D01*
X921019Y393795D01*
X914893Y393795D01*
X909233Y396140D01*
X906333Y399040D01*
X906313Y399056D01*
X906296Y399076D01*
X906176Y399164D01*
X906060Y399256D01*
X906036Y399268D01*
X906015Y399283D01*
X905879Y399342D01*
X905745Y399405D01*
X905719Y399411D01*
X905695Y399421D01*
X905549Y399448D01*
X905404Y399479D01*
X905378Y399478D01*
X905352Y399483D01*
X905204Y399475D01*
X905056Y399473D01*
X905030Y399466D01*
X905004Y399465D01*
X904862Y399424D01*
X904718Y399388D01*
X904695Y399376D01*
X904669Y399368D01*
X904540Y399296D01*
X904408Y399228D01*
X904388Y399211D01*
X904365Y399198D01*
X904179Y399040D01*
X901279Y396140D01*
X895619Y393795D01*
X889493Y393795D01*
X883687Y396200D01*
X883662Y396208D01*
X883638Y396219D01*
X883495Y396255D01*
X883352Y396296D01*
X883325Y396297D01*
X883300Y396304D01*
X883152Y396306D01*
X883004Y396313D01*
X882978Y396308D01*
X882952Y396309D01*
X882806Y396277D01*
X882661Y396250D01*
X882637Y396240D01*
X882611Y396234D01*
X882477Y396171D01*
X882341Y396111D01*
X882320Y396096D01*
X882296Y396085D01*
X882180Y395992D01*
X882061Y395904D01*
X882044Y395884D01*
X882024Y395867D01*
X881932Y395751D01*
X881836Y395638D01*
X881824Y395614D01*
X881808Y395594D01*
X881697Y395376D01*
X881525Y394961D01*
X845829Y359266D01*
X845829Y359265D01*
X843065Y356501D01*
X839733Y355121D01*
X776274Y355121D01*
X776248Y355118D01*
X776222Y355120D01*
X776075Y355098D01*
X775928Y355081D01*
X775903Y355073D01*
X775877Y355069D01*
X775739Y355014D01*
X775600Y354964D01*
X775578Y354950D01*
X775553Y354940D01*
X775432Y354855D01*
X775307Y354775D01*
X775289Y354756D01*
X775267Y354741D01*
X775168Y354631D01*
X775065Y354524D01*
X775051Y354502D01*
X775034Y354482D01*
X774962Y354352D01*
X774886Y354225D01*
X774878Y354200D01*
X774865Y354177D01*
X774825Y354034D01*
X774780Y353893D01*
X774778Y353867D01*
X774770Y353842D01*
X774751Y353598D01*
X774751Y342576D01*
X773837Y340371D01*
X772149Y338683D01*
X769944Y337769D01*
X754056Y337769D01*
X751851Y338683D01*
X750163Y340371D01*
X749236Y342609D01*
X749226Y342671D01*
X749209Y342818D01*
X749201Y342843D01*
X749197Y342869D01*
X749142Y343007D01*
X749092Y343146D01*
X749078Y343168D01*
X749068Y343193D01*
X748983Y343314D01*
X748903Y343439D01*
X748884Y343457D01*
X748869Y343479D01*
X748759Y343578D01*
X748652Y343681D01*
X748630Y343695D01*
X748610Y343712D01*
X748481Y343784D01*
X748353Y343860D01*
X748328Y343868D01*
X748305Y343881D01*
X748162Y343921D01*
X748021Y343966D01*
X747995Y343968D01*
X747970Y343976D01*
X747726Y343995D01*
X710780Y343995D01*
X710680Y343984D01*
X710580Y343982D01*
X710508Y343964D01*
X710434Y343955D01*
X710339Y343922D01*
X710242Y343897D01*
X710176Y343863D01*
X710106Y343838D01*
X710021Y343783D01*
X709932Y343737D01*
X709875Y343689D01*
X709813Y343649D01*
X709743Y343577D01*
X709667Y343512D01*
X709622Y343452D01*
X709571Y343398D01*
X709519Y343312D01*
X709459Y343231D01*
X709430Y343163D01*
X709392Y343099D01*
X709361Y343003D01*
X709321Y342911D01*
X709308Y342838D01*
X709286Y342767D01*
X709277Y342667D01*
X709260Y342568D01*
X709264Y342494D01*
X709258Y342420D01*
X709272Y342320D01*
X709278Y342220D01*
X709298Y342149D01*
X709309Y342075D01*
X709346Y341982D01*
X709374Y341885D01*
X709411Y341820D01*
X709438Y341751D01*
X709495Y341669D01*
X709544Y341581D01*
X709610Y341505D01*
X709637Y341465D01*
X709663Y341441D01*
X709703Y341395D01*
X710851Y340247D01*
X710851Y329805D01*
X710564Y329518D01*
X710547Y329497D01*
X710527Y329480D01*
X710439Y329361D01*
X710347Y329245D01*
X710336Y329221D01*
X710320Y329200D01*
X710261Y329064D01*
X710198Y328930D01*
X710193Y328904D01*
X710182Y328880D01*
X710156Y328734D01*
X710125Y328589D01*
X710125Y328563D01*
X710121Y328537D01*
X710128Y328389D01*
X710131Y328241D01*
X710137Y328215D01*
X710138Y328189D01*
X710180Y328047D01*
X710216Y327903D01*
X710228Y327879D01*
X710235Y327854D01*
X710307Y327725D01*
X710375Y327593D01*
X710392Y327573D01*
X710405Y327550D01*
X710564Y327364D01*
X713457Y324471D01*
X713556Y324392D01*
X713649Y324308D01*
X713692Y324284D01*
X713730Y324254D01*
X713844Y324200D01*
X713954Y324139D01*
X714001Y324126D01*
X714045Y324105D01*
X714168Y324079D01*
X714290Y324044D01*
X714351Y324039D01*
X714385Y324032D01*
X714433Y324033D01*
X714534Y324025D01*
X853916Y324025D01*
X854042Y324039D01*
X854168Y324046D01*
X854215Y324059D01*
X854263Y324065D01*
X854382Y324107D01*
X854503Y324142D01*
X854545Y324166D01*
X854591Y324182D01*
X854697Y324251D01*
X854807Y324312D01*
X854854Y324352D01*
X854884Y324371D01*
X854917Y324406D01*
X854993Y324471D01*
X862741Y332219D01*
X862820Y332318D01*
X862904Y332411D01*
X862928Y332454D01*
X862958Y332492D01*
X863012Y332606D01*
X863073Y332716D01*
X863086Y332763D01*
X863107Y332807D01*
X863133Y332930D01*
X863168Y333052D01*
X863173Y333113D01*
X863180Y333147D01*
X863179Y333195D01*
X863187Y333296D01*
X863187Y337961D01*
X870571Y345345D01*
X881013Y345345D01*
X888397Y337961D01*
X888397Y327519D01*
X881013Y320135D01*
X870368Y320135D01*
X870331Y320153D01*
X870305Y320158D01*
X870281Y320169D01*
X870136Y320195D01*
X869990Y320226D01*
X869964Y320226D01*
X869938Y320230D01*
X869790Y320223D01*
X869642Y320220D01*
X869616Y320214D01*
X869590Y320213D01*
X869447Y320171D01*
X869304Y320135D01*
X869281Y320123D01*
X869255Y320116D01*
X869125Y320043D01*
X868994Y319976D01*
X868974Y319959D01*
X868951Y319946D01*
X868765Y319787D01*
X860946Y311969D01*
X858548Y310975D01*
X709902Y310975D01*
X707504Y311969D01*
X697497Y321975D01*
X697398Y322054D01*
X697305Y322138D01*
X697262Y322162D01*
X697224Y322192D01*
X697110Y322246D01*
X697000Y322307D01*
X696953Y322320D01*
X696909Y322341D01*
X696786Y322367D01*
X696664Y322402D01*
X696603Y322407D01*
X696569Y322414D01*
X696521Y322413D01*
X696420Y322421D01*
X693025Y322421D01*
X691214Y324232D01*
X691193Y324249D01*
X691176Y324269D01*
X691057Y324357D01*
X690941Y324449D01*
X690917Y324460D01*
X690896Y324476D01*
X690760Y324535D01*
X690626Y324598D01*
X690600Y324603D01*
X690576Y324614D01*
X690430Y324640D01*
X690285Y324671D01*
X690259Y324671D01*
X690233Y324675D01*
X690085Y324668D01*
X689937Y324665D01*
X689911Y324659D01*
X689885Y324658D01*
X689743Y324616D01*
X689599Y324580D01*
X689575Y324568D01*
X689550Y324561D01*
X689421Y324488D01*
X689289Y324421D01*
X689269Y324404D01*
X689246Y324391D01*
X689060Y324232D01*
X664096Y299269D01*
X661698Y298275D01*
X462252Y298275D01*
X461005Y298792D01*
X460860Y298833D01*
X460717Y298879D01*
X460693Y298881D01*
X460670Y298888D01*
X460519Y298895D01*
X460370Y298907D01*
X460346Y298903D01*
X460322Y298905D01*
X460174Y298878D01*
X460025Y298855D01*
X460003Y298846D01*
X459979Y298842D01*
X459841Y298782D01*
X459701Y298727D01*
X459681Y298713D01*
X459659Y298703D01*
X459538Y298613D01*
X459415Y298528D01*
X459399Y298510D01*
X459379Y298495D01*
X459282Y298380D01*
X459182Y298269D01*
X459170Y298248D01*
X459154Y298229D01*
X459086Y298096D01*
X459013Y297964D01*
X459007Y297940D01*
X458996Y297919D01*
X458959Y297774D01*
X458918Y297628D01*
X458916Y297599D01*
X458911Y297581D01*
X458911Y297534D01*
X458899Y297385D01*
X458899Y238172D01*
X458902Y238146D01*
X458900Y238120D01*
X458922Y237972D01*
X458939Y237826D01*
X458947Y237801D01*
X458951Y237775D01*
X459006Y237637D01*
X459056Y237498D01*
X459070Y237476D01*
X459080Y237451D01*
X459165Y237330D01*
X459245Y237205D01*
X459264Y237187D01*
X459279Y237165D01*
X459389Y237066D01*
X459496Y236963D01*
X459518Y236949D01*
X459538Y236932D01*
X459668Y236860D01*
X459795Y236784D01*
X459820Y236776D01*
X459843Y236763D01*
X459986Y236723D01*
X460127Y236678D01*
X460153Y236676D01*
X460178Y236668D01*
X460422Y236649D01*
X515298Y236649D01*
X515424Y236663D01*
X515550Y236670D01*
X515597Y236683D01*
X515645Y236689D01*
X515764Y236731D01*
X515885Y236766D01*
X515927Y236790D01*
X515973Y236806D01*
X516079Y236875D01*
X516189Y236936D01*
X516235Y236976D01*
X516265Y236995D01*
X516299Y237030D01*
X516375Y237095D01*
X549051Y269771D01*
X549130Y269870D01*
X549214Y269963D01*
X549238Y270006D01*
X549268Y270044D01*
X549322Y270158D01*
X549383Y270268D01*
X549396Y270315D01*
X549417Y270359D01*
X549443Y270482D01*
X549478Y270604D01*
X549483Y270665D01*
X549490Y270699D01*
X549489Y270747D01*
X549497Y270848D01*
X549497Y275223D01*
X556881Y282607D01*
X567323Y282607D01*
X574707Y275223D01*
X574707Y264781D01*
X567323Y257397D01*
X562948Y257397D01*
X562822Y257383D01*
X562696Y257376D01*
X562649Y257363D01*
X562601Y257357D01*
X562482Y257315D01*
X562361Y257280D01*
X562319Y257256D01*
X562273Y257240D01*
X562167Y257171D01*
X562057Y257110D01*
X562011Y257070D01*
X561981Y257051D01*
X561947Y257016D01*
X561871Y256951D01*
X560517Y255597D01*
X560438Y255498D01*
X560354Y255405D01*
X560330Y255362D01*
X560300Y255324D01*
X560246Y255210D01*
X560185Y255099D01*
X560172Y255053D01*
X560151Y255009D01*
X560125Y254886D01*
X560090Y254764D01*
X560085Y254703D01*
X560078Y254669D01*
X560079Y254621D01*
X560071Y254520D01*
X560071Y246633D01*
X552184Y246633D01*
X552058Y246619D01*
X551932Y246612D01*
X551885Y246599D01*
X551837Y246593D01*
X551718Y246551D01*
X551597Y246516D01*
X551555Y246492D01*
X551509Y246476D01*
X551403Y246407D01*
X551293Y246346D01*
X551247Y246306D01*
X551217Y246287D01*
X551183Y246252D01*
X551107Y246187D01*
X525835Y220915D01*
X522503Y219535D01*
X518897Y219535D01*
X516724Y220435D01*
X516722Y220436D01*
X516720Y220437D01*
X516558Y220483D01*
X516389Y220531D01*
X516387Y220531D01*
X516385Y220532D01*
X516141Y220551D01*
X270861Y220551D01*
X270836Y220548D01*
X270812Y220550D01*
X270663Y220529D01*
X270514Y220511D01*
X270491Y220503D01*
X270467Y220500D01*
X270327Y220444D01*
X270186Y220394D01*
X270166Y220381D01*
X270143Y220372D01*
X270020Y220286D01*
X269893Y220205D01*
X269876Y220187D01*
X269856Y220173D01*
X269756Y220062D01*
X269651Y219954D01*
X269639Y219933D01*
X269622Y219915D01*
X269549Y219784D01*
X269472Y219655D01*
X269465Y219632D01*
X269453Y219610D01*
X269412Y219466D01*
X269366Y219323D01*
X269364Y219299D01*
X269358Y219275D01*
X269350Y219125D01*
X269338Y218976D01*
X269342Y218952D01*
X269341Y218927D01*
X269376Y218685D01*
X287068Y142082D01*
X287094Y142008D01*
X287111Y141932D01*
X287152Y141845D01*
X287184Y141754D01*
X287227Y141688D01*
X287260Y141617D01*
X287320Y141542D01*
X287373Y141460D01*
X287429Y141406D01*
X287478Y141345D01*
X287554Y141285D01*
X287623Y141218D01*
X287690Y141177D01*
X287751Y141129D01*
X287880Y141063D01*
X287921Y141038D01*
X287941Y141032D01*
X287969Y141017D01*
X292373Y139193D01*
X295849Y135717D01*
X295869Y135701D01*
X295886Y135681D01*
X296006Y135593D01*
X296122Y135501D01*
X296146Y135490D01*
X296167Y135474D01*
X296303Y135415D01*
X296437Y135352D01*
X296463Y135346D01*
X296487Y135336D01*
X296633Y135310D01*
X296778Y135278D01*
X296804Y135279D01*
X296830Y135274D01*
X296978Y135282D01*
X297126Y135284D01*
X297152Y135291D01*
X297178Y135292D01*
X297320Y135333D01*
X297464Y135369D01*
X297487Y135381D01*
X297513Y135389D01*
X297642Y135461D01*
X297774Y135529D01*
X297794Y135546D01*
X297817Y135559D01*
X298003Y135717D01*
X301479Y139193D01*
X306765Y141383D01*
X312487Y141383D01*
X317773Y139193D01*
X321819Y135147D01*
X324009Y129861D01*
X324009Y129206D01*
X324012Y129180D01*
X324010Y129154D01*
X324032Y129007D01*
X324049Y128860D01*
X324057Y128835D01*
X324061Y128809D01*
X324116Y128671D01*
X324166Y128532D01*
X324180Y128510D01*
X324190Y128485D01*
X324275Y128364D01*
X324355Y128239D01*
X324374Y128221D01*
X324389Y128199D01*
X324499Y128100D01*
X324606Y127997D01*
X324628Y127983D01*
X324648Y127966D01*
X324778Y127894D01*
X324905Y127818D01*
X324930Y127810D01*
X324953Y127797D01*
X325096Y127757D01*
X325237Y127712D01*
X325263Y127710D01*
X325288Y127702D01*
X325532Y127683D01*
X387605Y127683D01*
X387704Y127694D01*
X387805Y127696D01*
X387877Y127714D01*
X387951Y127723D01*
X388045Y127756D01*
X388143Y127781D01*
X388209Y127815D01*
X388279Y127840D01*
X388363Y127895D01*
X388452Y127941D01*
X388509Y127989D01*
X388572Y128029D01*
X388641Y128101D01*
X388718Y128166D01*
X388762Y128226D01*
X388814Y128280D01*
X388865Y128366D01*
X388925Y128447D01*
X388955Y128515D01*
X388993Y128579D01*
X389023Y128675D01*
X389063Y128767D01*
X389076Y128840D01*
X389099Y128911D01*
X389107Y129011D01*
X389125Y129110D01*
X389121Y129184D01*
X389127Y129258D01*
X389112Y129358D01*
X389107Y129458D01*
X389086Y129529D01*
X389075Y129603D01*
X389038Y129696D01*
X389010Y129793D01*
X388974Y129858D01*
X388946Y129927D01*
X388889Y130009D01*
X388840Y130097D01*
X388775Y130173D01*
X388748Y130213D01*
X388721Y130237D01*
X388682Y130283D01*
X385845Y133120D01*
X381711Y140280D01*
X379571Y148266D01*
X379571Y156534D01*
X381711Y164520D01*
X385845Y171680D01*
X391692Y177527D01*
X398852Y181661D01*
X406838Y183801D01*
X415106Y183801D01*
X423092Y181661D01*
X430252Y177527D01*
X436099Y171680D01*
X440233Y164520D01*
X442373Y156534D01*
X442373Y148266D01*
X440233Y140280D01*
X436099Y133120D01*
X433135Y130156D01*
X433073Y130078D01*
X433003Y130005D01*
X432965Y129941D01*
X432919Y129883D01*
X432876Y129792D01*
X432824Y129706D01*
X432802Y129635D01*
X432770Y129568D01*
X432749Y129470D01*
X432718Y129374D01*
X432712Y129300D01*
X432696Y129227D01*
X432698Y129127D01*
X432690Y129027D01*
X432701Y128953D01*
X432702Y128879D01*
X432727Y128782D01*
X432742Y128682D01*
X432769Y128613D01*
X432787Y128541D01*
X432833Y128452D01*
X432871Y128358D01*
X432913Y128297D01*
X432947Y128231D01*
X433012Y128155D01*
X433069Y128072D01*
X433125Y128022D01*
X433173Y127966D01*
X433254Y127906D01*
X433328Y127839D01*
X433393Y127803D01*
X433453Y127758D01*
X433545Y127719D01*
X433633Y127670D01*
X433705Y127650D01*
X433773Y127620D01*
X433872Y127603D01*
X433969Y127575D01*
X434069Y127567D01*
X434116Y127559D01*
X434152Y127561D01*
X434212Y127556D01*
X573664Y127556D01*
X573764Y127567D01*
X573864Y127569D01*
X573937Y127587D01*
X574010Y127596D01*
X574105Y127629D01*
X574202Y127654D01*
X574269Y127688D01*
X574339Y127713D01*
X574423Y127768D01*
X574512Y127814D01*
X574569Y127862D01*
X574631Y127902D01*
X574701Y127974D01*
X574778Y128039D01*
X574822Y128099D01*
X574874Y128153D01*
X574925Y128239D01*
X574985Y128320D01*
X575014Y128388D01*
X575052Y128452D01*
X575083Y128548D01*
X575123Y128640D01*
X575136Y128713D01*
X575159Y128784D01*
X575167Y128884D01*
X575184Y128983D01*
X575181Y129057D01*
X575187Y129131D01*
X575172Y129231D01*
X575166Y129331D01*
X575146Y129402D01*
X575135Y129476D01*
X575098Y129569D01*
X575070Y129666D01*
X575034Y129731D01*
X575006Y129800D01*
X574949Y129882D01*
X574900Y129970D01*
X574835Y130046D01*
X574807Y130086D01*
X574781Y130110D01*
X574768Y130125D01*
X574767Y130126D01*
X574766Y130127D01*
X574741Y130156D01*
X564278Y140619D01*
X564179Y140698D01*
X564085Y140782D01*
X564043Y140806D01*
X564005Y140836D01*
X563891Y140890D01*
X563780Y140951D01*
X563734Y140964D01*
X563690Y140985D01*
X563567Y141011D01*
X563445Y141046D01*
X563384Y141051D01*
X563349Y141058D01*
X563301Y141057D01*
X563201Y141065D01*
X557389Y141065D01*
X550005Y148449D01*
X550005Y158891D01*
X557389Y166275D01*
X567831Y166275D01*
X575215Y158891D01*
X575215Y153079D01*
X575229Y152953D01*
X575236Y152827D01*
X575249Y152781D01*
X575255Y152733D01*
X575297Y152614D01*
X575332Y152492D01*
X575356Y152450D01*
X575372Y152405D01*
X575441Y152298D01*
X575502Y152188D01*
X575542Y152142D01*
X575561Y152112D01*
X575596Y152078D01*
X575661Y152002D01*
X600257Y127406D01*
X600258Y127405D01*
X600260Y127403D01*
X600396Y127295D01*
X600530Y127189D01*
X600532Y127188D01*
X600533Y127187D01*
X600751Y127076D01*
X602924Y126176D01*
X605474Y123626D01*
X606374Y121453D01*
X606375Y121451D01*
X606375Y121449D01*
X606463Y121292D01*
X606543Y121148D01*
X606544Y121147D01*
X606545Y121145D01*
X606704Y120959D01*
X609888Y117775D01*
X609909Y117758D01*
X609926Y117738D01*
X610045Y117650D01*
X610161Y117558D01*
X610185Y117547D01*
X610206Y117531D01*
X610342Y117472D01*
X610476Y117409D01*
X610502Y117404D01*
X610526Y117393D01*
X610673Y117367D01*
X610817Y117336D01*
X610843Y117336D01*
X610869Y117331D01*
X611017Y117339D01*
X611165Y117342D01*
X611191Y117348D01*
X611217Y117349D01*
X611359Y117390D01*
X611503Y117427D01*
X611527Y117439D01*
X611552Y117446D01*
X611681Y117518D01*
X611813Y117586D01*
X611833Y117603D01*
X611856Y117616D01*
X612042Y117775D01*
X612341Y118073D01*
X614546Y118987D01*
X627514Y118987D01*
X629719Y118073D01*
X631407Y116385D01*
X632321Y114180D01*
X632321Y110795D01*
X632326Y110745D01*
X632324Y110695D01*
X632346Y110572D01*
X632361Y110449D01*
X632378Y110402D01*
X632387Y110352D01*
X632436Y110238D01*
X632478Y110121D01*
X632505Y110079D01*
X632525Y110032D01*
X632600Y109932D01*
X632667Y109828D01*
X632703Y109793D01*
X632733Y109753D01*
X632828Y109672D01*
X632918Y109586D01*
X632961Y109560D01*
X632999Y109528D01*
X633110Y109471D01*
X633217Y109407D01*
X633265Y109392D01*
X633310Y109369D01*
X633430Y109339D01*
X633549Y109301D01*
X633599Y109297D01*
X633648Y109285D01*
X633772Y109283D01*
X633896Y109273D01*
X633946Y109280D01*
X633996Y109280D01*
X634118Y109306D01*
X634241Y109325D01*
X634288Y109343D01*
X634337Y109354D01*
X634449Y109407D01*
X634565Y109453D01*
X634606Y109482D01*
X634652Y109504D01*
X634749Y109581D01*
X634851Y109652D01*
X634885Y109690D01*
X634924Y109721D01*
X635001Y109819D01*
X635084Y109911D01*
X635109Y109955D01*
X635140Y109995D01*
X635251Y110212D01*
X636858Y114092D01*
X639459Y116693D01*
X639538Y116792D01*
X639622Y116886D01*
X639646Y116928D01*
X639676Y116966D01*
X639730Y117080D01*
X639791Y117191D01*
X639804Y117237D01*
X639825Y117281D01*
X639851Y117404D01*
X639886Y117526D01*
X639891Y117587D01*
X639898Y117621D01*
X639897Y117669D01*
X639905Y117770D01*
X639905Y124936D01*
X639891Y125062D01*
X639884Y125188D01*
X639871Y125235D01*
X639865Y125283D01*
X639823Y125402D01*
X639788Y125523D01*
X639764Y125565D01*
X639748Y125611D01*
X639679Y125717D01*
X639618Y125827D01*
X639578Y125873D01*
X639559Y125904D01*
X639524Y125937D01*
X639459Y126013D01*
X626270Y139203D01*
X626171Y139282D01*
X626077Y139366D01*
X626034Y139390D01*
X625997Y139420D01*
X625882Y139474D01*
X625772Y139535D01*
X625725Y139548D01*
X625681Y139569D01*
X625558Y139595D01*
X625436Y139630D01*
X625376Y139635D01*
X625341Y139642D01*
X625293Y139641D01*
X625192Y139649D01*
X614356Y139649D01*
X612151Y140563D01*
X610463Y142251D01*
X609549Y144456D01*
X609549Y160344D01*
X610463Y162549D01*
X612151Y164237D01*
X614356Y165151D01*
X630244Y165151D01*
X632449Y164237D01*
X634137Y162549D01*
X635051Y160344D01*
X635051Y149508D01*
X635065Y149382D01*
X635072Y149256D01*
X635085Y149209D01*
X635091Y149161D01*
X635133Y149042D01*
X635168Y148921D01*
X635192Y148879D01*
X635208Y148833D01*
X635277Y148727D01*
X635338Y148617D01*
X635378Y148570D01*
X635397Y148540D01*
X635432Y148507D01*
X635497Y148430D01*
X649912Y134016D01*
X651961Y131966D01*
X652955Y129568D01*
X652955Y117770D01*
X652969Y117644D01*
X652976Y117518D01*
X652989Y117472D01*
X652995Y117424D01*
X653037Y117305D01*
X653072Y117183D01*
X653096Y117141D01*
X653112Y117095D01*
X653181Y116989D01*
X653242Y116879D01*
X653282Y116833D01*
X653301Y116803D01*
X653336Y116769D01*
X653401Y116693D01*
X656002Y114092D01*
X657723Y109937D01*
X657771Y109849D01*
X657811Y109757D01*
X657856Y109698D01*
X657892Y109632D01*
X657960Y109558D01*
X658019Y109478D01*
X658076Y109430D01*
X658126Y109374D01*
X658209Y109317D01*
X658285Y109252D01*
X658352Y109218D01*
X658413Y109176D01*
X658506Y109139D01*
X658596Y109094D01*
X658668Y109076D01*
X658737Y109048D01*
X658836Y109034D01*
X658934Y109009D01*
X659008Y109008D01*
X659082Y108998D01*
X659182Y109006D01*
X659282Y109004D01*
X659355Y109020D01*
X659429Y109026D01*
X659525Y109057D01*
X659623Y109079D01*
X659690Y109111D01*
X659761Y109134D01*
X659847Y109185D01*
X659938Y109228D01*
X659996Y109275D01*
X660059Y109313D01*
X660132Y109383D01*
X660210Y109446D01*
X660256Y109504D01*
X660309Y109556D01*
X660364Y109640D01*
X660426Y109719D01*
X660472Y109809D01*
X660498Y109849D01*
X660510Y109883D01*
X660537Y109937D01*
X662258Y114092D01*
X665434Y117268D01*
X669584Y118987D01*
X674278Y118987D01*
X674404Y119001D01*
X674530Y119008D01*
X674577Y119021D01*
X674625Y119027D01*
X674744Y119069D01*
X674865Y119104D01*
X674907Y119128D01*
X674953Y119144D01*
X675059Y119213D01*
X675169Y119274D01*
X675216Y119314D01*
X675246Y119333D01*
X675279Y119368D01*
X675356Y119433D01*
X688454Y132531D01*
X691035Y133600D01*
X691102Y133638D01*
X691173Y133666D01*
X691254Y133722D01*
X691340Y133770D01*
X691396Y133821D01*
X691459Y133865D01*
X691525Y133938D01*
X691598Y134004D01*
X691641Y134067D01*
X691692Y134124D01*
X691740Y134210D01*
X691796Y134291D01*
X691824Y134362D01*
X691861Y134429D01*
X691888Y134523D01*
X691924Y134615D01*
X691935Y134690D01*
X691956Y134764D01*
X691968Y134913D01*
X691975Y134960D01*
X691973Y134979D01*
X691975Y135008D01*
X691975Y221240D01*
X691961Y221366D01*
X691954Y221492D01*
X691941Y221538D01*
X691935Y221586D01*
X691893Y221705D01*
X691858Y221827D01*
X691834Y221869D01*
X691818Y221914D01*
X691749Y222021D01*
X691688Y222131D01*
X691648Y222177D01*
X691629Y222207D01*
X691594Y222241D01*
X691529Y222317D01*
X685641Y228205D01*
X685641Y238647D01*
X693025Y246031D01*
X703467Y246031D01*
X710851Y238647D01*
X710851Y228205D01*
X705471Y222825D01*
X705392Y222726D01*
X705308Y222632D01*
X705284Y222590D01*
X705254Y222552D01*
X705200Y222438D01*
X705139Y222327D01*
X705126Y222281D01*
X705105Y222237D01*
X705079Y222114D01*
X705044Y221992D01*
X705039Y221931D01*
X705032Y221896D01*
X705033Y221848D01*
X705025Y221748D01*
X705025Y125702D01*
X704031Y123304D01*
X702196Y121469D01*
X699798Y120475D01*
X695484Y120475D01*
X695358Y120461D01*
X695232Y120454D01*
X695185Y120441D01*
X695137Y120435D01*
X695018Y120393D01*
X694897Y120358D01*
X694855Y120334D01*
X694809Y120318D01*
X694703Y120249D01*
X694593Y120188D01*
X694547Y120148D01*
X694516Y120129D01*
X694483Y120094D01*
X694407Y120029D01*
X690871Y116494D01*
X690856Y116474D01*
X690836Y116458D01*
X690747Y116338D01*
X690655Y116221D01*
X690644Y116198D01*
X690629Y116178D01*
X690570Y116041D01*
X690506Y115906D01*
X690501Y115881D01*
X690491Y115858D01*
X690464Y115711D01*
X690433Y115565D01*
X690433Y115540D01*
X690428Y115515D01*
X690436Y115365D01*
X690438Y115217D01*
X690445Y115192D01*
X690446Y115167D01*
X690487Y115024D01*
X690523Y114879D01*
X690535Y114856D01*
X690542Y114832D01*
X690615Y114702D01*
X690683Y114569D01*
X690699Y114550D01*
X690712Y114528D01*
X690812Y114417D01*
X690909Y114304D01*
X690929Y114289D01*
X690946Y114270D01*
X691069Y114185D01*
X691189Y114096D01*
X691212Y114086D01*
X691233Y114072D01*
X691372Y114018D01*
X691509Y113958D01*
X691534Y113954D01*
X691558Y113945D01*
X691705Y113923D01*
X691852Y113897D01*
X691877Y113898D01*
X691902Y113894D01*
X692052Y113907D01*
X692200Y113915D01*
X692224Y113922D01*
X692250Y113924D01*
X692392Y113970D01*
X692535Y114011D01*
X692557Y114024D01*
X692581Y114031D01*
X692795Y114150D01*
X693521Y114636D01*
X694946Y115226D01*
X695707Y115377D01*
X695707Y109219D01*
X689549Y109219D01*
X689700Y109980D01*
X690290Y111405D01*
X690776Y112131D01*
X690787Y112154D01*
X690803Y112173D01*
X690866Y112308D01*
X690935Y112441D01*
X690941Y112466D01*
X690952Y112488D01*
X690983Y112634D01*
X691019Y112779D01*
X691020Y112805D01*
X691025Y112829D01*
X691022Y112978D01*
X691025Y113128D01*
X691020Y113152D01*
X691019Y113178D01*
X690983Y113322D01*
X690951Y113468D01*
X690940Y113491D01*
X690934Y113516D01*
X690866Y113649D01*
X690802Y113783D01*
X690786Y113803D01*
X690774Y113825D01*
X690677Y113939D01*
X690585Y114056D01*
X690565Y114072D01*
X690549Y114091D01*
X690428Y114180D01*
X690311Y114272D01*
X690289Y114283D01*
X690268Y114298D01*
X690131Y114357D01*
X689996Y114421D01*
X689971Y114426D01*
X689948Y114436D01*
X689802Y114462D01*
X689655Y114494D01*
X689630Y114493D01*
X689605Y114498D01*
X689456Y114490D01*
X689307Y114487D01*
X689282Y114481D01*
X689257Y114480D01*
X689114Y114438D01*
X688969Y114402D01*
X688947Y114390D01*
X688922Y114383D01*
X688792Y114310D01*
X688659Y114242D01*
X688640Y114225D01*
X688618Y114213D01*
X688432Y114055D01*
X683567Y109190D01*
X683488Y109091D01*
X683404Y108997D01*
X683380Y108954D01*
X683350Y108917D01*
X683296Y108802D01*
X683235Y108692D01*
X683222Y108645D01*
X683201Y108601D01*
X683175Y108478D01*
X683140Y108356D01*
X683135Y108295D01*
X683128Y108261D01*
X683129Y108213D01*
X683121Y108112D01*
X683121Y105450D01*
X681402Y101300D01*
X679651Y99549D01*
X679588Y99471D01*
X679518Y99398D01*
X679480Y99334D01*
X679434Y99276D01*
X679391Y99185D01*
X679340Y99099D01*
X679317Y99028D01*
X679285Y98961D01*
X679264Y98863D01*
X679233Y98767D01*
X679227Y98693D01*
X679212Y98620D01*
X679213Y98520D01*
X679205Y98420D01*
X679216Y98346D01*
X679218Y98272D01*
X679242Y98175D01*
X679257Y98075D01*
X679285Y98006D01*
X679303Y97934D01*
X679349Y97845D01*
X679386Y97751D01*
X679428Y97690D01*
X679462Y97624D01*
X679527Y97548D01*
X679585Y97465D01*
X679640Y97415D01*
X679688Y97359D01*
X679769Y97299D01*
X679843Y97232D01*
X679909Y97196D01*
X679968Y97151D01*
X680061Y97112D01*
X680148Y97063D01*
X680220Y97043D01*
X680288Y97013D01*
X680387Y96996D01*
X680484Y96968D01*
X680584Y96960D01*
X680631Y96952D01*
X680667Y96954D01*
X680728Y96949D01*
X695655Y96949D01*
X695680Y96952D01*
G37*
%LPC*%
G36*
X1114869Y778288D02*
X1114869Y778288D01*
X1108533Y780912D01*
X1103683Y785762D01*
X1101058Y792099D01*
X1101058Y798957D01*
X1103683Y805294D01*
X1107543Y809154D01*
X1107559Y809174D01*
X1107579Y809191D01*
X1107667Y809311D01*
X1107759Y809427D01*
X1107771Y809450D01*
X1107786Y809471D01*
X1107845Y809608D01*
X1107908Y809742D01*
X1107914Y809767D01*
X1107924Y809791D01*
X1107950Y809938D01*
X1107982Y810082D01*
X1107981Y810109D01*
X1107986Y810134D01*
X1107978Y810283D01*
X1107976Y810431D01*
X1107969Y810456D01*
X1107968Y810483D01*
X1107927Y810625D01*
X1107891Y810769D01*
X1107879Y810792D01*
X1107871Y810817D01*
X1107799Y810947D01*
X1107731Y811079D01*
X1107714Y811099D01*
X1107701Y811122D01*
X1107543Y811308D01*
X1092643Y826207D01*
X1091263Y829539D01*
X1091263Y832469D01*
X1091255Y832545D01*
X1091256Y832621D01*
X1091235Y832717D01*
X1091223Y832815D01*
X1091198Y832887D01*
X1091181Y832962D01*
X1091139Y833051D01*
X1091106Y833143D01*
X1091064Y833207D01*
X1091032Y833276D01*
X1090970Y833353D01*
X1090917Y833436D01*
X1090862Y833489D01*
X1090814Y833549D01*
X1090737Y833610D01*
X1090666Y833678D01*
X1090601Y833717D01*
X1090541Y833765D01*
X1090407Y833833D01*
X1090367Y833857D01*
X1090349Y833863D01*
X1090323Y833876D01*
X1086857Y835312D01*
X1080168Y842001D01*
X1076547Y850742D01*
X1076547Y860202D01*
X1080168Y868943D01*
X1086857Y875632D01*
X1095598Y879253D01*
X1105058Y879253D01*
X1113799Y875632D01*
X1120488Y868943D01*
X1124109Y860202D01*
X1124109Y850742D01*
X1120488Y842001D01*
X1113799Y835312D01*
X1112637Y834831D01*
X1112506Y834758D01*
X1112372Y834689D01*
X1112354Y834673D01*
X1112333Y834661D01*
X1112221Y834560D01*
X1112107Y834463D01*
X1112093Y834443D01*
X1112075Y834427D01*
X1111989Y834304D01*
X1111900Y834183D01*
X1111890Y834160D01*
X1111876Y834141D01*
X1111821Y834001D01*
X1111762Y833863D01*
X1111757Y833839D01*
X1111749Y833816D01*
X1111727Y833667D01*
X1111700Y833520D01*
X1111701Y833495D01*
X1111698Y833472D01*
X1111710Y833321D01*
X1111718Y833172D01*
X1111725Y833148D01*
X1111727Y833124D01*
X1111773Y832981D01*
X1111815Y832837D01*
X1111826Y832816D01*
X1111834Y832793D01*
X1111911Y832664D01*
X1111985Y832533D01*
X1112004Y832510D01*
X1112013Y832494D01*
X1112046Y832460D01*
X1112143Y832346D01*
X1131275Y813214D01*
X1131374Y813136D01*
X1131468Y813051D01*
X1131510Y813028D01*
X1131548Y812998D01*
X1131662Y812944D01*
X1131773Y812883D01*
X1131820Y812869D01*
X1131863Y812849D01*
X1131987Y812822D01*
X1132108Y812788D01*
X1132169Y812783D01*
X1132204Y812775D01*
X1132252Y812776D01*
X1132352Y812768D01*
X1144207Y812768D01*
X1150543Y810144D01*
X1155393Y805294D01*
X1158018Y798957D01*
X1158018Y792099D01*
X1155393Y785762D01*
X1150543Y780912D01*
X1144207Y778288D01*
X1114869Y778288D01*
G37*
%LPD*%
%LPC*%
G36*
X152838Y120999D02*
X152838Y120999D01*
X144852Y123139D01*
X137692Y127273D01*
X131845Y133120D01*
X127711Y140280D01*
X125571Y148266D01*
X125571Y156534D01*
X127711Y164520D01*
X131845Y171680D01*
X137692Y177527D01*
X144852Y181661D01*
X152838Y183801D01*
X161106Y183801D01*
X169092Y181661D01*
X176252Y177527D01*
X182099Y171680D01*
X186233Y164520D01*
X188373Y156534D01*
X188373Y148266D01*
X186233Y140280D01*
X182099Y133120D01*
X176252Y127273D01*
X169092Y123139D01*
X161106Y120999D01*
X152838Y120999D01*
G37*
%LPD*%
%LPC*%
G36*
X280882Y243077D02*
X280882Y243077D01*
X274422Y244808D01*
X268629Y248152D01*
X263900Y252881D01*
X260556Y258674D01*
X258825Y265134D01*
X258825Y271822D01*
X260556Y278282D01*
X263900Y284075D01*
X268629Y288804D01*
X274422Y292148D01*
X280882Y293879D01*
X287570Y293879D01*
X294030Y292148D01*
X299823Y288804D01*
X304552Y284075D01*
X307896Y278282D01*
X309627Y271822D01*
X309627Y265134D01*
X307896Y258674D01*
X304552Y252881D01*
X299823Y248152D01*
X294030Y244808D01*
X287570Y243077D01*
X280882Y243077D01*
G37*
%LPD*%
%LPC*%
G36*
X724544Y19129D02*
X724544Y19129D01*
X718427Y20768D01*
X712942Y23935D01*
X708465Y28412D01*
X705298Y33897D01*
X703659Y40014D01*
X703659Y46346D01*
X705298Y52463D01*
X708465Y57948D01*
X712942Y62425D01*
X718427Y65592D01*
X724544Y67231D01*
X730876Y67231D01*
X736993Y65592D01*
X742478Y62425D01*
X746955Y57948D01*
X750122Y52463D01*
X751761Y46346D01*
X751761Y40014D01*
X750122Y33897D01*
X746955Y28412D01*
X742478Y23935D01*
X736993Y20768D01*
X730876Y19129D01*
X724544Y19129D01*
G37*
%LPD*%
%LPC*%
G36*
X953144Y16589D02*
X953144Y16589D01*
X947027Y18228D01*
X941542Y21395D01*
X937065Y25872D01*
X933898Y31357D01*
X932259Y37474D01*
X932259Y43806D01*
X933898Y49923D01*
X937065Y55408D01*
X941542Y59885D01*
X947027Y63052D01*
X953144Y64691D01*
X959476Y64691D01*
X965593Y63052D01*
X971078Y59885D01*
X975555Y55408D01*
X978722Y49923D01*
X980361Y43806D01*
X980361Y37474D01*
X978722Y31357D01*
X975555Y25872D01*
X971078Y21395D01*
X965593Y18228D01*
X959476Y16589D01*
X953144Y16589D01*
G37*
%LPD*%
%LPC*%
G36*
X1057284Y18283D02*
X1057284Y18283D01*
X1051167Y19922D01*
X1045682Y23088D01*
X1041205Y27566D01*
X1038038Y33050D01*
X1036399Y39167D01*
X1036399Y45500D01*
X1038038Y51617D01*
X1041205Y57101D01*
X1045682Y61579D01*
X1051167Y64745D01*
X1057284Y66384D01*
X1063616Y66384D01*
X1069733Y64745D01*
X1075218Y61579D01*
X1079695Y57101D01*
X1082862Y51617D01*
X1084501Y45500D01*
X1084501Y39167D01*
X1082862Y33050D01*
X1079695Y27566D01*
X1075218Y23088D01*
X1069733Y19922D01*
X1063616Y18283D01*
X1057284Y18283D01*
G37*
%LPD*%
%LPC*%
G36*
X636914Y17436D02*
X636914Y17436D01*
X630797Y19075D01*
X625312Y22241D01*
X620835Y26719D01*
X617668Y32203D01*
X616029Y38320D01*
X616029Y44653D01*
X617668Y50770D01*
X620835Y56254D01*
X625312Y60732D01*
X630797Y63898D01*
X636914Y65537D01*
X643246Y65537D01*
X649363Y63898D01*
X654848Y60732D01*
X659325Y56254D01*
X662492Y50770D01*
X664131Y44653D01*
X664131Y38320D01*
X662492Y32203D01*
X659325Y26719D01*
X654848Y22241D01*
X649363Y19075D01*
X643246Y17436D01*
X636914Y17436D01*
G37*
%LPD*%
%LPC*%
G36*
X1154977Y387683D02*
X1154977Y387683D01*
X1147071Y390958D01*
X1141020Y397009D01*
X1137745Y404915D01*
X1137745Y413473D01*
X1141020Y421379D01*
X1147071Y427430D01*
X1154977Y430705D01*
X1163535Y430705D01*
X1171441Y427430D01*
X1177492Y421379D01*
X1180767Y413473D01*
X1180767Y404915D01*
X1177492Y397009D01*
X1171441Y390958D01*
X1163535Y387683D01*
X1154977Y387683D01*
G37*
%LPD*%
%LPC*%
G36*
X93103Y889333D02*
X93103Y889333D01*
X85850Y892337D01*
X80299Y897888D01*
X77295Y905141D01*
X77295Y912991D01*
X80299Y920244D01*
X85850Y925795D01*
X93103Y928799D01*
X100953Y928799D01*
X108206Y925795D01*
X113757Y920244D01*
X116761Y912991D01*
X116761Y905141D01*
X113757Y897888D01*
X108206Y892337D01*
X100953Y889333D01*
X93103Y889333D01*
G37*
%LPD*%
%LPC*%
G36*
X1172095Y888063D02*
X1172095Y888063D01*
X1164842Y891067D01*
X1159291Y896618D01*
X1156287Y903871D01*
X1156287Y911721D01*
X1159291Y918974D01*
X1164842Y924525D01*
X1172095Y927529D01*
X1179945Y927529D01*
X1187198Y924525D01*
X1192749Y918974D01*
X1195753Y911721D01*
X1195753Y903871D01*
X1192749Y896618D01*
X1187198Y891067D01*
X1179945Y888063D01*
X1172095Y888063D01*
G37*
%LPD*%
%LPC*%
G36*
X1164475Y27511D02*
X1164475Y27511D01*
X1157222Y30515D01*
X1151671Y36066D01*
X1148667Y43319D01*
X1148667Y51169D01*
X1151671Y58422D01*
X1157222Y63973D01*
X1164475Y66977D01*
X1172325Y66977D01*
X1179578Y63973D01*
X1185129Y58422D01*
X1188133Y51169D01*
X1188133Y43319D01*
X1185129Y36066D01*
X1179578Y30515D01*
X1172325Y27511D01*
X1164475Y27511D01*
G37*
%LPD*%
%LPC*%
G36*
X31381Y22685D02*
X31381Y22685D01*
X24128Y25689D01*
X18577Y31240D01*
X15573Y38493D01*
X15573Y46343D01*
X18577Y53596D01*
X24128Y59147D01*
X31381Y62151D01*
X39231Y62151D01*
X46484Y59147D01*
X52035Y53596D01*
X55039Y46343D01*
X55039Y38493D01*
X52035Y31240D01*
X46484Y25689D01*
X39231Y22685D01*
X31381Y22685D01*
G37*
%LPD*%
%LPC*%
G36*
X25936Y892667D02*
X25936Y892667D01*
X19044Y895522D01*
X13770Y900796D01*
X10915Y907688D01*
X10915Y915148D01*
X13770Y922040D01*
X19044Y927314D01*
X25936Y930169D01*
X33396Y930169D01*
X40288Y927314D01*
X45562Y922040D01*
X48417Y915148D01*
X48417Y907688D01*
X45562Y900796D01*
X40288Y895522D01*
X33396Y892667D01*
X25936Y892667D01*
G37*
%LPD*%
%LPC*%
G36*
X25936Y312667D02*
X25936Y312667D01*
X19044Y315522D01*
X13770Y320796D01*
X10915Y327688D01*
X10915Y335148D01*
X13770Y342040D01*
X19044Y347314D01*
X25936Y350169D01*
X33396Y350169D01*
X40288Y347314D01*
X45562Y342040D01*
X48417Y335148D01*
X48417Y327688D01*
X45562Y320796D01*
X40288Y315522D01*
X33396Y312667D01*
X25936Y312667D01*
G37*
%LPD*%
%LPC*%
G36*
X1114665Y322929D02*
X1114665Y322929D01*
X1107281Y330313D01*
X1107281Y340755D01*
X1110386Y343860D01*
X1110479Y343977D01*
X1110576Y344092D01*
X1110587Y344114D01*
X1110602Y344133D01*
X1110667Y344268D01*
X1110735Y344402D01*
X1110741Y344426D01*
X1110751Y344448D01*
X1110783Y344594D01*
X1110819Y344741D01*
X1110820Y344765D01*
X1110825Y344788D01*
X1110822Y344938D01*
X1110824Y345089D01*
X1110819Y345113D01*
X1110819Y345137D01*
X1110782Y345283D01*
X1110750Y345430D01*
X1110740Y345451D01*
X1110734Y345475D01*
X1110665Y345608D01*
X1110600Y345744D01*
X1110585Y345763D01*
X1110574Y345785D01*
X1110477Y345899D01*
X1110383Y346017D01*
X1110364Y346032D01*
X1110348Y346050D01*
X1110227Y346140D01*
X1110109Y346233D01*
X1110083Y346246D01*
X1110068Y346257D01*
X1110025Y346276D01*
X1110011Y346283D01*
X1108303Y347991D01*
X1107389Y350196D01*
X1107389Y366084D01*
X1108303Y368289D01*
X1109991Y369977D01*
X1112196Y370891D01*
X1128084Y370891D01*
X1130289Y369977D01*
X1131977Y368289D01*
X1132891Y366084D01*
X1132891Y350196D01*
X1131977Y347991D01*
X1130289Y346303D01*
X1130029Y346195D01*
X1129898Y346122D01*
X1129764Y346053D01*
X1129746Y346038D01*
X1129725Y346026D01*
X1129613Y345925D01*
X1129499Y345827D01*
X1129484Y345808D01*
X1129466Y345792D01*
X1129381Y345668D01*
X1129292Y345547D01*
X1129282Y345525D01*
X1129268Y345505D01*
X1129213Y345365D01*
X1129154Y345227D01*
X1129149Y345203D01*
X1129140Y345181D01*
X1129118Y345032D01*
X1129092Y344884D01*
X1129093Y344860D01*
X1129090Y344836D01*
X1129102Y344686D01*
X1129110Y344536D01*
X1129117Y344513D01*
X1129119Y344489D01*
X1129165Y344346D01*
X1129206Y344201D01*
X1129218Y344180D01*
X1129226Y344157D01*
X1129303Y344028D01*
X1129377Y343897D01*
X1129395Y343875D01*
X1129405Y343858D01*
X1129438Y343825D01*
X1129535Y343711D01*
X1132491Y340755D01*
X1132491Y330313D01*
X1125107Y322929D01*
X1114665Y322929D01*
G37*
%LPD*%
%LPC*%
G36*
X1132585Y757935D02*
X1132585Y757935D01*
X1132585Y768668D01*
X1141862Y768668D01*
X1144004Y768329D01*
X1146067Y767659D01*
X1148000Y766674D01*
X1149755Y765399D01*
X1151288Y763865D01*
X1152563Y762110D01*
X1153548Y760178D01*
X1154218Y758115D01*
X1154247Y757935D01*
X1132585Y757935D01*
G37*
%LPD*%
%LPC*%
G36*
X1104829Y757935D02*
X1104829Y757935D01*
X1104858Y758115D01*
X1105528Y760178D01*
X1106513Y762110D01*
X1107788Y763865D01*
X1109321Y765399D01*
X1111076Y766674D01*
X1113009Y767659D01*
X1115072Y768329D01*
X1117214Y768668D01*
X1126491Y768668D01*
X1126491Y757935D01*
X1104829Y757935D01*
G37*
%LPD*%
%LPC*%
G36*
X1132585Y741108D02*
X1132585Y741108D01*
X1132585Y751841D01*
X1154247Y751841D01*
X1154218Y751661D01*
X1153548Y749598D01*
X1152563Y747666D01*
X1151288Y745911D01*
X1149755Y744377D01*
X1148000Y743102D01*
X1146067Y742117D01*
X1144004Y741447D01*
X1141862Y741108D01*
X1132585Y741108D01*
G37*
%LPD*%
%LPC*%
G36*
X1117214Y741108D02*
X1117214Y741108D01*
X1115072Y741447D01*
X1113009Y742117D01*
X1111076Y743102D01*
X1109321Y744377D01*
X1107788Y745911D01*
X1106513Y747666D01*
X1105528Y749598D01*
X1104858Y751661D01*
X1104829Y751841D01*
X1126491Y751841D01*
X1126491Y741108D01*
X1117214Y741108D01*
G37*
%LPD*%
%LPC*%
G36*
X882395Y894333D02*
X882395Y894333D01*
X882395Y903479D01*
X882652Y903439D01*
X884439Y902858D01*
X886113Y902005D01*
X887634Y900900D01*
X888962Y899572D01*
X890067Y898051D01*
X890920Y896377D01*
X891107Y895801D01*
X891126Y895759D01*
X891138Y895715D01*
X891199Y895601D01*
X891252Y895484D01*
X891280Y895448D01*
X891301Y895407D01*
X891386Y895310D01*
X891465Y895208D01*
X891501Y895179D01*
X891531Y895145D01*
X891635Y895070D01*
X891736Y894988D01*
X891777Y894968D01*
X891814Y894941D01*
X891933Y894892D01*
X892049Y894835D01*
X892093Y894825D01*
X892135Y894807D01*
X892263Y894786D01*
X892389Y894757D01*
X892434Y894757D01*
X892479Y894750D01*
X892608Y894758D01*
X892737Y894759D01*
X892781Y894769D01*
X892827Y894772D01*
X892950Y894810D01*
X893076Y894840D01*
X893117Y894860D01*
X893160Y894873D01*
X893272Y894937D01*
X893388Y894995D01*
X893423Y895024D01*
X893462Y895047D01*
X893557Y895135D01*
X893656Y895218D01*
X893684Y895254D01*
X893717Y895285D01*
X893789Y895393D01*
X893867Y895495D01*
X893885Y895537D01*
X893911Y895575D01*
X894005Y895801D01*
X894192Y896377D01*
X895045Y898051D01*
X896150Y899572D01*
X897478Y900900D01*
X898999Y902005D01*
X900673Y902858D01*
X902460Y903439D01*
X902717Y903479D01*
X902717Y894333D01*
X882395Y894333D01*
G37*
%LPD*%
%LPC*%
G36*
X247903Y121411D02*
X247903Y121411D01*
X247903Y127860D01*
X248172Y129558D01*
X248704Y131193D01*
X249484Y132725D01*
X250495Y134116D01*
X251710Y135331D01*
X253101Y136342D01*
X254633Y137122D01*
X256033Y137577D01*
X256033Y121411D01*
X247903Y121411D01*
G37*
%LPD*%
%LPC*%
G36*
X254633Y100114D02*
X254633Y100114D01*
X253101Y100894D01*
X251710Y101905D01*
X250495Y103120D01*
X249484Y104511D01*
X248704Y106043D01*
X248172Y107678D01*
X247903Y109376D01*
X247903Y115825D01*
X256033Y115825D01*
X256033Y99659D01*
X254633Y100114D01*
G37*
%LPD*%
%LPC*%
G36*
X1010665Y707391D02*
X1010665Y707391D01*
X1018287Y707391D01*
X1018287Y701510D01*
X1018037Y699931D01*
X1017542Y698410D01*
X1016816Y696985D01*
X1015876Y695691D01*
X1014745Y694560D01*
X1013451Y693620D01*
X1012026Y692894D01*
X1010665Y692451D01*
X1010665Y707391D01*
G37*
%LPD*%
%LPC*%
G36*
X642024Y661415D02*
X642024Y661415D01*
X642024Y669037D01*
X656963Y669037D01*
X656521Y667676D01*
X655795Y666251D01*
X654855Y664957D01*
X653724Y663826D01*
X652430Y662886D01*
X651005Y662160D01*
X649484Y661665D01*
X647904Y661415D01*
X642024Y661415D01*
G37*
%LPD*%
%LPC*%
G36*
X631065Y661415D02*
X631065Y661415D01*
X629485Y661665D01*
X627964Y662160D01*
X626539Y662886D01*
X625245Y663826D01*
X624114Y664957D01*
X623174Y666251D01*
X622448Y667676D01*
X622006Y669037D01*
X636945Y669037D01*
X636945Y661415D01*
X631065Y661415D01*
G37*
%LPD*%
%LPC*%
G36*
X1121917Y235965D02*
X1121917Y235965D01*
X1121917Y243079D01*
X1123674Y243079D01*
X1129031Y237722D01*
X1129031Y235965D01*
X1121917Y235965D01*
G37*
%LPD*%
%LPC*%
G36*
X877823Y233171D02*
X877823Y233171D01*
X877823Y240285D01*
X879580Y240285D01*
X884937Y234928D01*
X884937Y233171D01*
X877823Y233171D01*
G37*
%LPD*%
%LPC*%
G36*
X564641Y181101D02*
X564641Y181101D01*
X564641Y188215D01*
X566398Y188215D01*
X571755Y182858D01*
X571755Y181101D01*
X564641Y181101D01*
G37*
%LPD*%
%LPC*%
G36*
X789177Y338581D02*
X789177Y338581D01*
X789177Y345695D01*
X790934Y345695D01*
X796291Y340338D01*
X796291Y338581D01*
X789177Y338581D01*
G37*
%LPD*%
%LPC*%
G36*
X963929Y235203D02*
X963929Y235203D01*
X963929Y242317D01*
X965686Y242317D01*
X971043Y236960D01*
X971043Y235203D01*
X963929Y235203D01*
G37*
%LPD*%
%LPC*%
G36*
X564133Y246633D02*
X564133Y246633D01*
X564133Y253747D01*
X565890Y253747D01*
X571247Y248390D01*
X571247Y246633D01*
X564133Y246633D01*
G37*
%LPD*%
%LPC*%
G36*
X1121917Y231903D02*
X1121917Y231903D01*
X1129031Y231903D01*
X1129031Y230146D01*
X1123674Y224789D01*
X1121917Y224789D01*
X1121917Y231903D01*
G37*
%LPD*%
%LPC*%
G36*
X963929Y231141D02*
X963929Y231141D01*
X971043Y231141D01*
X971043Y229384D01*
X965686Y224027D01*
X963929Y224027D01*
X963929Y231141D01*
G37*
%LPD*%
%LPC*%
G36*
X877823Y229109D02*
X877823Y229109D01*
X884937Y229109D01*
X884937Y227352D01*
X879580Y221995D01*
X877823Y221995D01*
X877823Y229109D01*
G37*
%LPD*%
%LPC*%
G36*
X564641Y177039D02*
X564641Y177039D01*
X571755Y177039D01*
X571755Y175282D01*
X566398Y169925D01*
X564641Y169925D01*
X564641Y177039D01*
G37*
%LPD*%
%LPC*%
G36*
X564133Y242571D02*
X564133Y242571D01*
X571247Y242571D01*
X571247Y240814D01*
X565890Y235457D01*
X564133Y235457D01*
X564133Y242571D01*
G37*
%LPD*%
%LPC*%
G36*
X789177Y334519D02*
X789177Y334519D01*
X796291Y334519D01*
X796291Y332762D01*
X790934Y327405D01*
X789177Y327405D01*
X789177Y334519D01*
G37*
%LPD*%
%LPC*%
G36*
X1110741Y235965D02*
X1110741Y235965D01*
X1110741Y237722D01*
X1116098Y243079D01*
X1117855Y243079D01*
X1117855Y235965D01*
X1110741Y235965D01*
G37*
%LPD*%
%LPC*%
G36*
X952753Y235203D02*
X952753Y235203D01*
X952753Y236960D01*
X958110Y242317D01*
X959867Y242317D01*
X959867Y235203D01*
X952753Y235203D01*
G37*
%LPD*%
%LPC*%
G36*
X866647Y233171D02*
X866647Y233171D01*
X866647Y234928D01*
X872004Y240285D01*
X873761Y240285D01*
X873761Y233171D01*
X866647Y233171D01*
G37*
%LPD*%
%LPC*%
G36*
X778001Y338581D02*
X778001Y338581D01*
X778001Y340338D01*
X783358Y345695D01*
X785115Y345695D01*
X785115Y338581D01*
X778001Y338581D01*
G37*
%LPD*%
%LPC*%
G36*
X553465Y181101D02*
X553465Y181101D01*
X553465Y182858D01*
X558822Y188215D01*
X560579Y188215D01*
X560579Y181101D01*
X553465Y181101D01*
G37*
%LPD*%
%LPC*%
G36*
X558822Y169925D02*
X558822Y169925D01*
X553465Y175282D01*
X553465Y177039D01*
X560579Y177039D01*
X560579Y169925D01*
X558822Y169925D01*
G37*
%LPD*%
%LPC*%
G36*
X783358Y327405D02*
X783358Y327405D01*
X778001Y332762D01*
X778001Y334519D01*
X785115Y334519D01*
X785115Y327405D01*
X783358Y327405D01*
G37*
%LPD*%
%LPC*%
G36*
X1116098Y224789D02*
X1116098Y224789D01*
X1110741Y230146D01*
X1110741Y231903D01*
X1117855Y231903D01*
X1117855Y224789D01*
X1116098Y224789D01*
G37*
%LPD*%
%LPC*%
G36*
X872004Y221995D02*
X872004Y221995D01*
X866647Y227352D01*
X866647Y229109D01*
X873761Y229109D01*
X873761Y221995D01*
X872004Y221995D01*
G37*
%LPD*%
%LPC*%
G36*
X558314Y235457D02*
X558314Y235457D01*
X552957Y240814D01*
X552957Y242571D01*
X560071Y242571D01*
X560071Y235457D01*
X558314Y235457D01*
G37*
%LPD*%
%LPC*%
G36*
X958110Y224027D02*
X958110Y224027D01*
X952753Y229384D01*
X952753Y231141D01*
X959867Y231141D01*
X959867Y224027D01*
X958110Y224027D01*
G37*
%LPD*%
%LPC*%
G36*
X1073403Y111505D02*
X1073403Y111505D01*
X1073403Y117663D01*
X1074164Y117512D01*
X1075589Y116921D01*
X1076872Y116064D01*
X1077962Y114974D01*
X1078819Y113691D01*
X1079410Y112266D01*
X1079561Y111505D01*
X1073403Y111505D01*
G37*
%LPD*%
%LPC*%
G36*
X698753Y109219D02*
X698753Y109219D01*
X698753Y115377D01*
X699514Y115226D01*
X700939Y114635D01*
X702222Y113778D01*
X703312Y112688D01*
X704169Y111405D01*
X704760Y109980D01*
X704911Y109219D01*
X698753Y109219D01*
G37*
%LPD*%
%LPC*%
G36*
X1064199Y111505D02*
X1064199Y111505D01*
X1064311Y112068D01*
X1064311Y112069D01*
X1064350Y112266D01*
X1064941Y113691D01*
X1065798Y114974D01*
X1066888Y116064D01*
X1068171Y116921D01*
X1069596Y117512D01*
X1070357Y117663D01*
X1070357Y111505D01*
X1064199Y111505D01*
G37*
%LPD*%
%LPC*%
G36*
X1073403Y108459D02*
X1073403Y108459D01*
X1079561Y108459D01*
X1079410Y107698D01*
X1078819Y106273D01*
X1077962Y104990D01*
X1076872Y103900D01*
X1075589Y103043D01*
X1074164Y102452D01*
X1073403Y102301D01*
X1073403Y108459D01*
G37*
%LPD*%
%LPC*%
G36*
X1069596Y102452D02*
X1069596Y102452D01*
X1068171Y103043D01*
X1066888Y103900D01*
X1065798Y104990D01*
X1064941Y106273D01*
X1064350Y107698D01*
X1064199Y108459D01*
X1070357Y108459D01*
X1070357Y102301D01*
X1069596Y102452D01*
G37*
%LPD*%
%LPC*%
G36*
X1129537Y754887D02*
X1129537Y754887D01*
X1129537Y754889D01*
X1129539Y754889D01*
X1129539Y754887D01*
X1129537Y754887D01*
G37*
%LPD*%
D10*
X562102Y270002D03*
X562102Y244602D03*
D11*
X562610Y153670D03*
X562610Y179070D03*
D12*
X258826Y127000D02*
X258826Y110236D01*
X284226Y110236D02*
X284226Y127000D01*
X309626Y127000D02*
X309626Y110236D01*
D13*
X631865Y671576D02*
X647105Y671576D01*
X647105Y696976D02*
X631865Y696976D01*
D14*
X1049528Y855472D03*
X1100328Y855472D03*
D15*
X877824Y133350D03*
X903224Y133350D03*
X774446Y134366D03*
X799846Y134366D03*
D16*
X506966Y380118D03*
D17*
X532366Y380118D03*
X506966Y405518D03*
X532366Y405518D03*
X506966Y430918D03*
X532366Y430918D03*
X506966Y456318D03*
X532366Y456318D03*
X506966Y481718D03*
X532366Y481718D03*
X506966Y507118D03*
X532366Y507118D03*
X506966Y532518D03*
X532366Y532518D03*
X506966Y557918D03*
X532366Y557918D03*
X506966Y583318D03*
X532366Y583318D03*
X506966Y608718D03*
X532366Y608718D03*
X506966Y634118D03*
X532366Y634118D03*
X506966Y659518D03*
X532366Y659518D03*
X506966Y684918D03*
X532366Y684918D03*
X506966Y710318D03*
X532366Y710318D03*
X506966Y735718D03*
X532366Y735718D03*
X506966Y761118D03*
X532366Y761118D03*
X506966Y786518D03*
X532366Y786518D03*
X506966Y811918D03*
X532366Y811918D03*
X506966Y837318D03*
X532366Y837318D03*
X506966Y862718D03*
X532366Y862718D03*
D10*
X1037590Y337566D03*
X1037590Y235966D03*
X698246Y335026D03*
X698246Y233426D03*
X961898Y334772D03*
X961898Y233172D03*
X875792Y332740D03*
X875792Y231140D03*
X787146Y336550D03*
X787146Y234950D03*
D13*
X779526Y575310D02*
X779526Y590550D01*
X804926Y590550D02*
X804926Y575310D01*
X830326Y575310D02*
X830326Y590550D01*
X855726Y590550D02*
X855726Y575310D01*
X881126Y575310D02*
X881126Y590550D01*
X906526Y590550D02*
X906526Y575310D01*
X931926Y575310D02*
X931926Y590550D01*
X957326Y590550D02*
X957326Y575310D01*
X982726Y575310D02*
X982726Y590550D01*
X1008126Y590550D02*
X1008126Y575310D01*
X1008126Y702310D02*
X1008126Y717550D01*
X982726Y717550D02*
X982726Y702310D01*
X957326Y702310D02*
X957326Y717550D01*
X931926Y717550D02*
X931926Y702310D01*
X906526Y702310D02*
X906526Y717550D01*
X881126Y717550D02*
X881126Y702310D01*
X855726Y702310D02*
X855726Y717550D01*
X830326Y717550D02*
X830326Y702310D01*
X804926Y702310D02*
X804926Y717550D01*
X779526Y717550D02*
X779526Y702310D01*
D18*
X995680Y109982D03*
D19*
X1021080Y109982D03*
X1046480Y109982D03*
X1071880Y109982D03*
D18*
X621030Y107696D03*
D19*
X646430Y107696D03*
X671830Y107696D03*
X697230Y107696D03*
D20*
X981456Y891794D03*
X956056Y891794D03*
X930656Y891794D03*
X905256Y891794D03*
X879856Y891794D03*
X854456Y891794D03*
X803656Y891794D03*
X778256Y891794D03*
X752856Y891794D03*
X727456Y891794D03*
X702056Y891794D03*
X676656Y891794D03*
X676656Y409194D03*
X702056Y409194D03*
X727456Y409194D03*
X752856Y409194D03*
X778256Y409194D03*
X803656Y409194D03*
X829056Y409194D03*
X854456Y409194D03*
X892556Y409194D03*
X917956Y409194D03*
X943356Y409194D03*
X968756Y409194D03*
X994156Y409194D03*
X1019556Y409194D03*
X1044956Y409194D03*
X1070356Y409194D03*
D21*
X156972Y152400D03*
X410972Y152400D03*
D15*
X609600Y321564D03*
X635000Y321564D03*
D11*
X1119886Y233934D03*
X1119886Y335534D03*
D22*
X1118299Y795528D02*
X1140778Y795528D01*
X1140778Y754888D02*
X1118299Y754888D01*
D23*
X624205Y829945D02*
X622300Y831850D01*
D24*
X622300Y882650D01*
X624205Y829945D02*
X635000Y819150D01*
X635000Y701461D02*
X639485Y696976D01*
X635000Y701461D02*
X635000Y819150D01*
X622300Y882650D02*
X516890Y882650D01*
X515620Y883920D01*
X501650Y883920D01*
X450850Y833120D01*
X450850Y228600D01*
X258826Y228600D01*
X284226Y118618D01*
X450850Y228600D02*
X520700Y228600D01*
X640414Y910491D02*
X655673Y925750D01*
X640414Y900764D02*
X622300Y882650D01*
X640414Y900764D02*
X640414Y910491D01*
X1008714Y925750D02*
X1050290Y884174D01*
X1050290Y856234D01*
X1049528Y855472D01*
X1008714Y925750D02*
X655673Y925750D01*
D25*
X562102Y270002D02*
X520700Y228600D01*
D23*
X565150Y241300D02*
X565150Y184150D01*
X562610Y179070D01*
X565150Y241300D02*
X562102Y244602D01*
X698494Y107944D02*
X717550Y127000D01*
X717550Y234950D01*
X704850Y247650D01*
X565150Y247650D01*
X697230Y107696D02*
X698494Y107944D01*
X562102Y244602D02*
X565150Y247650D01*
X920750Y228600D02*
X958850Y228600D01*
X920750Y228600D02*
X876300Y228600D01*
X875792Y231140D01*
X958850Y228600D02*
X961898Y233172D01*
X800100Y349250D02*
X787400Y336550D01*
X920750Y349250D02*
X984250Y349250D01*
X920750Y349250D02*
X800100Y349250D01*
X984250Y349250D02*
X1041400Y406400D01*
X787400Y336550D02*
X787146Y336550D01*
X1041400Y406400D02*
X1044956Y409194D01*
X1009650Y635000D02*
X1009650Y704850D01*
X1009650Y635000D02*
X1047750Y596900D01*
X1047750Y412750D01*
X1009650Y704850D02*
X1008126Y709930D01*
X1047750Y412750D02*
X1044956Y409194D01*
X920750Y349250D02*
X920750Y228600D01*
X533400Y431800D02*
X532366Y430918D01*
X1022350Y165100D02*
X1072243Y115207D01*
X1022350Y254000D02*
X1022350Y311150D01*
X1022350Y254000D02*
X1022350Y165100D01*
X1022350Y311150D02*
X1047750Y311150D01*
X1130300Y393700D01*
X1130300Y750316D01*
X1072243Y115207D02*
X1071880Y109982D01*
X1129030Y750316D02*
X1000760Y750316D01*
X1129030Y750316D02*
X1130300Y750316D01*
X679450Y869950D02*
X673100Y869950D01*
X656590Y886460D01*
X1104900Y254000D02*
X1104900Y205740D01*
X1104900Y88900D01*
X1104900Y254000D02*
X1022350Y254000D01*
X1119886Y233934D02*
X1119886Y220726D01*
X1104900Y205740D01*
X651256Y549656D02*
X651256Y650748D01*
X651256Y549656D02*
X533400Y431800D01*
X651256Y650748D02*
X679450Y678942D01*
X664162Y911860D02*
X878840Y911860D01*
X878840Y910590D02*
X988060Y910590D01*
X664162Y911860D02*
X656590Y904288D01*
X656590Y886460D01*
X679450Y869950D02*
X679450Y856757D01*
X683434Y852773D01*
X683434Y689070D02*
X679450Y685086D01*
X679450Y678942D01*
X683434Y689070D02*
X683434Y852773D01*
X1000760Y897890D02*
X1000760Y750316D01*
X1000760Y897890D02*
X988060Y910590D01*
X651256Y659805D02*
X651256Y650748D01*
X651256Y659805D02*
X639485Y671576D01*
X878840Y892810D02*
X879856Y891794D01*
X878840Y892810D02*
X878840Y910590D01*
X878840Y911860D01*
X879856Y891794D02*
X905256Y891794D01*
X734060Y143510D02*
X717550Y127000D01*
X734060Y143510D02*
X734060Y251460D01*
X855472Y251460D01*
X875792Y231140D01*
X625926Y63500D02*
X284734Y63500D01*
X1083907Y67907D02*
X1104900Y88900D01*
X1083907Y67907D02*
X1049857Y67907D01*
X631180Y68754D02*
X625926Y63500D01*
X993433Y61926D02*
X1043876Y61926D01*
X1049857Y67907D01*
X986605Y68754D02*
X631180Y68754D01*
X986605Y68754D02*
X993433Y61926D01*
X284226Y64008D02*
X258826Y118618D01*
X284226Y64008D02*
X284734Y63500D01*
D25*
X1129538Y750824D02*
X1129538Y754888D01*
X1129538Y750824D02*
X1129030Y750316D01*
D23*
X584200Y785484D02*
X532366Y837318D01*
X584200Y785484D02*
X584200Y774700D01*
D26*
X584200Y774700D03*
X812800Y622300D03*
D23*
X889000Y622300D01*
X906526Y604774D02*
X906526Y582930D01*
X906526Y604774D02*
X889000Y622300D01*
X546982Y862718D02*
X532366Y862718D01*
X546982Y862718D02*
X584200Y825500D01*
D26*
X584200Y825500D03*
X901700Y635000D03*
D23*
X927100Y635000D01*
X931926Y630174D01*
X931926Y582930D01*
X506966Y735718D02*
X470782Y735718D01*
X469900Y736600D01*
D26*
X469900Y736600D03*
X850900Y546100D03*
D23*
X830326Y566674D01*
X830326Y582930D01*
X506966Y761118D02*
X470782Y761118D01*
X469900Y762000D01*
D26*
X469900Y762000D03*
X927100Y660400D03*
D23*
X957326Y630174D01*
X957326Y582930D01*
X559682Y761118D02*
X532366Y761118D01*
X559682Y761118D02*
X584200Y736600D01*
D26*
X584200Y736600D03*
X774700Y482600D03*
D23*
X803656Y453644D01*
X803656Y409194D01*
X506966Y786518D02*
X483482Y786518D01*
X482600Y787400D01*
D26*
X482600Y787400D03*
X825500Y381000D03*
D23*
X825500Y405638D01*
X829056Y409194D01*
D24*
X617144Y367858D02*
X596976Y367858D01*
X506966Y361910D02*
X506966Y380118D01*
X506966Y361910D02*
X591028Y361910D01*
X596976Y367858D01*
X873840Y400096D02*
X873840Y517826D01*
X870966Y520700D01*
X952500Y520700D01*
X1008126Y576326D02*
X1008126Y582930D01*
X1008126Y576326D02*
X952500Y520700D01*
X870966Y520700D02*
X869823Y521843D01*
X823535Y521843D02*
X779526Y565852D01*
X779526Y582930D01*
X823535Y521843D02*
X869823Y521843D01*
D25*
X873840Y400096D02*
X837930Y364186D01*
X776067Y364186D01*
X772919Y367334D01*
X751081Y367334D01*
X746967Y363220D01*
X624633Y363220D01*
X619995Y367858D02*
X617144Y367858D01*
X619995Y367858D02*
X624633Y363220D01*
D23*
X965200Y336550D02*
X1035050Y336550D01*
X965200Y336550D02*
X961898Y334772D01*
X1035050Y336550D02*
X1037590Y337566D01*
X584200Y520700D02*
X584200Y531484D01*
X939800Y312674D02*
X939800Y292100D01*
X939800Y312674D02*
X961898Y334772D01*
D26*
X584200Y520700D03*
X939800Y292100D03*
D23*
X584200Y531484D02*
X532366Y583318D01*
X532366Y557918D02*
X558800Y531484D01*
X558800Y482600D01*
X1003300Y76200D02*
X1021080Y93980D01*
X1021080Y109982D01*
D26*
X558800Y482600D03*
X1003300Y76200D03*
D23*
X857250Y317500D02*
X869950Y330200D01*
X857250Y317500D02*
X711200Y317500D01*
X698500Y330200D01*
X869950Y330200D02*
X875792Y332740D01*
X698500Y330200D02*
X698246Y335026D01*
X501650Y552450D02*
X463550Y514350D01*
X463550Y304800D01*
X660400Y304800D01*
X692150Y336550D01*
X501650Y552450D02*
X506966Y557918D01*
X692150Y336550D02*
X698246Y335026D01*
X506966Y532366D02*
X506966Y532518D01*
X506966Y532366D02*
X482600Y508000D01*
X622300Y152400D02*
X646430Y128270D01*
X646430Y107696D01*
D26*
X482600Y508000D03*
X622300Y152400D03*
D23*
X781050Y869950D02*
X781050Y889000D01*
X781050Y869950D02*
X781050Y736600D01*
X781050Y711200D01*
X779526Y709930D01*
X781050Y889000D02*
X778256Y891794D01*
X736600Y584200D02*
X706628Y554228D01*
X736600Y584708D02*
X736600Y701294D01*
X736600Y584708D02*
X736600Y584200D01*
X781050Y869950D02*
X908050Y869950D01*
X996950Y323850D02*
X998220Y323850D01*
D24*
X597789Y118491D02*
X562610Y153670D01*
X597789Y118491D02*
X608330Y107950D01*
X936952Y88900D02*
X995680Y109982D01*
X877570Y88900D02*
X627338Y88900D01*
X877570Y88900D02*
X936952Y88900D01*
X995680Y109982D02*
X995680Y322580D01*
X996950Y323850D01*
X998220Y323850D02*
X999490Y322580D01*
X1029315Y322580D01*
X1030251Y321644D01*
X1044707Y321644D01*
X1092200Y369137D01*
X1092200Y718820D01*
X1074420Y736600D01*
X784860Y736600D01*
X781050Y736600D01*
X779526Y735076D01*
X779526Y709930D01*
X784860Y736600D02*
X778256Y743204D01*
X778256Y868680D01*
X778256Y891794D01*
X803656Y891794D01*
X779526Y869950D02*
X778256Y868680D01*
X779526Y869950D02*
X908050Y869950D01*
X911352Y869950D01*
X930656Y889254D02*
X930656Y891794D01*
X930656Y889254D02*
X911352Y869950D01*
D25*
X608330Y107950D02*
X608735Y107545D01*
X608907Y107696D02*
X621030Y107696D01*
X608907Y107696D02*
X608735Y107545D01*
X621030Y92456D02*
X623265Y90221D01*
X621030Y92456D02*
X621030Y107696D01*
X623265Y90221D02*
X627338Y88900D01*
X396015Y118618D02*
X309626Y118618D01*
X396015Y118618D02*
X399237Y115396D01*
X422708Y115396D01*
X425803Y118491D01*
X597789Y118491D01*
D24*
X532518Y380118D02*
X532366Y380118D01*
X532518Y380118D02*
X706628Y554228D01*
X706628Y554736D01*
X736600Y584708D01*
X736600Y584200D02*
X736600Y701294D01*
X740156Y704850D01*
X774700Y704850D01*
X774700Y705104D02*
X779526Y709930D01*
X774700Y705104D02*
X774700Y704850D01*
D25*
X877824Y133350D02*
X877824Y114300D01*
X877824Y89154D01*
X877570Y88900D01*
X774446Y131826D02*
X774446Y134366D01*
X774446Y131826D02*
X791972Y114300D01*
X877824Y114300D01*
D23*
X1041400Y158750D02*
X1041400Y234950D01*
X1041400Y158750D02*
X1047750Y158750D01*
X1092200Y114300D01*
X1092200Y88900D01*
X1066800Y88900D01*
X1045791Y109909D01*
X1041400Y234950D02*
X1037590Y235966D01*
X1046480Y109982D02*
X1045791Y109909D01*
X698500Y127000D02*
X698500Y228600D01*
X698500Y127000D02*
X692150Y127000D01*
X673094Y107944D01*
X698500Y228600D02*
X698246Y233426D01*
X673094Y107944D02*
X671830Y107696D01*
X800100Y152400D02*
X800100Y234950D01*
X800100Y152400D02*
X800100Y139700D01*
X800100Y234950D02*
X787146Y234950D01*
X800100Y139700D02*
X799846Y134366D01*
X882650Y152400D02*
X901700Y133350D01*
X882650Y152400D02*
X800100Y152400D01*
X901700Y133350D02*
X903224Y133350D01*
X825500Y673100D02*
X825500Y704850D01*
X825500Y673100D02*
X749300Y596900D01*
X749300Y429260D01*
X778256Y429260D01*
X778256Y409194D01*
X825500Y704850D02*
X830326Y709930D01*
X838200Y673100D02*
X896302Y673100D01*
X838200Y673100D02*
X762000Y596900D01*
X825500Y438150D02*
X854456Y409194D01*
X906526Y683862D02*
X906526Y709930D01*
X906526Y683862D02*
X896302Y673100D01*
X762000Y596900D02*
X762000Y546100D01*
X800100Y508000D01*
X825500Y508000D01*
X825500Y438150D01*
X1010920Y609600D02*
X1026160Y594360D01*
X1026160Y438150D01*
X920750Y438150D01*
X895350Y412750D01*
X892556Y409194D01*
X965374Y609600D02*
X1010920Y609600D01*
X965374Y609600D02*
X965374Y633508D01*
X950344Y648538D02*
X931926Y709930D01*
X950344Y648538D02*
X965374Y633508D01*
X958850Y692150D02*
X958850Y704850D01*
X958850Y692150D02*
X996950Y654050D01*
X996950Y622300D01*
X1009650Y622300D01*
X1035050Y596900D01*
X1035050Y427990D01*
X935990Y427990D01*
X920750Y412750D01*
X958850Y704850D02*
X957326Y709930D01*
X920750Y412750D02*
X917956Y409194D01*
X609600Y556884D02*
X532366Y634118D01*
X609600Y556884D02*
X609600Y546100D01*
D26*
X609600Y546100D03*
X609600Y350520D03*
D23*
X609600Y321564D01*
X1119886Y335534D02*
X1119886Y357886D01*
X1120140Y358140D01*
D26*
X1120140Y358140D03*
X762000Y350520D03*
D23*
X663956Y350520D01*
X635000Y321564D01*
D25*
X1100328Y831342D02*
X1100328Y855472D01*
X1129538Y802132D02*
X1129538Y795528D01*
X1129538Y802132D02*
X1100328Y831342D01*
M02*
