G04 EAGLE Gerber RS-274X export*
G75*
%MOMM*%
%FSLAX34Y34*%
%LPD*%
%INTop Copper*%
%IPPOS*%
%AMOC8*
5,1,8,0,0,1.08239X$1,22.5*%
G01*
%ADD10P,1.429621X8X292.500000*%
%ADD11P,1.429621X8X112.500000*%
%ADD12C,1.676400*%
%ADD13C,1.524000*%
%ADD14C,3.556000*%
%ADD15P,1.429621X8X22.500000*%
%ADD16R,1.778000X1.778000*%
%ADD17C,1.778000*%
%ADD18R,1.508000X1.508000*%
%ADD19C,1.508000*%
%ADD20C,1.879600*%
%ADD21C,5.080000*%
%ADD22R,1.350000X1.350000*%
%ADD23C,0.304800*%


D10*
X562102Y270002D03*
X562102Y244602D03*
D11*
X562610Y153670D03*
X562610Y179070D03*
D12*
X258826Y127000D02*
X258826Y110236D01*
X284226Y110236D02*
X284226Y127000D01*
X309626Y127000D02*
X309626Y110236D01*
D13*
X631865Y671576D02*
X647105Y671576D01*
X647105Y696976D02*
X631865Y696976D01*
D14*
X1086866Y825246D03*
X1137666Y825246D03*
D15*
X877824Y133350D03*
X903224Y133350D03*
X774446Y134366D03*
X799846Y134366D03*
D16*
X506966Y380118D03*
D17*
X532366Y380118D03*
X506966Y405518D03*
X532366Y405518D03*
X506966Y430918D03*
X532366Y430918D03*
X506966Y456318D03*
X532366Y456318D03*
X506966Y481718D03*
X532366Y481718D03*
X506966Y507118D03*
X532366Y507118D03*
X506966Y532518D03*
X532366Y532518D03*
X506966Y557918D03*
X532366Y557918D03*
X506966Y583318D03*
X532366Y583318D03*
X506966Y608718D03*
X532366Y608718D03*
X506966Y634118D03*
X532366Y634118D03*
X506966Y659518D03*
X532366Y659518D03*
X506966Y684918D03*
X532366Y684918D03*
X506966Y710318D03*
X532366Y710318D03*
X506966Y735718D03*
X532366Y735718D03*
X506966Y761118D03*
X532366Y761118D03*
X506966Y786518D03*
X532366Y786518D03*
X506966Y811918D03*
X532366Y811918D03*
X506966Y837318D03*
X532366Y837318D03*
X506966Y862718D03*
X532366Y862718D03*
D10*
X1037590Y337566D03*
X1037590Y235966D03*
X698246Y335026D03*
X698246Y233426D03*
X961898Y334772D03*
X961898Y233172D03*
X875792Y332740D03*
X875792Y231140D03*
X787146Y336550D03*
X787146Y234950D03*
D13*
X779526Y575310D02*
X779526Y590550D01*
X804926Y590550D02*
X804926Y575310D01*
X830326Y575310D02*
X830326Y590550D01*
X855726Y590550D02*
X855726Y575310D01*
X881126Y575310D02*
X881126Y590550D01*
X906526Y590550D02*
X906526Y575310D01*
X931926Y575310D02*
X931926Y590550D01*
X957326Y590550D02*
X957326Y575310D01*
X982726Y575310D02*
X982726Y590550D01*
X1008126Y590550D02*
X1008126Y575310D01*
X1008126Y702310D02*
X1008126Y717550D01*
X982726Y717550D02*
X982726Y702310D01*
X957326Y702310D02*
X957326Y717550D01*
X931926Y717550D02*
X931926Y702310D01*
X906526Y702310D02*
X906526Y717550D01*
X881126Y717550D02*
X881126Y702310D01*
X855726Y702310D02*
X855726Y717550D01*
X830326Y717550D02*
X830326Y702310D01*
X804926Y702310D02*
X804926Y717550D01*
X779526Y717550D02*
X779526Y702310D01*
D18*
X995680Y108712D03*
D19*
X1021080Y108712D03*
X1046480Y108712D03*
X1071880Y108712D03*
D18*
X619760Y107696D03*
D19*
X645160Y107696D03*
X670560Y107696D03*
X695960Y107696D03*
D20*
X981456Y891794D03*
X956056Y891794D03*
X930656Y891794D03*
X905256Y891794D03*
X879856Y891794D03*
X854456Y891794D03*
X803656Y891794D03*
X778256Y891794D03*
X752856Y891794D03*
X727456Y891794D03*
X702056Y891794D03*
X676656Y891794D03*
X676656Y409194D03*
X702056Y409194D03*
X727456Y409194D03*
X752856Y409194D03*
X778256Y409194D03*
X803656Y409194D03*
X829056Y409194D03*
X854456Y409194D03*
X892556Y409194D03*
X917956Y409194D03*
X943356Y409194D03*
X968756Y409194D03*
X994156Y409194D03*
X1019556Y409194D03*
X1044956Y409194D03*
X1070356Y409194D03*
D21*
X156972Y152400D03*
X410972Y152400D03*
D15*
X609600Y321564D03*
X635000Y321564D03*
D11*
X1119886Y233934D03*
X1119886Y335534D03*
D22*
X584200Y774700D03*
D23*
X596900Y774700D01*
X749300Y622300D01*
X812800Y622300D01*
D22*
X812800Y622300D03*
X584200Y825500D03*
D23*
X762000Y647700D01*
X889000Y647700D01*
X901700Y635000D01*
D22*
X901700Y635000D03*
X469900Y736600D03*
D23*
X431800Y736600D01*
X431800Y876300D01*
X546098Y931692D02*
X563390Y914400D01*
X487192Y931692D02*
X431800Y876300D01*
X487192Y931692D02*
X546098Y931692D01*
X1104900Y914400D02*
X1168400Y850900D01*
X1168400Y635000D01*
X1079500Y546100D01*
X850900Y546100D01*
X1104900Y914400D02*
X563390Y914400D01*
D22*
X850900Y546100D03*
X469900Y762000D03*
D23*
X469900Y777374D01*
X469326Y777948D01*
X469326Y863026D01*
X495300Y889000D01*
X558800Y889000D01*
X647700Y800100D01*
X723900Y800100D01*
X749300Y774700D01*
X749300Y698500D01*
X762000Y685800D01*
X901700Y685800D01*
X927100Y660400D01*
D22*
X927100Y660400D03*
X584200Y736600D03*
D23*
X584200Y652780D01*
X754380Y482600D01*
X774700Y482600D01*
D22*
X774700Y482600D03*
X482600Y787400D03*
D23*
X540583Y876300D02*
X538751Y878132D01*
X540583Y876300D02*
X546100Y876300D01*
X538751Y878132D02*
X500581Y878132D01*
X482600Y860151D02*
X482600Y787400D01*
X482600Y860151D02*
X500581Y878132D01*
X546100Y876300D02*
X558800Y863600D01*
X558800Y660400D01*
X643636Y575564D01*
X643636Y381000D01*
X825500Y381000D01*
D22*
X825500Y381000D03*
D23*
X584200Y292100D02*
X584200Y520700D01*
X584200Y292100D02*
X939800Y292100D01*
D22*
X584200Y520700D03*
X939800Y292100D03*
D23*
X558800Y304800D02*
X558800Y482600D01*
X558800Y304800D02*
X584200Y279400D01*
X584200Y239346D01*
X747346Y76200D02*
X1003300Y76200D01*
X747346Y76200D02*
X584200Y239346D01*
D22*
X558800Y482600D03*
X1003300Y76200D03*
D23*
X482600Y298958D02*
X482600Y508000D01*
X512191Y269367D02*
X622300Y159258D01*
X622300Y152400D01*
D22*
X482600Y508000D03*
X622300Y152400D03*
D23*
X493522Y288036D02*
X482600Y298958D01*
X512191Y276479D02*
X512191Y269367D01*
X500634Y288036D02*
X493522Y288036D01*
X500634Y288036D02*
X512191Y276479D01*
D22*
X609600Y546100D03*
D23*
X609600Y350520D01*
D22*
X609600Y350520D03*
X1120140Y358140D03*
D23*
X769620Y358140D01*
X762000Y350520D01*
D22*
X762000Y350520D03*
M02*
