G04 EAGLE Gerber RS-274X export*
G75*
%MOMM*%
%FSLAX34Y34*%
%LPD*%
%INBottom Copper*%
%IPPOS*%
%AMOC8*
5,1,8,0,0,1.08239X$1,22.5*%
G01*
%ADD10P,1.429621X8X292.500000*%
%ADD11P,1.429621X8X112.500000*%
%ADD12C,1.676400*%
%ADD13C,1.524000*%
%ADD14C,3.556000*%
%ADD15P,1.429621X8X22.500000*%
%ADD16R,1.778000X1.778000*%
%ADD17C,1.778000*%
%ADD18R,1.508000X1.508000*%
%ADD19C,1.508000*%
%ADD20C,1.879600*%
%ADD21C,5.080000*%
%ADD22C,0.304800*%
%ADD23C,0.609600*%
%ADD24C,0.609600*%
%ADD25R,1.350000X1.350000*%
%ADD26C,0.812800*%

G36*
X9103Y4222D02*
X9103Y4222D01*
X9205Y4221D01*
X9301Y4239D01*
X9349Y4243D01*
X9384Y4254D01*
X9445Y4266D01*
X10760Y4623D01*
X10804Y4640D01*
X10944Y4685D01*
X11773Y5029D01*
X11786Y5030D01*
X12752Y5001D01*
X12769Y5003D01*
X12797Y5001D01*
X1206300Y5001D01*
X1206348Y5006D01*
X1206449Y5008D01*
X1207654Y5127D01*
X1207754Y5148D01*
X1207855Y5160D01*
X1207948Y5190D01*
X1207995Y5200D01*
X1208028Y5216D01*
X1208088Y5235D01*
X1210314Y6158D01*
X1210316Y6159D01*
X1210318Y6159D01*
X1210466Y6242D01*
X1210619Y6327D01*
X1210620Y6328D01*
X1210622Y6329D01*
X1210808Y6488D01*
X1212512Y8192D01*
X1212514Y8193D01*
X1212515Y8195D01*
X1212625Y8334D01*
X1212729Y8465D01*
X1212730Y8466D01*
X1212731Y8468D01*
X1212842Y8686D01*
X1213765Y10912D01*
X1213793Y11010D01*
X1213830Y11105D01*
X1213847Y11201D01*
X1213860Y11247D01*
X1213862Y11284D01*
X1213873Y11346D01*
X1213992Y12551D01*
X1213991Y12599D01*
X1213999Y12700D01*
X1213999Y13978D01*
X1214001Y14000D01*
X1215267Y947134D01*
X1215265Y947148D01*
X1215266Y947157D01*
X1215259Y947202D01*
X1215257Y947219D01*
X1215257Y947305D01*
X1215237Y947392D01*
X1215227Y947480D01*
X1215199Y947561D01*
X1215179Y947645D01*
X1215140Y947725D01*
X1215110Y947809D01*
X1215064Y947881D01*
X1215026Y947958D01*
X1214970Y948027D01*
X1214922Y948102D01*
X1214860Y948161D01*
X1214806Y948228D01*
X1214707Y948309D01*
X1214671Y948344D01*
X1214649Y948358D01*
X1214617Y948384D01*
X1214190Y948683D01*
X1214181Y948688D01*
X1214173Y948695D01*
X1213960Y948816D01*
X1212181Y949645D01*
X1212171Y949649D01*
X1212162Y949654D01*
X1211932Y949736D01*
X1210036Y950244D01*
X1210025Y950246D01*
X1210015Y950250D01*
X1209774Y950290D01*
X1207819Y950461D01*
X1207774Y950460D01*
X1207686Y950467D01*
X6714Y950467D01*
X6669Y950462D01*
X6581Y950461D01*
X4577Y950286D01*
X4567Y950284D01*
X4556Y950284D01*
X4316Y950240D01*
X2373Y949719D01*
X2363Y949716D01*
X2352Y949714D01*
X2123Y949629D01*
X1286Y949238D01*
X1187Y949177D01*
X1084Y949124D01*
X1039Y949086D01*
X989Y949056D01*
X907Y948974D01*
X818Y948899D01*
X783Y948852D01*
X742Y948811D01*
X680Y948712D01*
X611Y948619D01*
X587Y948565D01*
X556Y948516D01*
X518Y948406D01*
X472Y948299D01*
X462Y948241D01*
X443Y948186D01*
X431Y948071D01*
X410Y947956D01*
X413Y947898D01*
X407Y947840D01*
X422Y947724D01*
X427Y947608D01*
X444Y947552D01*
X451Y947494D01*
X492Y947385D01*
X524Y947273D01*
X552Y947222D01*
X572Y947167D01*
X636Y947071D01*
X1446Y945108D01*
X177Y9334D01*
X183Y9278D01*
X181Y9223D01*
X203Y9106D01*
X216Y8987D01*
X235Y8935D01*
X245Y8880D01*
X329Y8671D01*
X333Y8659D01*
X335Y8657D01*
X336Y8653D01*
X525Y8274D01*
X580Y8188D01*
X627Y8098D01*
X689Y8021D01*
X715Y7981D01*
X741Y7956D01*
X780Y7907D01*
X2670Y5902D01*
X2672Y5900D01*
X2673Y5899D01*
X2800Y5792D01*
X2937Y5677D01*
X2939Y5676D01*
X2940Y5675D01*
X3155Y5557D01*
X5668Y4428D01*
X5670Y4427D01*
X5672Y4426D01*
X5839Y4374D01*
X6000Y4322D01*
X6002Y4322D01*
X6004Y4322D01*
X6247Y4295D01*
X9001Y4213D01*
X9103Y4222D01*
G37*
%LPC*%
G36*
X995555Y64449D02*
X995555Y64449D01*
X993717Y65211D01*
X992311Y66617D01*
X991549Y68455D01*
X991549Y83945D01*
X992311Y85783D01*
X993717Y87189D01*
X995555Y87951D01*
X1005192Y87951D01*
X1005318Y87965D01*
X1005444Y87972D01*
X1005491Y87985D01*
X1005539Y87991D01*
X1005658Y88033D01*
X1005779Y88068D01*
X1005821Y88092D01*
X1005867Y88108D01*
X1005973Y88177D01*
X1006083Y88238D01*
X1006130Y88278D01*
X1006160Y88297D01*
X1006193Y88332D01*
X1006200Y88338D01*
X1006201Y88338D01*
X1006269Y88397D01*
X1013888Y96015D01*
X1013904Y96035D01*
X1013924Y96053D01*
X1014012Y96172D01*
X1014104Y96288D01*
X1014115Y96312D01*
X1014131Y96333D01*
X1014190Y96469D01*
X1014253Y96603D01*
X1014259Y96629D01*
X1014269Y96653D01*
X1014295Y96799D01*
X1014326Y96944D01*
X1014326Y96970D01*
X1014331Y96996D01*
X1014323Y97144D01*
X1014321Y97292D01*
X1014314Y97318D01*
X1014313Y97344D01*
X1014272Y97486D01*
X1014236Y97630D01*
X1014223Y97654D01*
X1014216Y97679D01*
X1014144Y97808D01*
X1014076Y97940D01*
X1014059Y97960D01*
X1014046Y97983D01*
X1013916Y98136D01*
X1013915Y98138D01*
X1013913Y98139D01*
X1013888Y98169D01*
X1010821Y101236D01*
X1010743Y101298D01*
X1010670Y101368D01*
X1010606Y101406D01*
X1010548Y101452D01*
X1010457Y101495D01*
X1010371Y101547D01*
X1010300Y101569D01*
X1010233Y101601D01*
X1010135Y101622D01*
X1010039Y101653D01*
X1009965Y101659D01*
X1009892Y101675D01*
X1009792Y101673D01*
X1009692Y101681D01*
X1009618Y101670D01*
X1009544Y101669D01*
X1009447Y101644D01*
X1009347Y101629D01*
X1009278Y101602D01*
X1009206Y101584D01*
X1009116Y101538D01*
X1009023Y101501D01*
X1008962Y101458D01*
X1008896Y101424D01*
X1008819Y101359D01*
X1008737Y101302D01*
X1008687Y101246D01*
X1008631Y101198D01*
X1008571Y101117D01*
X1008504Y101043D01*
X1008468Y100978D01*
X1008423Y100918D01*
X1008384Y100826D01*
X1008335Y100738D01*
X1008315Y100666D01*
X1008285Y100598D01*
X1008268Y100499D01*
X1008240Y100402D01*
X1008232Y100302D01*
X1008224Y100255D01*
X1008226Y100219D01*
X1008223Y100182D01*
X1007459Y98339D01*
X1006053Y96933D01*
X1004215Y96171D01*
X995153Y96171D01*
X995027Y96157D01*
X994901Y96150D01*
X994855Y96137D01*
X994807Y96131D01*
X994688Y96089D01*
X994566Y96054D01*
X994524Y96030D01*
X994479Y96014D01*
X994372Y95945D01*
X994262Y95884D01*
X994216Y95844D01*
X994186Y95825D01*
X994152Y95790D01*
X994076Y95725D01*
X980427Y82077D01*
X977469Y80851D01*
X643115Y80851D01*
X643113Y80851D01*
X643111Y80851D01*
X642940Y80831D01*
X642769Y80811D01*
X642767Y80811D01*
X642765Y80810D01*
X642532Y80735D01*
X640359Y79835D01*
X636753Y79835D01*
X633421Y81215D01*
X619927Y94709D01*
X619828Y94788D01*
X619735Y94872D01*
X619692Y94896D01*
X619654Y94926D01*
X619540Y94980D01*
X619430Y95041D01*
X619383Y95054D01*
X619339Y95075D01*
X619216Y95101D01*
X619094Y95136D01*
X619033Y95141D01*
X618999Y95148D01*
X618951Y95147D01*
X618850Y95155D01*
X611225Y95155D01*
X609387Y95917D01*
X607981Y97323D01*
X607817Y97719D01*
X607780Y97786D01*
X607753Y97852D01*
X607726Y97891D01*
X607701Y97944D01*
X607671Y97982D01*
X607647Y98024D01*
X607589Y98088D01*
X607555Y98138D01*
X607525Y98165D01*
X607483Y98216D01*
X607446Y98246D01*
X607413Y98282D01*
X607334Y98337D01*
X607296Y98371D01*
X607267Y98387D01*
X607210Y98432D01*
X607156Y98460D01*
X607126Y98480D01*
X607082Y98498D01*
X606992Y98544D01*
X603449Y100011D01*
X600645Y102815D01*
X599745Y104988D01*
X599744Y104990D01*
X599744Y104992D01*
X599660Y105141D01*
X599576Y105293D01*
X599575Y105294D01*
X599574Y105296D01*
X599415Y105482D01*
X595917Y108980D01*
X595818Y109059D01*
X595724Y109143D01*
X595682Y109167D01*
X595644Y109197D01*
X595530Y109251D01*
X595419Y109312D01*
X595373Y109325D01*
X595329Y109346D01*
X595206Y109372D01*
X595084Y109407D01*
X595023Y109412D01*
X594988Y109419D01*
X594940Y109418D01*
X594840Y109426D01*
X428693Y109426D01*
X428691Y109426D01*
X428689Y109426D01*
X428519Y109406D01*
X428347Y109386D01*
X428345Y109386D01*
X428343Y109385D01*
X428111Y109310D01*
X427051Y108871D01*
X394893Y108871D01*
X394094Y109203D01*
X393527Y109437D01*
X393525Y109438D01*
X393523Y109439D01*
X393356Y109486D01*
X393192Y109533D01*
X393190Y109533D01*
X393188Y109534D01*
X392944Y109553D01*
X324532Y109553D01*
X324506Y109550D01*
X324480Y109552D01*
X324333Y109530D01*
X324186Y109513D01*
X324161Y109505D01*
X324135Y109501D01*
X323997Y109446D01*
X323858Y109396D01*
X323836Y109382D01*
X323811Y109372D01*
X323690Y109287D01*
X323565Y109207D01*
X323547Y109188D01*
X323525Y109173D01*
X323426Y109063D01*
X323323Y108956D01*
X323309Y108934D01*
X323292Y108914D01*
X323220Y108784D01*
X323144Y108657D01*
X323136Y108632D01*
X323123Y108609D01*
X323083Y108466D01*
X323038Y108325D01*
X323036Y108299D01*
X323028Y108274D01*
X323009Y108030D01*
X323009Y107574D01*
X320971Y102655D01*
X317207Y98891D01*
X312288Y96853D01*
X306964Y96853D01*
X302045Y98891D01*
X298281Y102655D01*
X297008Y105728D01*
X296988Y105764D01*
X296975Y105802D01*
X296904Y105916D01*
X296839Y106033D01*
X296811Y106063D01*
X296790Y106097D01*
X296694Y106192D01*
X296604Y106291D01*
X296571Y106314D01*
X296542Y106343D01*
X296428Y106413D01*
X296318Y106489D01*
X296280Y106504D01*
X296245Y106525D01*
X296118Y106568D01*
X295994Y106617D01*
X295953Y106623D01*
X295915Y106636D01*
X295781Y106648D01*
X295649Y106668D01*
X295608Y106664D01*
X295568Y106668D01*
X295435Y106650D01*
X295301Y106639D01*
X295263Y106626D01*
X295222Y106621D01*
X295098Y106573D01*
X294970Y106532D01*
X294935Y106511D01*
X294897Y106496D01*
X294786Y106421D01*
X294671Y106352D01*
X294642Y106324D01*
X294608Y106301D01*
X294517Y106203D01*
X294421Y106109D01*
X294399Y106075D01*
X294372Y106045D01*
X294243Y105837D01*
X293568Y104511D01*
X292557Y103120D01*
X291342Y101905D01*
X289951Y100894D01*
X288419Y100114D01*
X287019Y99659D01*
X287019Y117348D01*
X287016Y117374D01*
X287018Y117400D01*
X286996Y117547D01*
X286979Y117694D01*
X286971Y117719D01*
X286967Y117745D01*
X286912Y117882D01*
X286862Y118022D01*
X286848Y118044D01*
X286838Y118069D01*
X286753Y118190D01*
X286673Y118315D01*
X286654Y118333D01*
X286639Y118355D01*
X286529Y118454D01*
X286422Y118557D01*
X286400Y118571D01*
X286380Y118588D01*
X286323Y118620D01*
X286338Y118631D01*
X286463Y118711D01*
X286481Y118730D01*
X286503Y118745D01*
X286602Y118855D01*
X286705Y118962D01*
X286719Y118985D01*
X286736Y119004D01*
X286808Y119134D01*
X286884Y119261D01*
X286892Y119286D01*
X286905Y119309D01*
X286945Y119452D01*
X286990Y119593D01*
X286992Y119619D01*
X287000Y119644D01*
X287019Y119888D01*
X287019Y137577D01*
X288419Y137122D01*
X289951Y136342D01*
X291342Y135331D01*
X292557Y134116D01*
X293568Y132725D01*
X294243Y131399D01*
X294266Y131365D01*
X294282Y131328D01*
X294362Y131220D01*
X294436Y131109D01*
X294466Y131081D01*
X294490Y131048D01*
X294592Y130962D01*
X294690Y130870D01*
X294725Y130849D01*
X294756Y130823D01*
X294875Y130762D01*
X294991Y130695D01*
X295030Y130683D01*
X295066Y130664D01*
X295196Y130632D01*
X295324Y130593D01*
X295365Y130590D01*
X295404Y130580D01*
X295538Y130578D01*
X295672Y130569D01*
X295712Y130576D01*
X295753Y130575D01*
X295884Y130604D01*
X296016Y130625D01*
X296054Y130641D01*
X296093Y130649D01*
X296214Y130707D01*
X296338Y130758D01*
X296371Y130782D01*
X296408Y130799D01*
X296513Y130883D01*
X296622Y130961D01*
X296649Y130991D01*
X296681Y131017D01*
X296763Y131122D01*
X296852Y131222D01*
X296871Y131258D01*
X296896Y131290D01*
X297008Y131508D01*
X298281Y134581D01*
X302045Y138345D01*
X306964Y140383D01*
X312288Y140383D01*
X317207Y138345D01*
X320971Y134581D01*
X323009Y129662D01*
X323009Y129206D01*
X323012Y129180D01*
X323010Y129154D01*
X323032Y129007D01*
X323049Y128860D01*
X323057Y128835D01*
X323061Y128809D01*
X323116Y128671D01*
X323166Y128532D01*
X323180Y128510D01*
X323190Y128485D01*
X323275Y128364D01*
X323355Y128239D01*
X323374Y128221D01*
X323389Y128199D01*
X323499Y128100D01*
X323606Y127997D01*
X323628Y127983D01*
X323648Y127966D01*
X323778Y127894D01*
X323905Y127818D01*
X323930Y127810D01*
X323953Y127797D01*
X324096Y127757D01*
X324237Y127712D01*
X324263Y127710D01*
X324288Y127702D01*
X324532Y127683D01*
X389019Y127683D01*
X389119Y127694D01*
X389219Y127696D01*
X389291Y127714D01*
X389365Y127723D01*
X389459Y127756D01*
X389557Y127781D01*
X389623Y127815D01*
X389693Y127840D01*
X389777Y127895D01*
X389867Y127941D01*
X389923Y127989D01*
X389986Y128029D01*
X390056Y128101D01*
X390132Y128166D01*
X390176Y128226D01*
X390228Y128280D01*
X390280Y128366D01*
X390339Y128447D01*
X390369Y128515D01*
X390407Y128579D01*
X390437Y128675D01*
X390477Y128767D01*
X390490Y128840D01*
X390513Y128911D01*
X390521Y129011D01*
X390539Y129110D01*
X390535Y129184D01*
X390541Y129258D01*
X390526Y129358D01*
X390521Y129458D01*
X390500Y129529D01*
X390489Y129603D01*
X390452Y129696D01*
X390424Y129793D01*
X390388Y129858D01*
X390361Y129927D01*
X390303Y130009D01*
X390254Y130097D01*
X390189Y130173D01*
X390162Y130213D01*
X390135Y130237D01*
X390096Y130283D01*
X386645Y133733D01*
X382643Y140666D01*
X380571Y148398D01*
X380571Y156402D01*
X382643Y164134D01*
X386645Y171067D01*
X392305Y176727D01*
X399238Y180729D01*
X406970Y182801D01*
X414974Y182801D01*
X422706Y180729D01*
X429639Y176727D01*
X435299Y171067D01*
X439301Y164134D01*
X441373Y156402D01*
X441373Y148398D01*
X439301Y140666D01*
X435299Y133733D01*
X431721Y130156D01*
X431659Y130078D01*
X431589Y130005D01*
X431551Y129941D01*
X431505Y129883D01*
X431462Y129792D01*
X431410Y129706D01*
X431387Y129635D01*
X431356Y129568D01*
X431335Y129470D01*
X431304Y129374D01*
X431298Y129300D01*
X431282Y129227D01*
X431284Y129127D01*
X431276Y129027D01*
X431287Y128953D01*
X431288Y128879D01*
X431313Y128782D01*
X431328Y128682D01*
X431355Y128613D01*
X431373Y128541D01*
X431419Y128451D01*
X431456Y128358D01*
X431499Y128297D01*
X431533Y128231D01*
X431598Y128155D01*
X431655Y128072D01*
X431710Y128022D01*
X431759Y127966D01*
X431840Y127906D01*
X431914Y127839D01*
X431979Y127803D01*
X432039Y127758D01*
X432131Y127719D01*
X432219Y127670D01*
X432291Y127650D01*
X432359Y127620D01*
X432458Y127603D01*
X432555Y127575D01*
X432655Y127567D01*
X432702Y127559D01*
X432738Y127561D01*
X432798Y127556D01*
X573664Y127556D01*
X573764Y127567D01*
X573864Y127569D01*
X573937Y127587D01*
X574010Y127596D01*
X574105Y127629D01*
X574202Y127654D01*
X574269Y127688D01*
X574339Y127713D01*
X574423Y127768D01*
X574512Y127814D01*
X574569Y127862D01*
X574631Y127902D01*
X574701Y127974D01*
X574778Y128039D01*
X574822Y128099D01*
X574874Y128153D01*
X574925Y128239D01*
X574985Y128320D01*
X575014Y128388D01*
X575052Y128452D01*
X575083Y128548D01*
X575123Y128640D01*
X575136Y128713D01*
X575159Y128784D01*
X575167Y128884D01*
X575184Y128983D01*
X575181Y129057D01*
X575187Y129131D01*
X575172Y129231D01*
X575166Y129331D01*
X575146Y129402D01*
X575135Y129476D01*
X575098Y129569D01*
X575070Y129666D01*
X575034Y129731D01*
X575006Y129800D01*
X574949Y129882D01*
X574900Y129970D01*
X574835Y130046D01*
X574807Y130086D01*
X574781Y130110D01*
X574768Y130125D01*
X574767Y130126D01*
X574766Y130127D01*
X574741Y130156D01*
X563278Y141619D01*
X563179Y141698D01*
X563085Y141782D01*
X563043Y141806D01*
X563005Y141836D01*
X562891Y141890D01*
X562780Y141951D01*
X562734Y141964D01*
X562690Y141985D01*
X562567Y142011D01*
X562445Y142046D01*
X562384Y142051D01*
X562349Y142058D01*
X562301Y142057D01*
X562201Y142065D01*
X557803Y142065D01*
X551005Y148863D01*
X551005Y158477D01*
X557803Y165275D01*
X567417Y165275D01*
X574215Y158477D01*
X574215Y154079D01*
X574229Y153953D01*
X574236Y153827D01*
X574249Y153781D01*
X574255Y153733D01*
X574297Y153614D01*
X574332Y153492D01*
X574356Y153450D01*
X574372Y153405D01*
X574441Y153298D01*
X574502Y153188D01*
X574542Y153142D01*
X574561Y153112D01*
X574596Y153078D01*
X574661Y153002D01*
X600257Y127406D01*
X600258Y127405D01*
X600260Y127403D01*
X600396Y127295D01*
X600530Y127189D01*
X600532Y127188D01*
X600533Y127187D01*
X600751Y127076D01*
X602924Y126176D01*
X605474Y123626D01*
X606374Y121453D01*
X606375Y121451D01*
X606375Y121449D01*
X606459Y121299D01*
X606543Y121148D01*
X606544Y121147D01*
X606545Y121145D01*
X606704Y120959D01*
X607819Y119844D01*
X607879Y119796D01*
X607932Y119741D01*
X608015Y119688D01*
X608092Y119627D01*
X608161Y119594D01*
X608225Y119553D01*
X608318Y119520D01*
X608407Y119478D01*
X608482Y119462D01*
X608554Y119436D01*
X608652Y119425D01*
X608748Y119405D01*
X608824Y119406D01*
X608900Y119397D01*
X608998Y119409D01*
X609096Y119411D01*
X609170Y119429D01*
X609246Y119438D01*
X609389Y119484D01*
X609434Y119496D01*
X609451Y119504D01*
X609479Y119513D01*
X611225Y120237D01*
X628295Y120237D01*
X630133Y119475D01*
X631539Y118069D01*
X632304Y116223D01*
X632312Y116150D01*
X632314Y116049D01*
X632332Y115977D01*
X632341Y115903D01*
X632374Y115809D01*
X632399Y115711D01*
X632433Y115645D01*
X632458Y115575D01*
X632513Y115491D01*
X632559Y115401D01*
X632607Y115345D01*
X632647Y115282D01*
X632719Y115213D01*
X632784Y115136D01*
X632844Y115092D01*
X632898Y115040D01*
X632984Y114989D01*
X633065Y114929D01*
X633133Y114899D01*
X633197Y114861D01*
X633293Y114831D01*
X633385Y114791D01*
X633458Y114778D01*
X633529Y114755D01*
X633629Y114747D01*
X633728Y114729D01*
X633802Y114733D01*
X633876Y114727D01*
X633976Y114742D01*
X634076Y114747D01*
X634147Y114768D01*
X634221Y114779D01*
X634314Y114816D01*
X634411Y114844D01*
X634476Y114880D01*
X634545Y114907D01*
X634627Y114965D01*
X634715Y115014D01*
X634791Y115079D01*
X634831Y115106D01*
X634855Y115133D01*
X634901Y115172D01*
X638189Y118460D01*
X638268Y118559D01*
X638352Y118653D01*
X638376Y118696D01*
X638406Y118733D01*
X638460Y118848D01*
X638521Y118958D01*
X638534Y119005D01*
X638555Y119048D01*
X638581Y119172D01*
X638616Y119294D01*
X638621Y119354D01*
X638628Y119389D01*
X638627Y119437D01*
X638635Y119537D01*
X638635Y126206D01*
X638621Y126332D01*
X638614Y126458D01*
X638601Y126505D01*
X638595Y126553D01*
X638553Y126672D01*
X638518Y126793D01*
X638494Y126835D01*
X638478Y126881D01*
X638409Y126987D01*
X638348Y127097D01*
X638308Y127144D01*
X638289Y127174D01*
X638254Y127207D01*
X638189Y127283D01*
X625269Y140203D01*
X625170Y140282D01*
X625077Y140366D01*
X625034Y140390D01*
X624996Y140420D01*
X624882Y140474D01*
X624772Y140535D01*
X624725Y140548D01*
X624681Y140569D01*
X624558Y140595D01*
X624436Y140630D01*
X624375Y140635D01*
X624341Y140642D01*
X624293Y140641D01*
X624192Y140649D01*
X614555Y140649D01*
X612717Y141411D01*
X611311Y142817D01*
X610549Y144655D01*
X610549Y160145D01*
X611311Y161983D01*
X612717Y163389D01*
X614555Y164151D01*
X630045Y164151D01*
X631883Y163389D01*
X633289Y161983D01*
X634051Y160145D01*
X634051Y150508D01*
X634065Y150382D01*
X634072Y150256D01*
X634085Y150209D01*
X634091Y150161D01*
X634133Y150042D01*
X634168Y149921D01*
X634192Y149879D01*
X634208Y149833D01*
X634277Y149727D01*
X634338Y149617D01*
X634378Y149570D01*
X634397Y149540D01*
X634432Y149507D01*
X634497Y149431D01*
X650691Y133236D01*
X651685Y130838D01*
X651685Y119537D01*
X651699Y119412D01*
X651706Y119286D01*
X651719Y119239D01*
X651725Y119191D01*
X651767Y119072D01*
X651802Y118951D01*
X651826Y118909D01*
X651842Y118863D01*
X651911Y118757D01*
X651972Y118647D01*
X652012Y118600D01*
X652031Y118570D01*
X652066Y118537D01*
X652131Y118460D01*
X655791Y114800D01*
X656453Y113203D01*
X656501Y113116D01*
X656541Y113024D01*
X656586Y112964D01*
X656622Y112899D01*
X656689Y112824D01*
X656749Y112744D01*
X656806Y112696D01*
X656856Y112641D01*
X656939Y112584D01*
X657015Y112519D01*
X657082Y112485D01*
X657143Y112443D01*
X657236Y112406D01*
X657326Y112360D01*
X657398Y112342D01*
X657467Y112315D01*
X657566Y112300D01*
X657664Y112276D01*
X657738Y112275D01*
X657812Y112264D01*
X657912Y112272D01*
X658012Y112271D01*
X658085Y112287D01*
X658159Y112293D01*
X658255Y112324D01*
X658353Y112345D01*
X658420Y112377D01*
X658491Y112400D01*
X658577Y112452D01*
X658668Y112495D01*
X658726Y112541D01*
X658789Y112580D01*
X658862Y112650D01*
X658940Y112712D01*
X658986Y112771D01*
X659039Y112822D01*
X659094Y112907D01*
X659156Y112986D01*
X659202Y113075D01*
X659228Y113116D01*
X659240Y113149D01*
X659267Y113203D01*
X659929Y114800D01*
X663456Y118327D01*
X668066Y120237D01*
X673055Y120237D01*
X674310Y119717D01*
X674383Y119696D01*
X674453Y119666D01*
X674550Y119648D01*
X674645Y119621D01*
X674721Y119617D01*
X674796Y119604D01*
X674895Y119609D01*
X674993Y119604D01*
X675068Y119618D01*
X675144Y119622D01*
X675239Y119649D01*
X675336Y119667D01*
X675406Y119697D01*
X675479Y119718D01*
X675565Y119766D01*
X675655Y119806D01*
X675717Y119851D01*
X675783Y119889D01*
X675897Y119985D01*
X675935Y120014D01*
X675947Y120028D01*
X675970Y120047D01*
X688454Y132531D01*
X691035Y133600D01*
X691102Y133638D01*
X691173Y133666D01*
X691254Y133722D01*
X691340Y133770D01*
X691396Y133821D01*
X691459Y133865D01*
X691525Y133938D01*
X691598Y134004D01*
X691641Y134067D01*
X691692Y134124D01*
X691740Y134210D01*
X691796Y134291D01*
X691824Y134362D01*
X691861Y134429D01*
X691888Y134523D01*
X691924Y134615D01*
X691935Y134690D01*
X691956Y134764D01*
X691968Y134913D01*
X691975Y134960D01*
X691973Y134979D01*
X691975Y135008D01*
X691975Y222654D01*
X691961Y222780D01*
X691954Y222906D01*
X691941Y222952D01*
X691935Y223000D01*
X691893Y223119D01*
X691858Y223241D01*
X691834Y223283D01*
X691818Y223329D01*
X691749Y223435D01*
X691688Y223545D01*
X691648Y223591D01*
X691629Y223621D01*
X691594Y223655D01*
X691529Y223731D01*
X686641Y228619D01*
X686641Y238233D01*
X693439Y245031D01*
X703053Y245031D01*
X709851Y238233D01*
X709851Y228619D01*
X705471Y224239D01*
X705392Y224140D01*
X705308Y224046D01*
X705284Y224004D01*
X705254Y223966D01*
X705200Y223852D01*
X705139Y223741D01*
X705126Y223695D01*
X705105Y223651D01*
X705079Y223528D01*
X705044Y223406D01*
X705039Y223345D01*
X705032Y223311D01*
X705033Y223263D01*
X705025Y223162D01*
X705025Y125702D01*
X704031Y123304D01*
X702196Y121469D01*
X699798Y120475D01*
X698869Y120475D01*
X698759Y120463D01*
X698650Y120459D01*
X698587Y120443D01*
X698523Y120435D01*
X698419Y120398D01*
X698313Y120370D01*
X698256Y120340D01*
X698194Y120318D01*
X698102Y120258D01*
X698005Y120207D01*
X697956Y120164D01*
X697902Y120129D01*
X697825Y120050D01*
X697742Y119977D01*
X697705Y119925D01*
X697659Y119878D01*
X697603Y119784D01*
X697539Y119695D01*
X697514Y119635D01*
X697481Y119579D01*
X697447Y119474D01*
X697405Y119373D01*
X697394Y119309D01*
X697374Y119247D01*
X697366Y119138D01*
X697347Y119029D01*
X697352Y118964D01*
X697346Y118900D01*
X697363Y118791D01*
X697370Y118681D01*
X697389Y118619D01*
X697398Y118555D01*
X697439Y118453D01*
X697471Y118348D01*
X697503Y118291D01*
X697527Y118231D01*
X697590Y118141D01*
X697645Y118046D01*
X697689Y117998D01*
X697726Y117945D01*
X697807Y117872D01*
X697883Y117791D01*
X697937Y117755D01*
X697985Y117712D01*
X698081Y117658D01*
X698172Y117597D01*
X698251Y117565D01*
X698290Y117543D01*
X698329Y117532D01*
X698398Y117503D01*
X699830Y117038D01*
X701243Y116318D01*
X702527Y115385D01*
X703649Y114263D01*
X704582Y112979D01*
X705302Y111566D01*
X705747Y110195D01*
X696936Y110195D01*
X696910Y110192D01*
X696884Y110194D01*
X696737Y110172D01*
X696590Y110155D01*
X696565Y110147D01*
X696539Y110143D01*
X696402Y110088D01*
X696262Y110038D01*
X696240Y110024D01*
X696215Y110014D01*
X696094Y109929D01*
X695969Y109849D01*
X695951Y109830D01*
X695929Y109815D01*
X695830Y109705D01*
X695727Y109598D01*
X695713Y109576D01*
X695696Y109556D01*
X695624Y109426D01*
X695548Y109299D01*
X695540Y109274D01*
X695527Y109251D01*
X695487Y109108D01*
X695442Y108967D01*
X695440Y108941D01*
X695433Y108916D01*
X695413Y108672D01*
X695413Y106720D01*
X695416Y106694D01*
X695414Y106668D01*
X695436Y106521D01*
X695453Y106374D01*
X695462Y106349D01*
X695466Y106323D01*
X695520Y106185D01*
X695570Y106046D01*
X695585Y106024D01*
X695594Y105999D01*
X695679Y105878D01*
X695759Y105753D01*
X695778Y105735D01*
X695793Y105713D01*
X695903Y105614D01*
X696010Y105511D01*
X696033Y105497D01*
X696052Y105480D01*
X696182Y105408D01*
X696309Y105332D01*
X696334Y105324D01*
X696357Y105311D01*
X696500Y105271D01*
X696641Y105226D01*
X696667Y105223D01*
X696692Y105216D01*
X696936Y105197D01*
X705747Y105197D01*
X705302Y103826D01*
X704582Y102413D01*
X703649Y101129D01*
X702527Y100007D01*
X702111Y99704D01*
X702077Y99674D01*
X702039Y99649D01*
X701949Y99556D01*
X701854Y99469D01*
X701828Y99431D01*
X701797Y99398D01*
X701730Y99287D01*
X701658Y99181D01*
X701641Y99138D01*
X701618Y99099D01*
X701579Y98976D01*
X701532Y98856D01*
X701526Y98810D01*
X701512Y98767D01*
X701501Y98638D01*
X701483Y98511D01*
X701487Y98465D01*
X701484Y98420D01*
X701503Y98292D01*
X701514Y98163D01*
X701529Y98120D01*
X701535Y98075D01*
X701583Y97955D01*
X701624Y97832D01*
X701647Y97794D01*
X701664Y97751D01*
X701738Y97645D01*
X701805Y97535D01*
X701837Y97502D01*
X701863Y97465D01*
X701959Y97379D01*
X702050Y97287D01*
X702088Y97262D01*
X702122Y97232D01*
X702235Y97169D01*
X702344Y97100D01*
X702387Y97085D01*
X702427Y97063D01*
X702551Y97028D01*
X702673Y96986D01*
X702718Y96981D01*
X702762Y96968D01*
X703006Y96949D01*
X971903Y96949D01*
X972029Y96963D01*
X972155Y96970D01*
X972201Y96983D01*
X972249Y96989D01*
X972368Y97031D01*
X972490Y97066D01*
X972532Y97090D01*
X972577Y97106D01*
X972684Y97175D01*
X972794Y97236D01*
X972840Y97276D01*
X972870Y97295D01*
X972904Y97330D01*
X972980Y97395D01*
X982693Y107108D01*
X982772Y107207D01*
X982856Y107301D01*
X982880Y107343D01*
X982910Y107381D01*
X982964Y107495D01*
X983025Y107606D01*
X983038Y107652D01*
X983059Y107696D01*
X983085Y107819D01*
X983120Y107941D01*
X983125Y108002D01*
X983132Y108037D01*
X983131Y108085D01*
X983139Y108185D01*
X983139Y117247D01*
X983901Y119085D01*
X985307Y120491D01*
X986691Y121065D01*
X986758Y121102D01*
X986829Y121130D01*
X986910Y121186D01*
X986996Y121234D01*
X987052Y121285D01*
X987115Y121329D01*
X987181Y121402D01*
X987254Y121468D01*
X987297Y121531D01*
X987348Y121588D01*
X987396Y121674D01*
X987452Y121755D01*
X987480Y121826D01*
X987517Y121893D01*
X987544Y121987D01*
X987580Y122079D01*
X987591Y122154D01*
X987612Y122228D01*
X987624Y122377D01*
X987631Y122424D01*
X987629Y122443D01*
X987631Y122472D01*
X987631Y324181D01*
X988857Y327139D01*
X989142Y327425D01*
X989205Y327503D01*
X989275Y327576D01*
X989313Y327640D01*
X989359Y327698D01*
X989402Y327789D01*
X989453Y327875D01*
X989476Y327946D01*
X989508Y328013D01*
X989529Y328111D01*
X989560Y328207D01*
X989566Y328281D01*
X989581Y328354D01*
X989579Y328454D01*
X989588Y328554D01*
X989577Y328628D01*
X989575Y328702D01*
X989551Y328800D01*
X989536Y328899D01*
X989508Y328968D01*
X989490Y329040D01*
X989444Y329129D01*
X989407Y329223D01*
X989365Y329284D01*
X989331Y329350D01*
X989265Y329426D01*
X989208Y329509D01*
X989153Y329559D01*
X989105Y329615D01*
X989024Y329675D01*
X988949Y329742D01*
X988884Y329778D01*
X988825Y329823D01*
X988732Y329862D01*
X988644Y329911D01*
X988573Y329931D01*
X988505Y329961D01*
X988406Y329978D01*
X988309Y330006D01*
X988209Y330014D01*
X988162Y330022D01*
X988126Y330020D01*
X988065Y330025D01*
X974194Y330025D01*
X974068Y330011D01*
X973942Y330004D01*
X973896Y329991D01*
X973848Y329985D01*
X973729Y329943D01*
X973607Y329908D01*
X973565Y329884D01*
X973519Y329868D01*
X973413Y329799D01*
X973303Y329738D01*
X973257Y329698D01*
X973227Y329679D01*
X973193Y329644D01*
X973117Y329579D01*
X966705Y323167D01*
X960152Y323167D01*
X960026Y323153D01*
X959900Y323146D01*
X959853Y323133D01*
X959805Y323127D01*
X959686Y323085D01*
X959565Y323050D01*
X959523Y323026D01*
X959477Y323010D01*
X959371Y322941D01*
X959261Y322880D01*
X959214Y322840D01*
X959184Y322821D01*
X959151Y322786D01*
X959075Y322721D01*
X946771Y310417D01*
X946692Y310318D01*
X946608Y310225D01*
X946584Y310182D01*
X946554Y310144D01*
X946500Y310030D01*
X946439Y309920D01*
X946426Y309873D01*
X946405Y309829D01*
X946379Y309706D01*
X946344Y309584D01*
X946339Y309523D01*
X946332Y309489D01*
X946333Y309441D01*
X946325Y309340D01*
X946325Y305374D01*
X946333Y305298D01*
X946332Y305222D01*
X946353Y305125D01*
X946365Y305028D01*
X946390Y304956D01*
X946407Y304881D01*
X946449Y304792D01*
X946482Y304700D01*
X946524Y304635D01*
X946556Y304566D01*
X946618Y304490D01*
X946671Y304407D01*
X946726Y304354D01*
X946774Y304294D01*
X946851Y304233D01*
X946922Y304165D01*
X946987Y304125D01*
X947047Y304078D01*
X947180Y304010D01*
X947221Y303986D01*
X947239Y303980D01*
X947265Y303967D01*
X949383Y303089D01*
X950789Y301683D01*
X951551Y299845D01*
X951551Y284355D01*
X950789Y282517D01*
X949383Y281111D01*
X947545Y280349D01*
X932055Y280349D01*
X930217Y281111D01*
X928811Y282517D01*
X928049Y284355D01*
X928049Y299845D01*
X928811Y301683D01*
X930217Y303089D01*
X932335Y303967D01*
X932402Y304004D01*
X932473Y304032D01*
X932554Y304088D01*
X932640Y304136D01*
X932696Y304187D01*
X932759Y304231D01*
X932825Y304304D01*
X932898Y304370D01*
X932941Y304433D01*
X932992Y304490D01*
X933040Y304576D01*
X933096Y304657D01*
X933124Y304728D01*
X933161Y304795D01*
X933188Y304889D01*
X933224Y304981D01*
X933235Y305056D01*
X933256Y305130D01*
X933268Y305279D01*
X933275Y305326D01*
X933273Y305345D01*
X933275Y305374D01*
X933275Y313972D01*
X934269Y316370D01*
X949847Y331949D01*
X949926Y332048D01*
X950010Y332141D01*
X950034Y332184D01*
X950064Y332222D01*
X950118Y332336D01*
X950179Y332446D01*
X950192Y332493D01*
X950213Y332537D01*
X950239Y332660D01*
X950274Y332782D01*
X950279Y332843D01*
X950286Y332877D01*
X950285Y332925D01*
X950293Y333026D01*
X950293Y339579D01*
X957091Y346377D01*
X966705Y346377D01*
X969561Y343521D01*
X969660Y343442D01*
X969754Y343358D01*
X969796Y343334D01*
X969834Y343304D01*
X969948Y343250D01*
X970059Y343189D01*
X970105Y343176D01*
X970149Y343155D01*
X970272Y343129D01*
X970394Y343094D01*
X970455Y343089D01*
X970489Y343082D01*
X970537Y343083D01*
X970638Y343075D01*
X1026056Y343075D01*
X1026182Y343089D01*
X1026308Y343096D01*
X1026354Y343109D01*
X1026402Y343115D01*
X1026521Y343157D01*
X1026643Y343192D01*
X1026685Y343216D01*
X1026731Y343232D01*
X1026837Y343301D01*
X1026947Y343362D01*
X1026993Y343402D01*
X1027023Y343421D01*
X1027057Y343456D01*
X1027133Y343521D01*
X1032783Y349171D01*
X1042397Y349171D01*
X1049195Y342373D01*
X1049195Y341192D01*
X1049206Y341092D01*
X1049208Y340992D01*
X1049226Y340919D01*
X1049235Y340845D01*
X1049268Y340751D01*
X1049293Y340654D01*
X1049327Y340587D01*
X1049352Y340517D01*
X1049407Y340433D01*
X1049453Y340344D01*
X1049501Y340287D01*
X1049541Y340225D01*
X1049613Y340155D01*
X1049678Y340078D01*
X1049738Y340034D01*
X1049792Y339982D01*
X1049878Y339931D01*
X1049959Y339871D01*
X1050027Y339842D01*
X1050091Y339804D01*
X1050187Y339773D01*
X1050279Y339733D01*
X1050352Y339720D01*
X1050423Y339697D01*
X1050523Y339689D01*
X1050622Y339671D01*
X1050696Y339675D01*
X1050770Y339669D01*
X1050870Y339684D01*
X1050970Y339689D01*
X1051041Y339710D01*
X1051115Y339721D01*
X1051208Y339758D01*
X1051305Y339786D01*
X1051370Y339822D01*
X1051439Y339850D01*
X1051521Y339907D01*
X1051609Y339956D01*
X1051685Y340021D01*
X1051725Y340049D01*
X1051749Y340075D01*
X1051795Y340115D01*
X1083705Y372025D01*
X1083784Y372124D01*
X1083868Y372218D01*
X1083892Y372260D01*
X1083922Y372298D01*
X1083976Y372412D01*
X1084037Y372523D01*
X1084050Y372569D01*
X1084071Y372613D01*
X1084097Y372736D01*
X1084132Y372858D01*
X1084137Y372919D01*
X1084144Y372953D01*
X1084143Y373001D01*
X1084151Y373102D01*
X1084151Y398949D01*
X1084140Y399049D01*
X1084138Y399149D01*
X1084120Y399221D01*
X1084111Y399295D01*
X1084078Y399390D01*
X1084053Y399487D01*
X1084019Y399553D01*
X1083994Y399623D01*
X1083939Y399708D01*
X1083893Y399797D01*
X1083845Y399854D01*
X1083805Y399916D01*
X1083733Y399986D01*
X1083668Y400062D01*
X1083608Y400107D01*
X1083554Y400158D01*
X1083468Y400210D01*
X1083387Y400269D01*
X1083319Y400299D01*
X1083255Y400337D01*
X1083159Y400368D01*
X1083067Y400407D01*
X1082994Y400421D01*
X1082923Y400443D01*
X1082823Y400451D01*
X1082724Y400469D01*
X1082650Y400465D01*
X1082576Y400471D01*
X1082476Y400456D01*
X1082376Y400451D01*
X1082305Y400431D01*
X1082231Y400420D01*
X1082138Y400383D01*
X1082041Y400355D01*
X1081976Y400318D01*
X1081907Y400291D01*
X1081825Y400234D01*
X1081737Y400185D01*
X1081661Y400119D01*
X1081621Y400092D01*
X1081597Y400065D01*
X1081551Y400026D01*
X1078512Y396987D01*
X1073220Y394795D01*
X1067492Y394795D01*
X1062200Y396987D01*
X1058149Y401038D01*
X1057606Y402349D01*
X1057560Y402432D01*
X1057522Y402520D01*
X1057475Y402584D01*
X1057437Y402653D01*
X1057373Y402724D01*
X1057316Y402801D01*
X1057256Y402853D01*
X1057203Y402911D01*
X1057124Y402966D01*
X1057052Y403028D01*
X1056981Y403065D01*
X1056916Y403110D01*
X1056827Y403145D01*
X1056742Y403189D01*
X1056666Y403208D01*
X1056592Y403237D01*
X1056497Y403251D01*
X1056405Y403275D01*
X1056326Y403277D01*
X1056247Y403288D01*
X1056152Y403280D01*
X1056056Y403282D01*
X1055979Y403266D01*
X1055900Y403259D01*
X1055809Y403230D01*
X1055715Y403210D01*
X1055644Y403177D01*
X1055568Y403152D01*
X1055486Y403103D01*
X1055400Y403062D01*
X1055338Y403014D01*
X1055270Y402973D01*
X1055201Y402906D01*
X1055126Y402847D01*
X1055055Y402764D01*
X1055020Y402730D01*
X1055002Y402702D01*
X1054967Y402661D01*
X1054062Y401416D01*
X1052734Y400088D01*
X1051213Y398983D01*
X1049539Y398130D01*
X1047752Y397549D01*
X1047495Y397509D01*
X1047495Y408178D01*
X1047492Y408204D01*
X1047494Y408230D01*
X1047472Y408377D01*
X1047455Y408524D01*
X1047447Y408549D01*
X1047443Y408575D01*
X1047388Y408712D01*
X1047338Y408852D01*
X1047324Y408874D01*
X1047314Y408899D01*
X1047229Y409020D01*
X1047149Y409145D01*
X1047130Y409163D01*
X1047115Y409185D01*
X1047099Y409199D01*
X1047181Y409284D01*
X1047195Y409307D01*
X1047212Y409326D01*
X1047284Y409456D01*
X1047360Y409583D01*
X1047368Y409608D01*
X1047381Y409631D01*
X1047421Y409774D01*
X1047466Y409915D01*
X1047468Y409941D01*
X1047476Y409966D01*
X1047495Y410210D01*
X1047495Y420879D01*
X1047752Y420839D01*
X1049539Y420258D01*
X1051213Y419405D01*
X1052734Y418300D01*
X1054062Y416972D01*
X1054967Y415727D01*
X1055031Y415657D01*
X1055088Y415580D01*
X1055149Y415529D01*
X1055202Y415470D01*
X1055281Y415416D01*
X1055354Y415355D01*
X1055425Y415318D01*
X1055490Y415274D01*
X1055579Y415239D01*
X1055665Y415196D01*
X1055742Y415177D01*
X1055815Y415148D01*
X1055910Y415135D01*
X1056003Y415112D01*
X1056082Y415110D01*
X1056161Y415099D01*
X1056256Y415108D01*
X1056351Y415107D01*
X1056429Y415123D01*
X1056508Y415131D01*
X1056598Y415161D01*
X1056692Y415181D01*
X1056763Y415215D01*
X1056839Y415240D01*
X1056920Y415290D01*
X1057007Y415331D01*
X1057069Y415380D01*
X1057136Y415421D01*
X1057204Y415488D01*
X1057279Y415548D01*
X1057328Y415610D01*
X1057385Y415666D01*
X1057436Y415747D01*
X1057495Y415822D01*
X1057545Y415919D01*
X1057571Y415960D01*
X1057582Y415991D01*
X1057606Y416039D01*
X1058149Y417350D01*
X1062200Y421401D01*
X1067492Y423593D01*
X1073220Y423593D01*
X1078512Y421401D01*
X1081551Y418362D01*
X1081629Y418300D01*
X1081702Y418230D01*
X1081766Y418192D01*
X1081824Y418145D01*
X1081915Y418102D01*
X1082001Y418051D01*
X1082072Y418028D01*
X1082139Y417996D01*
X1082237Y417975D01*
X1082333Y417945D01*
X1082407Y417939D01*
X1082480Y417923D01*
X1082580Y417925D01*
X1082680Y417917D01*
X1082754Y417928D01*
X1082828Y417929D01*
X1082925Y417953D01*
X1083025Y417968D01*
X1083094Y417996D01*
X1083166Y418014D01*
X1083255Y418060D01*
X1083349Y418097D01*
X1083410Y418140D01*
X1083476Y418174D01*
X1083552Y418239D01*
X1083635Y418296D01*
X1083685Y418351D01*
X1083741Y418399D01*
X1083801Y418480D01*
X1083868Y418555D01*
X1083904Y418620D01*
X1083949Y418680D01*
X1083988Y418772D01*
X1084037Y418860D01*
X1084057Y418931D01*
X1084087Y419000D01*
X1084104Y419099D01*
X1084132Y419195D01*
X1084140Y419295D01*
X1084148Y419343D01*
X1084146Y419379D01*
X1084151Y419439D01*
X1084151Y714855D01*
X1084137Y714981D01*
X1084130Y715107D01*
X1084117Y715153D01*
X1084111Y715201D01*
X1084069Y715320D01*
X1084034Y715442D01*
X1084010Y715484D01*
X1083994Y715529D01*
X1083925Y715636D01*
X1083864Y715746D01*
X1083824Y715792D01*
X1083805Y715822D01*
X1083770Y715856D01*
X1083705Y715932D01*
X1071532Y728105D01*
X1071433Y728184D01*
X1071339Y728268D01*
X1071297Y728292D01*
X1071259Y728322D01*
X1071145Y728376D01*
X1071034Y728437D01*
X1070988Y728450D01*
X1070944Y728471D01*
X1070821Y728497D01*
X1070699Y728532D01*
X1070638Y728537D01*
X1070603Y728544D01*
X1070555Y728543D01*
X1070455Y728551D01*
X1014959Y728551D01*
X1014913Y728546D01*
X1014868Y728549D01*
X1014741Y728526D01*
X1014612Y728511D01*
X1014569Y728496D01*
X1014525Y728488D01*
X1014406Y728437D01*
X1014284Y728394D01*
X1014246Y728369D01*
X1014204Y728351D01*
X1014100Y728275D01*
X1013991Y728205D01*
X1013960Y728172D01*
X1013923Y728145D01*
X1013839Y728047D01*
X1013749Y727954D01*
X1013726Y727915D01*
X1013696Y727881D01*
X1013637Y727766D01*
X1013570Y727655D01*
X1013557Y727612D01*
X1013536Y727571D01*
X1013504Y727446D01*
X1013464Y727323D01*
X1013461Y727278D01*
X1013449Y727234D01*
X1013447Y727104D01*
X1013436Y726976D01*
X1013443Y726931D01*
X1013442Y726885D01*
X1013469Y726759D01*
X1013488Y726631D01*
X1013505Y726589D01*
X1013514Y726544D01*
X1013569Y726427D01*
X1013617Y726307D01*
X1013643Y726270D01*
X1013662Y726229D01*
X1013742Y726127D01*
X1013816Y726021D01*
X1013849Y725991D01*
X1013878Y725955D01*
X1014063Y725796D01*
X1014745Y725300D01*
X1015876Y724169D01*
X1016816Y722875D01*
X1017542Y721450D01*
X1018037Y719929D01*
X1018287Y718350D01*
X1018287Y712469D01*
X1009142Y712469D01*
X1009116Y712466D01*
X1009090Y712468D01*
X1008943Y712446D01*
X1008796Y712429D01*
X1008771Y712421D01*
X1008745Y712417D01*
X1008608Y712362D01*
X1008468Y712312D01*
X1008446Y712298D01*
X1008421Y712288D01*
X1008300Y712203D01*
X1008175Y712123D01*
X1008157Y712104D01*
X1008135Y712089D01*
X1008036Y711979D01*
X1007933Y711872D01*
X1007919Y711850D01*
X1007902Y711830D01*
X1007830Y711700D01*
X1007754Y711573D01*
X1007746Y711548D01*
X1007733Y711525D01*
X1007693Y711382D01*
X1007648Y711241D01*
X1007646Y711215D01*
X1007639Y711190D01*
X1007619Y710946D01*
X1007619Y710437D01*
X1007110Y710437D01*
X1007084Y710434D01*
X1007058Y710436D01*
X1006911Y710414D01*
X1006764Y710397D01*
X1006739Y710388D01*
X1006713Y710384D01*
X1006575Y710330D01*
X1006436Y710280D01*
X1006414Y710265D01*
X1006389Y710256D01*
X1006268Y710171D01*
X1006143Y710091D01*
X1006125Y710072D01*
X1006103Y710057D01*
X1006004Y709947D01*
X1005901Y709840D01*
X1005887Y709817D01*
X1005870Y709798D01*
X1005798Y709668D01*
X1005722Y709541D01*
X1005714Y709516D01*
X1005701Y709493D01*
X1005661Y709350D01*
X1005616Y709209D01*
X1005613Y709183D01*
X1005606Y709158D01*
X1005587Y708914D01*
X1005587Y692451D01*
X1004226Y692894D01*
X1002801Y693620D01*
X1001507Y694560D01*
X1000376Y695691D01*
X999436Y696985D01*
X998710Y698410D01*
X998254Y699812D01*
X998188Y699956D01*
X998124Y700104D01*
X998115Y700115D01*
X998109Y700128D01*
X998012Y700254D01*
X997916Y700383D01*
X997905Y700393D01*
X997896Y700404D01*
X997772Y700505D01*
X997650Y700608D01*
X997637Y700615D01*
X997626Y700624D01*
X997481Y700695D01*
X997340Y700767D01*
X997326Y700771D01*
X997313Y700777D01*
X997156Y700813D01*
X997002Y700851D01*
X996987Y700852D01*
X996973Y700855D01*
X996813Y700854D01*
X996653Y700856D01*
X996639Y700853D01*
X996624Y700853D01*
X996469Y700816D01*
X996313Y700782D01*
X996300Y700776D01*
X996285Y700773D01*
X996141Y700701D01*
X995998Y700632D01*
X995987Y700623D01*
X995974Y700617D01*
X995850Y700514D01*
X995725Y700415D01*
X995716Y700404D01*
X995705Y700394D01*
X995609Y700267D01*
X995510Y700141D01*
X995502Y700126D01*
X995495Y700117D01*
X995479Y700082D01*
X995398Y699924D01*
X993425Y695161D01*
X989875Y691611D01*
X985236Y689689D01*
X980216Y689689D01*
X975577Y691611D01*
X972027Y695161D01*
X971433Y696593D01*
X971385Y696681D01*
X971345Y696773D01*
X971300Y696833D01*
X971264Y696898D01*
X971197Y696972D01*
X971137Y697053D01*
X971080Y697101D01*
X971030Y697156D01*
X970947Y697213D01*
X970871Y697278D01*
X970804Y697312D01*
X970743Y697354D01*
X970650Y697391D01*
X970560Y697437D01*
X970488Y697455D01*
X970419Y697482D01*
X970319Y697497D01*
X970222Y697521D01*
X970148Y697522D01*
X970074Y697533D01*
X969974Y697525D01*
X969874Y697526D01*
X969801Y697510D01*
X969727Y697504D01*
X969631Y697473D01*
X969533Y697452D01*
X969466Y697420D01*
X969395Y697397D01*
X969309Y697345D01*
X969218Y697302D01*
X969160Y697256D01*
X969097Y697217D01*
X969025Y697147D01*
X968946Y697085D01*
X968900Y697026D01*
X968847Y696975D01*
X968792Y696890D01*
X968730Y696811D01*
X968684Y696722D01*
X968658Y696681D01*
X968646Y696648D01*
X968619Y696593D01*
X968025Y695161D01*
X967623Y694759D01*
X967607Y694738D01*
X967587Y694721D01*
X967499Y694602D01*
X967406Y694486D01*
X967395Y694462D01*
X967380Y694441D01*
X967321Y694305D01*
X967257Y694171D01*
X967252Y694145D01*
X967242Y694121D01*
X967215Y693975D01*
X967184Y693830D01*
X967185Y693804D01*
X967180Y693778D01*
X967188Y693629D01*
X967190Y693481D01*
X967196Y693456D01*
X967198Y693430D01*
X967239Y693287D01*
X967275Y693143D01*
X967287Y693120D01*
X967294Y693095D01*
X967367Y692966D01*
X967435Y692834D01*
X967452Y692814D01*
X967464Y692791D01*
X967623Y692604D01*
X1000432Y659796D01*
X1002481Y657746D01*
X1003475Y655348D01*
X1003475Y630348D01*
X1003478Y630322D01*
X1003476Y630296D01*
X1003498Y630149D01*
X1003515Y630002D01*
X1003523Y629977D01*
X1003527Y629951D01*
X1003582Y629813D01*
X1003632Y629674D01*
X1003646Y629652D01*
X1003656Y629627D01*
X1003741Y629506D01*
X1003821Y629381D01*
X1003840Y629363D01*
X1003855Y629341D01*
X1003965Y629242D01*
X1004072Y629139D01*
X1004094Y629125D01*
X1004114Y629108D01*
X1004244Y629036D01*
X1004371Y628960D01*
X1004396Y628952D01*
X1004419Y628939D01*
X1004562Y628899D01*
X1004703Y628854D01*
X1004729Y628852D01*
X1004754Y628844D01*
X1004998Y628825D01*
X1010948Y628825D01*
X1013346Y627831D01*
X1040581Y600596D01*
X1041575Y598198D01*
X1041575Y424152D01*
X1041106Y423020D01*
X1041079Y422928D01*
X1041044Y422839D01*
X1041032Y422761D01*
X1041010Y422685D01*
X1041005Y422589D01*
X1040991Y422495D01*
X1040997Y422416D01*
X1040993Y422337D01*
X1041010Y422242D01*
X1041018Y422147D01*
X1041041Y422072D01*
X1041056Y421994D01*
X1041094Y421906D01*
X1041123Y421815D01*
X1041163Y421747D01*
X1041194Y421674D01*
X1041251Y421597D01*
X1041300Y421515D01*
X1041355Y421458D01*
X1041402Y421394D01*
X1041475Y421333D01*
X1041542Y421264D01*
X1041608Y421220D01*
X1041668Y421169D01*
X1041754Y421126D01*
X1041834Y421073D01*
X1041908Y421047D01*
X1041979Y421010D01*
X1042071Y420987D01*
X1042161Y420955D01*
X1042240Y420945D01*
X1042317Y420926D01*
X1042412Y420925D01*
X1042417Y420924D01*
X1042417Y410210D01*
X1042420Y410184D01*
X1042418Y410158D01*
X1042440Y410011D01*
X1042457Y409864D01*
X1042465Y409839D01*
X1042469Y409813D01*
X1042524Y409676D01*
X1042574Y409536D01*
X1042588Y409514D01*
X1042598Y409489D01*
X1042683Y409368D01*
X1042763Y409243D01*
X1042782Y409225D01*
X1042797Y409203D01*
X1042813Y409189D01*
X1042731Y409104D01*
X1042717Y409081D01*
X1042700Y409062D01*
X1042628Y408932D01*
X1042552Y408805D01*
X1042544Y408780D01*
X1042531Y408757D01*
X1042491Y408614D01*
X1042446Y408473D01*
X1042443Y408447D01*
X1042436Y408422D01*
X1042417Y408178D01*
X1042417Y397509D01*
X1042160Y397549D01*
X1040373Y398130D01*
X1038699Y398983D01*
X1037178Y400088D01*
X1035850Y401416D01*
X1034945Y402661D01*
X1034881Y402731D01*
X1034824Y402808D01*
X1034763Y402859D01*
X1034710Y402918D01*
X1034631Y402972D01*
X1034558Y403033D01*
X1034487Y403070D01*
X1034422Y403114D01*
X1034333Y403149D01*
X1034247Y403192D01*
X1034170Y403211D01*
X1034097Y403240D01*
X1034002Y403253D01*
X1033909Y403276D01*
X1033830Y403278D01*
X1033751Y403289D01*
X1033656Y403280D01*
X1033561Y403281D01*
X1033483Y403265D01*
X1033404Y403257D01*
X1033314Y403227D01*
X1033220Y403207D01*
X1033149Y403173D01*
X1033073Y403148D01*
X1032992Y403098D01*
X1032905Y403057D01*
X1032843Y403008D01*
X1032776Y402967D01*
X1032708Y402900D01*
X1032633Y402840D01*
X1032584Y402778D01*
X1032527Y402722D01*
X1032476Y402641D01*
X1032417Y402566D01*
X1032367Y402469D01*
X1032341Y402428D01*
X1032330Y402397D01*
X1032306Y402349D01*
X1031763Y401038D01*
X1027712Y396987D01*
X1022420Y394795D01*
X1016692Y394795D01*
X1011400Y396987D01*
X1007933Y400454D01*
X1007913Y400470D01*
X1007896Y400490D01*
X1007776Y400579D01*
X1007660Y400671D01*
X1007636Y400682D01*
X1007615Y400697D01*
X1007479Y400756D01*
X1007345Y400820D01*
X1007319Y400825D01*
X1007295Y400835D01*
X1007149Y400862D01*
X1007004Y400893D01*
X1006978Y400892D01*
X1006952Y400897D01*
X1006804Y400889D01*
X1006656Y400887D01*
X1006630Y400881D01*
X1006604Y400879D01*
X1006462Y400838D01*
X1006318Y400802D01*
X1006295Y400790D01*
X1006269Y400783D01*
X1006140Y400710D01*
X1006008Y400642D01*
X1005988Y400625D01*
X1005965Y400613D01*
X1005779Y400454D01*
X1002312Y396987D01*
X997020Y394795D01*
X991292Y394795D01*
X986000Y396987D01*
X982533Y400454D01*
X982513Y400470D01*
X982496Y400490D01*
X982376Y400579D01*
X982260Y400671D01*
X982236Y400682D01*
X982215Y400697D01*
X982079Y400756D01*
X981945Y400820D01*
X981919Y400825D01*
X981895Y400835D01*
X981749Y400862D01*
X981604Y400893D01*
X981578Y400892D01*
X981552Y400897D01*
X981404Y400889D01*
X981256Y400887D01*
X981230Y400881D01*
X981204Y400879D01*
X981062Y400838D01*
X980918Y400802D01*
X980895Y400790D01*
X980869Y400783D01*
X980740Y400710D01*
X980608Y400642D01*
X980588Y400625D01*
X980565Y400613D01*
X980379Y400454D01*
X976912Y396987D01*
X971620Y394795D01*
X965892Y394795D01*
X960600Y396987D01*
X957133Y400454D01*
X957113Y400470D01*
X957096Y400490D01*
X956976Y400579D01*
X956860Y400671D01*
X956836Y400682D01*
X956815Y400697D01*
X956679Y400756D01*
X956545Y400820D01*
X956519Y400825D01*
X956495Y400835D01*
X956349Y400862D01*
X956204Y400893D01*
X956178Y400892D01*
X956152Y400897D01*
X956004Y400889D01*
X955856Y400887D01*
X955830Y400881D01*
X955804Y400879D01*
X955662Y400838D01*
X955518Y400802D01*
X955495Y400790D01*
X955469Y400783D01*
X955340Y400710D01*
X955208Y400642D01*
X955188Y400625D01*
X955165Y400613D01*
X954979Y400454D01*
X951512Y396987D01*
X946220Y394795D01*
X940492Y394795D01*
X935200Y396987D01*
X931733Y400454D01*
X931713Y400470D01*
X931696Y400490D01*
X931576Y400579D01*
X931460Y400671D01*
X931436Y400682D01*
X931415Y400697D01*
X931279Y400756D01*
X931145Y400820D01*
X931119Y400825D01*
X931095Y400835D01*
X930949Y400862D01*
X930804Y400893D01*
X930778Y400892D01*
X930752Y400897D01*
X930604Y400889D01*
X930456Y400887D01*
X930430Y400881D01*
X930404Y400879D01*
X930262Y400838D01*
X930118Y400802D01*
X930095Y400790D01*
X930069Y400783D01*
X929940Y400710D01*
X929808Y400642D01*
X929788Y400625D01*
X929765Y400613D01*
X929579Y400454D01*
X926112Y396987D01*
X920820Y394795D01*
X915092Y394795D01*
X909800Y396987D01*
X906333Y400454D01*
X906313Y400470D01*
X906296Y400490D01*
X906176Y400579D01*
X906060Y400671D01*
X906036Y400682D01*
X906015Y400697D01*
X905879Y400756D01*
X905745Y400820D01*
X905719Y400825D01*
X905695Y400835D01*
X905549Y400862D01*
X905404Y400893D01*
X905378Y400892D01*
X905352Y400897D01*
X905204Y400889D01*
X905056Y400887D01*
X905030Y400881D01*
X905004Y400879D01*
X904862Y400838D01*
X904718Y400802D01*
X904695Y400790D01*
X904669Y400783D01*
X904540Y400710D01*
X904408Y400642D01*
X904388Y400625D01*
X904365Y400613D01*
X904179Y400454D01*
X900712Y396987D01*
X895420Y394795D01*
X889692Y394795D01*
X884400Y396987D01*
X881876Y399511D01*
X881759Y399604D01*
X881644Y399702D01*
X881622Y399713D01*
X881603Y399728D01*
X881467Y399792D01*
X881333Y399860D01*
X881310Y399866D01*
X881288Y399877D01*
X881141Y399908D01*
X880995Y399945D01*
X880971Y399945D01*
X880947Y399950D01*
X880797Y399947D01*
X880647Y399950D01*
X880623Y399944D01*
X880599Y399944D01*
X880453Y399907D01*
X880306Y399875D01*
X880284Y399865D01*
X880261Y399859D01*
X880127Y399790D01*
X879991Y399726D01*
X879973Y399710D01*
X879951Y399699D01*
X879836Y399602D01*
X879719Y399508D01*
X879704Y399489D01*
X879686Y399474D01*
X879596Y399353D01*
X879503Y399235D01*
X879490Y399209D01*
X879478Y399193D01*
X879460Y399150D01*
X879392Y399017D01*
X878725Y397408D01*
X840696Y359379D01*
X837737Y358153D01*
X836804Y358153D01*
X836802Y358153D01*
X836800Y358153D01*
X836624Y358133D01*
X836458Y358113D01*
X836456Y358113D01*
X836454Y358112D01*
X836221Y358037D01*
X835434Y357711D01*
X775274Y357711D01*
X775248Y357708D01*
X775222Y357710D01*
X775075Y357688D01*
X774928Y357671D01*
X774903Y357663D01*
X774877Y357659D01*
X774739Y357604D01*
X774600Y357554D01*
X774578Y357540D01*
X774553Y357530D01*
X774432Y357445D01*
X774307Y357365D01*
X774289Y357346D01*
X774267Y357331D01*
X774168Y357221D01*
X774065Y357114D01*
X774051Y357092D01*
X774034Y357072D01*
X773962Y356942D01*
X773886Y356815D01*
X773878Y356790D01*
X773865Y356767D01*
X773825Y356624D01*
X773780Y356483D01*
X773778Y356457D01*
X773770Y356432D01*
X773751Y356188D01*
X773751Y342775D01*
X772989Y340937D01*
X771583Y339531D01*
X769745Y338769D01*
X754255Y338769D01*
X752417Y339531D01*
X751011Y340937D01*
X750133Y343055D01*
X750096Y343122D01*
X750068Y343193D01*
X750012Y343274D01*
X749964Y343360D01*
X749913Y343416D01*
X749869Y343479D01*
X749796Y343545D01*
X749730Y343618D01*
X749667Y343661D01*
X749610Y343712D01*
X749524Y343760D01*
X749443Y343816D01*
X749372Y343844D01*
X749305Y343881D01*
X749211Y343908D01*
X749119Y343944D01*
X749044Y343955D01*
X748970Y343976D01*
X748821Y343988D01*
X748774Y343995D01*
X748755Y343993D01*
X748726Y343995D01*
X709366Y343995D01*
X709266Y343984D01*
X709166Y343982D01*
X709093Y343964D01*
X709020Y343955D01*
X708925Y343922D01*
X708828Y343897D01*
X708761Y343863D01*
X708691Y343838D01*
X708607Y343783D01*
X708518Y343737D01*
X708461Y343689D01*
X708399Y343649D01*
X708329Y343577D01*
X708252Y343512D01*
X708208Y343452D01*
X708156Y343398D01*
X708105Y343312D01*
X708045Y343231D01*
X708016Y343163D01*
X707978Y343099D01*
X707947Y343003D01*
X707907Y342911D01*
X707894Y342838D01*
X707871Y342767D01*
X707863Y342667D01*
X707846Y342568D01*
X707849Y342494D01*
X707843Y342420D01*
X707858Y342320D01*
X707863Y342220D01*
X707884Y342149D01*
X707895Y342075D01*
X707932Y341982D01*
X707960Y341885D01*
X707996Y341820D01*
X708024Y341751D01*
X708081Y341669D01*
X708130Y341581D01*
X708195Y341505D01*
X708223Y341465D01*
X708249Y341441D01*
X708289Y341395D01*
X709851Y339833D01*
X709851Y330218D01*
X709840Y330204D01*
X709820Y330187D01*
X709732Y330068D01*
X709640Y329952D01*
X709629Y329928D01*
X709613Y329907D01*
X709554Y329771D01*
X709491Y329637D01*
X709486Y329611D01*
X709475Y329587D01*
X709449Y329441D01*
X709418Y329296D01*
X709418Y329270D01*
X709413Y329244D01*
X709421Y329096D01*
X709424Y328948D01*
X709430Y328922D01*
X709431Y328896D01*
X709472Y328754D01*
X709509Y328610D01*
X709521Y328586D01*
X709528Y328561D01*
X709600Y328432D01*
X709668Y328300D01*
X709685Y328280D01*
X709698Y328257D01*
X709857Y328071D01*
X713457Y324471D01*
X713556Y324392D01*
X713649Y324308D01*
X713692Y324284D01*
X713730Y324254D01*
X713844Y324200D01*
X713954Y324139D01*
X714001Y324126D01*
X714045Y324105D01*
X714168Y324079D01*
X714290Y324044D01*
X714351Y324039D01*
X714385Y324032D01*
X714433Y324033D01*
X714534Y324025D01*
X853916Y324025D01*
X854042Y324039D01*
X854168Y324046D01*
X854215Y324059D01*
X854263Y324065D01*
X854382Y324107D01*
X854503Y324142D01*
X854545Y324166D01*
X854591Y324182D01*
X854697Y324251D01*
X854807Y324312D01*
X854854Y324352D01*
X854884Y324371D01*
X854917Y324406D01*
X854993Y324471D01*
X863741Y333219D01*
X863820Y333318D01*
X863904Y333411D01*
X863928Y333454D01*
X863958Y333492D01*
X864012Y333606D01*
X864073Y333716D01*
X864086Y333763D01*
X864107Y333807D01*
X864133Y333930D01*
X864168Y334052D01*
X864173Y334113D01*
X864180Y334147D01*
X864179Y334195D01*
X864187Y334296D01*
X864187Y337547D01*
X870985Y344345D01*
X880599Y344345D01*
X887397Y337547D01*
X887397Y327933D01*
X880599Y321135D01*
X870744Y321135D01*
X870618Y321121D01*
X870492Y321114D01*
X870445Y321101D01*
X870397Y321095D01*
X870278Y321053D01*
X870157Y321018D01*
X870115Y320994D01*
X870069Y320978D01*
X869963Y320909D01*
X869853Y320848D01*
X869806Y320808D01*
X869776Y320789D01*
X869743Y320754D01*
X869667Y320689D01*
X860946Y311969D01*
X858548Y310975D01*
X709902Y310975D01*
X707504Y311969D01*
X696498Y322975D01*
X696399Y323054D01*
X696305Y323138D01*
X696262Y323162D01*
X696225Y323192D01*
X696110Y323246D01*
X696000Y323307D01*
X695953Y323320D01*
X695909Y323341D01*
X695786Y323367D01*
X695664Y323402D01*
X695604Y323407D01*
X695569Y323414D01*
X695521Y323413D01*
X695420Y323421D01*
X693439Y323421D01*
X691921Y324939D01*
X691900Y324956D01*
X691883Y324976D01*
X691764Y325064D01*
X691648Y325156D01*
X691624Y325167D01*
X691603Y325183D01*
X691467Y325242D01*
X691333Y325305D01*
X691307Y325310D01*
X691283Y325321D01*
X691137Y325347D01*
X690992Y325378D01*
X690966Y325378D01*
X690940Y325383D01*
X690792Y325375D01*
X690644Y325372D01*
X690618Y325366D01*
X690592Y325365D01*
X690450Y325324D01*
X690306Y325287D01*
X690282Y325275D01*
X690257Y325268D01*
X690128Y325196D01*
X689996Y325128D01*
X689976Y325111D01*
X689953Y325098D01*
X689767Y324939D01*
X664096Y299269D01*
X661698Y298275D01*
X462252Y298275D01*
X461005Y298792D01*
X460860Y298833D01*
X460717Y298879D01*
X460693Y298881D01*
X460670Y298888D01*
X460519Y298895D01*
X460370Y298907D01*
X460346Y298903D01*
X460322Y298905D01*
X460174Y298878D01*
X460025Y298855D01*
X460003Y298846D01*
X459979Y298842D01*
X459841Y298782D01*
X459701Y298727D01*
X459681Y298713D01*
X459659Y298703D01*
X459538Y298613D01*
X459415Y298528D01*
X459399Y298510D01*
X459379Y298495D01*
X459282Y298380D01*
X459182Y298269D01*
X459170Y298248D01*
X459154Y298229D01*
X459086Y298096D01*
X459013Y297964D01*
X459007Y297940D01*
X458996Y297919D01*
X458959Y297773D01*
X458918Y297628D01*
X458916Y297599D01*
X458911Y297581D01*
X458911Y297534D01*
X458899Y297385D01*
X458899Y238172D01*
X458902Y238146D01*
X458900Y238120D01*
X458922Y237973D01*
X458939Y237826D01*
X458947Y237801D01*
X458951Y237775D01*
X459006Y237637D01*
X459056Y237498D01*
X459070Y237476D01*
X459080Y237451D01*
X459165Y237330D01*
X459245Y237205D01*
X459264Y237187D01*
X459279Y237165D01*
X459389Y237066D01*
X459496Y236963D01*
X459518Y236949D01*
X459538Y236932D01*
X459668Y236860D01*
X459795Y236784D01*
X459820Y236776D01*
X459843Y236763D01*
X459986Y236723D01*
X460127Y236678D01*
X460153Y236676D01*
X460178Y236668D01*
X460422Y236649D01*
X518890Y236649D01*
X519016Y236663D01*
X519142Y236670D01*
X519189Y236683D01*
X519237Y236689D01*
X519356Y236731D01*
X519477Y236766D01*
X519519Y236790D01*
X519565Y236806D01*
X519671Y236875D01*
X519781Y236936D01*
X519828Y236976D01*
X519858Y236995D01*
X519891Y237030D01*
X519968Y237095D01*
X550051Y267178D01*
X550130Y267277D01*
X550214Y267371D01*
X550238Y267414D01*
X550268Y267451D01*
X550322Y267566D01*
X550383Y267676D01*
X550396Y267723D01*
X550417Y267767D01*
X550443Y267890D01*
X550478Y268012D01*
X550483Y268073D01*
X550490Y268107D01*
X550489Y268155D01*
X550497Y268256D01*
X550497Y274809D01*
X557295Y281607D01*
X566909Y281607D01*
X573707Y274809D01*
X573707Y268398D01*
X573710Y268372D01*
X573708Y268346D01*
X573730Y268199D01*
X573747Y268052D01*
X573755Y268027D01*
X573759Y268001D01*
X573814Y267863D01*
X573864Y267724D01*
X573878Y267702D01*
X573888Y267677D01*
X573973Y267556D01*
X574053Y267431D01*
X574072Y267413D01*
X574087Y267391D01*
X574197Y267292D01*
X574304Y267189D01*
X574326Y267175D01*
X574346Y267158D01*
X574476Y267086D01*
X574603Y267010D01*
X574628Y267002D01*
X574651Y266989D01*
X574794Y266949D01*
X574935Y266904D01*
X574961Y266902D01*
X574986Y266894D01*
X575230Y266875D01*
X706148Y266875D01*
X708546Y265881D01*
X780231Y194196D01*
X781225Y191798D01*
X781225Y144630D01*
X781239Y144504D01*
X781246Y144378D01*
X781259Y144332D01*
X781265Y144284D01*
X781307Y144165D01*
X781342Y144043D01*
X781366Y144001D01*
X781382Y143955D01*
X781451Y143849D01*
X781512Y143739D01*
X781552Y143693D01*
X781571Y143663D01*
X781606Y143629D01*
X781671Y143553D01*
X786069Y139155D01*
X786089Y139138D01*
X786106Y139118D01*
X786226Y139030D01*
X786342Y138938D01*
X786366Y138927D01*
X786387Y138911D01*
X786523Y138852D01*
X786657Y138789D01*
X786683Y138784D01*
X786707Y138773D01*
X786853Y138747D01*
X786998Y138716D01*
X787024Y138716D01*
X787050Y138712D01*
X787198Y138719D01*
X787346Y138722D01*
X787372Y138728D01*
X787398Y138729D01*
X787540Y138771D01*
X787684Y138807D01*
X787707Y138819D01*
X787733Y138826D01*
X787862Y138898D01*
X787994Y138966D01*
X788014Y138983D01*
X788037Y138996D01*
X788223Y139155D01*
X793129Y144061D01*
X793208Y144160D01*
X793292Y144254D01*
X793316Y144296D01*
X793346Y144334D01*
X793400Y144448D01*
X793461Y144559D01*
X793474Y144605D01*
X793495Y144649D01*
X793521Y144772D01*
X793556Y144894D01*
X793561Y144955D01*
X793568Y144990D01*
X793567Y145038D01*
X793575Y145138D01*
X793575Y221822D01*
X793572Y221848D01*
X793574Y221874D01*
X793552Y222021D01*
X793535Y222168D01*
X793527Y222193D01*
X793523Y222219D01*
X793468Y222357D01*
X793418Y222496D01*
X793404Y222518D01*
X793394Y222543D01*
X793309Y222664D01*
X793229Y222789D01*
X793210Y222807D01*
X793195Y222829D01*
X793085Y222928D01*
X792978Y223031D01*
X792956Y223045D01*
X792936Y223062D01*
X792806Y223134D01*
X792679Y223210D01*
X792654Y223218D01*
X792631Y223231D01*
X792488Y223271D01*
X792347Y223316D01*
X792321Y223318D01*
X792296Y223326D01*
X792052Y223345D01*
X782339Y223345D01*
X775541Y230143D01*
X775541Y239757D01*
X782339Y246555D01*
X791953Y246555D01*
X796587Y241921D01*
X796686Y241842D01*
X796780Y241758D01*
X796822Y241734D01*
X796860Y241704D01*
X796974Y241650D01*
X797085Y241589D01*
X797131Y241576D01*
X797175Y241555D01*
X797298Y241529D01*
X797420Y241494D01*
X797481Y241489D01*
X797516Y241482D01*
X797564Y241483D01*
X797664Y241475D01*
X801398Y241475D01*
X803796Y240481D01*
X805631Y238646D01*
X806625Y236248D01*
X806625Y160448D01*
X806628Y160422D01*
X806626Y160396D01*
X806648Y160249D01*
X806665Y160102D01*
X806673Y160077D01*
X806677Y160051D01*
X806732Y159913D01*
X806782Y159774D01*
X806796Y159752D01*
X806806Y159727D01*
X806891Y159606D01*
X806971Y159481D01*
X806990Y159463D01*
X807005Y159441D01*
X807115Y159342D01*
X807222Y159239D01*
X807244Y159225D01*
X807264Y159208D01*
X807394Y159136D01*
X807521Y159060D01*
X807546Y159052D01*
X807569Y159039D01*
X807712Y158999D01*
X807853Y158954D01*
X807879Y158952D01*
X807904Y158944D01*
X808148Y158925D01*
X883948Y158925D01*
X886346Y157931D01*
X898877Y145401D01*
X898976Y145322D01*
X899069Y145238D01*
X899112Y145214D01*
X899150Y145184D01*
X899264Y145130D01*
X899374Y145069D01*
X899421Y145056D01*
X899465Y145035D01*
X899588Y145009D01*
X899710Y144974D01*
X899771Y144969D01*
X899805Y144962D01*
X899853Y144963D01*
X899954Y144955D01*
X908031Y144955D01*
X914829Y138157D01*
X914829Y128543D01*
X908031Y121745D01*
X898417Y121745D01*
X891601Y128561D01*
X891581Y128578D01*
X891564Y128598D01*
X891444Y128686D01*
X891328Y128778D01*
X891304Y128789D01*
X891283Y128805D01*
X891147Y128864D01*
X891013Y128927D01*
X890987Y128932D01*
X890963Y128943D01*
X890817Y128969D01*
X890672Y129000D01*
X890646Y129000D01*
X890620Y129004D01*
X890472Y128997D01*
X890324Y128994D01*
X890298Y128988D01*
X890272Y128987D01*
X890130Y128945D01*
X889986Y128909D01*
X889962Y128897D01*
X889937Y128890D01*
X889808Y128818D01*
X889676Y128750D01*
X889656Y128733D01*
X889633Y128720D01*
X889447Y128561D01*
X882631Y121745D01*
X874554Y121745D01*
X874428Y121731D01*
X874302Y121724D01*
X874255Y121711D01*
X874207Y121705D01*
X874088Y121663D01*
X873967Y121628D01*
X873925Y121604D01*
X873879Y121588D01*
X873773Y121519D01*
X873663Y121458D01*
X873616Y121418D01*
X873586Y121399D01*
X873553Y121364D01*
X873477Y121299D01*
X867296Y115119D01*
X864898Y114125D01*
X786102Y114125D01*
X783704Y115119D01*
X781655Y117168D01*
X781654Y117168D01*
X776508Y122315D01*
X776409Y122394D01*
X776315Y122478D01*
X776272Y122502D01*
X776235Y122532D01*
X776120Y122586D01*
X776010Y122647D01*
X775963Y122660D01*
X775919Y122681D01*
X775796Y122707D01*
X775674Y122742D01*
X775613Y122747D01*
X775579Y122754D01*
X775531Y122753D01*
X775430Y122761D01*
X769639Y122761D01*
X762841Y129559D01*
X762841Y139173D01*
X767729Y144061D01*
X767808Y144160D01*
X767892Y144254D01*
X767916Y144296D01*
X767946Y144334D01*
X768000Y144448D01*
X768061Y144559D01*
X768074Y144605D01*
X768095Y144649D01*
X768121Y144772D01*
X768156Y144894D01*
X768161Y144955D01*
X768168Y144990D01*
X768167Y145038D01*
X768175Y145138D01*
X768175Y187166D01*
X768161Y187292D01*
X768154Y187418D01*
X768141Y187465D01*
X768135Y187513D01*
X768093Y187632D01*
X768058Y187753D01*
X768034Y187795D01*
X768018Y187841D01*
X767949Y187947D01*
X767888Y188057D01*
X767848Y188104D01*
X767829Y188134D01*
X767794Y188167D01*
X767729Y188243D01*
X702593Y253379D01*
X702494Y253458D01*
X702401Y253542D01*
X702358Y253566D01*
X702320Y253596D01*
X702206Y253650D01*
X702096Y253711D01*
X702049Y253724D01*
X702005Y253745D01*
X701882Y253771D01*
X701760Y253806D01*
X701699Y253811D01*
X701665Y253818D01*
X701617Y253817D01*
X701516Y253825D01*
X570202Y253825D01*
X569782Y253999D01*
X569733Y254013D01*
X569688Y254035D01*
X569566Y254061D01*
X569446Y254095D01*
X569396Y254098D01*
X569347Y254108D01*
X569223Y254106D01*
X569098Y254112D01*
X569049Y254103D01*
X568998Y254102D01*
X568878Y254072D01*
X568755Y254050D01*
X568709Y254030D01*
X568660Y254017D01*
X568550Y253960D01*
X568436Y253911D01*
X568395Y253881D01*
X568351Y253858D01*
X568256Y253777D01*
X568156Y253703D01*
X568124Y253664D01*
X568085Y253632D01*
X568011Y253532D01*
X567931Y253437D01*
X567908Y253392D01*
X567878Y253351D01*
X567829Y253237D01*
X567772Y253127D01*
X567760Y253078D01*
X567740Y253031D01*
X567718Y252909D01*
X567688Y252788D01*
X567687Y252738D01*
X567678Y252688D01*
X567685Y252564D01*
X567683Y252440D01*
X567694Y252391D01*
X567696Y252340D01*
X567731Y252221D01*
X567757Y252099D01*
X567779Y252054D01*
X567793Y252006D01*
X567854Y251897D01*
X567907Y251785D01*
X567938Y251745D01*
X567963Y251701D01*
X568121Y251515D01*
X571247Y248390D01*
X571247Y246633D01*
X564133Y246633D01*
X564133Y253747D01*
X565198Y253747D01*
X565298Y253758D01*
X565399Y253760D01*
X565471Y253778D01*
X565545Y253787D01*
X565639Y253820D01*
X565737Y253845D01*
X565803Y253879D01*
X565873Y253904D01*
X565957Y253959D01*
X566046Y254005D01*
X566103Y254053D01*
X566166Y254093D01*
X566235Y254165D01*
X566312Y254230D01*
X566356Y254290D01*
X566408Y254344D01*
X566459Y254430D01*
X566519Y254511D01*
X566548Y254579D01*
X566587Y254643D01*
X566617Y254738D01*
X566657Y254831D01*
X566670Y254904D01*
X566693Y254975D01*
X566701Y255075D01*
X566719Y255174D01*
X566715Y255248D01*
X566721Y255322D01*
X566706Y255421D01*
X566701Y255522D01*
X566680Y255593D01*
X566669Y255667D01*
X566632Y255760D01*
X566604Y255857D01*
X566568Y255922D01*
X566540Y255991D01*
X566483Y256073D01*
X566434Y256161D01*
X566369Y256237D01*
X566341Y256277D01*
X566315Y256301D01*
X566276Y256347D01*
X565755Y256868D01*
X565754Y256868D01*
X564672Y257951D01*
X564572Y258030D01*
X564479Y258114D01*
X564436Y258138D01*
X564399Y258168D01*
X564284Y258222D01*
X564174Y258283D01*
X564127Y258296D01*
X564083Y258317D01*
X563960Y258343D01*
X563838Y258378D01*
X563778Y258383D01*
X563743Y258390D01*
X563695Y258389D01*
X563594Y258397D01*
X560356Y258397D01*
X560230Y258383D01*
X560104Y258376D01*
X560057Y258363D01*
X560009Y258357D01*
X559890Y258315D01*
X559769Y258280D01*
X559727Y258256D01*
X559681Y258240D01*
X559575Y258171D01*
X559465Y258110D01*
X559418Y258070D01*
X559388Y258051D01*
X559355Y258016D01*
X559278Y257951D01*
X557674Y256347D01*
X557612Y256269D01*
X557542Y256196D01*
X557504Y256132D01*
X557458Y256074D01*
X557415Y255983D01*
X557363Y255897D01*
X557341Y255826D01*
X557309Y255759D01*
X557288Y255661D01*
X557257Y255565D01*
X557251Y255491D01*
X557236Y255418D01*
X557237Y255318D01*
X557229Y255218D01*
X557240Y255144D01*
X557242Y255070D01*
X557266Y254973D01*
X557281Y254873D01*
X557308Y254804D01*
X557327Y254732D01*
X557373Y254642D01*
X557410Y254549D01*
X557452Y254488D01*
X557486Y254422D01*
X557551Y254345D01*
X557609Y254263D01*
X557664Y254213D01*
X557712Y254157D01*
X557793Y254097D01*
X557867Y254030D01*
X557932Y253994D01*
X557992Y253949D01*
X558084Y253910D01*
X558172Y253861D01*
X558244Y253841D01*
X558312Y253811D01*
X558411Y253794D01*
X558508Y253766D01*
X558608Y253758D01*
X558655Y253750D01*
X558691Y253752D01*
X558752Y253747D01*
X560071Y253747D01*
X560071Y246633D01*
X552957Y246633D01*
X552957Y247952D01*
X552955Y247970D01*
X552956Y247985D01*
X552946Y248056D01*
X552944Y248153D01*
X552926Y248225D01*
X552917Y248299D01*
X552884Y248393D01*
X552859Y248491D01*
X552825Y248557D01*
X552800Y248627D01*
X552745Y248711D01*
X552699Y248800D01*
X552651Y248857D01*
X552611Y248920D01*
X552539Y248989D01*
X552474Y249066D01*
X552414Y249110D01*
X552360Y249162D01*
X552274Y249213D01*
X552193Y249273D01*
X552125Y249302D01*
X552061Y249341D01*
X551965Y249371D01*
X551873Y249411D01*
X551800Y249424D01*
X551729Y249447D01*
X551629Y249455D01*
X551530Y249473D01*
X551456Y249469D01*
X551382Y249475D01*
X551282Y249460D01*
X551182Y249455D01*
X551111Y249434D01*
X551037Y249423D01*
X550944Y249386D01*
X550847Y249358D01*
X550782Y249322D01*
X550713Y249294D01*
X550631Y249237D01*
X550543Y249188D01*
X550467Y249123D01*
X550451Y249112D01*
X550447Y249110D01*
X550447Y249109D01*
X550427Y249095D01*
X550403Y249069D01*
X550357Y249030D01*
X529195Y227868D01*
X529116Y227769D01*
X529032Y227675D01*
X529008Y227632D01*
X528978Y227595D01*
X528924Y227480D01*
X528863Y227370D01*
X528850Y227323D01*
X528829Y227279D01*
X528803Y227156D01*
X528779Y227073D01*
X527523Y224041D01*
X525259Y221777D01*
X522301Y220551D01*
X268398Y220551D01*
X268372Y220548D01*
X268346Y220550D01*
X268199Y220528D01*
X268052Y220511D01*
X268027Y220503D01*
X268001Y220499D01*
X267863Y220444D01*
X267724Y220394D01*
X267702Y220380D01*
X267677Y220370D01*
X267556Y220285D01*
X267431Y220205D01*
X267413Y220186D01*
X267391Y220171D01*
X267292Y220061D01*
X267189Y219954D01*
X267175Y219932D01*
X267158Y219912D01*
X267086Y219782D01*
X267010Y219655D01*
X267002Y219630D01*
X266989Y219607D01*
X266949Y219464D01*
X266904Y219323D01*
X266902Y219297D01*
X266894Y219272D01*
X266875Y219028D01*
X266875Y138508D01*
X266889Y138383D01*
X266896Y138256D01*
X266909Y138210D01*
X266915Y138162D01*
X266957Y138043D01*
X266992Y137922D01*
X267016Y137879D01*
X267032Y137834D01*
X267101Y137728D01*
X267162Y137617D01*
X267202Y137571D01*
X267221Y137541D01*
X267256Y137508D01*
X267321Y137431D01*
X270171Y134581D01*
X271444Y131508D01*
X271464Y131472D01*
X271477Y131434D01*
X271548Y131320D01*
X271613Y131203D01*
X271641Y131173D01*
X271662Y131139D01*
X271758Y131044D01*
X271848Y130945D01*
X271881Y130922D01*
X271910Y130893D01*
X272024Y130823D01*
X272134Y130747D01*
X272172Y130732D01*
X272207Y130711D01*
X272334Y130668D01*
X272459Y130619D01*
X272499Y130613D01*
X272537Y130600D01*
X272671Y130588D01*
X272803Y130568D01*
X272844Y130572D01*
X272884Y130568D01*
X273017Y130586D01*
X273151Y130597D01*
X273189Y130610D01*
X273230Y130615D01*
X273355Y130663D01*
X273482Y130704D01*
X273517Y130725D01*
X273555Y130740D01*
X273666Y130815D01*
X273781Y130884D01*
X273810Y130912D01*
X273844Y130935D01*
X273935Y131033D01*
X274031Y131127D01*
X274053Y131161D01*
X274081Y131191D01*
X274209Y131399D01*
X274884Y132725D01*
X275895Y134116D01*
X277110Y135331D01*
X278501Y136342D01*
X280033Y137122D01*
X281433Y137577D01*
X281433Y119888D01*
X281436Y119862D01*
X281434Y119836D01*
X281456Y119689D01*
X281473Y119542D01*
X281481Y119517D01*
X281485Y119491D01*
X281540Y119354D01*
X281590Y119214D01*
X281604Y119192D01*
X281614Y119167D01*
X281699Y119046D01*
X281779Y118921D01*
X281798Y118903D01*
X281813Y118881D01*
X281923Y118782D01*
X282030Y118679D01*
X282052Y118665D01*
X282072Y118648D01*
X282129Y118616D01*
X282114Y118605D01*
X281989Y118525D01*
X281971Y118506D01*
X281949Y118491D01*
X281850Y118381D01*
X281747Y118274D01*
X281733Y118251D01*
X281716Y118232D01*
X281644Y118102D01*
X281568Y117975D01*
X281560Y117950D01*
X281547Y117927D01*
X281507Y117784D01*
X281462Y117643D01*
X281459Y117617D01*
X281452Y117592D01*
X281433Y117348D01*
X281433Y99659D01*
X280033Y100114D01*
X278501Y100894D01*
X277110Y101905D01*
X275895Y103120D01*
X274884Y104511D01*
X274209Y105837D01*
X274186Y105871D01*
X274170Y105908D01*
X274090Y106016D01*
X274016Y106127D01*
X273986Y106155D01*
X273962Y106188D01*
X273860Y106274D01*
X273762Y106366D01*
X273727Y106387D01*
X273696Y106413D01*
X273577Y106474D01*
X273461Y106541D01*
X273422Y106553D01*
X273386Y106572D01*
X273256Y106604D01*
X273128Y106643D01*
X273087Y106646D01*
X273048Y106656D01*
X272914Y106658D01*
X272780Y106667D01*
X272740Y106660D01*
X272699Y106661D01*
X272568Y106632D01*
X272436Y106611D01*
X272398Y106595D01*
X272359Y106587D01*
X272238Y106529D01*
X272114Y106478D01*
X272081Y106454D01*
X272044Y106437D01*
X271939Y106353D01*
X271830Y106275D01*
X271803Y106245D01*
X271771Y106219D01*
X271688Y106114D01*
X271600Y106014D01*
X271581Y105978D01*
X271556Y105946D01*
X271444Y105728D01*
X270171Y102655D01*
X266407Y98891D01*
X261488Y96853D01*
X256164Y96853D01*
X251245Y98891D01*
X247481Y102655D01*
X245443Y107574D01*
X245443Y129662D01*
X247481Y134581D01*
X250331Y137431D01*
X250410Y137530D01*
X250494Y137624D01*
X250518Y137666D01*
X250548Y137704D01*
X250602Y137818D01*
X250663Y137929D01*
X250676Y137976D01*
X250697Y138019D01*
X250723Y138143D01*
X250758Y138264D01*
X250763Y138325D01*
X250770Y138360D01*
X250769Y138408D01*
X250777Y138508D01*
X250777Y230201D01*
X252003Y233159D01*
X254267Y235423D01*
X257225Y236649D01*
X441278Y236649D01*
X441304Y236652D01*
X441330Y236650D01*
X441477Y236672D01*
X441624Y236689D01*
X441649Y236697D01*
X441675Y236701D01*
X441813Y236756D01*
X441952Y236806D01*
X441974Y236820D01*
X441999Y236830D01*
X442120Y236915D01*
X442245Y236995D01*
X442263Y237014D01*
X442285Y237029D01*
X442384Y237139D01*
X442487Y237246D01*
X442501Y237268D01*
X442518Y237288D01*
X442590Y237418D01*
X442666Y237545D01*
X442674Y237570D01*
X442687Y237593D01*
X442727Y237736D01*
X442772Y237877D01*
X442774Y237903D01*
X442782Y237928D01*
X442801Y238172D01*
X442801Y832181D01*
X444027Y835139D01*
X498361Y889473D01*
X501319Y890699D01*
X513031Y890699D01*
X513081Y890704D01*
X513131Y890702D01*
X513254Y890724D01*
X513377Y890739D01*
X513424Y890756D01*
X513474Y890765D01*
X513588Y890814D01*
X513705Y890856D01*
X513747Y890883D01*
X513794Y890903D01*
X513894Y890978D01*
X513998Y891045D01*
X514033Y891081D01*
X514073Y891111D01*
X514154Y891206D01*
X514240Y891296D01*
X514266Y891339D01*
X514298Y891377D01*
X514355Y891488D01*
X514419Y891595D01*
X514434Y891643D01*
X514457Y891688D01*
X514487Y891808D01*
X514525Y891927D01*
X514529Y891977D01*
X514541Y892026D01*
X514543Y892150D01*
X514553Y892274D01*
X514546Y892324D01*
X514546Y892374D01*
X514520Y892496D01*
X514501Y892619D01*
X514483Y892666D01*
X514472Y892715D01*
X514419Y892827D01*
X514373Y892943D01*
X514344Y892984D01*
X514322Y893030D01*
X514245Y893127D01*
X514174Y893229D01*
X514136Y893263D01*
X514105Y893302D01*
X514007Y893379D01*
X513915Y893462D01*
X513871Y893487D01*
X513831Y893518D01*
X513614Y893629D01*
X509045Y895522D01*
X503770Y900796D01*
X500915Y907688D01*
X500915Y915148D01*
X503770Y922040D01*
X509044Y927314D01*
X515936Y930169D01*
X523396Y930169D01*
X530288Y927314D01*
X535562Y922040D01*
X538417Y915148D01*
X538417Y907688D01*
X535562Y900796D01*
X530287Y895522D01*
X525718Y893629D01*
X525674Y893605D01*
X525627Y893588D01*
X525522Y893520D01*
X525414Y893460D01*
X525376Y893426D01*
X525334Y893399D01*
X525248Y893309D01*
X525155Y893226D01*
X525127Y893184D01*
X525092Y893148D01*
X525028Y893041D01*
X524957Y892939D01*
X524939Y892892D01*
X524913Y892849D01*
X524875Y892731D01*
X524829Y892615D01*
X524822Y892565D01*
X524807Y892517D01*
X524797Y892393D01*
X524779Y892270D01*
X524783Y892220D01*
X524779Y892170D01*
X524797Y892047D01*
X524808Y891923D01*
X524823Y891875D01*
X524831Y891825D01*
X524876Y891710D01*
X524915Y891591D01*
X524941Y891548D01*
X524959Y891501D01*
X525030Y891399D01*
X525094Y891293D01*
X525130Y891256D01*
X525158Y891215D01*
X525250Y891132D01*
X525337Y891043D01*
X525380Y891015D01*
X525417Y890982D01*
X525526Y890922D01*
X525630Y890854D01*
X525678Y890837D01*
X525722Y890813D01*
X525842Y890779D01*
X525959Y890738D01*
X526009Y890732D01*
X526057Y890718D01*
X526301Y890699D01*
X618335Y890699D01*
X618461Y890713D01*
X618587Y890720D01*
X618633Y890733D01*
X618681Y890739D01*
X618800Y890781D01*
X618922Y890816D01*
X618964Y890840D01*
X619009Y890856D01*
X619116Y890925D01*
X619226Y890986D01*
X619272Y891026D01*
X619302Y891045D01*
X619336Y891080D01*
X619412Y891145D01*
X643199Y914931D01*
X643200Y914933D01*
X643201Y914934D01*
X643309Y915071D01*
X643415Y915204D01*
X643416Y915206D01*
X643417Y915208D01*
X643529Y915425D01*
X644005Y916574D01*
X651876Y924445D01*
X654834Y925671D01*
X996166Y925671D01*
X999124Y924445D01*
X1001602Y921967D01*
X1001603Y921967D01*
X1076812Y846757D01*
X1076872Y846710D01*
X1076925Y846655D01*
X1077008Y846602D01*
X1077085Y846541D01*
X1077154Y846508D01*
X1077219Y846467D01*
X1077312Y846434D01*
X1077400Y846392D01*
X1077475Y846376D01*
X1077547Y846350D01*
X1077645Y846339D01*
X1077741Y846318D01*
X1077817Y846320D01*
X1077894Y846311D01*
X1077991Y846323D01*
X1078090Y846324D01*
X1078164Y846343D01*
X1078240Y846352D01*
X1078382Y846398D01*
X1078428Y846409D01*
X1078445Y846418D01*
X1078472Y846427D01*
X1082335Y848027D01*
X1091397Y848027D01*
X1099770Y844559D01*
X1106179Y838150D01*
X1109647Y829777D01*
X1109647Y820715D01*
X1106179Y812342D01*
X1099770Y805933D01*
X1091397Y802465D01*
X1082335Y802465D01*
X1073962Y805933D01*
X1067553Y812342D01*
X1064085Y820715D01*
X1064085Y829777D01*
X1065707Y833693D01*
X1065728Y833766D01*
X1065758Y833836D01*
X1065776Y833933D01*
X1065803Y834028D01*
X1065806Y834104D01*
X1065820Y834179D01*
X1065815Y834278D01*
X1065820Y834376D01*
X1065806Y834451D01*
X1065802Y834527D01*
X1065775Y834622D01*
X1065757Y834719D01*
X1065727Y834789D01*
X1065705Y834862D01*
X1065657Y834948D01*
X1065618Y835038D01*
X1065573Y835100D01*
X1065535Y835166D01*
X1065439Y835280D01*
X1065410Y835318D01*
X1065396Y835330D01*
X1065377Y835353D01*
X1063150Y837579D01*
X1063092Y837683D01*
X1063091Y837685D01*
X1063090Y837687D01*
X1062931Y837873D01*
X991677Y909127D01*
X991578Y909206D01*
X991484Y909290D01*
X991442Y909314D01*
X991404Y909344D01*
X991290Y909398D01*
X991179Y909459D01*
X991133Y909472D01*
X991089Y909493D01*
X990966Y909519D01*
X990844Y909554D01*
X990783Y909559D01*
X990748Y909566D01*
X990700Y909565D01*
X990600Y909573D01*
X660400Y909573D01*
X660275Y909559D01*
X660148Y909552D01*
X660102Y909539D01*
X660054Y909533D01*
X659935Y909491D01*
X659813Y909456D01*
X659771Y909432D01*
X659726Y909416D01*
X659620Y909347D01*
X659509Y909286D01*
X659463Y909246D01*
X659433Y909227D01*
X659399Y909192D01*
X659323Y909127D01*
X658457Y908262D01*
X658456Y908260D01*
X658455Y908259D01*
X658351Y908128D01*
X658241Y907989D01*
X658240Y907987D01*
X658239Y907985D01*
X658127Y907767D01*
X657651Y906619D01*
X630795Y879762D01*
X630716Y879663D01*
X630632Y879569D01*
X630608Y879527D01*
X630578Y879489D01*
X630524Y879375D01*
X630463Y879264D01*
X630450Y879218D01*
X630429Y879174D01*
X630403Y879051D01*
X630368Y878929D01*
X630363Y878868D01*
X630356Y878833D01*
X630357Y878785D01*
X630349Y878685D01*
X630349Y854185D01*
X630352Y854159D01*
X630350Y854134D01*
X630361Y854061D01*
X630362Y853985D01*
X630380Y853913D01*
X630389Y853839D01*
X630398Y853813D01*
X630401Y853789D01*
X630428Y853722D01*
X630447Y853647D01*
X630481Y853581D01*
X630506Y853511D01*
X630522Y853486D01*
X630530Y853465D01*
X630570Y853408D01*
X630607Y853337D01*
X630655Y853280D01*
X630695Y853218D01*
X630717Y853197D01*
X630729Y853179D01*
X630779Y853134D01*
X630832Y853072D01*
X630892Y853027D01*
X630946Y852976D01*
X630973Y852960D01*
X630988Y852946D01*
X631046Y852914D01*
X631113Y852864D01*
X631181Y852835D01*
X631245Y852797D01*
X631275Y852787D01*
X631293Y852777D01*
X631356Y852760D01*
X631433Y852726D01*
X631506Y852713D01*
X631577Y852691D01*
X631609Y852688D01*
X631628Y852683D01*
X631715Y852676D01*
X631776Y852665D01*
X631821Y852667D01*
X631872Y852663D01*
X631873Y852663D01*
X631892Y852665D01*
X631924Y852663D01*
X632024Y852677D01*
X632124Y852683D01*
X632177Y852698D01*
X632219Y852703D01*
X632239Y852710D01*
X632269Y852714D01*
X632362Y852751D01*
X632459Y852779D01*
X632505Y852805D01*
X632548Y852820D01*
X632567Y852833D01*
X632593Y852843D01*
X632675Y852900D01*
X632763Y852949D01*
X632811Y852991D01*
X632840Y853009D01*
X632858Y853027D01*
X632879Y853042D01*
X632903Y853068D01*
X632949Y853108D01*
X639071Y859230D01*
X646977Y862505D01*
X655535Y862505D01*
X663441Y859230D01*
X669492Y853179D01*
X672767Y845273D01*
X672767Y836715D01*
X669492Y828809D01*
X663441Y822758D01*
X655535Y819483D01*
X646977Y819483D01*
X645155Y820238D01*
X645010Y820279D01*
X644867Y820325D01*
X644843Y820327D01*
X644820Y820334D01*
X644669Y820341D01*
X644520Y820353D01*
X644496Y820350D01*
X644472Y820351D01*
X644324Y820324D01*
X644175Y820301D01*
X644153Y820293D01*
X644129Y820288D01*
X643991Y820228D01*
X643851Y820173D01*
X643831Y820159D01*
X643809Y820149D01*
X643688Y820060D01*
X643565Y819974D01*
X643549Y819956D01*
X643529Y819941D01*
X643432Y819827D01*
X643332Y819715D01*
X643320Y819694D01*
X643304Y819675D01*
X643236Y819542D01*
X643163Y819410D01*
X643157Y819387D01*
X643146Y819365D01*
X643109Y819220D01*
X643068Y819075D01*
X643066Y819045D01*
X643061Y819027D01*
X643061Y818980D01*
X643049Y818831D01*
X643049Y711120D01*
X643052Y711094D01*
X643050Y711068D01*
X643072Y710921D01*
X643089Y710774D01*
X643097Y710749D01*
X643101Y710723D01*
X643156Y710585D01*
X643206Y710446D01*
X643220Y710424D01*
X643230Y710399D01*
X643315Y710278D01*
X643395Y710153D01*
X643414Y710135D01*
X643429Y710113D01*
X643539Y710014D01*
X643646Y709911D01*
X643668Y709897D01*
X643688Y709880D01*
X643818Y709808D01*
X643945Y709732D01*
X643970Y709724D01*
X643993Y709711D01*
X644136Y709671D01*
X644277Y709626D01*
X644303Y709624D01*
X644328Y709616D01*
X644572Y709597D01*
X649615Y709597D01*
X654254Y707675D01*
X657804Y704125D01*
X659725Y699486D01*
X659725Y694466D01*
X657804Y689827D01*
X654254Y686277D01*
X649491Y684304D01*
X649351Y684226D01*
X649210Y684151D01*
X649199Y684142D01*
X649186Y684135D01*
X649068Y684027D01*
X648947Y683922D01*
X648939Y683910D01*
X648928Y683900D01*
X648837Y683769D01*
X648744Y683639D01*
X648738Y683626D01*
X648730Y683614D01*
X648671Y683465D01*
X648610Y683317D01*
X648607Y683303D01*
X648602Y683289D01*
X648579Y683131D01*
X648552Y682974D01*
X648553Y682959D01*
X648551Y682945D01*
X648564Y682785D01*
X648575Y682626D01*
X648579Y682612D01*
X648580Y682597D01*
X648629Y682445D01*
X648675Y682292D01*
X648683Y682280D01*
X648687Y682266D01*
X648770Y682129D01*
X648849Y681990D01*
X648859Y681980D01*
X648867Y681967D01*
X648978Y681853D01*
X649087Y681736D01*
X649100Y681728D01*
X649110Y681717D01*
X649244Y681631D01*
X649377Y681542D01*
X649393Y681535D01*
X649403Y681529D01*
X649439Y681516D01*
X649603Y681448D01*
X651005Y680992D01*
X652430Y680266D01*
X653724Y679326D01*
X654855Y678195D01*
X655795Y676901D01*
X656521Y675476D01*
X656963Y674115D01*
X640501Y674115D01*
X640475Y674112D01*
X640449Y674114D01*
X640302Y674092D01*
X640155Y674075D01*
X640130Y674067D01*
X640104Y674063D01*
X639966Y674008D01*
X639826Y673958D01*
X639804Y673944D01*
X639780Y673934D01*
X639658Y673849D01*
X639534Y673769D01*
X639515Y673750D01*
X639494Y673735D01*
X639480Y673719D01*
X639395Y673801D01*
X639372Y673815D01*
X639353Y673832D01*
X639223Y673904D01*
X639095Y673980D01*
X639071Y673988D01*
X639048Y674001D01*
X638905Y674041D01*
X638764Y674086D01*
X638737Y674088D01*
X638712Y674096D01*
X638468Y674115D01*
X622006Y674115D01*
X622448Y675476D01*
X623174Y676901D01*
X624114Y678195D01*
X625245Y679326D01*
X626539Y680266D01*
X627964Y680992D01*
X629366Y681448D01*
X629511Y681514D01*
X629658Y681578D01*
X629670Y681587D01*
X629683Y681593D01*
X629809Y681690D01*
X629938Y681786D01*
X629947Y681797D01*
X629959Y681806D01*
X630060Y681930D01*
X630163Y682052D01*
X630170Y682065D01*
X630179Y682076D01*
X630249Y682219D01*
X630322Y682362D01*
X630325Y682376D01*
X630332Y682389D01*
X630367Y682545D01*
X630406Y682700D01*
X630406Y682715D01*
X630409Y682729D01*
X630409Y682889D01*
X630411Y683049D01*
X630408Y683063D01*
X630408Y683078D01*
X630371Y683233D01*
X630337Y683389D01*
X630330Y683402D01*
X630327Y683417D01*
X630255Y683560D01*
X630187Y683704D01*
X630178Y683715D01*
X630171Y683728D01*
X630069Y683852D01*
X629970Y683977D01*
X629958Y683985D01*
X629949Y683997D01*
X629821Y684094D01*
X629696Y684192D01*
X629681Y684200D01*
X629671Y684207D01*
X629636Y684223D01*
X629478Y684304D01*
X624715Y686277D01*
X621165Y689827D01*
X619244Y694466D01*
X619244Y699486D01*
X621165Y704125D01*
X624715Y707675D01*
X626011Y708212D01*
X626078Y708249D01*
X626149Y708277D01*
X626230Y708333D01*
X626316Y708381D01*
X626372Y708433D01*
X626435Y708476D01*
X626501Y708549D01*
X626574Y708615D01*
X626617Y708678D01*
X626668Y708735D01*
X626716Y708821D01*
X626772Y708902D01*
X626800Y708973D01*
X626837Y709040D01*
X626864Y709135D01*
X626900Y709226D01*
X626911Y709302D01*
X626932Y709375D01*
X626944Y709524D01*
X626951Y709571D01*
X626949Y709590D01*
X626951Y709619D01*
X626951Y815185D01*
X626937Y815311D01*
X626930Y815437D01*
X626917Y815483D01*
X626911Y815531D01*
X626869Y815650D01*
X626834Y815772D01*
X626810Y815814D01*
X626794Y815859D01*
X626725Y815966D01*
X626664Y816076D01*
X626624Y816122D01*
X626605Y816152D01*
X626570Y816186D01*
X626505Y816262D01*
X615477Y827291D01*
X614251Y830249D01*
X614251Y873078D01*
X614248Y873104D01*
X614250Y873130D01*
X614228Y873277D01*
X614211Y873424D01*
X614203Y873449D01*
X614199Y873475D01*
X614144Y873613D01*
X614094Y873752D01*
X614080Y873774D01*
X614070Y873799D01*
X613985Y873920D01*
X613905Y874045D01*
X613886Y874063D01*
X613871Y874085D01*
X613761Y874184D01*
X613654Y874287D01*
X613632Y874301D01*
X613612Y874318D01*
X613482Y874390D01*
X613355Y874466D01*
X613330Y874474D01*
X613307Y874487D01*
X613164Y874527D01*
X613023Y874572D01*
X612997Y874574D01*
X612972Y874582D01*
X612728Y874601D01*
X543805Y874601D01*
X543705Y874590D01*
X543604Y874588D01*
X543532Y874570D01*
X543458Y874561D01*
X543364Y874528D01*
X543266Y874503D01*
X543200Y874469D01*
X543130Y874444D01*
X543046Y874389D01*
X542957Y874343D01*
X542900Y874295D01*
X542838Y874255D01*
X542768Y874183D01*
X542691Y874118D01*
X542647Y874058D01*
X542595Y874004D01*
X542544Y873918D01*
X542484Y873837D01*
X542455Y873769D01*
X542416Y873705D01*
X542386Y873609D01*
X542346Y873517D01*
X542333Y873444D01*
X542310Y873373D01*
X542302Y873273D01*
X542284Y873174D01*
X542288Y873100D01*
X542282Y873026D01*
X542297Y872926D01*
X542302Y872826D01*
X542323Y872755D01*
X542334Y872681D01*
X542371Y872588D01*
X542399Y872491D01*
X542435Y872426D01*
X542463Y872357D01*
X542520Y872275D01*
X542569Y872187D01*
X542634Y872111D01*
X542662Y872071D01*
X542688Y872047D01*
X542728Y872001D01*
X544142Y870586D01*
X544309Y870183D01*
X544346Y870116D01*
X544374Y870045D01*
X544431Y869965D01*
X544478Y869878D01*
X544530Y869822D01*
X544573Y869759D01*
X544646Y869693D01*
X544713Y869620D01*
X544775Y869577D01*
X544832Y869526D01*
X544918Y869478D01*
X544999Y869422D01*
X545070Y869394D01*
X545137Y869357D01*
X545232Y869330D01*
X545323Y869294D01*
X545399Y869283D01*
X545473Y869262D01*
X545621Y869250D01*
X545668Y869243D01*
X545687Y869245D01*
X545716Y869243D01*
X548280Y869243D01*
X550678Y868249D01*
X581230Y837697D01*
X581329Y837618D01*
X581423Y837534D01*
X581466Y837510D01*
X581503Y837480D01*
X581618Y837426D01*
X581728Y837365D01*
X581775Y837352D01*
X581819Y837331D01*
X581942Y837305D01*
X582064Y837270D01*
X582125Y837265D01*
X582159Y837258D01*
X582207Y837259D01*
X582308Y837251D01*
X591945Y837251D01*
X593783Y836489D01*
X595189Y835083D01*
X595951Y833245D01*
X595951Y817755D01*
X595189Y815917D01*
X593783Y814511D01*
X591945Y813749D01*
X576455Y813749D01*
X574617Y814511D01*
X573211Y815917D01*
X572449Y817755D01*
X572449Y827392D01*
X572435Y827518D01*
X572428Y827644D01*
X572415Y827691D01*
X572409Y827739D01*
X572367Y827858D01*
X572332Y827979D01*
X572308Y828021D01*
X572292Y828067D01*
X572223Y828173D01*
X572162Y828283D01*
X572122Y828330D01*
X572103Y828360D01*
X572068Y828393D01*
X572003Y828470D01*
X545960Y854513D01*
X545939Y854529D01*
X545922Y854549D01*
X545803Y854638D01*
X545687Y854730D01*
X545663Y854741D01*
X545642Y854756D01*
X545506Y854815D01*
X545372Y854879D01*
X545346Y854884D01*
X545322Y854894D01*
X545176Y854921D01*
X545031Y854952D01*
X545005Y854951D01*
X544979Y854956D01*
X544830Y854948D01*
X544682Y854946D01*
X544657Y854940D01*
X544631Y854938D01*
X544488Y854897D01*
X544344Y854861D01*
X544321Y854849D01*
X544296Y854842D01*
X544166Y854769D01*
X544035Y854701D01*
X544015Y854684D01*
X543992Y854671D01*
X543805Y854513D01*
X540388Y851095D01*
X540371Y851075D01*
X540351Y851058D01*
X540263Y850938D01*
X540171Y850822D01*
X540160Y850798D01*
X540144Y850777D01*
X540085Y850641D01*
X540022Y850507D01*
X540017Y850481D01*
X540006Y850457D01*
X539980Y850311D01*
X539949Y850166D01*
X539949Y850140D01*
X539944Y850114D01*
X539952Y849966D01*
X539955Y849818D01*
X539961Y849792D01*
X539962Y849766D01*
X540003Y849624D01*
X540040Y849480D01*
X540052Y849457D01*
X540059Y849431D01*
X540131Y849302D01*
X540199Y849170D01*
X540216Y849150D01*
X540229Y849127D01*
X540388Y848941D01*
X544142Y845187D01*
X546257Y840081D01*
X546257Y834555D01*
X546090Y834152D01*
X546069Y834078D01*
X546038Y834008D01*
X546021Y833911D01*
X545994Y833816D01*
X545990Y833740D01*
X545977Y833665D01*
X545982Y833566D01*
X545977Y833468D01*
X545991Y833393D01*
X545995Y833317D01*
X546022Y833222D01*
X546040Y833126D01*
X546070Y833055D01*
X546091Y832982D01*
X546139Y832896D01*
X546178Y832806D01*
X546224Y832744D01*
X546261Y832678D01*
X546358Y832564D01*
X546386Y832526D01*
X546401Y832514D01*
X546420Y832492D01*
X587682Y791230D01*
X589731Y789180D01*
X590472Y787391D01*
X590510Y787324D01*
X590538Y787253D01*
X590594Y787172D01*
X590642Y787086D01*
X590693Y787030D01*
X590737Y786967D01*
X590810Y786901D01*
X590876Y786828D01*
X590939Y786785D01*
X590995Y786734D01*
X591082Y786686D01*
X591163Y786630D01*
X591234Y786602D01*
X591301Y786565D01*
X591395Y786538D01*
X591487Y786502D01*
X591562Y786491D01*
X591636Y786470D01*
X591785Y786458D01*
X591832Y786451D01*
X591851Y786453D01*
X591880Y786451D01*
X591945Y786451D01*
X593783Y785689D01*
X595189Y784283D01*
X595951Y782445D01*
X595951Y766955D01*
X595189Y765117D01*
X593783Y763711D01*
X591945Y762949D01*
X576455Y762949D01*
X574617Y763711D01*
X573211Y765117D01*
X572449Y766955D01*
X572449Y782445D01*
X573211Y784283D01*
X573615Y784687D01*
X573631Y784708D01*
X573651Y784725D01*
X573740Y784844D01*
X573832Y784960D01*
X573843Y784984D01*
X573859Y785005D01*
X573917Y785141D01*
X573981Y785275D01*
X573986Y785301D01*
X573997Y785325D01*
X574023Y785471D01*
X574054Y785616D01*
X574054Y785642D01*
X574058Y785668D01*
X574051Y785817D01*
X574048Y785964D01*
X574042Y785990D01*
X574040Y786016D01*
X573999Y786159D01*
X573963Y786302D01*
X573951Y786326D01*
X573944Y786351D01*
X573872Y786480D01*
X573804Y786612D01*
X573786Y786632D01*
X573774Y786655D01*
X573615Y786841D01*
X548857Y811600D01*
X548779Y811662D01*
X548706Y811732D01*
X548642Y811770D01*
X548584Y811816D01*
X548493Y811859D01*
X548407Y811911D01*
X548336Y811933D01*
X548269Y811965D01*
X548171Y811986D01*
X548075Y812017D01*
X548001Y812023D01*
X547928Y812038D01*
X547828Y812037D01*
X547728Y812045D01*
X547654Y812034D01*
X547580Y812032D01*
X547483Y812008D01*
X547383Y811993D01*
X547314Y811966D01*
X547242Y811947D01*
X547152Y811901D01*
X547059Y811864D01*
X546998Y811822D01*
X546932Y811788D01*
X546855Y811723D01*
X546773Y811665D01*
X546723Y811610D01*
X546667Y811562D01*
X546607Y811481D01*
X546540Y811407D01*
X546504Y811342D01*
X546459Y811282D01*
X546420Y811190D01*
X546371Y811102D01*
X546351Y811030D01*
X546321Y810962D01*
X546304Y810863D01*
X546276Y810766D01*
X546268Y810666D01*
X546260Y810619D01*
X546262Y810583D01*
X546257Y810522D01*
X546257Y809155D01*
X544142Y804049D01*
X540388Y800295D01*
X540371Y800275D01*
X540351Y800258D01*
X540263Y800138D01*
X540171Y800022D01*
X540160Y799998D01*
X540144Y799977D01*
X540085Y799841D01*
X540022Y799707D01*
X540017Y799681D01*
X540006Y799657D01*
X539980Y799511D01*
X539949Y799366D01*
X539949Y799340D01*
X539944Y799314D01*
X539952Y799166D01*
X539955Y799018D01*
X539961Y798992D01*
X539962Y798966D01*
X540003Y798824D01*
X540040Y798680D01*
X540052Y798657D01*
X540059Y798631D01*
X540131Y798502D01*
X540199Y798370D01*
X540216Y798350D01*
X540229Y798327D01*
X540388Y798141D01*
X544142Y794387D01*
X546257Y789281D01*
X546257Y783755D01*
X544142Y778649D01*
X540388Y774895D01*
X540371Y774875D01*
X540351Y774858D01*
X540263Y774738D01*
X540171Y774622D01*
X540160Y774598D01*
X540144Y774577D01*
X540085Y774441D01*
X540022Y774307D01*
X540017Y774281D01*
X540006Y774257D01*
X539980Y774111D01*
X539949Y773966D01*
X539949Y773940D01*
X539944Y773914D01*
X539952Y773766D01*
X539955Y773618D01*
X539961Y773592D01*
X539962Y773566D01*
X540003Y773424D01*
X540040Y773280D01*
X540052Y773257D01*
X540059Y773231D01*
X540131Y773102D01*
X540199Y772970D01*
X540216Y772950D01*
X540229Y772927D01*
X540388Y772741D01*
X544142Y768986D01*
X544309Y768583D01*
X544346Y768516D01*
X544374Y768445D01*
X544431Y768365D01*
X544478Y768278D01*
X544530Y768222D01*
X544573Y768159D01*
X544646Y768093D01*
X544713Y768020D01*
X544775Y767977D01*
X544832Y767926D01*
X544918Y767878D01*
X544999Y767822D01*
X545070Y767794D01*
X545137Y767757D01*
X545232Y767730D01*
X545323Y767694D01*
X545399Y767683D01*
X545473Y767662D01*
X545621Y767650D01*
X545668Y767643D01*
X545687Y767645D01*
X545716Y767643D01*
X560980Y767643D01*
X563378Y766649D01*
X581231Y748797D01*
X581330Y748718D01*
X581423Y748634D01*
X581466Y748610D01*
X581504Y748580D01*
X581618Y748526D01*
X581728Y748465D01*
X581775Y748452D01*
X581819Y748431D01*
X581942Y748405D01*
X582064Y748370D01*
X582125Y748365D01*
X582159Y748358D01*
X582207Y748359D01*
X582308Y748351D01*
X591945Y748351D01*
X593783Y747589D01*
X595189Y746183D01*
X595951Y744345D01*
X595951Y728855D01*
X595189Y727017D01*
X593783Y725611D01*
X591945Y724849D01*
X576455Y724849D01*
X574617Y725611D01*
X573211Y727017D01*
X572449Y728855D01*
X572449Y738492D01*
X572435Y738618D01*
X572428Y738744D01*
X572415Y738791D01*
X572409Y738839D01*
X572367Y738958D01*
X572332Y739079D01*
X572308Y739121D01*
X572292Y739167D01*
X572223Y739273D01*
X572162Y739383D01*
X572122Y739430D01*
X572103Y739460D01*
X572068Y739493D01*
X572003Y739569D01*
X557425Y754147D01*
X557326Y754226D01*
X557233Y754310D01*
X557190Y754334D01*
X557152Y754364D01*
X557038Y754418D01*
X556928Y754479D01*
X556881Y754492D01*
X556837Y754513D01*
X556714Y754539D01*
X556592Y754574D01*
X556531Y754579D01*
X556497Y754586D01*
X556449Y754585D01*
X556348Y754593D01*
X545716Y754593D01*
X545641Y754585D01*
X545564Y754586D01*
X545468Y754565D01*
X545370Y754553D01*
X545298Y754528D01*
X545224Y754511D01*
X545135Y754469D01*
X545042Y754436D01*
X544978Y754394D01*
X544909Y754362D01*
X544832Y754300D01*
X544749Y754247D01*
X544696Y754192D01*
X544636Y754144D01*
X544575Y754067D01*
X544507Y753996D01*
X544468Y753931D01*
X544421Y753871D01*
X544352Y753738D01*
X544328Y753697D01*
X544322Y753679D01*
X544309Y753653D01*
X544142Y753249D01*
X540388Y749495D01*
X540371Y749475D01*
X540351Y749458D01*
X540263Y749338D01*
X540171Y749222D01*
X540160Y749198D01*
X540144Y749177D01*
X540085Y749041D01*
X540022Y748907D01*
X540017Y748881D01*
X540006Y748857D01*
X539980Y748711D01*
X539949Y748566D01*
X539949Y748540D01*
X539944Y748514D01*
X539952Y748366D01*
X539955Y748218D01*
X539961Y748192D01*
X539962Y748166D01*
X540003Y748024D01*
X540040Y747880D01*
X540052Y747857D01*
X540059Y747831D01*
X540131Y747702D01*
X540199Y747570D01*
X540216Y747550D01*
X540229Y747527D01*
X540388Y747341D01*
X544142Y743587D01*
X546257Y738481D01*
X546257Y732955D01*
X544142Y727849D01*
X540388Y724095D01*
X540371Y724075D01*
X540351Y724058D01*
X540263Y723938D01*
X540171Y723822D01*
X540160Y723798D01*
X540144Y723777D01*
X540085Y723641D01*
X540022Y723507D01*
X540017Y723481D01*
X540006Y723457D01*
X539980Y723311D01*
X539949Y723166D01*
X539949Y723140D01*
X539944Y723114D01*
X539952Y722966D01*
X539955Y722818D01*
X539961Y722792D01*
X539962Y722766D01*
X540003Y722624D01*
X540040Y722480D01*
X540052Y722457D01*
X540059Y722431D01*
X540131Y722302D01*
X540199Y722170D01*
X540216Y722150D01*
X540229Y722127D01*
X540388Y721941D01*
X544142Y718187D01*
X546257Y713081D01*
X546257Y707555D01*
X544142Y702449D01*
X540388Y698695D01*
X540371Y698675D01*
X540351Y698658D01*
X540263Y698538D01*
X540171Y698422D01*
X540160Y698398D01*
X540144Y698377D01*
X540085Y698241D01*
X540022Y698107D01*
X540017Y698081D01*
X540006Y698057D01*
X539980Y697911D01*
X539949Y697766D01*
X539949Y697740D01*
X539944Y697714D01*
X539952Y697566D01*
X539955Y697418D01*
X539961Y697392D01*
X539962Y697366D01*
X540003Y697224D01*
X540040Y697080D01*
X540052Y697057D01*
X540059Y697031D01*
X540131Y696902D01*
X540199Y696770D01*
X540216Y696750D01*
X540229Y696727D01*
X540388Y696541D01*
X544142Y692787D01*
X546257Y687681D01*
X546257Y682155D01*
X544142Y677049D01*
X540388Y673295D01*
X540371Y673275D01*
X540351Y673258D01*
X540263Y673138D01*
X540171Y673022D01*
X540160Y672998D01*
X540144Y672977D01*
X540085Y672841D01*
X540022Y672707D01*
X540017Y672681D01*
X540006Y672657D01*
X539980Y672511D01*
X539949Y672366D01*
X539949Y672340D01*
X539944Y672314D01*
X539952Y672166D01*
X539955Y672018D01*
X539961Y671992D01*
X539962Y671966D01*
X540003Y671824D01*
X540040Y671680D01*
X540052Y671657D01*
X540059Y671631D01*
X540131Y671502D01*
X540199Y671370D01*
X540216Y671350D01*
X540229Y671327D01*
X540388Y671141D01*
X544142Y667387D01*
X546257Y662281D01*
X546257Y656755D01*
X544142Y651649D01*
X540388Y647895D01*
X540371Y647875D01*
X540351Y647858D01*
X540263Y647738D01*
X540171Y647622D01*
X540160Y647598D01*
X540144Y647577D01*
X540085Y647441D01*
X540022Y647307D01*
X540017Y647281D01*
X540006Y647257D01*
X539980Y647111D01*
X539949Y646966D01*
X539949Y646940D01*
X539944Y646914D01*
X539952Y646766D01*
X539955Y646618D01*
X539961Y646592D01*
X539962Y646566D01*
X540003Y646424D01*
X540040Y646280D01*
X540052Y646257D01*
X540059Y646231D01*
X540131Y646102D01*
X540199Y645970D01*
X540216Y645950D01*
X540229Y645927D01*
X540388Y645741D01*
X544142Y641987D01*
X546257Y636881D01*
X546257Y631355D01*
X546090Y630952D01*
X546069Y630878D01*
X546038Y630808D01*
X546021Y630711D01*
X545994Y630616D01*
X545990Y630540D01*
X545977Y630465D01*
X545982Y630366D01*
X545977Y630268D01*
X545991Y630193D01*
X545995Y630117D01*
X546022Y630022D01*
X546040Y629926D01*
X546070Y629855D01*
X546091Y629782D01*
X546139Y629696D01*
X546178Y629606D01*
X546224Y629544D01*
X546261Y629478D01*
X546358Y629364D01*
X546386Y629326D01*
X546401Y629314D01*
X546420Y629292D01*
X613082Y562630D01*
X615131Y560580D01*
X615872Y558791D01*
X615910Y558724D01*
X615938Y558653D01*
X615994Y558572D01*
X616042Y558486D01*
X616093Y558430D01*
X616137Y558367D01*
X616210Y558301D01*
X616276Y558228D01*
X616339Y558185D01*
X616395Y558134D01*
X616482Y558086D01*
X616563Y558030D01*
X616634Y558002D01*
X616701Y557965D01*
X616795Y557938D01*
X616887Y557902D01*
X616962Y557891D01*
X617036Y557870D01*
X617185Y557858D01*
X617232Y557851D01*
X617251Y557853D01*
X617280Y557851D01*
X617345Y557851D01*
X619183Y557089D01*
X620589Y555683D01*
X621351Y553845D01*
X621351Y538355D01*
X620589Y536517D01*
X619183Y535111D01*
X617345Y534349D01*
X601855Y534349D01*
X600017Y535111D01*
X598611Y536517D01*
X597849Y538355D01*
X597849Y553845D01*
X598611Y555683D01*
X599015Y556087D01*
X599031Y556108D01*
X599051Y556125D01*
X599097Y556186D01*
X599135Y556226D01*
X599166Y556278D01*
X599232Y556360D01*
X599243Y556384D01*
X599259Y556405D01*
X599300Y556502D01*
X599314Y556525D01*
X599324Y556555D01*
X599381Y556675D01*
X599386Y556701D01*
X599397Y556725D01*
X599420Y556856D01*
X599421Y556857D01*
X599421Y556859D01*
X599423Y556871D01*
X599454Y557016D01*
X599454Y557042D01*
X599458Y557068D01*
X599451Y557217D01*
X599448Y557364D01*
X599442Y557390D01*
X599440Y557416D01*
X599399Y557559D01*
X599363Y557702D01*
X599351Y557726D01*
X599344Y557751D01*
X599272Y557880D01*
X599204Y558012D01*
X599186Y558032D01*
X599174Y558055D01*
X599015Y558241D01*
X548857Y608400D01*
X548779Y608462D01*
X548706Y608532D01*
X548642Y608570D01*
X548584Y608616D01*
X548493Y608659D01*
X548407Y608711D01*
X548336Y608733D01*
X548269Y608765D01*
X548171Y608786D01*
X548075Y608817D01*
X548001Y608823D01*
X547928Y608838D01*
X547828Y608837D01*
X547728Y608845D01*
X547654Y608834D01*
X547580Y608832D01*
X547483Y608808D01*
X547383Y608793D01*
X547314Y608766D01*
X547242Y608747D01*
X547152Y608701D01*
X547059Y608664D01*
X546998Y608622D01*
X546932Y608588D01*
X546855Y608523D01*
X546773Y608465D01*
X546723Y608410D01*
X546667Y608362D01*
X546607Y608281D01*
X546540Y608207D01*
X546504Y608142D01*
X546459Y608082D01*
X546420Y607990D01*
X546371Y607902D01*
X546351Y607830D01*
X546321Y607762D01*
X546304Y607663D01*
X546276Y607566D01*
X546268Y607466D01*
X546260Y607419D01*
X546262Y607383D01*
X546257Y607322D01*
X546257Y605955D01*
X544142Y600849D01*
X540388Y597095D01*
X540371Y597075D01*
X540351Y597058D01*
X540263Y596938D01*
X540171Y596822D01*
X540160Y596798D01*
X540144Y596777D01*
X540085Y596641D01*
X540022Y596507D01*
X540017Y596481D01*
X540006Y596457D01*
X539980Y596311D01*
X539949Y596166D01*
X539949Y596140D01*
X539944Y596114D01*
X539952Y595966D01*
X539955Y595818D01*
X539961Y595792D01*
X539962Y595766D01*
X540003Y595624D01*
X540040Y595480D01*
X540052Y595457D01*
X540059Y595431D01*
X540131Y595302D01*
X540199Y595170D01*
X540216Y595150D01*
X540229Y595127D01*
X540388Y594941D01*
X544142Y591187D01*
X546257Y586081D01*
X546257Y580555D01*
X546090Y580152D01*
X546069Y580078D01*
X546038Y580008D01*
X546021Y579911D01*
X545994Y579816D01*
X545990Y579740D01*
X545977Y579665D01*
X545982Y579566D01*
X545977Y579468D01*
X545991Y579393D01*
X545995Y579317D01*
X546022Y579222D01*
X546040Y579126D01*
X546070Y579055D01*
X546091Y578982D01*
X546139Y578896D01*
X546178Y578806D01*
X546224Y578744D01*
X546261Y578678D01*
X546358Y578564D01*
X546386Y578526D01*
X546401Y578514D01*
X546420Y578492D01*
X589731Y535180D01*
X590472Y533391D01*
X590510Y533324D01*
X590538Y533253D01*
X590594Y533172D01*
X590642Y533086D01*
X590693Y533030D01*
X590737Y532967D01*
X590810Y532901D01*
X590876Y532828D01*
X590939Y532785D01*
X590995Y532734D01*
X591082Y532686D01*
X591163Y532630D01*
X591234Y532602D01*
X591301Y532565D01*
X591395Y532538D01*
X591487Y532502D01*
X591562Y532491D01*
X591636Y532470D01*
X591785Y532458D01*
X591832Y532451D01*
X591851Y532453D01*
X591880Y532451D01*
X591945Y532451D01*
X593783Y531689D01*
X595189Y530283D01*
X595951Y528445D01*
X595951Y512955D01*
X595189Y511117D01*
X593783Y509711D01*
X591945Y508949D01*
X576455Y508949D01*
X574617Y509711D01*
X573211Y511117D01*
X572449Y512955D01*
X572449Y528445D01*
X573211Y530283D01*
X573615Y530687D01*
X573631Y530708D01*
X573651Y530725D01*
X573740Y530844D01*
X573832Y530960D01*
X573843Y530984D01*
X573859Y531005D01*
X573917Y531141D01*
X573981Y531275D01*
X573986Y531301D01*
X573997Y531325D01*
X574023Y531471D01*
X574054Y531616D01*
X574054Y531642D01*
X574058Y531668D01*
X574051Y531817D01*
X574048Y531964D01*
X574042Y531990D01*
X574040Y532016D01*
X573999Y532159D01*
X573963Y532302D01*
X573951Y532326D01*
X573944Y532351D01*
X573872Y532480D01*
X573804Y532612D01*
X573786Y532632D01*
X573774Y532655D01*
X573615Y532841D01*
X548857Y557600D01*
X548779Y557662D01*
X548706Y557732D01*
X548642Y557770D01*
X548584Y557816D01*
X548493Y557859D01*
X548407Y557911D01*
X548336Y557933D01*
X548269Y557965D01*
X548171Y557986D01*
X548075Y558017D01*
X548001Y558023D01*
X547928Y558038D01*
X547828Y558037D01*
X547728Y558045D01*
X547654Y558034D01*
X547580Y558032D01*
X547483Y558008D01*
X547383Y557993D01*
X547314Y557966D01*
X547242Y557947D01*
X547152Y557901D01*
X547059Y557864D01*
X546998Y557822D01*
X546932Y557788D01*
X546855Y557723D01*
X546773Y557665D01*
X546723Y557610D01*
X546667Y557562D01*
X546607Y557481D01*
X546540Y557407D01*
X546504Y557342D01*
X546459Y557282D01*
X546420Y557190D01*
X546371Y557102D01*
X546351Y557030D01*
X546321Y556962D01*
X546304Y556863D01*
X546276Y556766D01*
X546268Y556666D01*
X546260Y556619D01*
X546262Y556583D01*
X546257Y556522D01*
X546257Y555155D01*
X546090Y554752D01*
X546069Y554678D01*
X546038Y554608D01*
X546021Y554511D01*
X545994Y554416D01*
X545990Y554340D01*
X545977Y554265D01*
X545982Y554166D01*
X545977Y554068D01*
X545991Y553993D01*
X545995Y553917D01*
X546022Y553822D01*
X546040Y553726D01*
X546070Y553655D01*
X546091Y553582D01*
X546139Y553496D01*
X546178Y553406D01*
X546224Y553344D01*
X546261Y553278D01*
X546358Y553164D01*
X546386Y553126D01*
X546401Y553114D01*
X546420Y553092D01*
X562282Y537230D01*
X564331Y535180D01*
X565325Y532782D01*
X565325Y495874D01*
X565333Y495798D01*
X565332Y495722D01*
X565353Y495625D01*
X565365Y495528D01*
X565390Y495456D01*
X565407Y495381D01*
X565449Y495292D01*
X565482Y495200D01*
X565524Y495135D01*
X565556Y495066D01*
X565618Y494990D01*
X565671Y494907D01*
X565726Y494854D01*
X565774Y494794D01*
X565851Y494733D01*
X565922Y494665D01*
X565987Y494625D01*
X566047Y494578D01*
X566180Y494510D01*
X566221Y494486D01*
X566239Y494480D01*
X566265Y494467D01*
X568383Y493589D01*
X569789Y492183D01*
X570551Y490345D01*
X570551Y474855D01*
X569789Y473017D01*
X568383Y471611D01*
X566545Y470849D01*
X551055Y470849D01*
X549217Y471611D01*
X547811Y473017D01*
X547211Y474464D01*
X547162Y474552D01*
X547122Y474644D01*
X547078Y474704D01*
X547042Y474769D01*
X546974Y474843D01*
X546915Y474924D01*
X546858Y474972D01*
X546808Y475027D01*
X546725Y475084D01*
X546648Y475149D01*
X546582Y475183D01*
X546521Y475225D01*
X546428Y475262D01*
X546338Y475308D01*
X546266Y475326D01*
X546197Y475353D01*
X546097Y475368D01*
X546000Y475392D01*
X545926Y475393D01*
X545852Y475404D01*
X545752Y475396D01*
X545652Y475397D01*
X545579Y475381D01*
X545505Y475375D01*
X545409Y475344D01*
X545311Y475323D01*
X545244Y475291D01*
X545173Y475268D01*
X545087Y475216D01*
X544996Y475173D01*
X544938Y475126D01*
X544874Y475088D01*
X544803Y475018D01*
X544724Y474956D01*
X544678Y474897D01*
X544625Y474845D01*
X544570Y474761D01*
X544508Y474682D01*
X544462Y474593D01*
X544436Y474552D01*
X544424Y474518D01*
X544397Y474464D01*
X544142Y473849D01*
X540388Y470095D01*
X540371Y470075D01*
X540351Y470058D01*
X540263Y469938D01*
X540171Y469822D01*
X540160Y469798D01*
X540144Y469777D01*
X540085Y469641D01*
X540022Y469507D01*
X540017Y469481D01*
X540006Y469457D01*
X539980Y469311D01*
X539949Y469166D01*
X539949Y469140D01*
X539944Y469114D01*
X539952Y468966D01*
X539955Y468818D01*
X539961Y468792D01*
X539962Y468766D01*
X540003Y468624D01*
X540040Y468480D01*
X540052Y468457D01*
X540059Y468431D01*
X540131Y468302D01*
X540199Y468170D01*
X540216Y468150D01*
X540229Y468127D01*
X540388Y467941D01*
X544142Y464187D01*
X546257Y459081D01*
X546257Y453555D01*
X544142Y448449D01*
X540235Y444542D01*
X538086Y443652D01*
X538051Y443632D01*
X538012Y443619D01*
X537899Y443548D01*
X537782Y443483D01*
X537752Y443456D01*
X537717Y443434D01*
X537623Y443339D01*
X537524Y443249D01*
X537500Y443215D01*
X537472Y443186D01*
X537401Y443072D01*
X537325Y442962D01*
X537310Y442924D01*
X537289Y442889D01*
X537247Y442762D01*
X537198Y442638D01*
X537192Y442598D01*
X537179Y442559D01*
X537166Y442426D01*
X537147Y442293D01*
X537150Y442252D01*
X537146Y442212D01*
X537165Y442079D01*
X537176Y441946D01*
X537188Y441907D01*
X537194Y441867D01*
X537242Y441742D01*
X537283Y441614D01*
X537304Y441579D01*
X537318Y441541D01*
X537393Y441430D01*
X537462Y441315D01*
X537491Y441286D01*
X537514Y441253D01*
X537612Y441161D01*
X537705Y441066D01*
X537739Y441044D01*
X537769Y441016D01*
X537978Y440888D01*
X538357Y440694D01*
X539813Y439637D01*
X541085Y438365D01*
X542142Y436909D01*
X542959Y435306D01*
X543515Y433595D01*
X543543Y433417D01*
X533342Y433417D01*
X533316Y433414D01*
X533290Y433416D01*
X533143Y433394D01*
X532996Y433377D01*
X532971Y433369D01*
X532945Y433365D01*
X532808Y433310D01*
X532668Y433260D01*
X532646Y433246D01*
X532621Y433236D01*
X532500Y433151D01*
X532375Y433071D01*
X532357Y433052D01*
X532335Y433037D01*
X532236Y432927D01*
X532133Y432820D01*
X532119Y432798D01*
X532102Y432778D01*
X532030Y432648D01*
X531954Y432521D01*
X531946Y432496D01*
X531933Y432473D01*
X531893Y432330D01*
X531848Y432189D01*
X531846Y432163D01*
X531839Y432138D01*
X531819Y431894D01*
X531819Y429942D01*
X531822Y429916D01*
X531820Y429890D01*
X531842Y429743D01*
X531859Y429596D01*
X531868Y429571D01*
X531872Y429545D01*
X531926Y429407D01*
X531976Y429268D01*
X531991Y429246D01*
X532000Y429221D01*
X532085Y429100D01*
X532165Y428975D01*
X532184Y428957D01*
X532199Y428935D01*
X532309Y428836D01*
X532416Y428733D01*
X532439Y428719D01*
X532458Y428702D01*
X532588Y428630D01*
X532715Y428554D01*
X532740Y428546D01*
X532763Y428533D01*
X532906Y428493D01*
X533047Y428448D01*
X533073Y428445D01*
X533098Y428438D01*
X533342Y428419D01*
X543543Y428419D01*
X543515Y428241D01*
X542959Y426530D01*
X542142Y424927D01*
X541085Y423471D01*
X539813Y422199D01*
X538357Y421142D01*
X537978Y420948D01*
X537944Y420926D01*
X537906Y420910D01*
X537799Y420830D01*
X537687Y420756D01*
X537659Y420726D01*
X537627Y420702D01*
X537540Y420600D01*
X537448Y420502D01*
X537428Y420467D01*
X537402Y420436D01*
X537341Y420316D01*
X537273Y420201D01*
X537261Y420162D01*
X537243Y420125D01*
X537210Y419995D01*
X537171Y419867D01*
X537169Y419827D01*
X537159Y419787D01*
X537157Y419653D01*
X537148Y419520D01*
X537154Y419480D01*
X537154Y419439D01*
X537182Y419308D01*
X537204Y419176D01*
X537219Y419138D01*
X537228Y419098D01*
X537285Y418977D01*
X537337Y418853D01*
X537360Y418820D01*
X537378Y418784D01*
X537461Y418679D01*
X537539Y418570D01*
X537570Y418543D01*
X537595Y418511D01*
X537700Y418428D01*
X537801Y418340D01*
X537837Y418320D01*
X537869Y418295D01*
X538086Y418184D01*
X540235Y417294D01*
X544142Y413387D01*
X546275Y408236D01*
X546348Y408105D01*
X546417Y407971D01*
X546433Y407953D01*
X546445Y407932D01*
X546545Y407821D01*
X546643Y407706D01*
X546662Y407692D01*
X546679Y407674D01*
X546802Y407588D01*
X546923Y407499D01*
X546945Y407489D01*
X546965Y407475D01*
X547105Y407420D01*
X547243Y407361D01*
X547267Y407357D01*
X547290Y407348D01*
X547438Y407326D01*
X547586Y407299D01*
X547610Y407300D01*
X547634Y407297D01*
X547785Y407309D01*
X547934Y407317D01*
X547957Y407324D01*
X547982Y407326D01*
X548125Y407372D01*
X548269Y407414D01*
X548290Y407425D01*
X548313Y407433D01*
X548442Y407510D01*
X548573Y407584D01*
X548596Y407603D01*
X548612Y407612D01*
X548646Y407645D01*
X548760Y407742D01*
X699231Y558214D01*
X699232Y558215D01*
X699234Y558217D01*
X699342Y558354D01*
X699448Y558487D01*
X699449Y558489D01*
X699450Y558490D01*
X699561Y558708D01*
X699805Y559295D01*
X728105Y587596D01*
X728184Y587695D01*
X728268Y587789D01*
X728292Y587831D01*
X728322Y587869D01*
X728376Y587983D01*
X728437Y588094D01*
X728450Y588140D01*
X728471Y588184D01*
X728497Y588307D01*
X728532Y588429D01*
X728537Y588490D01*
X728544Y588525D01*
X728543Y588573D01*
X728551Y588673D01*
X728551Y702895D01*
X729777Y705853D01*
X735597Y711673D01*
X738555Y712899D01*
X765382Y712899D01*
X765408Y712902D01*
X765434Y712900D01*
X765581Y712922D01*
X765728Y712939D01*
X765753Y712947D01*
X765779Y712951D01*
X765917Y713006D01*
X766056Y713056D01*
X766078Y713070D01*
X766103Y713080D01*
X766224Y713165D01*
X766349Y713245D01*
X766367Y713264D01*
X766389Y713279D01*
X766488Y713389D01*
X766591Y713496D01*
X766605Y713518D01*
X766622Y713538D01*
X766694Y713668D01*
X766770Y713795D01*
X766778Y713820D01*
X766791Y713843D01*
X766831Y713986D01*
X766876Y714127D01*
X766878Y714153D01*
X766886Y714178D01*
X766905Y714422D01*
X766905Y720060D01*
X768827Y724699D01*
X771031Y726904D01*
X771110Y727003D01*
X771194Y727096D01*
X771218Y727139D01*
X771248Y727177D01*
X771302Y727291D01*
X771363Y727401D01*
X771376Y727448D01*
X771397Y727492D01*
X771423Y727615D01*
X771458Y727737D01*
X771463Y727798D01*
X771470Y727832D01*
X771469Y727880D01*
X771477Y727981D01*
X771477Y736677D01*
X771651Y737096D01*
X771672Y737170D01*
X771702Y737240D01*
X771720Y737337D01*
X771747Y737432D01*
X771750Y737508D01*
X771764Y737583D01*
X771759Y737682D01*
X771764Y737780D01*
X771750Y737855D01*
X771746Y737931D01*
X771719Y738026D01*
X771701Y738123D01*
X771671Y738193D01*
X771649Y738266D01*
X771601Y738352D01*
X771562Y738442D01*
X771517Y738504D01*
X771479Y738570D01*
X771448Y738607D01*
X770207Y741603D01*
X770207Y878849D01*
X770193Y878974D01*
X770186Y879101D01*
X770173Y879147D01*
X770167Y879195D01*
X770125Y879314D01*
X770090Y879436D01*
X770066Y879478D01*
X770050Y879523D01*
X769981Y879630D01*
X769920Y879740D01*
X769880Y879786D01*
X769861Y879816D01*
X769826Y879850D01*
X769761Y879926D01*
X766633Y883054D01*
X766613Y883070D01*
X766596Y883090D01*
X766476Y883179D01*
X766360Y883271D01*
X766336Y883282D01*
X766315Y883297D01*
X766179Y883356D01*
X766045Y883420D01*
X766019Y883425D01*
X765995Y883435D01*
X765849Y883462D01*
X765704Y883493D01*
X765678Y883492D01*
X765652Y883497D01*
X765504Y883489D01*
X765356Y883487D01*
X765330Y883481D01*
X765304Y883479D01*
X765162Y883438D01*
X765018Y883402D01*
X764995Y883390D01*
X764969Y883383D01*
X764840Y883310D01*
X764708Y883242D01*
X764688Y883225D01*
X764665Y883213D01*
X764479Y883054D01*
X761012Y879587D01*
X755720Y877395D01*
X749992Y877395D01*
X744700Y879587D01*
X741233Y883054D01*
X741213Y883070D01*
X741196Y883090D01*
X741076Y883179D01*
X740960Y883271D01*
X740936Y883282D01*
X740915Y883297D01*
X740779Y883356D01*
X740645Y883420D01*
X740619Y883425D01*
X740595Y883435D01*
X740449Y883462D01*
X740304Y883493D01*
X740278Y883492D01*
X740252Y883497D01*
X740104Y883489D01*
X739956Y883487D01*
X739930Y883481D01*
X739904Y883479D01*
X739762Y883438D01*
X739618Y883402D01*
X739595Y883390D01*
X739569Y883383D01*
X739440Y883310D01*
X739308Y883242D01*
X739288Y883225D01*
X739265Y883213D01*
X739079Y883054D01*
X735612Y879587D01*
X730320Y877395D01*
X724592Y877395D01*
X719300Y879587D01*
X715833Y883054D01*
X715813Y883070D01*
X715796Y883090D01*
X715676Y883179D01*
X715560Y883271D01*
X715536Y883282D01*
X715515Y883297D01*
X715379Y883356D01*
X715245Y883420D01*
X715219Y883425D01*
X715195Y883435D01*
X715049Y883462D01*
X714904Y883493D01*
X714878Y883492D01*
X714852Y883497D01*
X714704Y883489D01*
X714556Y883487D01*
X714530Y883481D01*
X714504Y883479D01*
X714362Y883438D01*
X714218Y883402D01*
X714195Y883390D01*
X714169Y883383D01*
X714040Y883310D01*
X713908Y883242D01*
X713888Y883225D01*
X713865Y883213D01*
X713679Y883054D01*
X710212Y879587D01*
X704920Y877395D01*
X699192Y877395D01*
X693900Y879587D01*
X690433Y883054D01*
X690413Y883070D01*
X690396Y883090D01*
X690276Y883179D01*
X690160Y883271D01*
X690136Y883282D01*
X690115Y883297D01*
X689979Y883356D01*
X689845Y883420D01*
X689819Y883425D01*
X689795Y883435D01*
X689649Y883462D01*
X689504Y883493D01*
X689478Y883492D01*
X689452Y883497D01*
X689304Y883489D01*
X689156Y883487D01*
X689130Y883481D01*
X689104Y883479D01*
X688962Y883438D01*
X688818Y883402D01*
X688795Y883390D01*
X688769Y883383D01*
X688640Y883310D01*
X688508Y883242D01*
X688488Y883225D01*
X688465Y883213D01*
X688279Y883054D01*
X684812Y879587D01*
X679520Y877395D01*
X673792Y877395D01*
X668500Y879587D01*
X664449Y883638D01*
X662257Y888930D01*
X662257Y894658D01*
X664449Y899950D01*
X668500Y904001D01*
X673792Y906193D01*
X679520Y906193D01*
X684812Y904001D01*
X688279Y900534D01*
X688299Y900518D01*
X688316Y900498D01*
X688436Y900409D01*
X688552Y900317D01*
X688576Y900306D01*
X688597Y900291D01*
X688733Y900232D01*
X688867Y900168D01*
X688893Y900163D01*
X688917Y900153D01*
X689063Y900126D01*
X689208Y900095D01*
X689234Y900096D01*
X689260Y900091D01*
X689408Y900099D01*
X689556Y900101D01*
X689582Y900107D01*
X689608Y900109D01*
X689750Y900150D01*
X689894Y900186D01*
X689917Y900198D01*
X689943Y900205D01*
X690072Y900278D01*
X690204Y900346D01*
X690224Y900363D01*
X690247Y900375D01*
X690433Y900534D01*
X693900Y904001D01*
X699192Y906193D01*
X704920Y906193D01*
X710212Y904001D01*
X713679Y900534D01*
X713699Y900518D01*
X713716Y900498D01*
X713836Y900409D01*
X713952Y900317D01*
X713976Y900306D01*
X713997Y900291D01*
X714133Y900232D01*
X714267Y900168D01*
X714293Y900163D01*
X714317Y900153D01*
X714463Y900126D01*
X714608Y900095D01*
X714634Y900096D01*
X714660Y900091D01*
X714808Y900099D01*
X714956Y900101D01*
X714982Y900107D01*
X715008Y900109D01*
X715150Y900150D01*
X715294Y900186D01*
X715317Y900198D01*
X715343Y900205D01*
X715472Y900278D01*
X715604Y900346D01*
X715624Y900363D01*
X715647Y900375D01*
X715833Y900534D01*
X719300Y904001D01*
X724592Y906193D01*
X730320Y906193D01*
X735612Y904001D01*
X739079Y900534D01*
X739099Y900518D01*
X739116Y900498D01*
X739236Y900409D01*
X739352Y900317D01*
X739376Y900306D01*
X739397Y900291D01*
X739533Y900232D01*
X739667Y900168D01*
X739693Y900163D01*
X739717Y900153D01*
X739863Y900126D01*
X740008Y900095D01*
X740034Y900096D01*
X740060Y900091D01*
X740208Y900099D01*
X740356Y900101D01*
X740382Y900107D01*
X740408Y900109D01*
X740550Y900150D01*
X740694Y900186D01*
X740717Y900198D01*
X740743Y900205D01*
X740872Y900278D01*
X741004Y900346D01*
X741024Y900363D01*
X741047Y900375D01*
X741233Y900534D01*
X744700Y904001D01*
X749992Y906193D01*
X755720Y906193D01*
X761012Y904001D01*
X764479Y900534D01*
X764499Y900518D01*
X764516Y900498D01*
X764636Y900409D01*
X764752Y900317D01*
X764776Y900306D01*
X764797Y900291D01*
X764933Y900232D01*
X765067Y900168D01*
X765093Y900163D01*
X765117Y900153D01*
X765263Y900126D01*
X765408Y900095D01*
X765434Y900096D01*
X765460Y900091D01*
X765608Y900099D01*
X765756Y900101D01*
X765782Y900107D01*
X765808Y900109D01*
X765950Y900150D01*
X766094Y900186D01*
X766117Y900198D01*
X766143Y900205D01*
X766272Y900278D01*
X766404Y900346D01*
X766424Y900363D01*
X766447Y900375D01*
X766633Y900534D01*
X770100Y904001D01*
X775392Y906193D01*
X781120Y906193D01*
X786412Y904001D01*
X789879Y900534D01*
X789899Y900518D01*
X789916Y900498D01*
X790036Y900409D01*
X790152Y900317D01*
X790176Y900306D01*
X790197Y900291D01*
X790333Y900232D01*
X790467Y900168D01*
X790493Y900163D01*
X790517Y900153D01*
X790663Y900126D01*
X790808Y900095D01*
X790834Y900096D01*
X790860Y900091D01*
X791008Y900099D01*
X791156Y900101D01*
X791182Y900107D01*
X791208Y900109D01*
X791350Y900150D01*
X791494Y900186D01*
X791517Y900198D01*
X791543Y900205D01*
X791672Y900278D01*
X791804Y900346D01*
X791824Y900363D01*
X791847Y900375D01*
X792033Y900534D01*
X795500Y904001D01*
X800792Y906193D01*
X806520Y906193D01*
X811812Y904001D01*
X815863Y899950D01*
X818055Y894658D01*
X818055Y888930D01*
X815863Y883638D01*
X812824Y880599D01*
X812762Y880521D01*
X812692Y880448D01*
X812654Y880384D01*
X812607Y880326D01*
X812564Y880235D01*
X812513Y880149D01*
X812490Y880078D01*
X812458Y880011D01*
X812437Y879913D01*
X812407Y879817D01*
X812401Y879743D01*
X812385Y879670D01*
X812387Y879570D01*
X812379Y879470D01*
X812390Y879396D01*
X812391Y879322D01*
X812415Y879225D01*
X812430Y879125D01*
X812458Y879056D01*
X812476Y878984D01*
X812522Y878895D01*
X812559Y878801D01*
X812602Y878740D01*
X812636Y878674D01*
X812701Y878598D01*
X812758Y878515D01*
X812813Y878465D01*
X812861Y878409D01*
X812942Y878349D01*
X813017Y878282D01*
X813082Y878246D01*
X813142Y878201D01*
X813234Y878162D01*
X813322Y878113D01*
X813393Y878093D01*
X813462Y878063D01*
X813561Y878046D01*
X813657Y878018D01*
X813757Y878010D01*
X813805Y878002D01*
X813841Y878004D01*
X813901Y877999D01*
X844211Y877999D01*
X844311Y878010D01*
X844411Y878012D01*
X844483Y878030D01*
X844557Y878039D01*
X844652Y878072D01*
X844749Y878097D01*
X844815Y878131D01*
X844885Y878156D01*
X844970Y878211D01*
X845059Y878257D01*
X845116Y878305D01*
X845178Y878345D01*
X845248Y878417D01*
X845324Y878482D01*
X845369Y878542D01*
X845420Y878596D01*
X845472Y878682D01*
X845531Y878763D01*
X845561Y878831D01*
X845599Y878895D01*
X845630Y878991D01*
X845669Y879083D01*
X845683Y879156D01*
X845705Y879227D01*
X845713Y879327D01*
X845731Y879426D01*
X845727Y879500D01*
X845733Y879574D01*
X845718Y879674D01*
X845713Y879774D01*
X845693Y879845D01*
X845682Y879919D01*
X845645Y880012D01*
X845617Y880109D01*
X845580Y880174D01*
X845553Y880243D01*
X845496Y880325D01*
X845447Y880413D01*
X845381Y880489D01*
X845354Y880529D01*
X845327Y880553D01*
X845288Y880599D01*
X842249Y883638D01*
X840057Y888930D01*
X840057Y894658D01*
X842249Y899950D01*
X846300Y904001D01*
X851592Y906193D01*
X857320Y906193D01*
X862612Y904001D01*
X866663Y899950D01*
X867206Y898639D01*
X867252Y898556D01*
X867290Y898468D01*
X867337Y898404D01*
X867375Y898335D01*
X867439Y898264D01*
X867496Y898187D01*
X867556Y898135D01*
X867609Y898077D01*
X867688Y898022D01*
X867760Y897960D01*
X867831Y897923D01*
X867896Y897878D01*
X867985Y897843D01*
X868070Y897799D01*
X868146Y897780D01*
X868220Y897751D01*
X868315Y897737D01*
X868407Y897713D01*
X868486Y897711D01*
X868565Y897700D01*
X868660Y897708D01*
X868756Y897706D01*
X868833Y897722D01*
X868912Y897729D01*
X869003Y897758D01*
X869097Y897778D01*
X869168Y897811D01*
X869244Y897836D01*
X869326Y897885D01*
X869412Y897926D01*
X869474Y897974D01*
X869542Y898015D01*
X869611Y898082D01*
X869686Y898141D01*
X869757Y898224D01*
X869792Y898258D01*
X869810Y898286D01*
X869845Y898327D01*
X870750Y899572D01*
X872078Y900900D01*
X873599Y902005D01*
X875273Y902858D01*
X877060Y903439D01*
X877317Y903479D01*
X877317Y892810D01*
X877320Y892784D01*
X877318Y892758D01*
X877340Y892611D01*
X877357Y892464D01*
X877365Y892439D01*
X877369Y892413D01*
X877424Y892276D01*
X877474Y892136D01*
X877488Y892114D01*
X877498Y892089D01*
X877583Y891968D01*
X877663Y891843D01*
X877682Y891825D01*
X877697Y891803D01*
X877807Y891704D01*
X877914Y891601D01*
X877936Y891587D01*
X877956Y891570D01*
X878086Y891498D01*
X878213Y891422D01*
X878238Y891414D01*
X878261Y891401D01*
X878404Y891361D01*
X878545Y891316D01*
X878571Y891314D01*
X878596Y891307D01*
X878840Y891287D01*
X879349Y891287D01*
X879349Y890778D01*
X879352Y890752D01*
X879350Y890726D01*
X879372Y890579D01*
X879389Y890432D01*
X879398Y890407D01*
X879402Y890381D01*
X879456Y890243D01*
X879506Y890104D01*
X879521Y890082D01*
X879530Y890057D01*
X879615Y889936D01*
X879695Y889811D01*
X879714Y889793D01*
X879729Y889771D01*
X879839Y889672D01*
X879946Y889569D01*
X879969Y889555D01*
X879988Y889538D01*
X880118Y889466D01*
X880245Y889390D01*
X880270Y889382D01*
X880293Y889369D01*
X880436Y889329D01*
X880577Y889284D01*
X880603Y889281D01*
X880628Y889274D01*
X880872Y889255D01*
X904240Y889255D01*
X904266Y889258D01*
X904292Y889256D01*
X904439Y889278D01*
X904586Y889295D01*
X904611Y889303D01*
X904637Y889307D01*
X904774Y889362D01*
X904914Y889412D01*
X904936Y889426D01*
X904961Y889436D01*
X905082Y889521D01*
X905207Y889601D01*
X905225Y889620D01*
X905247Y889635D01*
X905346Y889745D01*
X905449Y889852D01*
X905463Y889874D01*
X905480Y889894D01*
X905552Y890023D01*
X905628Y890151D01*
X905636Y890176D01*
X905649Y890199D01*
X905689Y890342D01*
X905734Y890483D01*
X905736Y890509D01*
X905743Y890534D01*
X905763Y890778D01*
X905763Y891287D01*
X906272Y891287D01*
X906298Y891290D01*
X906324Y891288D01*
X906471Y891310D01*
X906618Y891327D01*
X906643Y891336D01*
X906669Y891340D01*
X906807Y891394D01*
X906946Y891444D01*
X906968Y891459D01*
X906993Y891468D01*
X907114Y891553D01*
X907239Y891633D01*
X907257Y891652D01*
X907279Y891667D01*
X907378Y891777D01*
X907481Y891884D01*
X907495Y891907D01*
X907512Y891926D01*
X907584Y892056D01*
X907660Y892183D01*
X907668Y892208D01*
X907681Y892231D01*
X907721Y892374D01*
X907766Y892515D01*
X907768Y892541D01*
X907776Y892566D01*
X907795Y892810D01*
X907795Y903479D01*
X908052Y903439D01*
X909839Y902858D01*
X911513Y902005D01*
X913034Y900900D01*
X914362Y899572D01*
X915267Y898327D01*
X915331Y898257D01*
X915388Y898180D01*
X915449Y898129D01*
X915502Y898070D01*
X915581Y898016D01*
X915654Y897955D01*
X915725Y897918D01*
X915790Y897874D01*
X915879Y897839D01*
X915965Y897796D01*
X916042Y897777D01*
X916115Y897748D01*
X916210Y897735D01*
X916303Y897712D01*
X916382Y897710D01*
X916461Y897699D01*
X916556Y897708D01*
X916651Y897707D01*
X916729Y897723D01*
X916808Y897731D01*
X916898Y897761D01*
X916992Y897781D01*
X917063Y897815D01*
X917139Y897840D01*
X917220Y897890D01*
X917307Y897931D01*
X917369Y897980D01*
X917436Y898021D01*
X917504Y898088D01*
X917579Y898148D01*
X917628Y898210D01*
X917685Y898266D01*
X917736Y898347D01*
X917795Y898422D01*
X917845Y898519D01*
X917871Y898560D01*
X917882Y898591D01*
X917906Y898639D01*
X918449Y899950D01*
X922500Y904001D01*
X927792Y906193D01*
X933520Y906193D01*
X938812Y904001D01*
X942279Y900534D01*
X942299Y900518D01*
X942316Y900498D01*
X942436Y900409D01*
X942552Y900317D01*
X942576Y900306D01*
X942597Y900291D01*
X942733Y900232D01*
X942867Y900168D01*
X942893Y900163D01*
X942917Y900153D01*
X943063Y900126D01*
X943208Y900095D01*
X943234Y900096D01*
X943260Y900091D01*
X943408Y900099D01*
X943556Y900101D01*
X943582Y900107D01*
X943608Y900109D01*
X943750Y900150D01*
X943894Y900186D01*
X943917Y900198D01*
X943943Y900205D01*
X944072Y900278D01*
X944204Y900346D01*
X944224Y900363D01*
X944247Y900375D01*
X944433Y900534D01*
X947900Y904001D01*
X953192Y906193D01*
X958920Y906193D01*
X964212Y904001D01*
X967679Y900534D01*
X967699Y900518D01*
X967716Y900498D01*
X967836Y900409D01*
X967952Y900317D01*
X967976Y900306D01*
X967997Y900291D01*
X968133Y900232D01*
X968267Y900168D01*
X968293Y900163D01*
X968317Y900153D01*
X968463Y900126D01*
X968608Y900095D01*
X968634Y900096D01*
X968660Y900091D01*
X968808Y900099D01*
X968956Y900101D01*
X968982Y900107D01*
X969008Y900109D01*
X969150Y900150D01*
X969294Y900186D01*
X969317Y900198D01*
X969343Y900205D01*
X969472Y900278D01*
X969604Y900346D01*
X969624Y900363D01*
X969647Y900375D01*
X969833Y900534D01*
X973300Y904001D01*
X978592Y906193D01*
X984320Y906193D01*
X989612Y904001D01*
X993663Y899950D01*
X995855Y894658D01*
X995855Y888930D01*
X993663Y883638D01*
X989612Y879587D01*
X984320Y877395D01*
X978592Y877395D01*
X973300Y879587D01*
X969833Y883054D01*
X969813Y883070D01*
X969796Y883090D01*
X969676Y883179D01*
X969560Y883271D01*
X969536Y883282D01*
X969515Y883297D01*
X969379Y883356D01*
X969245Y883420D01*
X969219Y883425D01*
X969195Y883435D01*
X969049Y883462D01*
X968904Y883493D01*
X968878Y883492D01*
X968852Y883497D01*
X968704Y883489D01*
X968556Y883487D01*
X968530Y883481D01*
X968504Y883479D01*
X968362Y883438D01*
X968218Y883402D01*
X968195Y883390D01*
X968169Y883383D01*
X968040Y883310D01*
X967908Y883242D01*
X967888Y883225D01*
X967865Y883213D01*
X967679Y883054D01*
X964212Y879587D01*
X958920Y877395D01*
X953192Y877395D01*
X947900Y879587D01*
X944433Y883054D01*
X944413Y883070D01*
X944396Y883090D01*
X944276Y883179D01*
X944160Y883271D01*
X944136Y883282D01*
X944115Y883297D01*
X943979Y883356D01*
X943845Y883420D01*
X943819Y883425D01*
X943795Y883435D01*
X943649Y883462D01*
X943504Y883493D01*
X943478Y883492D01*
X943452Y883497D01*
X943304Y883489D01*
X943156Y883487D01*
X943130Y883481D01*
X943104Y883479D01*
X942962Y883438D01*
X942818Y883402D01*
X942795Y883390D01*
X942769Y883383D01*
X942640Y883310D01*
X942508Y883242D01*
X942488Y883225D01*
X942465Y883213D01*
X942279Y883054D01*
X938812Y879587D01*
X933520Y877395D01*
X928271Y877395D01*
X928145Y877381D01*
X928019Y877374D01*
X927973Y877361D01*
X927925Y877355D01*
X927806Y877313D01*
X927684Y877278D01*
X927642Y877254D01*
X927597Y877238D01*
X927490Y877169D01*
X927380Y877108D01*
X927334Y877068D01*
X927304Y877049D01*
X927270Y877014D01*
X927194Y876949D01*
X913371Y863127D01*
X910413Y861901D01*
X789098Y861901D01*
X789072Y861898D01*
X789046Y861900D01*
X788899Y861878D01*
X788752Y861861D01*
X788727Y861853D01*
X788701Y861849D01*
X788563Y861794D01*
X788424Y861744D01*
X788402Y861730D01*
X788377Y861720D01*
X788256Y861635D01*
X788131Y861555D01*
X788113Y861536D01*
X788091Y861521D01*
X787992Y861411D01*
X787889Y861304D01*
X787875Y861282D01*
X787858Y861262D01*
X787786Y861132D01*
X787710Y861005D01*
X787702Y860980D01*
X787689Y860957D01*
X787649Y860814D01*
X787604Y860673D01*
X787602Y860647D01*
X787594Y860622D01*
X787575Y860378D01*
X787575Y746172D01*
X787578Y746146D01*
X787576Y746120D01*
X787598Y745973D01*
X787615Y745826D01*
X787623Y745801D01*
X787627Y745775D01*
X787682Y745637D01*
X787732Y745498D01*
X787746Y745476D01*
X787756Y745451D01*
X787841Y745330D01*
X787921Y745205D01*
X787940Y745187D01*
X787955Y745165D01*
X788065Y745066D01*
X788172Y744963D01*
X788194Y744949D01*
X788214Y744932D01*
X788344Y744860D01*
X788471Y744784D01*
X788496Y744776D01*
X788519Y744763D01*
X788662Y744723D01*
X788803Y744678D01*
X788829Y744676D01*
X788854Y744668D01*
X789098Y744649D01*
X1076021Y744649D01*
X1078979Y743423D01*
X1081457Y740945D01*
X1081458Y740945D01*
X1099023Y723379D01*
X1100249Y720421D01*
X1100249Y367536D01*
X1099023Y364578D01*
X1050536Y316091D01*
X1047578Y314865D01*
X1029920Y314865D01*
X1027940Y315685D01*
X1027938Y315686D01*
X1027936Y315687D01*
X1027775Y315733D01*
X1027605Y315781D01*
X1027603Y315781D01*
X1027601Y315782D01*
X1027357Y315801D01*
X1005252Y315801D01*
X1005226Y315798D01*
X1005200Y315800D01*
X1005053Y315778D01*
X1004906Y315761D01*
X1004881Y315753D01*
X1004855Y315749D01*
X1004717Y315694D01*
X1004578Y315644D01*
X1004556Y315630D01*
X1004531Y315620D01*
X1004410Y315535D01*
X1004285Y315455D01*
X1004267Y315436D01*
X1004245Y315421D01*
X1004146Y315311D01*
X1004043Y315204D01*
X1004029Y315182D01*
X1004012Y315162D01*
X1003940Y315032D01*
X1003864Y314905D01*
X1003856Y314880D01*
X1003843Y314857D01*
X1003803Y314714D01*
X1003758Y314573D01*
X1003756Y314547D01*
X1003748Y314522D01*
X1003729Y314278D01*
X1003729Y122472D01*
X1003737Y122396D01*
X1003736Y122319D01*
X1003757Y122223D01*
X1003769Y122126D01*
X1003794Y122054D01*
X1003811Y121979D01*
X1003853Y121890D01*
X1003886Y121798D01*
X1003928Y121733D01*
X1003960Y121664D01*
X1004022Y121587D01*
X1004075Y121505D01*
X1004130Y121452D01*
X1004178Y121392D01*
X1004255Y121331D01*
X1004326Y121263D01*
X1004391Y121223D01*
X1004451Y121176D01*
X1004584Y121108D01*
X1004625Y121084D01*
X1004643Y121078D01*
X1004669Y121065D01*
X1006053Y120491D01*
X1007459Y119085D01*
X1008224Y117239D01*
X1008232Y117166D01*
X1008234Y117065D01*
X1008252Y116993D01*
X1008261Y116919D01*
X1008294Y116825D01*
X1008319Y116727D01*
X1008353Y116661D01*
X1008378Y116591D01*
X1008433Y116507D01*
X1008479Y116417D01*
X1008527Y116361D01*
X1008567Y116298D01*
X1008639Y116229D01*
X1008704Y116152D01*
X1008764Y116108D01*
X1008818Y116056D01*
X1008904Y116005D01*
X1008985Y115945D01*
X1009053Y115915D01*
X1009117Y115877D01*
X1009213Y115847D01*
X1009305Y115807D01*
X1009378Y115794D01*
X1009449Y115771D01*
X1009549Y115763D01*
X1009648Y115745D01*
X1009722Y115749D01*
X1009796Y115743D01*
X1009896Y115758D01*
X1009996Y115763D01*
X1010067Y115784D01*
X1010141Y115795D01*
X1010234Y115832D01*
X1010331Y115860D01*
X1010396Y115896D01*
X1010465Y115923D01*
X1010547Y115981D01*
X1010635Y116030D01*
X1010711Y116095D01*
X1010751Y116122D01*
X1010775Y116149D01*
X1010821Y116188D01*
X1013976Y119343D01*
X1018586Y121253D01*
X1023574Y121253D01*
X1028184Y119343D01*
X1031711Y115816D01*
X1032373Y114219D01*
X1032421Y114132D01*
X1032461Y114040D01*
X1032506Y113980D01*
X1032542Y113915D01*
X1032609Y113840D01*
X1032669Y113760D01*
X1032726Y113712D01*
X1032776Y113657D01*
X1032859Y113600D01*
X1032935Y113535D01*
X1033002Y113501D01*
X1033063Y113459D01*
X1033156Y113422D01*
X1033246Y113376D01*
X1033318Y113358D01*
X1033387Y113331D01*
X1033486Y113316D01*
X1033584Y113292D01*
X1033658Y113291D01*
X1033732Y113280D01*
X1033832Y113288D01*
X1033932Y113287D01*
X1034005Y113303D01*
X1034079Y113309D01*
X1034175Y113340D01*
X1034273Y113361D01*
X1034340Y113393D01*
X1034411Y113416D01*
X1034497Y113468D01*
X1034588Y113511D01*
X1034646Y113557D01*
X1034709Y113596D01*
X1034782Y113666D01*
X1034860Y113728D01*
X1034906Y113787D01*
X1034959Y113838D01*
X1035014Y113923D01*
X1035076Y114002D01*
X1035122Y114091D01*
X1035148Y114132D01*
X1035160Y114165D01*
X1035187Y114219D01*
X1035849Y115816D01*
X1039376Y119343D01*
X1043986Y121253D01*
X1048974Y121253D01*
X1053584Y119343D01*
X1057111Y115816D01*
X1059028Y111188D01*
X1059047Y111089D01*
X1059061Y110971D01*
X1059079Y110919D01*
X1059090Y110864D01*
X1059138Y110755D01*
X1059178Y110643D01*
X1059208Y110596D01*
X1059231Y110546D01*
X1059302Y110450D01*
X1059367Y110350D01*
X1059407Y110311D01*
X1059440Y110267D01*
X1059532Y110191D01*
X1059618Y110108D01*
X1059665Y110079D01*
X1059708Y110044D01*
X1059815Y109990D01*
X1059917Y109929D01*
X1059969Y109912D01*
X1060019Y109887D01*
X1060135Y109859D01*
X1060249Y109823D01*
X1060304Y109818D01*
X1060358Y109805D01*
X1060477Y109804D01*
X1060596Y109795D01*
X1060651Y109803D01*
X1060706Y109802D01*
X1060823Y109829D01*
X1060941Y109846D01*
X1060992Y109867D01*
X1061046Y109879D01*
X1061154Y109931D01*
X1061265Y109975D01*
X1061310Y110007D01*
X1061360Y110031D01*
X1061453Y110106D01*
X1061551Y110174D01*
X1061588Y110215D01*
X1061631Y110250D01*
X1061704Y110344D01*
X1061784Y110433D01*
X1061811Y110481D01*
X1061845Y110525D01*
X1061895Y110633D01*
X1061953Y110738D01*
X1061968Y110791D01*
X1061991Y110841D01*
X1062044Y111061D01*
X1062047Y111071D01*
X1062538Y112582D01*
X1063258Y113995D01*
X1064191Y115279D01*
X1065313Y116401D01*
X1066597Y117334D01*
X1068010Y118054D01*
X1069381Y118499D01*
X1069381Y109688D01*
X1069384Y109662D01*
X1069382Y109636D01*
X1069404Y109489D01*
X1069421Y109342D01*
X1069429Y109317D01*
X1069433Y109291D01*
X1069488Y109154D01*
X1069538Y109014D01*
X1069552Y108992D01*
X1069562Y108967D01*
X1069647Y108846D01*
X1069727Y108721D01*
X1069740Y108709D01*
X1069695Y108662D01*
X1069681Y108639D01*
X1069664Y108620D01*
X1069592Y108490D01*
X1069516Y108363D01*
X1069508Y108338D01*
X1069495Y108315D01*
X1069455Y108172D01*
X1069410Y108031D01*
X1069407Y108005D01*
X1069400Y107980D01*
X1069381Y107736D01*
X1069381Y98758D01*
X1069334Y98749D01*
X1069293Y98731D01*
X1069248Y98720D01*
X1069134Y98661D01*
X1069016Y98609D01*
X1068979Y98581D01*
X1068939Y98560D01*
X1068840Y98477D01*
X1068737Y98399D01*
X1068708Y98364D01*
X1068673Y98334D01*
X1068596Y98230D01*
X1068514Y98131D01*
X1068493Y98091D01*
X1068466Y98054D01*
X1068415Y97936D01*
X1068357Y97820D01*
X1068346Y97776D01*
X1068328Y97734D01*
X1068305Y97607D01*
X1068275Y97482D01*
X1068274Y97436D01*
X1068266Y97391D01*
X1068273Y97262D01*
X1068272Y97133D01*
X1068282Y97089D01*
X1068284Y97043D01*
X1068320Y96919D01*
X1068348Y96793D01*
X1068368Y96752D01*
X1068381Y96708D01*
X1068444Y96595D01*
X1068500Y96479D01*
X1068529Y96444D01*
X1068551Y96404D01*
X1068710Y96218D01*
X1069057Y95871D01*
X1069156Y95792D01*
X1069249Y95708D01*
X1069292Y95684D01*
X1069330Y95654D01*
X1069444Y95600D01*
X1069554Y95539D01*
X1069601Y95526D01*
X1069645Y95505D01*
X1069768Y95479D01*
X1069890Y95444D01*
X1069950Y95439D01*
X1069985Y95432D01*
X1070034Y95433D01*
X1070134Y95425D01*
X1084152Y95425D01*
X1084178Y95428D01*
X1084204Y95426D01*
X1084351Y95448D01*
X1084498Y95465D01*
X1084523Y95473D01*
X1084549Y95477D01*
X1084687Y95532D01*
X1084826Y95582D01*
X1084848Y95596D01*
X1084873Y95606D01*
X1084994Y95691D01*
X1085119Y95771D01*
X1085137Y95790D01*
X1085159Y95805D01*
X1085258Y95915D01*
X1085361Y96022D01*
X1085375Y96044D01*
X1085392Y96064D01*
X1085464Y96194D01*
X1085540Y96321D01*
X1085548Y96346D01*
X1085561Y96369D01*
X1085601Y96512D01*
X1085646Y96653D01*
X1085648Y96679D01*
X1085656Y96704D01*
X1085675Y96948D01*
X1085675Y110966D01*
X1085661Y111092D01*
X1085654Y111218D01*
X1085641Y111265D01*
X1085635Y111313D01*
X1085593Y111431D01*
X1085558Y111553D01*
X1085534Y111595D01*
X1085518Y111641D01*
X1085449Y111747D01*
X1085388Y111857D01*
X1085348Y111904D01*
X1085329Y111934D01*
X1085294Y111967D01*
X1085229Y112043D01*
X1084039Y113234D01*
X1083910Y113336D01*
X1083782Y113440D01*
X1083774Y113444D01*
X1083766Y113450D01*
X1083617Y113520D01*
X1083469Y113593D01*
X1083460Y113595D01*
X1083451Y113599D01*
X1083291Y113634D01*
X1083129Y113670D01*
X1083120Y113670D01*
X1083110Y113672D01*
X1082947Y113670D01*
X1082781Y113669D01*
X1082771Y113667D01*
X1082762Y113666D01*
X1082603Y113626D01*
X1082442Y113588D01*
X1082433Y113584D01*
X1082424Y113581D01*
X1082277Y113506D01*
X1082130Y113432D01*
X1082123Y113426D01*
X1082114Y113422D01*
X1081988Y113315D01*
X1081862Y113210D01*
X1081856Y113202D01*
X1081849Y113196D01*
X1081751Y113064D01*
X1081651Y112932D01*
X1081647Y112923D01*
X1081641Y112916D01*
X1081577Y112766D01*
X1081509Y112614D01*
X1081507Y112605D01*
X1081503Y112596D01*
X1081474Y112433D01*
X1081443Y112272D01*
X1081443Y112262D01*
X1081442Y112253D01*
X1081450Y112087D01*
X1081457Y111924D01*
X1081459Y111913D01*
X1081460Y111905D01*
X1081468Y111875D01*
X1081513Y111686D01*
X1081667Y111211D01*
X1074379Y111211D01*
X1074379Y118499D01*
X1074854Y118345D01*
X1075016Y118312D01*
X1075176Y118278D01*
X1075186Y118278D01*
X1075195Y118276D01*
X1075362Y118281D01*
X1075525Y118284D01*
X1075534Y118286D01*
X1075544Y118287D01*
X1075704Y118329D01*
X1075863Y118369D01*
X1075871Y118373D01*
X1075881Y118376D01*
X1076026Y118453D01*
X1076172Y118529D01*
X1076180Y118535D01*
X1076188Y118539D01*
X1076311Y118647D01*
X1076438Y118754D01*
X1076444Y118762D01*
X1076451Y118769D01*
X1076546Y118901D01*
X1076645Y119035D01*
X1076649Y119044D01*
X1076654Y119051D01*
X1076718Y119203D01*
X1076783Y119355D01*
X1076785Y119364D01*
X1076788Y119373D01*
X1076816Y119536D01*
X1076845Y119698D01*
X1076844Y119707D01*
X1076846Y119717D01*
X1076835Y119882D01*
X1076827Y120046D01*
X1076824Y120055D01*
X1076823Y120065D01*
X1076776Y120223D01*
X1076730Y120381D01*
X1076725Y120389D01*
X1076723Y120398D01*
X1076640Y120541D01*
X1076560Y120685D01*
X1076553Y120694D01*
X1076549Y120700D01*
X1076528Y120722D01*
X1076402Y120871D01*
X1045493Y151779D01*
X1045394Y151858D01*
X1045301Y151942D01*
X1045258Y151966D01*
X1045220Y151996D01*
X1045106Y152050D01*
X1044996Y152111D01*
X1044949Y152124D01*
X1044905Y152145D01*
X1044782Y152171D01*
X1044660Y152206D01*
X1044599Y152211D01*
X1044565Y152218D01*
X1044517Y152217D01*
X1044416Y152225D01*
X1040102Y152225D01*
X1037704Y153219D01*
X1035869Y155054D01*
X1034875Y157452D01*
X1034875Y222838D01*
X1034872Y222864D01*
X1034874Y222890D01*
X1034852Y223037D01*
X1034835Y223184D01*
X1034827Y223209D01*
X1034823Y223235D01*
X1034768Y223373D01*
X1034718Y223512D01*
X1034704Y223534D01*
X1034694Y223559D01*
X1034609Y223680D01*
X1034529Y223805D01*
X1034510Y223823D01*
X1034495Y223845D01*
X1034385Y223944D01*
X1034278Y224047D01*
X1034256Y224061D01*
X1034236Y224078D01*
X1034106Y224150D01*
X1033979Y224226D01*
X1033954Y224234D01*
X1033931Y224247D01*
X1033788Y224287D01*
X1033647Y224332D01*
X1033621Y224334D01*
X1033596Y224342D01*
X1033352Y224361D01*
X1032783Y224361D01*
X1025985Y231159D01*
X1025985Y240773D01*
X1032783Y247571D01*
X1042397Y247571D01*
X1049195Y240773D01*
X1049195Y231159D01*
X1048371Y230335D01*
X1048292Y230236D01*
X1048208Y230142D01*
X1048184Y230100D01*
X1048154Y230062D01*
X1048100Y229948D01*
X1048039Y229837D01*
X1048026Y229791D01*
X1048005Y229747D01*
X1047979Y229624D01*
X1047944Y229502D01*
X1047939Y229441D01*
X1047932Y229406D01*
X1047933Y229358D01*
X1047925Y229258D01*
X1047925Y166758D01*
X1047933Y166682D01*
X1047932Y166605D01*
X1047953Y166509D01*
X1047965Y166412D01*
X1047990Y166340D01*
X1048007Y166265D01*
X1048049Y166176D01*
X1048082Y166083D01*
X1048124Y166019D01*
X1048156Y165950D01*
X1048218Y165873D01*
X1048271Y165791D01*
X1048326Y165737D01*
X1048374Y165678D01*
X1048451Y165617D01*
X1048522Y165548D01*
X1048587Y165509D01*
X1048647Y165462D01*
X1048780Y165394D01*
X1048821Y165370D01*
X1048839Y165364D01*
X1048865Y165350D01*
X1051446Y164281D01*
X1097731Y117996D01*
X1098725Y115598D01*
X1098725Y87602D01*
X1097731Y85204D01*
X1095896Y83369D01*
X1093498Y82375D01*
X1065502Y82375D01*
X1063104Y83369D01*
X1050632Y95840D01*
X1050573Y95888D01*
X1050519Y95943D01*
X1050436Y95996D01*
X1050359Y96057D01*
X1050290Y96090D01*
X1050226Y96131D01*
X1050133Y96164D01*
X1050044Y96206D01*
X1049970Y96222D01*
X1049898Y96247D01*
X1049800Y96258D01*
X1049704Y96279D01*
X1049627Y96278D01*
X1049551Y96286D01*
X1049453Y96275D01*
X1049355Y96273D01*
X1049281Y96255D01*
X1049205Y96246D01*
X1049063Y96200D01*
X1049017Y96188D01*
X1049000Y96179D01*
X1048975Y96171D01*
X1043986Y96171D01*
X1039376Y98081D01*
X1035849Y101608D01*
X1035187Y103205D01*
X1035138Y103292D01*
X1035098Y103384D01*
X1035054Y103444D01*
X1035018Y103509D01*
X1034951Y103583D01*
X1034891Y103664D01*
X1034834Y103712D01*
X1034784Y103767D01*
X1034701Y103824D01*
X1034625Y103889D01*
X1034558Y103923D01*
X1034497Y103965D01*
X1034404Y104002D01*
X1034314Y104048D01*
X1034242Y104066D01*
X1034173Y104093D01*
X1034074Y104108D01*
X1033976Y104132D01*
X1033902Y104133D01*
X1033828Y104144D01*
X1033728Y104136D01*
X1033628Y104137D01*
X1033555Y104121D01*
X1033481Y104115D01*
X1033385Y104084D01*
X1033287Y104063D01*
X1033220Y104031D01*
X1033149Y104008D01*
X1033063Y103956D01*
X1032972Y103913D01*
X1032914Y103867D01*
X1032851Y103828D01*
X1032779Y103758D01*
X1032700Y103696D01*
X1032654Y103637D01*
X1032601Y103586D01*
X1032546Y103501D01*
X1032484Y103422D01*
X1032438Y103333D01*
X1032412Y103292D01*
X1032400Y103259D01*
X1032373Y103205D01*
X1031711Y101608D01*
X1028051Y97948D01*
X1027972Y97849D01*
X1027888Y97755D01*
X1027864Y97712D01*
X1027834Y97675D01*
X1027780Y97560D01*
X1027719Y97450D01*
X1027706Y97403D01*
X1027685Y97360D01*
X1027659Y97236D01*
X1027624Y97114D01*
X1027619Y97054D01*
X1027612Y97019D01*
X1027613Y96971D01*
X1027605Y96871D01*
X1027605Y92682D01*
X1026611Y90284D01*
X1015497Y79169D01*
X1015418Y79070D01*
X1015334Y78977D01*
X1015310Y78934D01*
X1015280Y78896D01*
X1015226Y78782D01*
X1015165Y78672D01*
X1015152Y78625D01*
X1015131Y78581D01*
X1015105Y78458D01*
X1015070Y78336D01*
X1015065Y78275D01*
X1015058Y78241D01*
X1015059Y78193D01*
X1015051Y78092D01*
X1015051Y68455D01*
X1014289Y66617D01*
X1012883Y65211D01*
X1011045Y64449D01*
X995555Y64449D01*
G37*
%LPD*%
%LPC*%
G36*
X152970Y121999D02*
X152970Y121999D01*
X145238Y124071D01*
X138305Y128073D01*
X132645Y133733D01*
X128643Y140666D01*
X126571Y148398D01*
X126571Y156402D01*
X128643Y164134D01*
X132645Y171067D01*
X138305Y176727D01*
X145238Y180729D01*
X152970Y182801D01*
X160974Y182801D01*
X168706Y180729D01*
X175639Y176727D01*
X181299Y171067D01*
X185301Y164134D01*
X187373Y156402D01*
X187373Y148398D01*
X185301Y140666D01*
X181299Y133733D01*
X175639Y128073D01*
X168706Y124071D01*
X160974Y121999D01*
X152970Y121999D01*
G37*
%LPD*%
%LPC*%
G36*
X280882Y243077D02*
X280882Y243077D01*
X274422Y244808D01*
X268629Y248152D01*
X263900Y252881D01*
X260556Y258674D01*
X258825Y265134D01*
X258825Y271822D01*
X260556Y278282D01*
X263900Y284075D01*
X268629Y288804D01*
X274422Y292148D01*
X280882Y293879D01*
X287570Y293879D01*
X294030Y292148D01*
X299823Y288804D01*
X304552Y284075D01*
X307896Y278282D01*
X309627Y271822D01*
X309627Y265134D01*
X307896Y258674D01*
X304552Y252881D01*
X299823Y248152D01*
X294030Y244808D01*
X287570Y243077D01*
X280882Y243077D01*
G37*
%LPD*%
%LPC*%
G36*
X1154977Y387683D02*
X1154977Y387683D01*
X1147071Y390958D01*
X1141020Y397009D01*
X1137745Y404915D01*
X1137745Y413473D01*
X1141020Y421379D01*
X1147071Y427430D01*
X1154977Y430705D01*
X1163535Y430705D01*
X1171441Y427430D01*
X1177492Y421379D01*
X1180767Y413473D01*
X1180767Y404915D01*
X1177492Y397009D01*
X1171441Y390958D01*
X1163535Y387683D01*
X1154977Y387683D01*
G37*
%LPD*%
%LPC*%
G36*
X93103Y889333D02*
X93103Y889333D01*
X85850Y892337D01*
X80299Y897888D01*
X77295Y905141D01*
X77295Y912991D01*
X80299Y920244D01*
X85850Y925795D01*
X93103Y928799D01*
X100953Y928799D01*
X108206Y925795D01*
X113757Y920244D01*
X116761Y912991D01*
X116761Y905141D01*
X113757Y897888D01*
X108206Y892337D01*
X100953Y889333D01*
X93103Y889333D01*
G37*
%LPD*%
%LPC*%
G36*
X1172095Y888063D02*
X1172095Y888063D01*
X1164842Y891067D01*
X1159291Y896618D01*
X1156287Y903871D01*
X1156287Y911721D01*
X1159291Y918974D01*
X1164842Y924525D01*
X1172095Y927529D01*
X1179945Y927529D01*
X1187198Y924525D01*
X1192749Y918974D01*
X1195753Y911721D01*
X1195753Y903871D01*
X1192749Y896618D01*
X1187198Y891067D01*
X1179945Y888063D01*
X1172095Y888063D01*
G37*
%LPD*%
%LPC*%
G36*
X31381Y22685D02*
X31381Y22685D01*
X24128Y25689D01*
X18577Y31240D01*
X15573Y38493D01*
X15573Y46343D01*
X18577Y53596D01*
X24128Y59147D01*
X31381Y62151D01*
X39231Y62151D01*
X46484Y59147D01*
X52035Y53596D01*
X55039Y46343D01*
X55039Y38493D01*
X52035Y31240D01*
X46484Y25689D01*
X39231Y22685D01*
X31381Y22685D01*
G37*
%LPD*%
%LPC*%
G36*
X1164475Y27511D02*
X1164475Y27511D01*
X1157222Y30515D01*
X1151671Y36066D01*
X1148667Y43319D01*
X1148667Y51169D01*
X1151671Y58422D01*
X1157222Y63973D01*
X1164475Y66977D01*
X1172325Y66977D01*
X1179578Y63973D01*
X1185129Y58422D01*
X1188133Y51169D01*
X1188133Y43319D01*
X1185129Y36066D01*
X1179578Y30515D01*
X1172325Y27511D01*
X1164475Y27511D01*
G37*
%LPD*%
%LPC*%
G36*
X25936Y892667D02*
X25936Y892667D01*
X19044Y895522D01*
X13770Y900796D01*
X10915Y907688D01*
X10915Y915148D01*
X13770Y922040D01*
X19044Y927314D01*
X25936Y930169D01*
X33396Y930169D01*
X40288Y927314D01*
X45562Y922040D01*
X48417Y915148D01*
X48417Y907688D01*
X45562Y900796D01*
X40288Y895522D01*
X33396Y892667D01*
X25936Y892667D01*
G37*
%LPD*%
%LPC*%
G36*
X25936Y312667D02*
X25936Y312667D01*
X19044Y315522D01*
X13770Y320796D01*
X10915Y327688D01*
X10915Y335148D01*
X13770Y342040D01*
X19044Y347314D01*
X25936Y350169D01*
X33396Y350169D01*
X40288Y347314D01*
X45562Y342040D01*
X48417Y335148D01*
X48417Y327688D01*
X45562Y320796D01*
X40288Y315522D01*
X33396Y312667D01*
X25936Y312667D01*
G37*
%LPD*%
%LPC*%
G36*
X1115079Y323929D02*
X1115079Y323929D01*
X1108281Y330727D01*
X1108281Y340341D01*
X1112151Y344211D01*
X1112245Y344329D01*
X1112342Y344443D01*
X1112353Y344465D01*
X1112368Y344484D01*
X1112432Y344620D01*
X1112501Y344753D01*
X1112506Y344777D01*
X1112517Y344799D01*
X1112548Y344946D01*
X1112585Y345092D01*
X1112585Y345116D01*
X1112590Y345139D01*
X1112587Y345289D01*
X1112590Y345440D01*
X1112584Y345464D01*
X1112584Y345488D01*
X1112547Y345634D01*
X1112515Y345781D01*
X1112505Y345802D01*
X1112499Y345826D01*
X1112430Y345960D01*
X1112366Y346095D01*
X1112351Y346114D01*
X1112339Y346136D01*
X1112242Y346251D01*
X1112148Y346368D01*
X1112129Y346383D01*
X1112114Y346401D01*
X1111993Y346491D01*
X1111875Y346584D01*
X1111849Y346597D01*
X1111833Y346608D01*
X1111790Y346627D01*
X1111657Y346695D01*
X1110557Y347151D01*
X1109151Y348557D01*
X1108389Y350395D01*
X1108389Y365885D01*
X1109151Y367723D01*
X1110557Y369129D01*
X1112395Y369891D01*
X1127885Y369891D01*
X1129723Y369129D01*
X1131129Y367723D01*
X1131891Y365885D01*
X1131891Y350395D01*
X1131129Y348557D01*
X1129723Y347151D01*
X1128264Y346546D01*
X1128133Y346473D01*
X1127999Y346404D01*
X1127980Y346389D01*
X1127959Y346377D01*
X1127848Y346276D01*
X1127733Y346179D01*
X1127719Y346159D01*
X1127701Y346143D01*
X1127616Y346019D01*
X1127526Y345898D01*
X1127517Y345876D01*
X1127503Y345856D01*
X1127448Y345716D01*
X1127388Y345578D01*
X1127384Y345555D01*
X1127375Y345532D01*
X1127353Y345383D01*
X1127327Y345235D01*
X1127328Y345211D01*
X1127324Y345187D01*
X1127337Y345037D01*
X1127344Y344887D01*
X1127351Y344864D01*
X1127353Y344840D01*
X1127399Y344697D01*
X1127441Y344552D01*
X1127453Y344531D01*
X1127460Y344508D01*
X1127538Y344380D01*
X1127611Y344248D01*
X1127630Y344226D01*
X1127640Y344210D01*
X1127673Y344176D01*
X1127770Y344062D01*
X1131491Y340341D01*
X1131491Y330727D01*
X1124693Y323929D01*
X1115079Y323929D01*
G37*
%LPD*%
%LPC*%
G36*
X1140713Y828293D02*
X1140713Y828293D01*
X1140713Y845341D01*
X1141639Y845219D01*
X1144212Y844530D01*
X1146673Y843510D01*
X1148980Y842178D01*
X1151093Y840557D01*
X1152977Y838673D01*
X1154598Y836560D01*
X1155930Y834253D01*
X1156950Y831792D01*
X1157639Y829219D01*
X1157761Y828293D01*
X1140713Y828293D01*
G37*
%LPD*%
%LPC*%
G36*
X1140713Y822199D02*
X1140713Y822199D01*
X1157761Y822199D01*
X1157639Y821273D01*
X1156950Y818700D01*
X1155930Y816239D01*
X1154598Y813932D01*
X1152977Y811819D01*
X1151093Y809935D01*
X1148980Y808314D01*
X1146673Y806982D01*
X1144212Y805962D01*
X1141639Y805273D01*
X1140713Y805151D01*
X1140713Y822199D01*
G37*
%LPD*%
%LPC*%
G36*
X1117571Y828293D02*
X1117571Y828293D01*
X1117693Y829219D01*
X1118382Y831792D01*
X1119402Y834253D01*
X1120734Y836560D01*
X1122355Y838673D01*
X1124239Y840557D01*
X1126352Y842178D01*
X1128659Y843510D01*
X1131120Y844530D01*
X1133693Y845219D01*
X1134619Y845341D01*
X1134619Y828293D01*
X1117571Y828293D01*
G37*
%LPD*%
%LPC*%
G36*
X1133693Y805273D02*
X1133693Y805273D01*
X1131120Y805962D01*
X1128659Y806982D01*
X1126352Y808314D01*
X1124239Y809935D01*
X1122355Y811819D01*
X1120734Y813932D01*
X1119402Y816239D01*
X1118382Y818700D01*
X1117693Y821273D01*
X1117571Y822199D01*
X1134619Y822199D01*
X1134619Y805151D01*
X1133693Y805273D01*
G37*
%LPD*%
%LPC*%
G36*
X882395Y894333D02*
X882395Y894333D01*
X882395Y903479D01*
X882652Y903439D01*
X884439Y902858D01*
X886113Y902005D01*
X887634Y900900D01*
X888962Y899572D01*
X890067Y898051D01*
X890920Y896377D01*
X891107Y895801D01*
X891126Y895759D01*
X891138Y895715D01*
X891199Y895601D01*
X891252Y895484D01*
X891280Y895448D01*
X891301Y895407D01*
X891386Y895310D01*
X891465Y895208D01*
X891501Y895179D01*
X891531Y895145D01*
X891635Y895070D01*
X891736Y894988D01*
X891777Y894968D01*
X891814Y894941D01*
X891933Y894892D01*
X892049Y894835D01*
X892093Y894825D01*
X892135Y894807D01*
X892263Y894786D01*
X892389Y894757D01*
X892434Y894757D01*
X892479Y894750D01*
X892608Y894758D01*
X892737Y894759D01*
X892781Y894769D01*
X892827Y894772D01*
X892950Y894810D01*
X893076Y894840D01*
X893117Y894860D01*
X893160Y894873D01*
X893272Y894937D01*
X893388Y894995D01*
X893423Y895024D01*
X893462Y895047D01*
X893557Y895135D01*
X893656Y895218D01*
X893684Y895254D01*
X893717Y895285D01*
X893789Y895393D01*
X893867Y895495D01*
X893885Y895537D01*
X893911Y895575D01*
X894005Y895801D01*
X894192Y896377D01*
X895045Y898051D01*
X896150Y899572D01*
X897478Y900900D01*
X898999Y902005D01*
X900673Y902858D01*
X902460Y903439D01*
X902717Y903479D01*
X902717Y894333D01*
X882395Y894333D01*
G37*
%LPD*%
%LPC*%
G36*
X1010665Y707391D02*
X1010665Y707391D01*
X1018287Y707391D01*
X1018287Y701510D01*
X1018037Y699931D01*
X1017542Y698410D01*
X1016816Y696985D01*
X1015876Y695691D01*
X1014745Y694560D01*
X1013451Y693620D01*
X1012026Y692894D01*
X1010665Y692451D01*
X1010665Y707391D01*
G37*
%LPD*%
%LPC*%
G36*
X642024Y661415D02*
X642024Y661415D01*
X642024Y669037D01*
X656963Y669037D01*
X656521Y667676D01*
X655795Y666251D01*
X654855Y664957D01*
X653724Y663826D01*
X652430Y662886D01*
X651005Y662160D01*
X649484Y661665D01*
X647904Y661415D01*
X642024Y661415D01*
G37*
%LPD*%
%LPC*%
G36*
X631065Y661415D02*
X631065Y661415D01*
X629485Y661665D01*
X627964Y662160D01*
X626539Y662886D01*
X625245Y663826D01*
X624114Y664957D01*
X623174Y666251D01*
X622448Y667676D01*
X622006Y669037D01*
X636945Y669037D01*
X636945Y661415D01*
X631065Y661415D01*
G37*
%LPD*%
%LPC*%
G36*
X1074379Y106213D02*
X1074379Y106213D01*
X1081667Y106213D01*
X1081222Y104842D01*
X1080502Y103429D01*
X1079569Y102145D01*
X1078447Y101023D01*
X1077163Y100090D01*
X1075750Y99370D01*
X1074379Y98925D01*
X1074379Y106213D01*
G37*
%LPD*%
%LPC*%
G36*
X789177Y338581D02*
X789177Y338581D01*
X789177Y345695D01*
X790934Y345695D01*
X796291Y340338D01*
X796291Y338581D01*
X789177Y338581D01*
G37*
%LPD*%
%LPC*%
G36*
X1121917Y235965D02*
X1121917Y235965D01*
X1121917Y243079D01*
X1123674Y243079D01*
X1129031Y237722D01*
X1129031Y235965D01*
X1121917Y235965D01*
G37*
%LPD*%
%LPC*%
G36*
X963929Y235203D02*
X963929Y235203D01*
X963929Y242317D01*
X965686Y242317D01*
X971043Y236960D01*
X971043Y235203D01*
X963929Y235203D01*
G37*
%LPD*%
%LPC*%
G36*
X877823Y233171D02*
X877823Y233171D01*
X877823Y240285D01*
X879580Y240285D01*
X884937Y234928D01*
X884937Y233171D01*
X877823Y233171D01*
G37*
%LPD*%
%LPC*%
G36*
X564641Y181101D02*
X564641Y181101D01*
X564641Y188215D01*
X566398Y188215D01*
X571755Y182858D01*
X571755Y181101D01*
X564641Y181101D01*
G37*
%LPD*%
%LPC*%
G36*
X1121917Y231903D02*
X1121917Y231903D01*
X1129031Y231903D01*
X1129031Y230146D01*
X1123674Y224789D01*
X1121917Y224789D01*
X1121917Y231903D01*
G37*
%LPD*%
%LPC*%
G36*
X564133Y242571D02*
X564133Y242571D01*
X571247Y242571D01*
X571247Y240814D01*
X565890Y235457D01*
X564133Y235457D01*
X564133Y242571D01*
G37*
%LPD*%
%LPC*%
G36*
X789177Y334519D02*
X789177Y334519D01*
X796291Y334519D01*
X796291Y332762D01*
X790934Y327405D01*
X789177Y327405D01*
X789177Y334519D01*
G37*
%LPD*%
%LPC*%
G36*
X877823Y229109D02*
X877823Y229109D01*
X884937Y229109D01*
X884937Y227352D01*
X879580Y221995D01*
X877823Y221995D01*
X877823Y229109D01*
G37*
%LPD*%
%LPC*%
G36*
X564641Y177039D02*
X564641Y177039D01*
X571755Y177039D01*
X571755Y175282D01*
X566398Y169925D01*
X564641Y169925D01*
X564641Y177039D01*
G37*
%LPD*%
%LPC*%
G36*
X963929Y231141D02*
X963929Y231141D01*
X971043Y231141D01*
X971043Y229384D01*
X965686Y224027D01*
X963929Y224027D01*
X963929Y231141D01*
G37*
%LPD*%
%LPC*%
G36*
X778001Y338581D02*
X778001Y338581D01*
X778001Y340338D01*
X783358Y345695D01*
X785115Y345695D01*
X785115Y338581D01*
X778001Y338581D01*
G37*
%LPD*%
%LPC*%
G36*
X952753Y235203D02*
X952753Y235203D01*
X952753Y236960D01*
X958110Y242317D01*
X959867Y242317D01*
X959867Y235203D01*
X952753Y235203D01*
G37*
%LPD*%
%LPC*%
G36*
X866647Y233171D02*
X866647Y233171D01*
X866647Y234928D01*
X872004Y240285D01*
X873761Y240285D01*
X873761Y233171D01*
X866647Y233171D01*
G37*
%LPD*%
%LPC*%
G36*
X553465Y181101D02*
X553465Y181101D01*
X553465Y182858D01*
X558822Y188215D01*
X560579Y188215D01*
X560579Y181101D01*
X553465Y181101D01*
G37*
%LPD*%
%LPC*%
G36*
X1110741Y235965D02*
X1110741Y235965D01*
X1110741Y237722D01*
X1116098Y243079D01*
X1117855Y243079D01*
X1117855Y235965D01*
X1110741Y235965D01*
G37*
%LPD*%
%LPC*%
G36*
X558314Y235457D02*
X558314Y235457D01*
X552957Y240814D01*
X552957Y242571D01*
X560071Y242571D01*
X560071Y235457D01*
X558314Y235457D01*
G37*
%LPD*%
%LPC*%
G36*
X1116098Y224789D02*
X1116098Y224789D01*
X1110741Y230146D01*
X1110741Y231903D01*
X1117855Y231903D01*
X1117855Y224789D01*
X1116098Y224789D01*
G37*
%LPD*%
%LPC*%
G36*
X958110Y224027D02*
X958110Y224027D01*
X952753Y229384D01*
X952753Y231141D01*
X959867Y231141D01*
X959867Y224027D01*
X958110Y224027D01*
G37*
%LPD*%
%LPC*%
G36*
X872004Y221995D02*
X872004Y221995D01*
X866647Y227352D01*
X866647Y229109D01*
X873761Y229109D01*
X873761Y221995D01*
X872004Y221995D01*
G37*
%LPD*%
%LPC*%
G36*
X558822Y169925D02*
X558822Y169925D01*
X553465Y175282D01*
X553465Y177039D01*
X560579Y177039D01*
X560579Y169925D01*
X558822Y169925D01*
G37*
%LPD*%
%LPC*%
G36*
X783358Y327405D02*
X783358Y327405D01*
X778001Y332762D01*
X778001Y334519D01*
X785115Y334519D01*
X785115Y327405D01*
X783358Y327405D01*
G37*
%LPD*%
%LPC*%
G36*
X1137665Y825245D02*
X1137665Y825245D01*
X1137665Y825247D01*
X1137667Y825247D01*
X1137667Y825245D01*
X1137665Y825245D01*
G37*
%LPD*%
D10*
X562102Y270002D03*
X562102Y244602D03*
D11*
X562610Y153670D03*
X562610Y179070D03*
D12*
X258826Y127000D02*
X258826Y110236D01*
X284226Y110236D02*
X284226Y127000D01*
X309626Y127000D02*
X309626Y110236D01*
D13*
X631865Y671576D02*
X647105Y671576D01*
X647105Y696976D02*
X631865Y696976D01*
D14*
X1086866Y825246D03*
X1137666Y825246D03*
D15*
X877824Y133350D03*
X903224Y133350D03*
X774446Y134366D03*
X799846Y134366D03*
D16*
X506966Y380118D03*
D17*
X532366Y380118D03*
X506966Y405518D03*
X532366Y405518D03*
X506966Y430918D03*
X532366Y430918D03*
X506966Y456318D03*
X532366Y456318D03*
X506966Y481718D03*
X532366Y481718D03*
X506966Y507118D03*
X532366Y507118D03*
X506966Y532518D03*
X532366Y532518D03*
X506966Y557918D03*
X532366Y557918D03*
X506966Y583318D03*
X532366Y583318D03*
X506966Y608718D03*
X532366Y608718D03*
X506966Y634118D03*
X532366Y634118D03*
X506966Y659518D03*
X532366Y659518D03*
X506966Y684918D03*
X532366Y684918D03*
X506966Y710318D03*
X532366Y710318D03*
X506966Y735718D03*
X532366Y735718D03*
X506966Y761118D03*
X532366Y761118D03*
X506966Y786518D03*
X532366Y786518D03*
X506966Y811918D03*
X532366Y811918D03*
X506966Y837318D03*
X532366Y837318D03*
X506966Y862718D03*
X532366Y862718D03*
D10*
X1037590Y337566D03*
X1037590Y235966D03*
X698246Y335026D03*
X698246Y233426D03*
X961898Y334772D03*
X961898Y233172D03*
X875792Y332740D03*
X875792Y231140D03*
X787146Y336550D03*
X787146Y234950D03*
D13*
X779526Y575310D02*
X779526Y590550D01*
X804926Y590550D02*
X804926Y575310D01*
X830326Y575310D02*
X830326Y590550D01*
X855726Y590550D02*
X855726Y575310D01*
X881126Y575310D02*
X881126Y590550D01*
X906526Y590550D02*
X906526Y575310D01*
X931926Y575310D02*
X931926Y590550D01*
X957326Y590550D02*
X957326Y575310D01*
X982726Y575310D02*
X982726Y590550D01*
X1008126Y590550D02*
X1008126Y575310D01*
X1008126Y702310D02*
X1008126Y717550D01*
X982726Y717550D02*
X982726Y702310D01*
X957326Y702310D02*
X957326Y717550D01*
X931926Y717550D02*
X931926Y702310D01*
X906526Y702310D02*
X906526Y717550D01*
X881126Y717550D02*
X881126Y702310D01*
X855726Y702310D02*
X855726Y717550D01*
X830326Y717550D02*
X830326Y702310D01*
X804926Y702310D02*
X804926Y717550D01*
X779526Y717550D02*
X779526Y702310D01*
D18*
X995680Y108712D03*
D19*
X1021080Y108712D03*
X1046480Y108712D03*
X1071880Y108712D03*
D18*
X619760Y107696D03*
D19*
X645160Y107696D03*
X670560Y107696D03*
X695960Y107696D03*
D20*
X981456Y891794D03*
X956056Y891794D03*
X930656Y891794D03*
X905256Y891794D03*
X879856Y891794D03*
X854456Y891794D03*
X803656Y891794D03*
X778256Y891794D03*
X752856Y891794D03*
X727456Y891794D03*
X702056Y891794D03*
X676656Y891794D03*
X676656Y409194D03*
X702056Y409194D03*
X727456Y409194D03*
X752856Y409194D03*
X778256Y409194D03*
X803656Y409194D03*
X829056Y409194D03*
X854456Y409194D03*
X892556Y409194D03*
X917956Y409194D03*
X943356Y409194D03*
X968756Y409194D03*
X994156Y409194D03*
X1019556Y409194D03*
X1044956Y409194D03*
X1070356Y409194D03*
D21*
X156972Y152400D03*
X410972Y152400D03*
D15*
X609600Y321564D03*
X635000Y321564D03*
D11*
X1119886Y233934D03*
X1119886Y335534D03*
D22*
X624205Y829945D02*
X622300Y831850D01*
X876300Y133350D02*
X863600Y120650D01*
X787400Y120650D01*
X774700Y133350D01*
X876300Y133350D02*
X877824Y133350D01*
X774700Y133350D02*
X774446Y134366D01*
X571500Y260350D02*
X565150Y266700D01*
X571500Y260350D02*
X704850Y260350D01*
X774700Y190500D01*
X774700Y139700D01*
X565150Y266700D02*
X562102Y270002D01*
X774700Y139700D02*
X774446Y134366D01*
X562102Y270002D02*
X520700Y228600D01*
D23*
X1086866Y825246D02*
X1070022Y842090D01*
X1070022Y842165D01*
X994565Y917622D01*
X656435Y917622D02*
X650828Y912015D01*
X650828Y911178D01*
X622300Y882650D01*
X656435Y917622D02*
X994565Y917622D01*
X622300Y882650D02*
X622300Y831850D01*
X624205Y829945D02*
X635000Y819150D01*
X635000Y701461D02*
X639485Y696976D01*
X635000Y701461D02*
X635000Y819150D01*
X622300Y882650D02*
X502920Y882650D01*
X450850Y830580D01*
X450850Y228600D01*
X258826Y228600D01*
X258826Y118618D01*
X508508Y228600D02*
X520700Y228600D01*
X508508Y228600D02*
X450850Y228600D01*
D24*
X508508Y228600D03*
D22*
X565150Y241300D02*
X565150Y184150D01*
X562610Y179070D01*
X565150Y241300D02*
X562102Y244602D01*
X698500Y107950D02*
X717550Y127000D01*
X717550Y234950D01*
X704850Y247650D01*
X565150Y247650D01*
X695960Y107696D02*
X698500Y107950D01*
X562102Y244602D02*
X565150Y247650D01*
X284226Y177800D02*
X284226Y118618D01*
X920750Y228600D02*
X958850Y228600D01*
X920750Y228600D02*
X876300Y228600D01*
X875792Y231140D01*
X958850Y228600D02*
X961898Y233172D01*
X800100Y349250D02*
X787400Y336550D01*
X920750Y349250D02*
X984250Y349250D01*
X920750Y349250D02*
X800100Y349250D01*
X984250Y349250D02*
X1041400Y406400D01*
X787400Y336550D02*
X787146Y336550D01*
X1041400Y406400D02*
X1044956Y409194D01*
X1009650Y635000D02*
X1009650Y704850D01*
X1009650Y635000D02*
X1047750Y596900D01*
X1047750Y412750D01*
X1009650Y704850D02*
X1008126Y709930D01*
X1047750Y412750D02*
X1044956Y409194D01*
X920750Y349250D02*
X920750Y228600D01*
X736600Y107950D02*
X717550Y127000D01*
X736600Y107950D02*
X901700Y107950D01*
X920750Y127000D01*
X920750Y228600D01*
X635000Y666750D02*
X639485Y671576D01*
X533400Y431800D02*
X532366Y430918D01*
X882650Y895350D02*
X901700Y895350D01*
X882650Y895350D02*
X879856Y891794D01*
X901700Y895350D02*
X905256Y891794D01*
X1022350Y165100D02*
X1073150Y114300D01*
X1022350Y254000D02*
X1022350Y311150D01*
X1022350Y254000D02*
X1022350Y165100D01*
X1022350Y311150D02*
X1047750Y311150D01*
X1130300Y393700D01*
X1130300Y800100D02*
X1130300Y819150D01*
X1130300Y800100D02*
X1130300Y393700D01*
X1130300Y819150D02*
X1136650Y819150D01*
X1073150Y114300D02*
X1071880Y108712D01*
X1136650Y819150D02*
X1137666Y825246D01*
X920750Y908050D02*
X908050Y895350D01*
X920750Y908050D02*
X990600Y908050D01*
X1060450Y838200D01*
X1060450Y800100D01*
X1130300Y800100D01*
X908050Y895350D02*
X905256Y891794D01*
X647700Y679450D02*
X641350Y673100D01*
X647700Y679450D02*
X654050Y679450D01*
X679450Y704850D01*
X679450Y869950D01*
X673100Y869950D01*
X660400Y882650D01*
X660400Y908050D01*
X920750Y908050D01*
X641350Y673100D02*
X639485Y671576D01*
X284226Y118618D02*
X284734Y118110D01*
X284734Y50800D01*
X1066800Y50800D01*
X1104900Y88900D01*
X1104900Y205740D02*
X1104900Y254000D01*
X1104900Y205740D02*
X1104900Y88900D01*
X1104900Y254000D02*
X1022350Y254000D01*
X1119886Y233934D02*
X1119886Y220726D01*
X1104900Y205740D01*
X635000Y533400D02*
X635000Y666750D01*
X635000Y533400D02*
X533400Y431800D01*
X584200Y785484D02*
X532366Y837318D01*
X584200Y785484D02*
X584200Y774700D01*
D25*
X584200Y774700D03*
X812800Y622300D03*
D22*
X889000Y622300D01*
X906526Y604774D02*
X906526Y582930D01*
X906526Y604774D02*
X889000Y622300D01*
X546982Y862718D02*
X532366Y862718D01*
X546982Y862718D02*
X584200Y825500D01*
D25*
X584200Y825500D03*
X901700Y635000D03*
D22*
X927100Y635000D01*
X931926Y630174D01*
X931926Y582930D01*
X506966Y735718D02*
X470782Y735718D01*
X469900Y736600D01*
D25*
X469900Y736600D03*
X850900Y546100D03*
D22*
X830326Y566674D01*
X830326Y582930D01*
X506966Y761118D02*
X470782Y761118D01*
X469900Y762000D01*
D25*
X469900Y762000D03*
X927100Y660400D03*
D22*
X957326Y630174D01*
X957326Y582930D01*
X559682Y761118D02*
X532366Y761118D01*
X559682Y761118D02*
X584200Y736600D01*
D25*
X584200Y736600D03*
X774700Y482600D03*
D22*
X803656Y453644D01*
X803656Y409194D01*
X506966Y786518D02*
X483482Y786518D01*
X482600Y787400D01*
D25*
X482600Y787400D03*
X825500Y381000D03*
D22*
X825500Y405638D01*
X829056Y409194D01*
X876300Y520700D02*
X952500Y520700D01*
X876300Y520700D02*
X870966Y520700D01*
X834136Y364236D02*
X685800Y364236D01*
X834136Y364236D02*
X876300Y406400D01*
X876300Y520700D01*
D23*
X619684Y365318D02*
X599516Y365318D01*
X619684Y365318D02*
X620766Y364236D01*
X685800Y364236D01*
X523904Y363180D02*
X506966Y380118D01*
X523904Y363180D02*
X597378Y363180D01*
X599516Y365318D01*
X871902Y401968D02*
X871902Y403192D01*
X875110Y406400D01*
X687766Y366202D02*
X685800Y364236D01*
X687766Y366202D02*
X836136Y366202D01*
X871902Y401968D01*
X875110Y406400D02*
X875110Y516556D01*
X870966Y520700D01*
X952500Y520700D01*
X1008126Y576326D02*
X1008126Y582930D01*
X1008126Y576326D02*
X952500Y520700D01*
X870966Y520700D02*
X869823Y521843D01*
X836235Y521843D02*
X779526Y578552D01*
X779526Y582930D01*
X836235Y521843D02*
X869823Y521843D01*
D22*
X965200Y336550D02*
X1035050Y336550D01*
X965200Y336550D02*
X961898Y334772D01*
X1035050Y336550D02*
X1037590Y337566D01*
X584200Y520700D02*
X584200Y531484D01*
X939800Y312674D02*
X939800Y292100D01*
X939800Y312674D02*
X961898Y334772D01*
D25*
X584200Y520700D03*
X939800Y292100D03*
D22*
X584200Y531484D02*
X532366Y583318D01*
X532366Y557918D02*
X558800Y531484D01*
X558800Y482600D01*
X1003300Y76200D02*
X1021080Y93980D01*
X1021080Y108712D01*
D25*
X558800Y482600D03*
X1003300Y76200D03*
D22*
X857250Y317500D02*
X869950Y330200D01*
X857250Y317500D02*
X711200Y317500D01*
X698500Y330200D01*
X869950Y330200D02*
X875792Y332740D01*
X698500Y330200D02*
X698246Y335026D01*
X501650Y552450D02*
X463550Y514350D01*
X463550Y304800D01*
X660400Y304800D01*
X692150Y336550D01*
X501650Y552450D02*
X506966Y557918D01*
X692150Y336550D02*
X698246Y335026D01*
X506966Y532366D02*
X506966Y532518D01*
X506966Y532366D02*
X482600Y508000D01*
X622300Y152400D02*
X645160Y129540D01*
X645160Y107696D01*
D25*
X482600Y508000D03*
X622300Y152400D03*
D22*
X781050Y869950D02*
X781050Y889000D01*
X781050Y869950D02*
X781050Y736600D01*
X781050Y711200D01*
X779526Y709930D01*
X781050Y889000D02*
X778256Y891794D01*
X736600Y584200D02*
X706628Y554228D01*
X736600Y584708D02*
X736600Y701294D01*
X736600Y584708D02*
X736600Y584200D01*
X781050Y869950D02*
X908050Y869950D01*
X996950Y323850D02*
X998220Y323850D01*
D23*
X597789Y118491D02*
X562610Y153670D01*
X597789Y118491D02*
X608330Y107950D01*
X975868Y88900D02*
X995680Y108712D01*
X975868Y88900D02*
X638556Y88900D01*
X995680Y108712D02*
X995680Y322580D01*
X996950Y323850D01*
X998220Y323850D02*
X1030585Y323850D01*
X1031521Y322914D01*
X1045977Y322914D01*
X1092200Y369137D01*
X1092200Y396240D02*
X1092200Y399288D01*
X1092200Y718820D01*
X1074420Y736600D01*
X784860Y736600D01*
X781050Y736600D01*
X779526Y735076D01*
X779526Y709930D01*
X784860Y736600D02*
X778256Y743204D01*
X778256Y868680D01*
X778256Y891794D01*
X803656Y891794D01*
X779526Y869950D02*
X778256Y868680D01*
X779526Y869950D02*
X908050Y869950D01*
X908812Y869950D01*
X930656Y891794D01*
D26*
X608330Y107950D02*
X608584Y107696D01*
X619760Y107696D01*
X638556Y88900D01*
X396015Y118618D02*
X309626Y118618D01*
X396015Y118618D02*
X396697Y117936D01*
X425248Y117936D01*
X425803Y118491D01*
X597789Y118491D01*
D23*
X532518Y380118D02*
X532366Y380118D01*
X532518Y380118D02*
X706628Y554228D01*
X706628Y554736D01*
X736600Y584708D01*
X736600Y584200D02*
X736600Y701294D01*
X740156Y704850D01*
X774700Y704850D01*
X774700Y705104D02*
X779526Y709930D01*
X774700Y705104D02*
X774700Y704850D01*
X1092200Y396240D02*
X1092200Y369137D01*
D22*
X1041400Y234950D02*
X1041400Y158750D01*
X1047750Y158750D01*
X1092200Y114300D01*
X1092200Y88900D01*
X1066800Y88900D01*
X1047750Y107950D01*
X1041400Y234950D02*
X1037590Y235966D01*
X1046480Y108712D02*
X1047750Y107950D01*
X698500Y127000D02*
X698500Y228600D01*
X698500Y127000D02*
X692150Y127000D01*
X673100Y107950D01*
X698500Y228600D02*
X698246Y233426D01*
X673100Y107950D02*
X670560Y107696D01*
X800100Y152400D02*
X800100Y234950D01*
X800100Y152400D02*
X800100Y139700D01*
X800100Y234950D02*
X787146Y234950D01*
X800100Y139700D02*
X799846Y134366D01*
X882650Y152400D02*
X901700Y133350D01*
X882650Y152400D02*
X800100Y152400D01*
X901700Y133350D02*
X903224Y133350D01*
X825500Y673100D02*
X825500Y704850D01*
X825500Y673100D02*
X749300Y596900D01*
X749300Y425450D01*
X762000Y425450D01*
X778256Y409194D01*
X825500Y704850D02*
X830326Y709930D01*
X838200Y673100D02*
X896302Y673100D01*
X838200Y673100D02*
X762000Y596900D01*
X825500Y438150D02*
X854456Y409194D01*
X906526Y683862D02*
X906526Y709930D01*
X906526Y683862D02*
X896302Y673100D01*
X762000Y596900D02*
X762000Y546100D01*
X800100Y508000D01*
X825500Y508000D01*
X825500Y438150D01*
X1009650Y609600D02*
X1022350Y596900D01*
X1022350Y438150D01*
X920750Y438150D01*
X895350Y412750D01*
X892556Y409194D01*
X965374Y609600D02*
X1009650Y609600D01*
X965374Y609600D02*
X965374Y633508D01*
X950344Y648538D02*
X931926Y709930D01*
X950344Y648538D02*
X965374Y633508D01*
X958850Y692150D02*
X958850Y704850D01*
X958850Y692150D02*
X996950Y654050D01*
X996950Y622300D01*
X1009650Y622300D01*
X1035050Y596900D01*
X1035050Y425450D01*
X933450Y425450D01*
X920750Y412750D01*
X958850Y704850D02*
X957326Y709930D01*
X920750Y412750D02*
X917956Y409194D01*
X609600Y556884D02*
X532366Y634118D01*
X609600Y556884D02*
X609600Y546100D01*
D25*
X609600Y546100D03*
X609600Y350520D03*
D22*
X609600Y321564D01*
X1119886Y335534D02*
X1119886Y357886D01*
X1120140Y358140D01*
D25*
X1120140Y358140D03*
X762000Y350520D03*
D22*
X663956Y350520D01*
X635000Y321564D01*
M02*
