M48
;GenerationSoftware,Autodesk,EAGLE,9.6.0*%
;CreationDate,2020-04-17T03:43:03Z*%
FMAT,2
ICI,OFF
METRIC,TZ,000.000
T14C0.550
T13C0.813
T12C0.900
T11C1.000
T10C1.016
T9C1.118
T8C1.143
T7C1.499
T6C2.057
T5C2.540
T4C2.750
T3C2.946
T2C3.302
T1C3.810
%
G90
M71
T1
X106045Y4233
X95631Y4064
X64008Y4149
X72771Y4318
T2
X65126Y84099
X115926Y40919
T3
X116840Y4724
X3531Y4242
X9703Y90907
X117602Y90780
T4
X2967Y33142
X51967Y33142
X2967Y91142
X51967Y91142
T5
X15697Y15240
X41097Y15240
T6
X104953Y85547
X110033Y85547
T7
X112954Y75489
X112954Y79553
T8
X90322Y13335
X87782Y13335
X77445Y13437
X79985Y13437
X60960Y32156
X63500Y32156
T9
X25883Y11862
X28423Y11862
X30963Y11862
T10
X98273Y70993
X100813Y70993
X100813Y58293
X98273Y58293
X95733Y58293
X75286Y40919
X93193Y58293
X90653Y58293
X88113Y58293
X85573Y58293
X83033Y70993
X77953Y58293
X87986Y89179
X90526Y89179
X63948Y67158
X63948Y69698
X93066Y89179
X95606Y89179
X98146Y89179
X83033Y58293
X77953Y70993
X80493Y70993
X80493Y58293
X85446Y89179
X80366Y89179
X77826Y89179
X75286Y89179
X72746Y89179
X70206Y89179
X67666Y89179
X67666Y40919
X85573Y70993
X72746Y40919
X77826Y40919
X80366Y40919
X82906Y40919
X85446Y40919
X89256Y40919
X91796Y40919
X94336Y40919
X70206Y40919
X99416Y40919
X101956Y40919
X104496Y40919
X107036Y40919
X88113Y70993
X90653Y70993
X93193Y70993
X95733Y70993
X96876Y40919
T11
X50697Y73572
X53237Y73572
X50697Y76112
X53237Y50712
X50697Y78652
X53237Y78652
X50697Y81192
X53237Y81192
X50697Y83732
X53237Y83732
X50697Y86272
X53237Y86272
X53237Y76112
X50697Y38012
X53237Y38012
X50697Y40552
X53237Y40552
X50697Y43092
X53237Y43092
X50697Y45632
X53237Y45632
X50697Y48172
X53237Y48172
X50697Y50712
X50697Y53252
X53237Y53252
X50697Y55792
X53237Y55792
X50697Y58332
X53237Y58332
X50697Y60872
X53237Y60872
X50697Y63412
X53237Y63412
X50697Y65952
X53237Y65952
X50697Y68492
X53237Y68492
X50697Y71032
X53237Y71032
T12
X58420Y73660
X92710Y66040
X77470Y48260
X82550Y38100
X112014Y35814
X46990Y76200
X58420Y77470
X76200Y35052
X60960Y35052
X60960Y54610
X85090Y54610
X46990Y73660
X90170Y63500
X58420Y82550
X81280Y62230
X62230Y15240
X48260Y50800
X100330Y7620
X55880Y48260
X93980Y29210
X58420Y52070
X48260Y78740
T13
X103759Y23597
X69825Y33503
X69825Y23343
X96190Y33477
X96190Y23317
X87579Y33274
X87579Y23114
X78715Y33655
X56261Y17907
X56261Y15367
X56210Y24460
X78715Y23495
X56210Y27000
X111989Y23393
X111989Y33553
X103759Y33757
T14
X99568Y10998
X102108Y10998
X104648Y10998
X62103Y10770
X64643Y10770
X67183Y10770
X69723Y10770
X107188Y10998
M30