G04 EAGLE Gerber RS-274X export*
G75*
%MOMM*%
%FSLAX34Y34*%
%LPD*%
%IN*%
%IPPOS*%
%AMOC8*
5,1,8,0,0,1.08239X$1,22.5*%
G01*
%ADD10C,0.254000*%


D10*
X0Y12700D02*
X48Y11593D01*
X193Y10495D01*
X433Y9413D01*
X766Y8356D01*
X1190Y7333D01*
X1701Y6350D01*
X2297Y5416D01*
X2971Y4537D01*
X3720Y3720D01*
X4537Y2971D01*
X5416Y2297D01*
X6350Y1701D01*
X7333Y1190D01*
X8356Y766D01*
X9413Y433D01*
X10495Y193D01*
X11593Y48D01*
X12700Y0D01*
X1206300Y0D01*
X1207407Y48D01*
X1208505Y193D01*
X1209587Y433D01*
X1210644Y766D01*
X1211667Y1190D01*
X1212650Y1701D01*
X1213584Y2297D01*
X1214463Y2971D01*
X1215280Y3720D01*
X1216029Y4537D01*
X1216703Y5416D01*
X1217299Y6350D01*
X1217810Y7333D01*
X1218234Y8356D01*
X1218567Y9413D01*
X1218807Y10495D01*
X1218952Y11593D01*
X1219000Y12700D01*
X1219000Y924000D01*
X1218952Y925089D01*
X1218810Y926171D01*
X1218574Y927235D01*
X1218246Y928275D01*
X1217829Y929283D01*
X1217325Y930250D01*
X1216739Y931170D01*
X1216076Y932035D01*
X1215339Y932839D01*
X1214535Y933576D01*
X1213670Y934239D01*
X1212750Y934825D01*
X1211783Y935329D01*
X1210775Y935746D01*
X1209735Y936074D01*
X1208671Y936310D01*
X1207589Y936452D01*
X1206500Y936500D01*
X9400Y936500D01*
X8581Y936464D01*
X7768Y936357D01*
X6967Y936180D01*
X6185Y935933D01*
X5427Y935619D01*
X4700Y935241D01*
X4008Y934800D01*
X3358Y934301D01*
X2753Y933747D01*
X2199Y933142D01*
X1700Y932492D01*
X1259Y931800D01*
X881Y931073D01*
X567Y930315D01*
X320Y929533D01*
X143Y928732D01*
X36Y927919D01*
X0Y927100D01*
X0Y12700D01*
X1197485Y904673D02*
X1197409Y903803D01*
X1197257Y902943D01*
X1197031Y902099D01*
X1196732Y901278D01*
X1196363Y900487D01*
X1195927Y899731D01*
X1195426Y899015D01*
X1194864Y898346D01*
X1194247Y897729D01*
X1193578Y897167D01*
X1192862Y896666D01*
X1192106Y896230D01*
X1191315Y895861D01*
X1190494Y895562D01*
X1189650Y895336D01*
X1188790Y895184D01*
X1187920Y895108D01*
X1187047Y895108D01*
X1186177Y895184D01*
X1185317Y895336D01*
X1184473Y895562D01*
X1183653Y895861D01*
X1182861Y896230D01*
X1182105Y896666D01*
X1181390Y897167D01*
X1180721Y897729D01*
X1180103Y898346D01*
X1179542Y899015D01*
X1179041Y899731D01*
X1178604Y900487D01*
X1178235Y901278D01*
X1177936Y902099D01*
X1177710Y902943D01*
X1177559Y903803D01*
X1177482Y904673D01*
X1177482Y905546D01*
X1177559Y906416D01*
X1177710Y907276D01*
X1177936Y908120D01*
X1178235Y908940D01*
X1178604Y909732D01*
X1179041Y910488D01*
X1179542Y911204D01*
X1180103Y911873D01*
X1180721Y912490D01*
X1181390Y913052D01*
X1182105Y913552D01*
X1182861Y913989D01*
X1183653Y914358D01*
X1184473Y914657D01*
X1185317Y914883D01*
X1186177Y915035D01*
X1187047Y915111D01*
X1187920Y915111D01*
X1188790Y915035D01*
X1189650Y914883D01*
X1190494Y914657D01*
X1191315Y914358D01*
X1192106Y913989D01*
X1192862Y913552D01*
X1193578Y913052D01*
X1194247Y912490D01*
X1194864Y911873D01*
X1195426Y911204D01*
X1195927Y910488D01*
X1196363Y909732D01*
X1196732Y908940D01*
X1197031Y908120D01*
X1197257Y907276D01*
X1197409Y906416D01*
X1197485Y905546D01*
X1197485Y904673D01*
X94209Y893668D02*
X94133Y892798D01*
X93981Y891938D01*
X93755Y891094D01*
X93457Y890274D01*
X93087Y889482D01*
X92651Y888726D01*
X92150Y888010D01*
X91588Y887341D01*
X90971Y886724D01*
X90302Y886162D01*
X89587Y885662D01*
X88830Y885225D01*
X88039Y884856D01*
X87218Y884557D01*
X86374Y884331D01*
X85514Y884179D01*
X84644Y884103D01*
X83771Y884103D01*
X82901Y884179D01*
X82041Y884331D01*
X81197Y884557D01*
X80377Y884856D01*
X79585Y885225D01*
X78829Y885662D01*
X78114Y886162D01*
X77445Y886724D01*
X76827Y887341D01*
X76266Y888010D01*
X75765Y888726D01*
X75328Y889482D01*
X74959Y890274D01*
X74660Y891094D01*
X74434Y891938D01*
X74283Y892798D01*
X74207Y893668D01*
X74207Y894541D01*
X74283Y895411D01*
X74434Y896271D01*
X74660Y897115D01*
X74959Y897936D01*
X75328Y898727D01*
X75765Y899483D01*
X76266Y900199D01*
X76827Y900868D01*
X77445Y901485D01*
X78114Y902047D01*
X78829Y902548D01*
X79585Y902984D01*
X80377Y903353D01*
X81197Y903652D01*
X82041Y903878D01*
X82901Y904030D01*
X83771Y904106D01*
X84644Y904106D01*
X85514Y904030D01*
X86374Y903878D01*
X87218Y903652D01*
X88039Y903353D01*
X88830Y902984D01*
X89587Y902548D01*
X90302Y902047D01*
X90971Y901485D01*
X91588Y900868D01*
X92150Y900199D01*
X92651Y899483D01*
X93087Y898727D01*
X93457Y897936D01*
X93755Y897115D01*
X93981Y896271D01*
X94133Y895411D01*
X94209Y894541D01*
X94209Y893668D01*
X34209Y21258D02*
X34132Y20388D01*
X33981Y19528D01*
X33755Y18685D01*
X33456Y17864D01*
X33087Y17073D01*
X32650Y16316D01*
X32149Y15601D01*
X31588Y14932D01*
X30970Y14314D01*
X30301Y13753D01*
X29586Y13252D01*
X28830Y12815D01*
X28038Y12446D01*
X27218Y12148D01*
X26374Y11922D01*
X25514Y11770D01*
X24644Y11694D01*
X23771Y11694D01*
X22901Y11770D01*
X22041Y11922D01*
X21197Y12148D01*
X20376Y12446D01*
X19585Y12815D01*
X18828Y13252D01*
X18113Y13753D01*
X17444Y14314D01*
X16827Y14932D01*
X16265Y15601D01*
X15764Y16316D01*
X15328Y17073D01*
X14959Y17864D01*
X14660Y18685D01*
X14434Y19528D01*
X14282Y20388D01*
X14206Y21258D01*
X14206Y22132D01*
X14282Y23002D01*
X14434Y23862D01*
X14660Y24705D01*
X14959Y25526D01*
X15328Y26318D01*
X15764Y27074D01*
X16265Y27789D01*
X16827Y28458D01*
X17444Y29076D01*
X18113Y29637D01*
X18828Y30138D01*
X19585Y30575D01*
X20376Y30944D01*
X21197Y31243D01*
X22041Y31469D01*
X22901Y31620D01*
X23771Y31696D01*
X24644Y31696D01*
X25514Y31620D01*
X26374Y31469D01*
X27218Y31243D01*
X28038Y30944D01*
X28830Y30575D01*
X29586Y30138D01*
X30301Y29637D01*
X30970Y29076D01*
X31588Y28458D01*
X32149Y27789D01*
X32650Y27074D01*
X33087Y26318D01*
X33456Y25526D01*
X33755Y24705D01*
X33981Y23862D01*
X34132Y23002D01*
X34209Y22132D01*
X34209Y21258D01*
X1198705Y22535D02*
X1198629Y21665D01*
X1198477Y20805D01*
X1198251Y19961D01*
X1197952Y19140D01*
X1197583Y18349D01*
X1197146Y17592D01*
X1196646Y16877D01*
X1196084Y16208D01*
X1195467Y15591D01*
X1194798Y15029D01*
X1194082Y14528D01*
X1193326Y14092D01*
X1192534Y13722D01*
X1191714Y13424D01*
X1190870Y13198D01*
X1190010Y13046D01*
X1189140Y12970D01*
X1188267Y12970D01*
X1187397Y13046D01*
X1186537Y13198D01*
X1185693Y13424D01*
X1184873Y13722D01*
X1184081Y14092D01*
X1183325Y14528D01*
X1182609Y15029D01*
X1181940Y15591D01*
X1181323Y16208D01*
X1180761Y16877D01*
X1180260Y17592D01*
X1179824Y18349D01*
X1179455Y19140D01*
X1179156Y19961D01*
X1178930Y20805D01*
X1178778Y21665D01*
X1178702Y22535D01*
X1178702Y23408D01*
X1178778Y24278D01*
X1178930Y25138D01*
X1179156Y25982D01*
X1179455Y26802D01*
X1179824Y27594D01*
X1180260Y28350D01*
X1180761Y29065D01*
X1181323Y29734D01*
X1181940Y30352D01*
X1182609Y30913D01*
X1183325Y31414D01*
X1184081Y31851D01*
X1184873Y32220D01*
X1185693Y32519D01*
X1186537Y32745D01*
X1187397Y32896D01*
X1188267Y32972D01*
X1189140Y32972D01*
X1190010Y32896D01*
X1190870Y32745D01*
X1191714Y32519D01*
X1192534Y32220D01*
X1193326Y31851D01*
X1194082Y31414D01*
X1194798Y30913D01*
X1195467Y30352D01*
X1196084Y29734D01*
X1196646Y29065D01*
X1197146Y28350D01*
X1197583Y27594D01*
X1197952Y26802D01*
X1198251Y25982D01*
X1198477Y25138D01*
X1198629Y24278D01*
X1198705Y23408D01*
X1198705Y22535D01*
X334010Y250920D02*
X333939Y249841D01*
X333798Y248769D01*
X333587Y247709D01*
X333308Y246665D01*
X332960Y245641D01*
X332546Y244643D01*
X332068Y243673D01*
X331528Y242737D01*
X330927Y241838D01*
X330269Y240981D01*
X329557Y240168D01*
X328792Y239404D01*
X327979Y238691D01*
X327122Y238033D01*
X326223Y237432D01*
X325287Y236892D01*
X324317Y236414D01*
X323319Y236000D01*
X322295Y235652D01*
X321251Y235373D01*
X320191Y235162D01*
X319119Y235021D01*
X318040Y234950D01*
X316960Y234950D01*
X315881Y235021D01*
X314809Y235162D01*
X313749Y235373D01*
X312705Y235652D01*
X311681Y236000D01*
X310683Y236414D01*
X309713Y236892D01*
X308777Y237432D01*
X307878Y238033D01*
X307021Y238691D01*
X306208Y239404D01*
X305444Y240168D01*
X304731Y240981D01*
X304073Y241838D01*
X303472Y242737D01*
X302932Y243673D01*
X302454Y244643D01*
X302040Y245641D01*
X301692Y246665D01*
X301413Y247709D01*
X301202Y248769D01*
X301061Y249841D01*
X300990Y250920D01*
X300990Y252000D01*
X301061Y253079D01*
X301202Y254151D01*
X301413Y255211D01*
X301692Y256255D01*
X302040Y257279D01*
X302454Y258277D01*
X302932Y259247D01*
X303472Y260183D01*
X304073Y261082D01*
X304731Y261939D01*
X305444Y262752D01*
X306208Y263517D01*
X307021Y264229D01*
X307878Y264887D01*
X308777Y265488D01*
X309713Y266028D01*
X310683Y266506D01*
X311681Y266920D01*
X312705Y267268D01*
X313749Y267547D01*
X314809Y267758D01*
X315881Y267899D01*
X316960Y267970D01*
X318040Y267970D01*
X319119Y267899D01*
X320191Y267758D01*
X321251Y267547D01*
X322295Y267268D01*
X323319Y266920D01*
X324317Y266506D01*
X325287Y266028D01*
X326223Y265488D01*
X327122Y264887D01*
X327979Y264229D01*
X328792Y263517D01*
X329557Y262752D01*
X330269Y261939D01*
X330927Y261082D01*
X331528Y260183D01*
X332068Y259247D01*
X332546Y258277D01*
X332960Y257279D01*
X333308Y256255D01*
X333587Y255211D01*
X333798Y254151D01*
X333939Y253079D01*
X334010Y252000D01*
X334010Y250920D01*
X34509Y328150D02*
X33529Y328080D01*
X32557Y327940D01*
X31597Y327731D01*
X30655Y327455D01*
X29735Y327111D01*
X28841Y326703D01*
X27979Y326233D01*
X27153Y325702D01*
X26367Y325113D01*
X25625Y324470D01*
X24930Y323775D01*
X24287Y323033D01*
X23698Y322247D01*
X23167Y321421D01*
X22697Y320559D01*
X22289Y319665D01*
X21945Y318745D01*
X21669Y317803D01*
X21460Y316843D01*
X21320Y315871D01*
X21250Y314891D01*
X21250Y313909D01*
X21320Y312929D01*
X21460Y311957D01*
X21669Y310997D01*
X21945Y310055D01*
X22289Y309135D01*
X22697Y308241D01*
X23167Y307379D01*
X23698Y306553D01*
X24287Y305767D01*
X24930Y305025D01*
X25625Y304330D01*
X26367Y303687D01*
X27153Y303098D01*
X27979Y302567D01*
X28841Y302097D01*
X29735Y301689D01*
X30655Y301345D01*
X31597Y301069D01*
X32557Y300860D01*
X33529Y300720D01*
X34509Y300650D01*
X35491Y300650D01*
X36471Y300720D01*
X37443Y300860D01*
X38403Y301069D01*
X39345Y301345D01*
X40265Y301689D01*
X41159Y302097D01*
X42021Y302567D01*
X42847Y303098D01*
X43633Y303687D01*
X44375Y304330D01*
X45070Y305025D01*
X45713Y305767D01*
X46302Y306553D01*
X46833Y307379D01*
X47303Y308241D01*
X47711Y309135D01*
X48055Y310055D01*
X48331Y310997D01*
X48540Y311957D01*
X48680Y312929D01*
X48750Y313909D01*
X48750Y314891D01*
X48680Y315871D01*
X48540Y316843D01*
X48331Y317803D01*
X48055Y318745D01*
X47711Y319665D01*
X47303Y320559D01*
X46833Y321421D01*
X46302Y322247D01*
X45713Y323033D01*
X45070Y323775D01*
X44375Y324470D01*
X43633Y325113D01*
X42847Y325702D01*
X42021Y326233D01*
X41159Y326703D01*
X40265Y327111D01*
X39345Y327455D01*
X38403Y327731D01*
X37443Y327940D01*
X36471Y328080D01*
X35491Y328150D01*
X34509Y328150D01*
X524509Y328150D02*
X523529Y328080D01*
X522557Y327940D01*
X521597Y327731D01*
X520655Y327455D01*
X519735Y327111D01*
X518841Y326703D01*
X517979Y326233D01*
X517153Y325702D01*
X516367Y325113D01*
X515625Y324470D01*
X514930Y323775D01*
X514287Y323033D01*
X513698Y322247D01*
X513167Y321421D01*
X512697Y320559D01*
X512289Y319665D01*
X511945Y318745D01*
X511669Y317803D01*
X511460Y316843D01*
X511320Y315871D01*
X511250Y314891D01*
X511250Y313909D01*
X511320Y312929D01*
X511460Y311957D01*
X511669Y310997D01*
X511945Y310055D01*
X512289Y309135D01*
X512697Y308241D01*
X513167Y307379D01*
X513698Y306553D01*
X514287Y305767D01*
X514930Y305025D01*
X515625Y304330D01*
X516367Y303687D01*
X517153Y303098D01*
X517979Y302567D01*
X518841Y302097D01*
X519735Y301689D01*
X520655Y301345D01*
X521597Y301069D01*
X522557Y300860D01*
X523529Y300720D01*
X524509Y300650D01*
X525491Y300650D01*
X526471Y300720D01*
X527443Y300860D01*
X528403Y301069D01*
X529345Y301345D01*
X530265Y301689D01*
X531159Y302097D01*
X532021Y302567D01*
X532847Y303098D01*
X533633Y303687D01*
X534375Y304330D01*
X535070Y305025D01*
X535713Y305767D01*
X536302Y306553D01*
X536833Y307379D01*
X537303Y308241D01*
X537711Y309135D01*
X538055Y310055D01*
X538331Y310997D01*
X538540Y311957D01*
X538680Y312929D01*
X538750Y313909D01*
X538750Y314891D01*
X538680Y315871D01*
X538540Y316843D01*
X538331Y317803D01*
X538055Y318745D01*
X537711Y319665D01*
X537303Y320559D01*
X536833Y321421D01*
X536302Y322247D01*
X535713Y323033D01*
X535070Y323775D01*
X534375Y324470D01*
X533633Y325113D01*
X532847Y325702D01*
X532021Y326233D01*
X531159Y326703D01*
X530265Y327111D01*
X529345Y327455D01*
X528403Y327731D01*
X527443Y327940D01*
X526471Y328080D01*
X525491Y328150D01*
X524509Y328150D01*
X34509Y908150D02*
X33529Y908080D01*
X32557Y907940D01*
X31597Y907731D01*
X30655Y907455D01*
X29735Y907111D01*
X28841Y906703D01*
X27979Y906233D01*
X27153Y905702D01*
X26367Y905113D01*
X25625Y904470D01*
X24930Y903775D01*
X24287Y903033D01*
X23698Y902247D01*
X23167Y901421D01*
X22697Y900559D01*
X22289Y899665D01*
X21945Y898745D01*
X21669Y897803D01*
X21460Y896843D01*
X21320Y895871D01*
X21250Y894891D01*
X21250Y893909D01*
X21320Y892929D01*
X21460Y891957D01*
X21669Y890997D01*
X21945Y890055D01*
X22289Y889135D01*
X22697Y888241D01*
X23167Y887379D01*
X23698Y886553D01*
X24287Y885767D01*
X24930Y885025D01*
X25625Y884330D01*
X26367Y883687D01*
X27153Y883098D01*
X27979Y882567D01*
X28841Y882097D01*
X29735Y881689D01*
X30655Y881345D01*
X31597Y881069D01*
X32557Y880860D01*
X33529Y880720D01*
X34509Y880650D01*
X35491Y880650D01*
X36471Y880720D01*
X37443Y880860D01*
X38403Y881069D01*
X39345Y881345D01*
X40265Y881689D01*
X41159Y882097D01*
X42021Y882567D01*
X42847Y883098D01*
X43633Y883687D01*
X44375Y884330D01*
X45070Y885025D01*
X45713Y885767D01*
X46302Y886553D01*
X46833Y887379D01*
X47303Y888241D01*
X47711Y889135D01*
X48055Y890055D01*
X48331Y890997D01*
X48540Y891957D01*
X48680Y892929D01*
X48750Y893909D01*
X48750Y894891D01*
X48680Y895871D01*
X48540Y896843D01*
X48331Y897803D01*
X48055Y898745D01*
X47711Y899665D01*
X47303Y900559D01*
X46833Y901421D01*
X46302Y902247D01*
X45713Y903033D01*
X45070Y903775D01*
X44375Y904470D01*
X43633Y905113D01*
X42847Y905702D01*
X42021Y906233D01*
X41159Y906703D01*
X40265Y907111D01*
X39345Y907455D01*
X38403Y907731D01*
X37443Y907940D01*
X36471Y908080D01*
X35491Y908150D01*
X34509Y908150D01*
X524509Y908150D02*
X523529Y908080D01*
X522557Y907940D01*
X521597Y907731D01*
X520655Y907455D01*
X519735Y907111D01*
X518841Y906703D01*
X517979Y906233D01*
X517153Y905702D01*
X516367Y905113D01*
X515625Y904470D01*
X514930Y903775D01*
X514287Y903033D01*
X513698Y902247D01*
X513167Y901421D01*
X512697Y900559D01*
X512289Y899665D01*
X511945Y898745D01*
X511669Y897803D01*
X511460Y896843D01*
X511320Y895871D01*
X511250Y894891D01*
X511250Y893909D01*
X511320Y892929D01*
X511460Y891957D01*
X511669Y890997D01*
X511945Y890055D01*
X512289Y889135D01*
X512697Y888241D01*
X513167Y887379D01*
X513698Y886553D01*
X514287Y885767D01*
X514930Y885025D01*
X515625Y884330D01*
X516367Y883687D01*
X517153Y883098D01*
X517979Y882567D01*
X518841Y882097D01*
X519735Y881689D01*
X520655Y881345D01*
X521597Y881069D01*
X522557Y880860D01*
X523529Y880720D01*
X524509Y880650D01*
X525491Y880650D01*
X526471Y880720D01*
X527443Y880860D01*
X528403Y881069D01*
X529345Y881345D01*
X530265Y881689D01*
X531159Y882097D01*
X532021Y882567D01*
X532847Y883098D01*
X533633Y883687D01*
X534375Y884330D01*
X535070Y885025D01*
X535713Y885767D01*
X536302Y886553D01*
X536833Y887379D01*
X537303Y888241D01*
X537711Y889135D01*
X538055Y890055D01*
X538331Y890997D01*
X538540Y891957D01*
X538680Y892929D01*
X538750Y893909D01*
X538750Y894891D01*
X538680Y895871D01*
X538540Y896843D01*
X538331Y897803D01*
X538055Y898745D01*
X537711Y899665D01*
X537303Y900559D01*
X536833Y901421D01*
X536302Y902247D01*
X535713Y903033D01*
X535070Y903775D01*
X534375Y904470D01*
X533633Y905113D01*
X532847Y905702D01*
X532021Y906233D01*
X531159Y906703D01*
X530265Y907111D01*
X529345Y907455D01*
X528403Y907731D01*
X527443Y907940D01*
X526471Y908080D01*
X525491Y908150D01*
X524509Y908150D01*
X635540Y486410D02*
X636619Y486339D01*
X637691Y486198D01*
X638751Y485987D01*
X639795Y485708D01*
X640819Y485360D01*
X641817Y484946D01*
X642787Y484468D01*
X643723Y483928D01*
X644622Y483327D01*
X645479Y482669D01*
X646292Y481957D01*
X647057Y481192D01*
X647769Y480379D01*
X648427Y479522D01*
X649028Y478623D01*
X649568Y477687D01*
X650046Y476717D01*
X650460Y475719D01*
X650808Y474695D01*
X651087Y473651D01*
X651298Y472591D01*
X651439Y471519D01*
X651510Y470440D01*
X651510Y469360D01*
X651439Y468281D01*
X651298Y467209D01*
X651087Y466149D01*
X650808Y465105D01*
X650460Y464081D01*
X650046Y463083D01*
X649568Y462113D01*
X649028Y461177D01*
X648427Y460278D01*
X647769Y459421D01*
X647057Y458608D01*
X646292Y457844D01*
X645479Y457131D01*
X644622Y456473D01*
X643723Y455872D01*
X642787Y455332D01*
X641817Y454854D01*
X640819Y454440D01*
X639795Y454092D01*
X638751Y453813D01*
X637691Y453602D01*
X636619Y453461D01*
X635540Y453390D01*
X634460Y453390D01*
X633381Y453461D01*
X632309Y453602D01*
X631249Y453813D01*
X630205Y454092D01*
X629181Y454440D01*
X628183Y454854D01*
X627213Y455332D01*
X626277Y455872D01*
X625378Y456473D01*
X624521Y457131D01*
X623708Y457844D01*
X622944Y458608D01*
X622231Y459421D01*
X621573Y460278D01*
X620972Y461177D01*
X620432Y462113D01*
X619954Y463083D01*
X619540Y464081D01*
X619192Y465105D01*
X618913Y466149D01*
X618702Y467209D01*
X618561Y468281D01*
X618490Y469360D01*
X618490Y470440D01*
X618561Y471519D01*
X618702Y472591D01*
X618913Y473651D01*
X619192Y474695D01*
X619540Y475719D01*
X619954Y476717D01*
X620432Y477687D01*
X620972Y478623D01*
X621573Y479522D01*
X622231Y480379D01*
X622944Y481192D01*
X623708Y481957D01*
X624521Y482669D01*
X625378Y483327D01*
X626277Y483928D01*
X627213Y484468D01*
X628183Y484946D01*
X629181Y485360D01*
X630205Y485708D01*
X631249Y485987D01*
X632309Y486198D01*
X633381Y486339D01*
X634460Y486410D01*
X635540Y486410D01*
X1143540Y54610D02*
X1144619Y54539D01*
X1145691Y54398D01*
X1146751Y54187D01*
X1147795Y53908D01*
X1148819Y53560D01*
X1149817Y53146D01*
X1150787Y52668D01*
X1151723Y52128D01*
X1152622Y51527D01*
X1153479Y50869D01*
X1154292Y50157D01*
X1155057Y49392D01*
X1155769Y48579D01*
X1156427Y47722D01*
X1157028Y46823D01*
X1157568Y45887D01*
X1158046Y44917D01*
X1158460Y43919D01*
X1158808Y42895D01*
X1159087Y41851D01*
X1159298Y40791D01*
X1159439Y39719D01*
X1159510Y38640D01*
X1159510Y37560D01*
X1159439Y36481D01*
X1159298Y35409D01*
X1159087Y34349D01*
X1158808Y33305D01*
X1158460Y32281D01*
X1158046Y31283D01*
X1157568Y30313D01*
X1157028Y29377D01*
X1156427Y28478D01*
X1155769Y27621D01*
X1155057Y26808D01*
X1154292Y26044D01*
X1153479Y25331D01*
X1152622Y24673D01*
X1151723Y24072D01*
X1150787Y23532D01*
X1149817Y23054D01*
X1148819Y22640D01*
X1147795Y22292D01*
X1146751Y22013D01*
X1145691Y21802D01*
X1144619Y21661D01*
X1143540Y21590D01*
X1142460Y21590D01*
X1141381Y21661D01*
X1140309Y21802D01*
X1139249Y22013D01*
X1138205Y22292D01*
X1137181Y22640D01*
X1136183Y23054D01*
X1135213Y23532D01*
X1134277Y24072D01*
X1133378Y24673D01*
X1132521Y25331D01*
X1131708Y26044D01*
X1130944Y26808D01*
X1130231Y27621D01*
X1129573Y28478D01*
X1128972Y29377D01*
X1128432Y30313D01*
X1127954Y31283D01*
X1127540Y32281D01*
X1127192Y33305D01*
X1126913Y34349D01*
X1126702Y35409D01*
X1126561Y36481D01*
X1126490Y37560D01*
X1126490Y38640D01*
X1126561Y39719D01*
X1126702Y40791D01*
X1126913Y41851D01*
X1127192Y42895D01*
X1127540Y43919D01*
X1127954Y44917D01*
X1128432Y45887D01*
X1128972Y46823D01*
X1129573Y47722D01*
X1130231Y48579D01*
X1130944Y49392D01*
X1131708Y50157D01*
X1132521Y50869D01*
X1133378Y51527D01*
X1134277Y52128D01*
X1135213Y52668D01*
X1136183Y53146D01*
X1137181Y53560D01*
X1138205Y53908D01*
X1139249Y54187D01*
X1140309Y54398D01*
X1141381Y54539D01*
X1142460Y54610D01*
X1143540Y54610D01*
M02*
