G04 EAGLE Gerber RS-274X export*
G75*
%MOMM*%
%FSLAX34Y34*%
%LPD*%
%INSoldermask Top*%
%IPPOS*%
%AMOC8*
5,1,8,0,0,1.08239X$1,22.5*%
G01*
%ADD10C,3.149600*%
%ADD11C,4.013200*%
%ADD12P,1.649562X8X292.500000*%
%ADD13P,1.649562X8X112.500000*%
%ADD14C,1.879600*%
%ADD15C,1.727200*%
%ADD16C,3.759200*%
%ADD17P,2.075699X8X22.500000*%
%ADD18C,2.953200*%
%ADD19R,1.981200X1.981200*%
%ADD20C,1.981200*%
%ADD21R,1.261200X1.261200*%
%ADD22C,1.261200*%
%ADD23C,2.082800*%
%ADD24C,3.505200*%
%ADD25C,5.283200*%
%ADD26C,2.184400*%
%ADD27C,2.451100*%
%ADD28R,1.553200X1.553200*%


D10*
X35306Y42418D03*
X97028Y909066D03*
X1176020Y907796D03*
X1168400Y47244D03*
D11*
X1060450Y42333D03*
X956310Y40640D03*
X640080Y41487D03*
X727710Y43180D03*
D12*
X562102Y270002D03*
X562102Y244602D03*
D13*
X562610Y153670D03*
X562610Y179070D03*
D14*
X258826Y127000D02*
X258826Y110236D01*
X284226Y110236D02*
X284226Y127000D01*
X309626Y127000D02*
X309626Y110236D01*
D15*
X631865Y671576D02*
X647105Y671576D01*
X647105Y696976D02*
X631865Y696976D01*
D16*
X1049528Y855472D03*
X1100328Y855472D03*
D17*
X877824Y133350D03*
X903224Y133350D03*
X774446Y134366D03*
X799846Y134366D03*
D18*
X29666Y331418D03*
X519666Y331418D03*
X29666Y911418D03*
X519666Y911418D03*
D19*
X506966Y380118D03*
D20*
X532366Y380118D03*
X506966Y405518D03*
X532366Y405518D03*
X506966Y430918D03*
X532366Y430918D03*
X506966Y456318D03*
X532366Y456318D03*
X506966Y481718D03*
X532366Y481718D03*
X506966Y507118D03*
X532366Y507118D03*
X506966Y532518D03*
X532366Y532518D03*
X506966Y557918D03*
X532366Y557918D03*
X506966Y583318D03*
X532366Y583318D03*
X506966Y608718D03*
X532366Y608718D03*
X506966Y634118D03*
X532366Y634118D03*
X506966Y659518D03*
X532366Y659518D03*
X506966Y684918D03*
X532366Y684918D03*
X506966Y710318D03*
X532366Y710318D03*
X506966Y735718D03*
X532366Y735718D03*
X506966Y761118D03*
X532366Y761118D03*
X506966Y786518D03*
X532366Y786518D03*
X506966Y811918D03*
X532366Y811918D03*
X506966Y837318D03*
X532366Y837318D03*
X506966Y862718D03*
X532366Y862718D03*
D12*
X1037590Y337566D03*
X1037590Y235966D03*
X698246Y335026D03*
X698246Y233426D03*
X961898Y334772D03*
X961898Y233172D03*
X875792Y332740D03*
X875792Y231140D03*
X787146Y336550D03*
X787146Y234950D03*
D15*
X779526Y575310D02*
X779526Y590550D01*
X804926Y590550D02*
X804926Y575310D01*
X830326Y575310D02*
X830326Y590550D01*
X855726Y590550D02*
X855726Y575310D01*
X881126Y575310D02*
X881126Y590550D01*
X906526Y590550D02*
X906526Y575310D01*
X931926Y575310D02*
X931926Y590550D01*
X957326Y590550D02*
X957326Y575310D01*
X982726Y575310D02*
X982726Y590550D01*
X1008126Y590550D02*
X1008126Y575310D01*
X1008126Y702310D02*
X1008126Y717550D01*
X982726Y717550D02*
X982726Y702310D01*
X957326Y702310D02*
X957326Y717550D01*
X931926Y717550D02*
X931926Y702310D01*
X906526Y702310D02*
X906526Y717550D01*
X881126Y717550D02*
X881126Y702310D01*
X855726Y702310D02*
X855726Y717550D01*
X830326Y717550D02*
X830326Y702310D01*
X804926Y702310D02*
X804926Y717550D01*
X779526Y717550D02*
X779526Y702310D01*
D21*
X995680Y109982D03*
D22*
X1021080Y109982D03*
X1046480Y109982D03*
X1071880Y109982D03*
D21*
X621030Y107696D03*
D22*
X646430Y107696D03*
X671830Y107696D03*
X697230Y107696D03*
D23*
X981456Y891794D03*
X956056Y891794D03*
X930656Y891794D03*
X905256Y891794D03*
X879856Y891794D03*
X854456Y891794D03*
X803656Y891794D03*
X778256Y891794D03*
X752856Y891794D03*
X727456Y891794D03*
X702056Y891794D03*
X676656Y891794D03*
X676656Y409194D03*
X702056Y409194D03*
X727456Y409194D03*
X752856Y409194D03*
X778256Y409194D03*
X803656Y409194D03*
X829056Y409194D03*
X854456Y409194D03*
X892556Y409194D03*
X917956Y409194D03*
X943356Y409194D03*
X968756Y409194D03*
X994156Y409194D03*
X1019556Y409194D03*
X1044956Y409194D03*
X1070356Y409194D03*
D24*
X651256Y840994D03*
X1159256Y409194D03*
D25*
X156972Y152400D03*
X410972Y152400D03*
D17*
X609600Y321564D03*
X635000Y321564D03*
D13*
X1119886Y233934D03*
X1119886Y335534D03*
D26*
X1114298Y748284D02*
X1144778Y748284D01*
X1144778Y729234D02*
X1114298Y729234D01*
X1144778Y729234D02*
X1144778Y748284D01*
X1114298Y748284D02*
X1114298Y729234D01*
X1114298Y775208D02*
X1144778Y775208D01*
X1144778Y794258D02*
X1114298Y794258D01*
X1114298Y775208D01*
X1144778Y775208D02*
X1144778Y794258D01*
D27*
X1140778Y795528D02*
X1118299Y795528D01*
X1118299Y754888D02*
X1140778Y754888D01*
D28*
X584200Y774700D03*
X812800Y622300D03*
X584200Y825500D03*
X901700Y635000D03*
X469900Y736600D03*
X850900Y546100D03*
X469900Y762000D03*
X927100Y660400D03*
X584200Y736600D03*
X774700Y482600D03*
X482600Y787400D03*
X825500Y381000D03*
X584200Y520700D03*
X939800Y292100D03*
X558800Y482600D03*
X1003300Y76200D03*
X482600Y508000D03*
X622300Y152400D03*
X609600Y546100D03*
X609600Y350520D03*
X1120140Y358140D03*
X762000Y350520D03*
M02*
