M48
;GenerationSoftware,Autodesk,EAGLE,9.6.0*%
;CreationDate,2020-04-09T23:24:56Z*%
FMAT,2
ICI,OFF
METRIC,TZ,000.000
T10C0.813
T9C0.900
T8C1.000
T7C1.016
T6C1.118
T5C2.057
T4C2.540
T3C2.750
T2C2.946
T1C3.302
%
G90
M71
T1
X25502Y26060
X65126Y84099
X115926Y40919
T2
X3023Y2845
X9144Y89306
X118897Y90399
X118999Y2667
T3
X2967Y33142
X51967Y33142
X2967Y91142
X51967Y91142
T4
X12776Y14453
X38176Y14453
T5
X108687Y82525
X113767Y82525
T6
X28042Y11074
X22962Y11074
X25502Y11074
T7
X91796Y40919
X94336Y40919
X96876Y40919
X99416Y40919
X101956Y40919
X104496Y40919
X107036Y40919
X70206Y89179
X77953Y70993
X77953Y58293
X83033Y58293
X85573Y58293
X88113Y58293
X90653Y58293
X93193Y58293
X95733Y58293
X98273Y58293
X100813Y58293
X100813Y70993
X98273Y70993
X95733Y70993
X63948Y67158
X63948Y69698
X93193Y70993
X90653Y70993
X88113Y70993
X85573Y70993
X83033Y70993
X80493Y70993
X98146Y89179
X95606Y89179
X93066Y89179
X90526Y89179
X87986Y89179
X85446Y89179
X80366Y89179
X77826Y89179
X75286Y89179
X72746Y89179
X67666Y89179
X67666Y40919
X80493Y58293
X70206Y40919
X72746Y40919
X75286Y40919
X77826Y40919
X80366Y40919
X82906Y40919
X85446Y40919
X89256Y40919
T8
X53237Y65952
X50697Y68492
X53237Y68492
X50697Y71032
X53237Y71032
X50697Y73572
X53237Y73572
X50697Y81192
X53237Y81192
X50697Y83732
X53237Y58332
X53237Y83732
X50697Y86272
X53237Y86272
X53237Y76112
X53237Y53252
X53237Y78652
X99568Y10871
X102108Y10871
X104648Y10871
X107188Y10871
X61976Y10770
X64516Y10770
X67056Y10770
X69596Y10770
X50697Y76112
X50697Y38012
X53237Y38012
X50697Y40552
X53237Y40552
X50697Y43092
X53237Y43092
X50697Y45632
X53237Y45632
X50697Y48172
X53237Y48172
X50697Y50712
X53237Y50712
X50697Y53252
X50697Y55792
X53237Y55792
X50697Y58332
X50697Y78652
X50697Y60872
X53237Y60872
X50697Y63412
X53237Y63412
X50697Y65952
T9
X81280Y62230
X58420Y82550
X90170Y63500
X46990Y73660
X85090Y54610
X46990Y76200
X92710Y66040
X58420Y73660
X77470Y48260
X48260Y78740
X58420Y52070
X93980Y29210
X55880Y48260
X100330Y7620
X48260Y50800
X62230Y15240
X58420Y77470
X82550Y38100
T10
X56261Y15367
X56261Y17907
X56210Y27000
X87782Y13335
X90322Y13335
X77445Y13437
X79985Y13437
X56210Y24460
X103759Y23597
X69825Y23343
X96190Y33477
X96190Y23317
X87579Y33274
X87579Y23114
X78715Y33655
X78715Y23495
X103759Y33757
X69825Y33503
M30