G04 EAGLE Gerber RS-274X export*
G75*
%MOMM*%
%FSLAX34Y34*%
%LPD*%
%INSilkscreen Bottom*%
%IPPOS*%
%AMOC8*
5,1,8,0,0,1.08239X$1,22.5*%
G01*
%ADD10C,0.127000*%
%ADD11C,0.101600*%
%ADD12C,0.152400*%
%ADD13C,0.177800*%


D10*
X550400Y350400D02*
X525000Y350400D01*
X499600Y350400D01*
X499600Y359925D01*
X499600Y366275D01*
X499600Y375800D01*
X499600Y858400D01*
X550400Y858400D01*
X550400Y350400D01*
X525000Y350400D02*
X525000Y375800D01*
X499600Y375800D01*
X499600Y359925D02*
X496425Y359925D01*
X496425Y366275D01*
X499600Y366275D01*
D11*
X493377Y362973D02*
X491345Y360433D01*
X493377Y362973D02*
X484233Y362973D01*
X484233Y360433D02*
X484233Y365513D01*
D12*
X415290Y16510D02*
X415288Y16352D01*
X415282Y16193D01*
X415272Y16035D01*
X415258Y15878D01*
X415241Y15720D01*
X415219Y15564D01*
X415194Y15407D01*
X415164Y15252D01*
X415131Y15097D01*
X415094Y14943D01*
X415053Y14790D01*
X415008Y14638D01*
X414959Y14488D01*
X414907Y14338D01*
X414851Y14190D01*
X414791Y14043D01*
X414728Y13898D01*
X414661Y13755D01*
X414591Y13613D01*
X414517Y13473D01*
X414439Y13335D01*
X414358Y13199D01*
X414274Y13065D01*
X414187Y12933D01*
X414096Y12803D01*
X414002Y12676D01*
X413905Y12551D01*
X413804Y12428D01*
X413701Y12308D01*
X413595Y12191D01*
X413486Y12076D01*
X413374Y11964D01*
X413259Y11855D01*
X413142Y11749D01*
X413022Y11646D01*
X412899Y11545D01*
X412774Y11448D01*
X412647Y11354D01*
X412517Y11263D01*
X412385Y11176D01*
X412251Y11092D01*
X412115Y11011D01*
X411977Y10933D01*
X411837Y10859D01*
X411695Y10789D01*
X411552Y10722D01*
X411407Y10659D01*
X411260Y10599D01*
X411112Y10543D01*
X410962Y10491D01*
X410812Y10442D01*
X410660Y10397D01*
X410507Y10356D01*
X410353Y10319D01*
X410198Y10286D01*
X410043Y10256D01*
X409886Y10231D01*
X409730Y10209D01*
X409572Y10192D01*
X409415Y10178D01*
X409257Y10168D01*
X409098Y10162D01*
X408940Y10160D01*
X408782Y10162D01*
X408623Y10168D01*
X408465Y10178D01*
X408308Y10192D01*
X408150Y10209D01*
X407994Y10231D01*
X407837Y10256D01*
X407682Y10286D01*
X407527Y10319D01*
X407373Y10356D01*
X407220Y10397D01*
X407068Y10442D01*
X406918Y10491D01*
X406768Y10543D01*
X406620Y10599D01*
X406473Y10659D01*
X406328Y10722D01*
X406185Y10789D01*
X406043Y10859D01*
X405903Y10933D01*
X405765Y11011D01*
X405629Y11092D01*
X405495Y11176D01*
X405363Y11263D01*
X405233Y11354D01*
X405106Y11448D01*
X404981Y11545D01*
X404858Y11646D01*
X404738Y11749D01*
X404621Y11855D01*
X404506Y11964D01*
X404394Y12076D01*
X404285Y12191D01*
X404179Y12308D01*
X404076Y12428D01*
X403975Y12551D01*
X403878Y12676D01*
X403784Y12803D01*
X403693Y12933D01*
X403606Y13065D01*
X403522Y13199D01*
X403441Y13335D01*
X403363Y13473D01*
X403289Y13613D01*
X403219Y13755D01*
X403152Y13898D01*
X403089Y14043D01*
X403029Y14190D01*
X402973Y14338D01*
X402921Y14488D01*
X402872Y14638D01*
X402827Y14790D01*
X402786Y14943D01*
X402749Y15097D01*
X402716Y15252D01*
X402686Y15407D01*
X402661Y15564D01*
X402639Y15720D01*
X402622Y15878D01*
X402608Y16035D01*
X402598Y16193D01*
X402592Y16352D01*
X402590Y16510D01*
X516890Y12700D02*
X516987Y12575D01*
X517086Y12452D01*
X517189Y12331D01*
X517295Y12213D01*
X517403Y12098D01*
X517515Y11985D01*
X517629Y11876D01*
X517746Y11769D01*
X517865Y11665D01*
X517987Y11564D01*
X518112Y11467D01*
X518239Y11372D01*
X518368Y11280D01*
X518499Y11192D01*
X518633Y11107D01*
X518769Y11026D01*
X518907Y10948D01*
X519046Y10873D01*
X519188Y10802D01*
X519331Y10734D01*
X519476Y10670D01*
X519622Y10610D01*
X519770Y10553D01*
X519919Y10500D01*
X520069Y10451D01*
X520221Y10406D01*
X520374Y10364D01*
X520528Y10326D01*
X520682Y10292D01*
X520838Y10262D01*
X520994Y10236D01*
X521150Y10213D01*
X521308Y10195D01*
X521465Y10180D01*
X521623Y10169D01*
X521781Y10163D01*
X521940Y10160D01*
X522098Y10161D01*
X522256Y10166D01*
X522414Y10176D01*
X522572Y10189D01*
X522730Y10206D01*
X522886Y10226D01*
X523043Y10251D01*
X523199Y10280D01*
X523353Y10313D01*
X523508Y10349D01*
X523661Y10389D01*
X523813Y10433D01*
X523964Y10481D01*
X524113Y10533D01*
X524262Y10588D01*
X524409Y10647D01*
X524554Y10710D01*
X524698Y10776D01*
X524840Y10846D01*
X524980Y10919D01*
X525119Y10996D01*
X525255Y11076D01*
X525390Y11159D01*
X525522Y11246D01*
X525652Y11337D01*
X525780Y11430D01*
X525905Y11527D01*
X526028Y11626D01*
X526149Y11729D01*
X526267Y11835D01*
X526382Y11943D01*
X526495Y12055D01*
X526604Y12169D01*
X526711Y12286D01*
X526815Y12405D01*
X526916Y12527D01*
X527013Y12652D01*
X527108Y12779D01*
X527200Y12908D01*
X527288Y13039D01*
X527373Y13173D01*
X527454Y13309D01*
X527532Y13447D01*
X527607Y13586D01*
X527678Y13728D01*
X527746Y13871D01*
X527810Y14016D01*
X527870Y14162D01*
X527927Y14310D01*
X527980Y14459D01*
X528029Y14609D01*
X528074Y14761D01*
X528116Y14914D01*
X528154Y15068D01*
X528188Y15222D01*
X528218Y15378D01*
X528244Y15534D01*
X528267Y15690D01*
X528285Y15848D01*
X528300Y16005D01*
X528311Y16163D01*
X528317Y16321D01*
X528320Y16480D01*
X528319Y16638D01*
X528314Y16796D01*
X528304Y16954D01*
X528291Y17112D01*
X528274Y17270D01*
X528254Y17426D01*
X528229Y17583D01*
X528200Y17739D01*
X528167Y17893D01*
X528131Y18048D01*
X528091Y18201D01*
X528047Y18353D01*
X527999Y18504D01*
X527947Y18653D01*
X527892Y18802D01*
X527833Y18949D01*
X527770Y19094D01*
X527704Y19238D01*
X527634Y19380D01*
X527561Y19520D01*
X527484Y19659D01*
X527404Y19795D01*
X527321Y19930D01*
X527234Y20062D01*
X527143Y20192D01*
X527050Y20320D01*
X472834Y18142D02*
X472859Y17977D01*
X472881Y17812D01*
X472898Y17646D01*
X472911Y17480D01*
X472921Y17313D01*
X472926Y17147D01*
X472927Y16980D01*
X472924Y16813D01*
X472917Y16647D01*
X472906Y16480D01*
X472891Y16314D01*
X472872Y16149D01*
X472848Y15983D01*
X472821Y15819D01*
X472790Y15655D01*
X472755Y15492D01*
X472715Y15330D01*
X472672Y15169D01*
X472625Y15009D01*
X472574Y14850D01*
X472520Y14693D01*
X472461Y14537D01*
X472399Y14382D01*
X472332Y14229D01*
X472263Y14078D01*
X472189Y13928D01*
X472112Y13780D01*
X472031Y13634D01*
X471947Y13490D01*
X471859Y13349D01*
X471768Y13209D01*
X471673Y13072D01*
X471575Y12937D01*
X471474Y12804D01*
X471370Y12674D01*
X471263Y12547D01*
X471152Y12422D01*
X471038Y12300D01*
X470922Y12180D01*
X470802Y12064D01*
X470680Y11951D01*
X470555Y11840D01*
X470428Y11733D01*
X470298Y11629D01*
X470165Y11528D01*
X470030Y11430D01*
X469893Y11335D01*
X469753Y11244D01*
X469611Y11157D01*
X469467Y11073D01*
X469321Y10992D01*
X469173Y10915D01*
X469023Y10842D01*
X468872Y10772D01*
X468719Y10706D01*
X468564Y10644D01*
X468408Y10585D01*
X468250Y10531D01*
X468092Y10480D01*
X467932Y10433D01*
X467771Y10390D01*
X467608Y10351D01*
X467445Y10316D01*
X467282Y10285D01*
X467117Y10258D01*
X466952Y10235D01*
X466786Y10216D01*
X466620Y10201D01*
X466454Y10190D01*
X466287Y10183D01*
X466121Y10180D01*
X465954Y10181D01*
X465787Y10187D01*
X465621Y10196D01*
X465454Y10210D01*
X465289Y10227D01*
X465123Y10249D01*
X464959Y10274D01*
X464794Y10304D01*
X464631Y10337D01*
X464469Y10375D01*
X464307Y10416D01*
X464147Y10462D01*
X463987Y10511D01*
X463829Y10564D01*
X463673Y10621D01*
X463518Y10682D01*
X463364Y10747D01*
X463212Y10815D01*
X463061Y10887D01*
X462913Y10962D01*
X462766Y11042D01*
X462621Y11125D01*
X462479Y11211D01*
X462338Y11301D01*
X462200Y11394D01*
X462064Y11490D01*
X461930Y11590D01*
X461799Y11693D01*
X461671Y11799D01*
X461545Y11908D01*
X461421Y12021D01*
X461301Y12136D01*
X461183Y12254D01*
X461069Y12375D01*
X460957Y12499D01*
X460848Y12626D01*
X460743Y12755D01*
X460640Y12886D01*
X460541Y13020D01*
X460445Y13157D01*
X460353Y13296D01*
X460264Y13437D01*
X460178Y13580D01*
X460096Y13725D01*
X460018Y13872D01*
X459943Y14021D01*
X459872Y14172D01*
X459804Y14324D01*
X459740Y14478D01*
X519430Y77470D02*
X519577Y77409D01*
X519725Y77351D01*
X519875Y77296D01*
X520026Y77246D01*
X520178Y77199D01*
X520332Y77156D01*
X520486Y77117D01*
X520641Y77082D01*
X520798Y77051D01*
X520955Y77023D01*
X521112Y77000D01*
X521270Y76981D01*
X521429Y76965D01*
X521588Y76953D01*
X521747Y76946D01*
X521906Y76942D01*
X522065Y76943D01*
X522224Y76947D01*
X522383Y76955D01*
X522542Y76968D01*
X522701Y76984D01*
X522859Y77004D01*
X523016Y77028D01*
X523173Y77057D01*
X523329Y77089D01*
X523484Y77124D01*
X523638Y77164D01*
X523791Y77208D01*
X523943Y77255D01*
X524094Y77307D01*
X524244Y77362D01*
X524392Y77420D01*
X524538Y77483D01*
X524683Y77549D01*
X524826Y77618D01*
X524968Y77691D01*
X525107Y77768D01*
X525245Y77848D01*
X525381Y77932D01*
X525514Y78019D01*
X525645Y78109D01*
X525774Y78203D01*
X525901Y78299D01*
X526025Y78399D01*
X526147Y78502D01*
X526265Y78608D01*
X526382Y78717D01*
X526495Y78828D01*
X526606Y78943D01*
X526714Y79060D01*
X526819Y79180D01*
X526920Y79303D01*
X527019Y79428D01*
X527115Y79555D01*
X527207Y79685D01*
X527296Y79817D01*
X527382Y79951D01*
X527464Y80087D01*
X527543Y80226D01*
X527618Y80366D01*
X527690Y80508D01*
X527759Y80652D01*
X527823Y80797D01*
X527884Y80945D01*
X527942Y81093D01*
X527995Y81243D01*
X528045Y81394D01*
X528091Y81547D01*
X528134Y81700D01*
X528172Y81855D01*
X528206Y82010D01*
X528237Y82167D01*
X528264Y82324D01*
X528286Y82481D01*
X528305Y82640D01*
X528320Y82798D01*
X528331Y82957D01*
X528338Y83116D01*
X528341Y83275D01*
X528340Y83435D01*
X528335Y83594D01*
X528326Y83753D01*
X528313Y83912D01*
X528296Y84070D01*
X528275Y84228D01*
X528250Y84385D01*
X528221Y84542D01*
X528189Y84698D01*
X528152Y84853D01*
X528112Y85007D01*
X528067Y85160D01*
X528019Y85312D01*
X527968Y85462D01*
X527912Y85611D01*
X527853Y85759D01*
X527790Y85906D01*
X527723Y86050D01*
X527653Y86193D01*
X527579Y86334D01*
X527502Y86474D01*
X527421Y86611D01*
X527337Y86746D01*
X527249Y86879D01*
X527159Y87010D01*
X527065Y87139D01*
X526967Y87265D01*
X526867Y87388D01*
X526764Y87510D01*
X526657Y87628D01*
X526548Y87744D01*
X526436Y87857D01*
X526321Y87967D01*
X526203Y88074D01*
X526083Y88179D01*
X525960Y88280D01*
X525834Y88378D01*
X525707Y88473D01*
X525576Y88565D01*
X525444Y88654D01*
X525309Y88739D01*
X525173Y88820D01*
X525034Y88899D01*
X524893Y88974D01*
X524751Y89045D01*
X524607Y89113D01*
X402590Y127000D02*
X402590Y16510D01*
X463042Y48006D02*
X472948Y17780D01*
X415290Y16002D02*
X422402Y70104D01*
X478282Y98298D02*
X519430Y77470D01*
X435356Y73660D02*
X459740Y14478D01*
X472948Y55372D02*
X517398Y12192D01*
X527050Y20066D02*
X469900Y89408D01*
X402590Y144780D02*
X232410Y144780D01*
X466090Y121920D02*
X524764Y88900D01*
X435610Y73152D02*
X435546Y73306D01*
X435478Y73459D01*
X435407Y73609D01*
X435332Y73758D01*
X435254Y73905D01*
X435172Y74051D01*
X435086Y74194D01*
X434997Y74335D01*
X434905Y74473D01*
X434809Y74610D01*
X434710Y74744D01*
X434607Y74876D01*
X434502Y75005D01*
X434393Y75131D01*
X434281Y75255D01*
X434167Y75376D01*
X434049Y75494D01*
X433929Y75610D01*
X433805Y75722D01*
X433679Y75831D01*
X433551Y75938D01*
X433420Y76041D01*
X433286Y76140D01*
X433150Y76237D01*
X433012Y76330D01*
X432871Y76420D01*
X432729Y76506D01*
X432584Y76589D01*
X432437Y76668D01*
X432288Y76744D01*
X432138Y76816D01*
X431986Y76884D01*
X431832Y76949D01*
X431677Y77010D01*
X431520Y77067D01*
X431362Y77120D01*
X431203Y77169D01*
X431042Y77215D01*
X430881Y77256D01*
X430718Y77294D01*
X430555Y77327D01*
X430391Y77357D01*
X430226Y77382D01*
X430061Y77404D01*
X429895Y77421D01*
X429729Y77435D01*
X429562Y77444D01*
X429395Y77450D01*
X429229Y77451D01*
X429062Y77448D01*
X428895Y77441D01*
X428729Y77430D01*
X428563Y77415D01*
X428397Y77396D01*
X428232Y77373D01*
X428067Y77346D01*
X427904Y77315D01*
X427741Y77280D01*
X427578Y77241D01*
X427417Y77198D01*
X427257Y77151D01*
X427098Y77100D01*
X426941Y77046D01*
X426785Y76987D01*
X426630Y76925D01*
X426477Y76859D01*
X426325Y76789D01*
X426176Y76716D01*
X426028Y76639D01*
X425882Y76558D01*
X425738Y76474D01*
X425596Y76387D01*
X425456Y76296D01*
X425319Y76201D01*
X425184Y76103D01*
X425051Y76002D01*
X424921Y75898D01*
X424793Y75791D01*
X424668Y75680D01*
X424546Y75567D01*
X424427Y75450D01*
X424310Y75331D01*
X424196Y75209D01*
X424086Y75084D01*
X423978Y74957D01*
X423874Y74827D01*
X423773Y74694D01*
X423675Y74559D01*
X423580Y74422D01*
X423489Y74282D01*
X423401Y74140D01*
X423317Y73996D01*
X423236Y73850D01*
X423159Y73703D01*
X423086Y73553D01*
X423016Y73402D01*
X422950Y73248D01*
X422887Y73094D01*
X422829Y72938D01*
X422774Y72780D01*
X422723Y72621D01*
X422676Y72461D01*
X422633Y72300D01*
X422593Y72138D01*
X422558Y71975D01*
X422527Y71811D01*
X422500Y71647D01*
X422477Y71482D01*
X422457Y71316D01*
X422442Y71150D01*
X422431Y70984D01*
X422424Y70817D01*
X422421Y70650D01*
X422422Y70484D01*
X422427Y70317D01*
X422437Y70150D01*
X422450Y69984D01*
X422467Y69818D01*
X422489Y69653D01*
X422514Y69488D01*
X463550Y46990D02*
X463457Y47118D01*
X463366Y47248D01*
X463279Y47380D01*
X463196Y47515D01*
X463116Y47651D01*
X463039Y47790D01*
X462966Y47930D01*
X462896Y48072D01*
X462830Y48216D01*
X462767Y48361D01*
X462708Y48508D01*
X462653Y48657D01*
X462601Y48806D01*
X462553Y48957D01*
X462509Y49109D01*
X462469Y49262D01*
X462433Y49417D01*
X462400Y49571D01*
X462371Y49727D01*
X462346Y49884D01*
X462326Y50040D01*
X462309Y50198D01*
X462296Y50356D01*
X462286Y50514D01*
X462281Y50672D01*
X462280Y50830D01*
X462283Y50989D01*
X462289Y51147D01*
X462300Y51305D01*
X462315Y51462D01*
X462333Y51620D01*
X462356Y51776D01*
X462382Y51932D01*
X462412Y52088D01*
X462446Y52242D01*
X462484Y52396D01*
X462526Y52549D01*
X462571Y52701D01*
X462620Y52851D01*
X462673Y53000D01*
X462730Y53148D01*
X462790Y53294D01*
X462854Y53439D01*
X462922Y53582D01*
X462993Y53724D01*
X463068Y53863D01*
X463146Y54001D01*
X463227Y54137D01*
X463312Y54271D01*
X463400Y54402D01*
X463492Y54531D01*
X463587Y54658D01*
X463684Y54783D01*
X463785Y54905D01*
X463889Y55024D01*
X463996Y55141D01*
X464105Y55255D01*
X464218Y55367D01*
X464333Y55475D01*
X464451Y55581D01*
X464572Y55684D01*
X464695Y55783D01*
X464820Y55880D01*
X464948Y55973D01*
X465078Y56064D01*
X465210Y56151D01*
X465345Y56234D01*
X465481Y56314D01*
X465620Y56391D01*
X465760Y56464D01*
X465902Y56534D01*
X466046Y56600D01*
X466191Y56663D01*
X466338Y56722D01*
X466487Y56777D01*
X466636Y56829D01*
X466787Y56877D01*
X466939Y56921D01*
X467092Y56961D01*
X467247Y56997D01*
X467401Y57030D01*
X467557Y57059D01*
X467714Y57084D01*
X467870Y57104D01*
X468028Y57121D01*
X468186Y57134D01*
X468344Y57144D01*
X468502Y57149D01*
X468660Y57150D01*
X468819Y57147D01*
X468977Y57141D01*
X469135Y57130D01*
X469292Y57115D01*
X469450Y57097D01*
X469606Y57074D01*
X469762Y57048D01*
X469918Y57018D01*
X470072Y56984D01*
X470226Y56946D01*
X470379Y56904D01*
X470531Y56859D01*
X470681Y56810D01*
X470830Y56757D01*
X470978Y56700D01*
X471124Y56640D01*
X471269Y56576D01*
X471412Y56508D01*
X471554Y56437D01*
X471693Y56362D01*
X471831Y56284D01*
X471967Y56203D01*
X472101Y56118D01*
X472232Y56030D01*
X472361Y55938D01*
X472488Y55843D01*
X472613Y55746D01*
X472735Y55645D01*
X472854Y55541D01*
X472971Y55434D01*
X473085Y55325D01*
X473197Y55212D01*
X473305Y55097D01*
X473411Y54979D01*
X473514Y54858D01*
X473613Y54735D01*
X473710Y54610D01*
X469900Y89154D02*
X469813Y89287D01*
X469730Y89423D01*
X469650Y89561D01*
X469573Y89700D01*
X469500Y89842D01*
X469431Y89985D01*
X469365Y90130D01*
X469303Y90277D01*
X469244Y90425D01*
X469189Y90574D01*
X469138Y90725D01*
X469090Y90877D01*
X469047Y91030D01*
X469007Y91185D01*
X468971Y91340D01*
X468939Y91496D01*
X468911Y91653D01*
X468886Y91810D01*
X468866Y91968D01*
X468850Y92126D01*
X468837Y92285D01*
X468829Y92444D01*
X468824Y92603D01*
X468823Y92762D01*
X468826Y92922D01*
X468834Y93081D01*
X468845Y93240D01*
X468860Y93398D01*
X468879Y93556D01*
X468902Y93714D01*
X468929Y93871D01*
X468960Y94027D01*
X468994Y94183D01*
X469033Y94337D01*
X469075Y94491D01*
X469121Y94643D01*
X469171Y94794D01*
X469225Y94944D01*
X469282Y95093D01*
X469343Y95240D01*
X469408Y95385D01*
X469476Y95529D01*
X469548Y95671D01*
X469623Y95812D01*
X469702Y95950D01*
X469784Y96087D01*
X469870Y96221D01*
X469959Y96353D01*
X470051Y96483D01*
X470146Y96611D01*
X470244Y96736D01*
X470346Y96859D01*
X470450Y96979D01*
X470558Y97096D01*
X470668Y97211D01*
X470781Y97323D01*
X470897Y97432D01*
X471016Y97538D01*
X471137Y97642D01*
X471261Y97742D01*
X471387Y97839D01*
X471516Y97933D01*
X471647Y98024D01*
X471780Y98111D01*
X471915Y98195D01*
X472052Y98276D01*
X472191Y98354D01*
X472332Y98427D01*
X472475Y98498D01*
X472620Y98565D01*
X472766Y98628D01*
X472914Y98687D01*
X473063Y98743D01*
X473214Y98795D01*
X473365Y98843D01*
X473518Y98888D01*
X473672Y98929D01*
X473827Y98966D01*
X473983Y98999D01*
X474139Y99028D01*
X474297Y99053D01*
X474454Y99074D01*
X474613Y99092D01*
X474771Y99105D01*
X474930Y99115D01*
X475090Y99120D01*
X475249Y99122D01*
X475408Y99120D01*
X475567Y99113D01*
X475726Y99103D01*
X475885Y99089D01*
X476043Y99071D01*
X476201Y99049D01*
X476358Y99023D01*
X476514Y98993D01*
X476670Y98959D01*
X476825Y98922D01*
X476978Y98880D01*
X477131Y98835D01*
X477283Y98786D01*
X477433Y98734D01*
X477582Y98677D01*
X477729Y98617D01*
X477875Y98553D01*
X478020Y98486D01*
X478162Y98415D01*
X478303Y98340D01*
X478442Y98263D01*
X478579Y98181D01*
X478714Y98096D01*
X478846Y98008D01*
X232410Y255270D02*
X232408Y255428D01*
X232402Y255587D01*
X232392Y255745D01*
X232378Y255902D01*
X232361Y256060D01*
X232339Y256216D01*
X232314Y256373D01*
X232284Y256528D01*
X232251Y256683D01*
X232214Y256837D01*
X232173Y256990D01*
X232128Y257142D01*
X232079Y257292D01*
X232027Y257442D01*
X231971Y257590D01*
X231911Y257737D01*
X231848Y257882D01*
X231781Y258025D01*
X231711Y258167D01*
X231637Y258307D01*
X231559Y258445D01*
X231478Y258581D01*
X231394Y258715D01*
X231307Y258847D01*
X231216Y258977D01*
X231122Y259104D01*
X231025Y259229D01*
X230924Y259352D01*
X230821Y259472D01*
X230715Y259589D01*
X230606Y259704D01*
X230494Y259816D01*
X230379Y259925D01*
X230262Y260031D01*
X230142Y260134D01*
X230019Y260235D01*
X229894Y260332D01*
X229767Y260426D01*
X229637Y260517D01*
X229505Y260604D01*
X229371Y260688D01*
X229235Y260769D01*
X229097Y260847D01*
X228957Y260921D01*
X228815Y260991D01*
X228672Y261058D01*
X228527Y261121D01*
X228380Y261181D01*
X228232Y261237D01*
X228082Y261289D01*
X227932Y261338D01*
X227780Y261383D01*
X227627Y261424D01*
X227473Y261461D01*
X227318Y261494D01*
X227163Y261524D01*
X227006Y261549D01*
X226850Y261571D01*
X226692Y261588D01*
X226535Y261602D01*
X226377Y261612D01*
X226218Y261618D01*
X226060Y261620D01*
X225902Y261618D01*
X225743Y261612D01*
X225585Y261602D01*
X225428Y261588D01*
X225270Y261571D01*
X225114Y261549D01*
X224957Y261524D01*
X224802Y261494D01*
X224647Y261461D01*
X224493Y261424D01*
X224340Y261383D01*
X224188Y261338D01*
X224038Y261289D01*
X223888Y261237D01*
X223740Y261181D01*
X223593Y261121D01*
X223448Y261058D01*
X223305Y260991D01*
X223163Y260921D01*
X223023Y260847D01*
X222885Y260769D01*
X222749Y260688D01*
X222615Y260604D01*
X222483Y260517D01*
X222353Y260426D01*
X222226Y260332D01*
X222101Y260235D01*
X221978Y260134D01*
X221858Y260031D01*
X221741Y259925D01*
X221626Y259816D01*
X221514Y259704D01*
X221405Y259589D01*
X221299Y259472D01*
X221196Y259352D01*
X221095Y259229D01*
X220998Y259104D01*
X220904Y258977D01*
X220813Y258847D01*
X220726Y258715D01*
X220642Y258581D01*
X220561Y258445D01*
X220483Y258307D01*
X220409Y258167D01*
X220339Y258025D01*
X220272Y257882D01*
X220209Y257737D01*
X220149Y257590D01*
X220093Y257442D01*
X220041Y257292D01*
X219992Y257142D01*
X219947Y256990D01*
X219906Y256837D01*
X219869Y256683D01*
X219836Y256528D01*
X219806Y256373D01*
X219781Y256216D01*
X219759Y256060D01*
X219742Y255902D01*
X219728Y255745D01*
X219718Y255587D01*
X219712Y255428D01*
X219710Y255270D01*
X118110Y259080D02*
X118013Y259205D01*
X117914Y259328D01*
X117811Y259449D01*
X117705Y259567D01*
X117597Y259682D01*
X117485Y259795D01*
X117371Y259904D01*
X117254Y260011D01*
X117135Y260115D01*
X117013Y260216D01*
X116888Y260313D01*
X116761Y260408D01*
X116632Y260500D01*
X116501Y260588D01*
X116367Y260673D01*
X116231Y260754D01*
X116093Y260832D01*
X115954Y260907D01*
X115812Y260978D01*
X115669Y261046D01*
X115524Y261110D01*
X115378Y261170D01*
X115230Y261227D01*
X115081Y261280D01*
X114931Y261329D01*
X114779Y261374D01*
X114626Y261416D01*
X114472Y261454D01*
X114318Y261488D01*
X114162Y261518D01*
X114006Y261544D01*
X113850Y261567D01*
X113692Y261585D01*
X113535Y261600D01*
X113377Y261611D01*
X113219Y261617D01*
X113060Y261620D01*
X112902Y261619D01*
X112744Y261614D01*
X112586Y261604D01*
X112428Y261591D01*
X112270Y261574D01*
X112114Y261554D01*
X111957Y261529D01*
X111801Y261500D01*
X111647Y261467D01*
X111492Y261431D01*
X111339Y261391D01*
X111187Y261347D01*
X111036Y261299D01*
X110887Y261247D01*
X110738Y261192D01*
X110591Y261133D01*
X110446Y261070D01*
X110302Y261004D01*
X110160Y260934D01*
X110020Y260861D01*
X109881Y260784D01*
X109745Y260704D01*
X109610Y260621D01*
X109478Y260534D01*
X109348Y260443D01*
X109220Y260350D01*
X109095Y260253D01*
X108972Y260154D01*
X108851Y260051D01*
X108733Y259945D01*
X108618Y259837D01*
X108505Y259725D01*
X108396Y259611D01*
X108289Y259494D01*
X108185Y259375D01*
X108084Y259253D01*
X107987Y259128D01*
X107892Y259001D01*
X107800Y258872D01*
X107712Y258741D01*
X107627Y258607D01*
X107546Y258471D01*
X107468Y258333D01*
X107393Y258194D01*
X107322Y258052D01*
X107254Y257909D01*
X107190Y257764D01*
X107130Y257618D01*
X107073Y257470D01*
X107020Y257321D01*
X106971Y257171D01*
X106926Y257019D01*
X106884Y256866D01*
X106846Y256712D01*
X106812Y256558D01*
X106782Y256402D01*
X106756Y256246D01*
X106733Y256090D01*
X106715Y255932D01*
X106700Y255775D01*
X106689Y255617D01*
X106683Y255459D01*
X106680Y255300D01*
X106681Y255142D01*
X106686Y254984D01*
X106696Y254826D01*
X106709Y254668D01*
X106726Y254510D01*
X106746Y254354D01*
X106771Y254197D01*
X106800Y254041D01*
X106833Y253887D01*
X106869Y253732D01*
X106909Y253579D01*
X106953Y253427D01*
X107001Y253276D01*
X107053Y253127D01*
X107108Y252978D01*
X107167Y252831D01*
X107230Y252686D01*
X107296Y252542D01*
X107366Y252400D01*
X107439Y252260D01*
X107516Y252121D01*
X107596Y251985D01*
X107679Y251850D01*
X107766Y251718D01*
X107857Y251588D01*
X107950Y251460D01*
X162164Y253638D02*
X162139Y253803D01*
X162117Y253968D01*
X162100Y254134D01*
X162087Y254300D01*
X162077Y254467D01*
X162072Y254634D01*
X162071Y254800D01*
X162074Y254967D01*
X162081Y255134D01*
X162092Y255300D01*
X162107Y255466D01*
X162127Y255632D01*
X162150Y255797D01*
X162177Y255962D01*
X162208Y256126D01*
X162244Y256289D01*
X162283Y256451D01*
X162326Y256612D01*
X162373Y256772D01*
X162424Y256931D01*
X162479Y257088D01*
X162537Y257244D01*
X162600Y257399D01*
X162666Y257552D01*
X162736Y257703D01*
X162809Y257853D01*
X162886Y258001D01*
X162967Y258147D01*
X163052Y258291D01*
X163139Y258433D01*
X163231Y258572D01*
X163325Y258710D01*
X163423Y258845D01*
X163524Y258977D01*
X163629Y259107D01*
X163736Y259235D01*
X163847Y259360D01*
X163960Y259482D01*
X164077Y259601D01*
X164196Y259717D01*
X164318Y259831D01*
X164443Y259941D01*
X164571Y260049D01*
X164701Y260153D01*
X164834Y260254D01*
X164969Y260352D01*
X165106Y260446D01*
X165246Y260537D01*
X165388Y260625D01*
X165532Y260709D01*
X165678Y260790D01*
X165826Y260867D01*
X165976Y260940D01*
X166127Y261010D01*
X166280Y261076D01*
X166435Y261138D01*
X166591Y261197D01*
X166749Y261251D01*
X166908Y261302D01*
X167068Y261349D01*
X167229Y261392D01*
X167391Y261431D01*
X167554Y261466D01*
X167718Y261497D01*
X167883Y261524D01*
X168048Y261547D01*
X168214Y261566D01*
X168380Y261581D01*
X168546Y261592D01*
X168713Y261599D01*
X168879Y261602D01*
X169046Y261601D01*
X169213Y261595D01*
X169379Y261586D01*
X169546Y261572D01*
X169712Y261555D01*
X169877Y261533D01*
X170042Y261508D01*
X170206Y261478D01*
X170369Y261445D01*
X170532Y261407D01*
X170693Y261366D01*
X170854Y261320D01*
X171013Y261271D01*
X171171Y261218D01*
X171328Y261161D01*
X171483Y261100D01*
X171637Y261035D01*
X171789Y260967D01*
X171940Y260895D01*
X172088Y260819D01*
X172235Y260740D01*
X172380Y260657D01*
X172522Y260571D01*
X172663Y260481D01*
X172801Y260388D01*
X172937Y260291D01*
X173071Y260192D01*
X173202Y260089D01*
X173331Y259982D01*
X173457Y259873D01*
X173580Y259761D01*
X173700Y259645D01*
X173818Y259527D01*
X173933Y259406D01*
X174044Y259282D01*
X174153Y259156D01*
X174259Y259027D01*
X174361Y258895D01*
X174460Y258761D01*
X174556Y258624D01*
X174649Y258486D01*
X174738Y258345D01*
X174823Y258202D01*
X174905Y258056D01*
X174984Y257909D01*
X175059Y257760D01*
X175130Y257609D01*
X175198Y257457D01*
X175262Y257303D01*
X115569Y194308D02*
X115422Y194370D01*
X115274Y194428D01*
X115124Y194482D01*
X114973Y194532D01*
X114821Y194579D01*
X114668Y194622D01*
X114513Y194661D01*
X114358Y194696D01*
X114202Y194727D01*
X114045Y194755D01*
X113888Y194778D01*
X113729Y194797D01*
X113571Y194813D01*
X113412Y194825D01*
X113253Y194832D01*
X113094Y194836D01*
X112935Y194835D01*
X112776Y194831D01*
X112617Y194823D01*
X112458Y194810D01*
X112300Y194794D01*
X112142Y194774D01*
X111984Y194750D01*
X111828Y194721D01*
X111672Y194689D01*
X111516Y194654D01*
X111362Y194614D01*
X111209Y194570D01*
X111057Y194523D01*
X110906Y194472D01*
X110757Y194417D01*
X110609Y194358D01*
X110462Y194296D01*
X110318Y194230D01*
X110174Y194160D01*
X110033Y194087D01*
X109893Y194010D01*
X109756Y193930D01*
X109620Y193846D01*
X109487Y193759D01*
X109356Y193669D01*
X109227Y193576D01*
X109100Y193479D01*
X108976Y193379D01*
X108855Y193276D01*
X108736Y193171D01*
X108620Y193062D01*
X108506Y192950D01*
X108395Y192836D01*
X108288Y192718D01*
X108183Y192599D01*
X108081Y192476D01*
X107982Y192351D01*
X107887Y192224D01*
X107795Y192094D01*
X107706Y191962D01*
X107620Y191828D01*
X107538Y191692D01*
X107459Y191553D01*
X107383Y191413D01*
X107311Y191271D01*
X107243Y191127D01*
X107178Y190982D01*
X107117Y190835D01*
X107060Y190686D01*
X107006Y190536D01*
X106957Y190385D01*
X106911Y190232D01*
X106868Y190079D01*
X106830Y189924D01*
X106796Y189769D01*
X106765Y189613D01*
X106738Y189456D01*
X106715Y189298D01*
X106697Y189140D01*
X106682Y188982D01*
X106671Y188823D01*
X106664Y188664D01*
X106661Y188504D01*
X106662Y188345D01*
X106667Y188186D01*
X106676Y188027D01*
X106689Y187868D01*
X106706Y187710D01*
X106727Y187552D01*
X106752Y187395D01*
X106781Y187238D01*
X106813Y187083D01*
X106850Y186928D01*
X106890Y186774D01*
X106934Y186621D01*
X106983Y186469D01*
X107034Y186318D01*
X107090Y186169D01*
X107149Y186021D01*
X107212Y185875D01*
X107279Y185731D01*
X107349Y185588D01*
X107423Y185447D01*
X107500Y185307D01*
X107581Y185170D01*
X107665Y185035D01*
X107752Y184902D01*
X107843Y184771D01*
X107937Y184643D01*
X108034Y184516D01*
X108135Y184393D01*
X108238Y184272D01*
X108344Y184153D01*
X108454Y184037D01*
X108566Y183924D01*
X108681Y183814D01*
X108798Y183707D01*
X108919Y183603D01*
X109042Y183501D01*
X109167Y183403D01*
X109295Y183308D01*
X109425Y183217D01*
X109557Y183128D01*
X109692Y183043D01*
X109828Y182961D01*
X109967Y182883D01*
X110108Y182808D01*
X110250Y182737D01*
X110394Y182669D01*
X232410Y144780D02*
X232410Y255270D01*
X171958Y223774D02*
X162052Y254000D01*
X219710Y255778D02*
X212598Y201676D01*
X156718Y173482D02*
X115570Y194310D01*
X199644Y198120D02*
X175260Y257302D01*
X162052Y216408D02*
X117602Y259588D01*
X107950Y251714D02*
X165100Y182372D01*
X168910Y149860D02*
X110236Y182880D01*
X199390Y198628D02*
X199454Y198474D01*
X199522Y198321D01*
X199593Y198171D01*
X199668Y198022D01*
X199746Y197875D01*
X199828Y197729D01*
X199914Y197586D01*
X200003Y197445D01*
X200095Y197307D01*
X200191Y197170D01*
X200290Y197036D01*
X200393Y196904D01*
X200498Y196775D01*
X200607Y196649D01*
X200719Y196525D01*
X200833Y196404D01*
X200951Y196286D01*
X201071Y196170D01*
X201195Y196058D01*
X201321Y195949D01*
X201449Y195842D01*
X201580Y195739D01*
X201714Y195640D01*
X201850Y195543D01*
X201988Y195450D01*
X202129Y195360D01*
X202271Y195274D01*
X202416Y195191D01*
X202563Y195112D01*
X202712Y195036D01*
X202862Y194964D01*
X203014Y194896D01*
X203168Y194831D01*
X203323Y194770D01*
X203480Y194713D01*
X203638Y194660D01*
X203797Y194611D01*
X203958Y194565D01*
X204119Y194524D01*
X204282Y194486D01*
X204445Y194453D01*
X204609Y194423D01*
X204774Y194398D01*
X204939Y194376D01*
X205105Y194359D01*
X205271Y194345D01*
X205438Y194336D01*
X205605Y194330D01*
X205771Y194329D01*
X205938Y194332D01*
X206105Y194339D01*
X206271Y194350D01*
X206437Y194365D01*
X206603Y194384D01*
X206768Y194407D01*
X206933Y194434D01*
X207096Y194465D01*
X207259Y194500D01*
X207422Y194539D01*
X207583Y194582D01*
X207743Y194629D01*
X207902Y194680D01*
X208059Y194734D01*
X208215Y194793D01*
X208370Y194855D01*
X208523Y194921D01*
X208675Y194991D01*
X208824Y195064D01*
X208972Y195141D01*
X209118Y195222D01*
X209262Y195306D01*
X209404Y195393D01*
X209544Y195484D01*
X209681Y195579D01*
X209816Y195677D01*
X209949Y195778D01*
X210079Y195882D01*
X210207Y195989D01*
X210332Y196100D01*
X210454Y196213D01*
X210573Y196330D01*
X210690Y196449D01*
X210804Y196571D01*
X210914Y196696D01*
X211022Y196823D01*
X211126Y196953D01*
X211227Y197086D01*
X211325Y197221D01*
X211420Y197358D01*
X211511Y197498D01*
X211599Y197640D01*
X211683Y197784D01*
X211764Y197930D01*
X211841Y198077D01*
X211914Y198227D01*
X211984Y198378D01*
X212050Y198532D01*
X212113Y198686D01*
X212171Y198842D01*
X212226Y199000D01*
X212277Y199159D01*
X212324Y199319D01*
X212367Y199480D01*
X212407Y199642D01*
X212442Y199805D01*
X212473Y199969D01*
X212500Y200133D01*
X212523Y200298D01*
X212543Y200464D01*
X212558Y200630D01*
X212569Y200796D01*
X212576Y200963D01*
X212579Y201130D01*
X212578Y201296D01*
X212573Y201463D01*
X212563Y201630D01*
X212550Y201796D01*
X212533Y201962D01*
X212511Y202127D01*
X212486Y202292D01*
X171450Y224790D02*
X171543Y224662D01*
X171634Y224532D01*
X171721Y224400D01*
X171804Y224265D01*
X171884Y224129D01*
X171961Y223990D01*
X172034Y223850D01*
X172104Y223708D01*
X172170Y223564D01*
X172233Y223419D01*
X172292Y223272D01*
X172347Y223123D01*
X172399Y222974D01*
X172447Y222823D01*
X172491Y222671D01*
X172531Y222518D01*
X172567Y222363D01*
X172600Y222209D01*
X172629Y222053D01*
X172654Y221896D01*
X172674Y221740D01*
X172691Y221582D01*
X172704Y221424D01*
X172714Y221266D01*
X172719Y221108D01*
X172720Y220950D01*
X172717Y220791D01*
X172711Y220633D01*
X172700Y220475D01*
X172685Y220318D01*
X172667Y220160D01*
X172644Y220004D01*
X172618Y219848D01*
X172588Y219692D01*
X172554Y219538D01*
X172516Y219384D01*
X172474Y219231D01*
X172429Y219079D01*
X172380Y218929D01*
X172327Y218780D01*
X172270Y218632D01*
X172210Y218486D01*
X172146Y218341D01*
X172078Y218198D01*
X172007Y218056D01*
X171932Y217917D01*
X171854Y217779D01*
X171773Y217643D01*
X171688Y217509D01*
X171600Y217378D01*
X171508Y217249D01*
X171413Y217122D01*
X171316Y216997D01*
X171215Y216875D01*
X171111Y216756D01*
X171004Y216639D01*
X170895Y216525D01*
X170782Y216413D01*
X170667Y216305D01*
X170549Y216199D01*
X170428Y216096D01*
X170305Y215997D01*
X170180Y215900D01*
X170052Y215807D01*
X169922Y215716D01*
X169790Y215629D01*
X169655Y215546D01*
X169519Y215466D01*
X169380Y215389D01*
X169240Y215316D01*
X169098Y215246D01*
X168954Y215180D01*
X168809Y215117D01*
X168662Y215058D01*
X168513Y215003D01*
X168364Y214951D01*
X168213Y214903D01*
X168061Y214859D01*
X167908Y214819D01*
X167753Y214783D01*
X167599Y214750D01*
X167443Y214721D01*
X167286Y214696D01*
X167130Y214676D01*
X166972Y214659D01*
X166814Y214646D01*
X166656Y214636D01*
X166498Y214631D01*
X166340Y214630D01*
X166181Y214633D01*
X166023Y214639D01*
X165865Y214650D01*
X165708Y214665D01*
X165550Y214683D01*
X165394Y214706D01*
X165238Y214732D01*
X165082Y214762D01*
X164928Y214796D01*
X164774Y214834D01*
X164621Y214876D01*
X164469Y214921D01*
X164319Y214970D01*
X164170Y215023D01*
X164022Y215080D01*
X163876Y215140D01*
X163731Y215204D01*
X163588Y215272D01*
X163446Y215343D01*
X163307Y215418D01*
X163169Y215496D01*
X163033Y215577D01*
X162899Y215662D01*
X162768Y215750D01*
X162639Y215842D01*
X162512Y215937D01*
X162387Y216034D01*
X162265Y216135D01*
X162146Y216239D01*
X162029Y216346D01*
X161915Y216455D01*
X161803Y216568D01*
X161695Y216683D01*
X161589Y216801D01*
X161486Y216922D01*
X161387Y217045D01*
X161290Y217170D01*
X165099Y182625D02*
X165186Y182491D01*
X165269Y182356D01*
X165349Y182218D01*
X165425Y182078D01*
X165498Y181937D01*
X165568Y181794D01*
X165633Y181649D01*
X165696Y181502D01*
X165754Y181354D01*
X165809Y181205D01*
X165860Y181054D01*
X165908Y180902D01*
X165951Y180749D01*
X165991Y180595D01*
X166027Y180440D01*
X166059Y180284D01*
X166087Y180127D01*
X166112Y179970D01*
X166132Y179812D01*
X166148Y179653D01*
X166161Y179495D01*
X166169Y179336D01*
X166174Y179177D01*
X166175Y179017D01*
X166171Y178858D01*
X166164Y178699D01*
X166153Y178540D01*
X166138Y178382D01*
X166119Y178224D01*
X166096Y178066D01*
X166069Y177909D01*
X166038Y177753D01*
X166004Y177598D01*
X165965Y177443D01*
X165923Y177290D01*
X165877Y177137D01*
X165827Y176986D01*
X165773Y176836D01*
X165716Y176688D01*
X165655Y176541D01*
X165590Y176395D01*
X165522Y176251D01*
X165450Y176109D01*
X165375Y175969D01*
X165296Y175831D01*
X165214Y175694D01*
X165129Y175560D01*
X165040Y175428D01*
X164948Y175298D01*
X164852Y175171D01*
X164754Y175045D01*
X164653Y174923D01*
X164548Y174803D01*
X164441Y174685D01*
X164330Y174570D01*
X164217Y174458D01*
X164101Y174349D01*
X163983Y174243D01*
X163861Y174140D01*
X163738Y174040D01*
X163612Y173942D01*
X163483Y173849D01*
X163352Y173758D01*
X163219Y173670D01*
X163084Y173586D01*
X162947Y173506D01*
X162808Y173428D01*
X162667Y173354D01*
X162524Y173284D01*
X162379Y173217D01*
X162233Y173154D01*
X162085Y173095D01*
X161936Y173039D01*
X161786Y172987D01*
X161634Y172939D01*
X161481Y172894D01*
X161327Y172853D01*
X161173Y172816D01*
X161017Y172783D01*
X160860Y172754D01*
X160703Y172729D01*
X160545Y172708D01*
X160387Y172690D01*
X160229Y172677D01*
X160070Y172667D01*
X159911Y172662D01*
X159751Y172660D01*
X159592Y172662D01*
X159433Y172669D01*
X159274Y172679D01*
X159116Y172693D01*
X158957Y172711D01*
X158800Y172733D01*
X158643Y172759D01*
X158486Y172789D01*
X158331Y172823D01*
X158176Y172860D01*
X158022Y172901D01*
X157870Y172947D01*
X157718Y172996D01*
X157568Y173048D01*
X157419Y173105D01*
X157272Y173165D01*
X157126Y173229D01*
X156982Y173296D01*
X156839Y173367D01*
X156698Y173441D01*
X156559Y173519D01*
X156423Y173600D01*
X156288Y173685D01*
X156155Y173773D01*
X402590Y255270D02*
X402592Y255428D01*
X402598Y255587D01*
X402608Y255745D01*
X402622Y255902D01*
X402639Y256060D01*
X402661Y256216D01*
X402686Y256373D01*
X402716Y256528D01*
X402749Y256683D01*
X402786Y256837D01*
X402827Y256990D01*
X402872Y257142D01*
X402921Y257292D01*
X402973Y257442D01*
X403029Y257590D01*
X403089Y257737D01*
X403152Y257882D01*
X403219Y258025D01*
X403289Y258167D01*
X403363Y258307D01*
X403441Y258445D01*
X403522Y258581D01*
X403606Y258715D01*
X403693Y258847D01*
X403784Y258977D01*
X403878Y259104D01*
X403975Y259229D01*
X404076Y259352D01*
X404179Y259472D01*
X404285Y259589D01*
X404394Y259704D01*
X404506Y259816D01*
X404621Y259925D01*
X404738Y260031D01*
X404858Y260134D01*
X404981Y260235D01*
X405106Y260332D01*
X405233Y260426D01*
X405363Y260517D01*
X405495Y260604D01*
X405629Y260688D01*
X405765Y260769D01*
X405903Y260847D01*
X406043Y260921D01*
X406185Y260991D01*
X406328Y261058D01*
X406473Y261121D01*
X406620Y261181D01*
X406768Y261237D01*
X406918Y261289D01*
X407068Y261338D01*
X407220Y261383D01*
X407373Y261424D01*
X407527Y261461D01*
X407682Y261494D01*
X407837Y261524D01*
X407994Y261549D01*
X408150Y261571D01*
X408308Y261588D01*
X408465Y261602D01*
X408623Y261612D01*
X408782Y261618D01*
X408940Y261620D01*
X409098Y261618D01*
X409257Y261612D01*
X409415Y261602D01*
X409572Y261588D01*
X409730Y261571D01*
X409886Y261549D01*
X410043Y261524D01*
X410198Y261494D01*
X410353Y261461D01*
X410507Y261424D01*
X410660Y261383D01*
X410812Y261338D01*
X410962Y261289D01*
X411112Y261237D01*
X411260Y261181D01*
X411407Y261121D01*
X411552Y261058D01*
X411695Y260991D01*
X411837Y260921D01*
X411977Y260847D01*
X412115Y260769D01*
X412251Y260688D01*
X412385Y260604D01*
X412517Y260517D01*
X412647Y260426D01*
X412774Y260332D01*
X412899Y260235D01*
X413022Y260134D01*
X413142Y260031D01*
X413259Y259925D01*
X413374Y259816D01*
X413486Y259704D01*
X413595Y259589D01*
X413701Y259472D01*
X413804Y259352D01*
X413905Y259229D01*
X414002Y259104D01*
X414096Y258977D01*
X414187Y258847D01*
X414274Y258715D01*
X414358Y258581D01*
X414439Y258445D01*
X414517Y258307D01*
X414591Y258167D01*
X414661Y258025D01*
X414728Y257882D01*
X414791Y257737D01*
X414851Y257590D01*
X414907Y257442D01*
X414959Y257292D01*
X415008Y257142D01*
X415053Y256990D01*
X415094Y256837D01*
X415131Y256683D01*
X415164Y256528D01*
X415194Y256373D01*
X415219Y256216D01*
X415241Y256060D01*
X415258Y255902D01*
X415272Y255745D01*
X415282Y255587D01*
X415288Y255428D01*
X415290Y255270D01*
X516890Y259080D02*
X516987Y259205D01*
X517086Y259328D01*
X517189Y259449D01*
X517295Y259567D01*
X517403Y259682D01*
X517515Y259795D01*
X517629Y259904D01*
X517746Y260011D01*
X517865Y260115D01*
X517987Y260216D01*
X518112Y260313D01*
X518239Y260408D01*
X518368Y260500D01*
X518499Y260588D01*
X518633Y260673D01*
X518769Y260754D01*
X518907Y260832D01*
X519046Y260907D01*
X519188Y260978D01*
X519331Y261046D01*
X519476Y261110D01*
X519622Y261170D01*
X519770Y261227D01*
X519919Y261280D01*
X520069Y261329D01*
X520221Y261374D01*
X520374Y261416D01*
X520528Y261454D01*
X520682Y261488D01*
X520838Y261518D01*
X520994Y261544D01*
X521150Y261567D01*
X521308Y261585D01*
X521465Y261600D01*
X521623Y261611D01*
X521781Y261617D01*
X521940Y261620D01*
X522098Y261619D01*
X522256Y261614D01*
X522414Y261604D01*
X522572Y261591D01*
X522730Y261574D01*
X522886Y261554D01*
X523043Y261529D01*
X523199Y261500D01*
X523353Y261467D01*
X523508Y261431D01*
X523661Y261391D01*
X523813Y261347D01*
X523964Y261299D01*
X524113Y261247D01*
X524262Y261192D01*
X524409Y261133D01*
X524554Y261070D01*
X524698Y261004D01*
X524840Y260934D01*
X524980Y260861D01*
X525119Y260784D01*
X525255Y260704D01*
X525390Y260621D01*
X525522Y260534D01*
X525652Y260443D01*
X525780Y260350D01*
X525905Y260253D01*
X526028Y260154D01*
X526149Y260051D01*
X526267Y259945D01*
X526382Y259837D01*
X526495Y259725D01*
X526604Y259611D01*
X526711Y259494D01*
X526815Y259375D01*
X526916Y259253D01*
X527013Y259128D01*
X527108Y259001D01*
X527200Y258872D01*
X527288Y258741D01*
X527373Y258607D01*
X527454Y258471D01*
X527532Y258333D01*
X527607Y258194D01*
X527678Y258052D01*
X527746Y257909D01*
X527810Y257764D01*
X527870Y257618D01*
X527927Y257470D01*
X527980Y257321D01*
X528029Y257171D01*
X528074Y257019D01*
X528116Y256866D01*
X528154Y256712D01*
X528188Y256558D01*
X528218Y256402D01*
X528244Y256246D01*
X528267Y256090D01*
X528285Y255932D01*
X528300Y255775D01*
X528311Y255617D01*
X528317Y255459D01*
X528320Y255300D01*
X528319Y255142D01*
X528314Y254984D01*
X528304Y254826D01*
X528291Y254668D01*
X528274Y254510D01*
X528254Y254354D01*
X528229Y254197D01*
X528200Y254041D01*
X528167Y253887D01*
X528131Y253732D01*
X528091Y253579D01*
X528047Y253427D01*
X527999Y253276D01*
X527947Y253127D01*
X527892Y252978D01*
X527833Y252831D01*
X527770Y252686D01*
X527704Y252542D01*
X527634Y252400D01*
X527561Y252260D01*
X527484Y252121D01*
X527404Y251985D01*
X527321Y251850D01*
X527234Y251718D01*
X527143Y251588D01*
X527050Y251460D01*
X472834Y253638D02*
X472859Y253803D01*
X472881Y253968D01*
X472898Y254134D01*
X472911Y254300D01*
X472921Y254467D01*
X472926Y254633D01*
X472927Y254800D01*
X472924Y254967D01*
X472917Y255133D01*
X472906Y255300D01*
X472891Y255466D01*
X472872Y255631D01*
X472848Y255797D01*
X472821Y255961D01*
X472790Y256125D01*
X472755Y256288D01*
X472715Y256450D01*
X472672Y256611D01*
X472625Y256771D01*
X472574Y256930D01*
X472520Y257087D01*
X472461Y257243D01*
X472399Y257398D01*
X472332Y257551D01*
X472263Y257702D01*
X472189Y257852D01*
X472112Y258000D01*
X472031Y258146D01*
X471947Y258290D01*
X471859Y258431D01*
X471768Y258571D01*
X471673Y258708D01*
X471575Y258843D01*
X471474Y258976D01*
X471370Y259106D01*
X471263Y259233D01*
X471152Y259358D01*
X471038Y259480D01*
X470922Y259600D01*
X470802Y259716D01*
X470680Y259829D01*
X470555Y259940D01*
X470428Y260047D01*
X470298Y260151D01*
X470165Y260252D01*
X470030Y260350D01*
X469893Y260445D01*
X469753Y260536D01*
X469611Y260623D01*
X469467Y260707D01*
X469321Y260788D01*
X469173Y260865D01*
X469023Y260938D01*
X468872Y261008D01*
X468719Y261074D01*
X468564Y261136D01*
X468408Y261195D01*
X468250Y261249D01*
X468092Y261300D01*
X467932Y261347D01*
X467771Y261390D01*
X467608Y261429D01*
X467445Y261464D01*
X467282Y261495D01*
X467117Y261522D01*
X466952Y261545D01*
X466786Y261564D01*
X466620Y261579D01*
X466454Y261590D01*
X466287Y261597D01*
X466121Y261600D01*
X465954Y261599D01*
X465787Y261593D01*
X465621Y261584D01*
X465454Y261570D01*
X465289Y261553D01*
X465123Y261531D01*
X464959Y261506D01*
X464794Y261476D01*
X464631Y261443D01*
X464469Y261405D01*
X464307Y261364D01*
X464147Y261318D01*
X463987Y261269D01*
X463829Y261216D01*
X463673Y261159D01*
X463518Y261098D01*
X463364Y261033D01*
X463212Y260965D01*
X463061Y260893D01*
X462913Y260818D01*
X462766Y260738D01*
X462621Y260655D01*
X462479Y260569D01*
X462338Y260479D01*
X462200Y260386D01*
X462064Y260290D01*
X461930Y260190D01*
X461799Y260087D01*
X461671Y259981D01*
X461545Y259872D01*
X461421Y259759D01*
X461301Y259644D01*
X461183Y259526D01*
X461069Y259405D01*
X460957Y259281D01*
X460848Y259154D01*
X460743Y259025D01*
X460640Y258894D01*
X460541Y258760D01*
X460445Y258623D01*
X460353Y258484D01*
X460264Y258343D01*
X460178Y258200D01*
X460096Y258055D01*
X460018Y257908D01*
X459943Y257759D01*
X459872Y257608D01*
X459804Y257456D01*
X459740Y257302D01*
X519430Y194310D02*
X519577Y194371D01*
X519725Y194429D01*
X519875Y194484D01*
X520026Y194534D01*
X520178Y194581D01*
X520332Y194624D01*
X520486Y194663D01*
X520641Y194698D01*
X520798Y194729D01*
X520955Y194757D01*
X521112Y194780D01*
X521270Y194799D01*
X521429Y194815D01*
X521588Y194827D01*
X521747Y194834D01*
X521906Y194838D01*
X522065Y194837D01*
X522224Y194833D01*
X522383Y194825D01*
X522542Y194812D01*
X522701Y194796D01*
X522859Y194776D01*
X523016Y194752D01*
X523173Y194723D01*
X523329Y194691D01*
X523484Y194656D01*
X523638Y194616D01*
X523791Y194572D01*
X523943Y194525D01*
X524094Y194473D01*
X524244Y194418D01*
X524392Y194360D01*
X524538Y194297D01*
X524683Y194231D01*
X524826Y194162D01*
X524968Y194089D01*
X525107Y194012D01*
X525245Y193932D01*
X525381Y193848D01*
X525514Y193761D01*
X525645Y193671D01*
X525774Y193577D01*
X525901Y193481D01*
X526025Y193381D01*
X526147Y193278D01*
X526265Y193172D01*
X526382Y193063D01*
X526495Y192952D01*
X526606Y192837D01*
X526714Y192720D01*
X526819Y192600D01*
X526920Y192477D01*
X527019Y192352D01*
X527115Y192225D01*
X527207Y192095D01*
X527296Y191963D01*
X527382Y191829D01*
X527464Y191693D01*
X527543Y191554D01*
X527618Y191414D01*
X527690Y191272D01*
X527759Y191128D01*
X527823Y190983D01*
X527884Y190835D01*
X527942Y190687D01*
X527995Y190537D01*
X528045Y190386D01*
X528091Y190233D01*
X528134Y190080D01*
X528172Y189925D01*
X528206Y189770D01*
X528237Y189613D01*
X528264Y189456D01*
X528286Y189299D01*
X528305Y189140D01*
X528320Y188982D01*
X528331Y188823D01*
X528338Y188664D01*
X528341Y188505D01*
X528340Y188345D01*
X528335Y188186D01*
X528326Y188027D01*
X528313Y187868D01*
X528296Y187710D01*
X528275Y187552D01*
X528250Y187395D01*
X528221Y187238D01*
X528189Y187082D01*
X528152Y186927D01*
X528112Y186773D01*
X528067Y186620D01*
X528019Y186468D01*
X527968Y186318D01*
X527912Y186169D01*
X527853Y186021D01*
X527790Y185874D01*
X527723Y185730D01*
X527653Y185587D01*
X527579Y185446D01*
X527502Y185306D01*
X527421Y185169D01*
X527337Y185034D01*
X527249Y184901D01*
X527159Y184770D01*
X527065Y184641D01*
X526967Y184515D01*
X526867Y184392D01*
X526764Y184270D01*
X526657Y184152D01*
X526548Y184036D01*
X526436Y183923D01*
X526321Y183813D01*
X526203Y183706D01*
X526083Y183601D01*
X525960Y183500D01*
X525834Y183402D01*
X525707Y183307D01*
X525576Y183215D01*
X525444Y183126D01*
X525309Y183041D01*
X525173Y182960D01*
X525034Y182881D01*
X524893Y182806D01*
X524751Y182735D01*
X524607Y182667D01*
X402590Y144780D02*
X402590Y255270D01*
X463042Y223774D02*
X472948Y254000D01*
X415290Y255778D02*
X422402Y201676D01*
X478282Y173482D02*
X519430Y194310D01*
X435356Y198120D02*
X459740Y257302D01*
X472948Y216408D02*
X517398Y259588D01*
X527050Y251714D02*
X469900Y182372D01*
X466090Y149860D02*
X524764Y182880D01*
X435610Y198628D02*
X435546Y198474D01*
X435478Y198321D01*
X435407Y198171D01*
X435332Y198022D01*
X435254Y197875D01*
X435172Y197729D01*
X435086Y197586D01*
X434997Y197445D01*
X434905Y197307D01*
X434809Y197170D01*
X434710Y197036D01*
X434607Y196904D01*
X434502Y196775D01*
X434393Y196649D01*
X434281Y196525D01*
X434167Y196404D01*
X434049Y196286D01*
X433929Y196170D01*
X433805Y196058D01*
X433679Y195949D01*
X433551Y195842D01*
X433420Y195739D01*
X433286Y195640D01*
X433150Y195543D01*
X433012Y195450D01*
X432871Y195360D01*
X432729Y195274D01*
X432584Y195191D01*
X432437Y195112D01*
X432288Y195036D01*
X432138Y194964D01*
X431986Y194896D01*
X431832Y194831D01*
X431677Y194770D01*
X431520Y194713D01*
X431362Y194660D01*
X431203Y194611D01*
X431042Y194565D01*
X430881Y194524D01*
X430718Y194486D01*
X430555Y194453D01*
X430391Y194423D01*
X430226Y194398D01*
X430061Y194376D01*
X429895Y194359D01*
X429729Y194345D01*
X429562Y194336D01*
X429395Y194330D01*
X429229Y194329D01*
X429062Y194332D01*
X428895Y194339D01*
X428729Y194350D01*
X428563Y194365D01*
X428397Y194384D01*
X428232Y194407D01*
X428067Y194434D01*
X427904Y194465D01*
X427741Y194500D01*
X427578Y194539D01*
X427417Y194582D01*
X427257Y194629D01*
X427098Y194680D01*
X426941Y194734D01*
X426785Y194793D01*
X426630Y194855D01*
X426477Y194921D01*
X426325Y194991D01*
X426176Y195064D01*
X426028Y195141D01*
X425882Y195222D01*
X425738Y195306D01*
X425596Y195393D01*
X425456Y195484D01*
X425319Y195579D01*
X425184Y195677D01*
X425051Y195778D01*
X424921Y195882D01*
X424793Y195989D01*
X424668Y196100D01*
X424546Y196213D01*
X424427Y196330D01*
X424310Y196449D01*
X424196Y196571D01*
X424086Y196696D01*
X423978Y196823D01*
X423874Y196953D01*
X423773Y197086D01*
X423675Y197221D01*
X423580Y197358D01*
X423489Y197498D01*
X423401Y197640D01*
X423317Y197784D01*
X423236Y197930D01*
X423159Y198077D01*
X423086Y198227D01*
X423016Y198378D01*
X422950Y198532D01*
X422887Y198686D01*
X422829Y198842D01*
X422774Y199000D01*
X422723Y199159D01*
X422676Y199319D01*
X422633Y199480D01*
X422593Y199642D01*
X422558Y199805D01*
X422527Y199969D01*
X422500Y200133D01*
X422477Y200298D01*
X422457Y200464D01*
X422442Y200630D01*
X422431Y200796D01*
X422424Y200963D01*
X422421Y201130D01*
X422422Y201296D01*
X422427Y201463D01*
X422437Y201630D01*
X422450Y201796D01*
X422467Y201962D01*
X422489Y202127D01*
X422514Y202292D01*
X463550Y224790D02*
X463457Y224662D01*
X463366Y224532D01*
X463279Y224400D01*
X463196Y224265D01*
X463116Y224129D01*
X463039Y223990D01*
X462966Y223850D01*
X462896Y223708D01*
X462830Y223564D01*
X462767Y223419D01*
X462708Y223272D01*
X462653Y223123D01*
X462601Y222974D01*
X462553Y222823D01*
X462509Y222671D01*
X462469Y222518D01*
X462433Y222363D01*
X462400Y222209D01*
X462371Y222053D01*
X462346Y221896D01*
X462326Y221740D01*
X462309Y221582D01*
X462296Y221424D01*
X462286Y221266D01*
X462281Y221108D01*
X462280Y220950D01*
X462283Y220791D01*
X462289Y220633D01*
X462300Y220475D01*
X462315Y220318D01*
X462333Y220160D01*
X462356Y220004D01*
X462382Y219848D01*
X462412Y219692D01*
X462446Y219538D01*
X462484Y219384D01*
X462526Y219231D01*
X462571Y219079D01*
X462620Y218929D01*
X462673Y218780D01*
X462730Y218632D01*
X462790Y218486D01*
X462854Y218341D01*
X462922Y218198D01*
X462993Y218056D01*
X463068Y217917D01*
X463146Y217779D01*
X463227Y217643D01*
X463312Y217509D01*
X463400Y217378D01*
X463492Y217249D01*
X463587Y217122D01*
X463684Y216997D01*
X463785Y216875D01*
X463889Y216756D01*
X463996Y216639D01*
X464105Y216525D01*
X464218Y216413D01*
X464333Y216305D01*
X464451Y216199D01*
X464572Y216096D01*
X464695Y215997D01*
X464820Y215900D01*
X464948Y215807D01*
X465078Y215716D01*
X465210Y215629D01*
X465345Y215546D01*
X465481Y215466D01*
X465620Y215389D01*
X465760Y215316D01*
X465902Y215246D01*
X466046Y215180D01*
X466191Y215117D01*
X466338Y215058D01*
X466487Y215003D01*
X466636Y214951D01*
X466787Y214903D01*
X466939Y214859D01*
X467092Y214819D01*
X467247Y214783D01*
X467401Y214750D01*
X467557Y214721D01*
X467714Y214696D01*
X467870Y214676D01*
X468028Y214659D01*
X468186Y214646D01*
X468344Y214636D01*
X468502Y214631D01*
X468660Y214630D01*
X468819Y214633D01*
X468977Y214639D01*
X469135Y214650D01*
X469292Y214665D01*
X469450Y214683D01*
X469606Y214706D01*
X469762Y214732D01*
X469918Y214762D01*
X470072Y214796D01*
X470226Y214834D01*
X470379Y214876D01*
X470531Y214921D01*
X470681Y214970D01*
X470830Y215023D01*
X470978Y215080D01*
X471124Y215140D01*
X471269Y215204D01*
X471412Y215272D01*
X471554Y215343D01*
X471693Y215418D01*
X471831Y215496D01*
X471967Y215577D01*
X472101Y215662D01*
X472232Y215750D01*
X472361Y215842D01*
X472488Y215937D01*
X472613Y216034D01*
X472735Y216135D01*
X472854Y216239D01*
X472971Y216346D01*
X473085Y216455D01*
X473197Y216568D01*
X473305Y216683D01*
X473411Y216801D01*
X473514Y216922D01*
X473613Y217045D01*
X473710Y217170D01*
X469900Y182626D02*
X469813Y182493D01*
X469730Y182357D01*
X469650Y182219D01*
X469573Y182079D01*
X469500Y181938D01*
X469431Y181795D01*
X469365Y181650D01*
X469303Y181503D01*
X469244Y181355D01*
X469189Y181206D01*
X469138Y181055D01*
X469091Y180903D01*
X469047Y180750D01*
X469007Y180596D01*
X468971Y180441D01*
X468939Y180285D01*
X468911Y180128D01*
X468887Y179971D01*
X468866Y179813D01*
X468850Y179654D01*
X468837Y179496D01*
X468829Y179337D01*
X468824Y179177D01*
X468823Y179018D01*
X468826Y178859D01*
X468834Y178700D01*
X468845Y178541D01*
X468860Y178383D01*
X468879Y178224D01*
X468902Y178067D01*
X468929Y177910D01*
X468960Y177754D01*
X468994Y177598D01*
X469033Y177444D01*
X469075Y177290D01*
X469121Y177138D01*
X469171Y176987D01*
X469225Y176837D01*
X469282Y176688D01*
X469343Y176541D01*
X469408Y176396D01*
X469476Y176252D01*
X469548Y176110D01*
X469623Y175969D01*
X469702Y175831D01*
X469784Y175695D01*
X469869Y175560D01*
X469958Y175428D01*
X470050Y175298D01*
X470145Y175171D01*
X470244Y175045D01*
X470345Y174923D01*
X470450Y174803D01*
X470557Y174685D01*
X470668Y174570D01*
X470781Y174458D01*
X470897Y174349D01*
X471015Y174243D01*
X471137Y174140D01*
X471260Y174040D01*
X471386Y173942D01*
X471515Y173848D01*
X471646Y173758D01*
X471779Y173670D01*
X471914Y173586D01*
X472051Y173505D01*
X472191Y173428D01*
X472332Y173354D01*
X472474Y173284D01*
X472619Y173217D01*
X472765Y173154D01*
X472913Y173095D01*
X473062Y173039D01*
X473213Y172987D01*
X473364Y172938D01*
X473517Y172894D01*
X473671Y172853D01*
X473826Y172816D01*
X473982Y172783D01*
X474138Y172754D01*
X474295Y172729D01*
X474453Y172708D01*
X474611Y172690D01*
X474770Y172677D01*
X474929Y172667D01*
X475088Y172662D01*
X475247Y172660D01*
X475407Y172662D01*
X475566Y172669D01*
X475725Y172679D01*
X475883Y172693D01*
X476041Y172711D01*
X476199Y172733D01*
X476356Y172759D01*
X476513Y172789D01*
X476668Y172823D01*
X476823Y172860D01*
X476977Y172902D01*
X477129Y172947D01*
X477281Y172996D01*
X477431Y173049D01*
X477580Y173105D01*
X477727Y173165D01*
X477873Y173229D01*
X478018Y173296D01*
X478160Y173367D01*
X478301Y173442D01*
X478440Y173520D01*
X478577Y173601D01*
X478711Y173686D01*
X478844Y173774D01*
X232410Y16510D02*
X232408Y16352D01*
X232402Y16193D01*
X232392Y16035D01*
X232378Y15878D01*
X232361Y15720D01*
X232339Y15564D01*
X232314Y15407D01*
X232284Y15252D01*
X232251Y15097D01*
X232214Y14943D01*
X232173Y14790D01*
X232128Y14638D01*
X232079Y14488D01*
X232027Y14338D01*
X231971Y14190D01*
X231911Y14043D01*
X231848Y13898D01*
X231781Y13755D01*
X231711Y13613D01*
X231637Y13473D01*
X231559Y13335D01*
X231478Y13199D01*
X231394Y13065D01*
X231307Y12933D01*
X231216Y12803D01*
X231122Y12676D01*
X231025Y12551D01*
X230924Y12428D01*
X230821Y12308D01*
X230715Y12191D01*
X230606Y12076D01*
X230494Y11964D01*
X230379Y11855D01*
X230262Y11749D01*
X230142Y11646D01*
X230019Y11545D01*
X229894Y11448D01*
X229767Y11354D01*
X229637Y11263D01*
X229505Y11176D01*
X229371Y11092D01*
X229235Y11011D01*
X229097Y10933D01*
X228957Y10859D01*
X228815Y10789D01*
X228672Y10722D01*
X228527Y10659D01*
X228380Y10599D01*
X228232Y10543D01*
X228082Y10491D01*
X227932Y10442D01*
X227780Y10397D01*
X227627Y10356D01*
X227473Y10319D01*
X227318Y10286D01*
X227163Y10256D01*
X227006Y10231D01*
X226850Y10209D01*
X226692Y10192D01*
X226535Y10178D01*
X226377Y10168D01*
X226218Y10162D01*
X226060Y10160D01*
X225902Y10162D01*
X225743Y10168D01*
X225585Y10178D01*
X225428Y10192D01*
X225270Y10209D01*
X225114Y10231D01*
X224957Y10256D01*
X224802Y10286D01*
X224647Y10319D01*
X224493Y10356D01*
X224340Y10397D01*
X224188Y10442D01*
X224038Y10491D01*
X223888Y10543D01*
X223740Y10599D01*
X223593Y10659D01*
X223448Y10722D01*
X223305Y10789D01*
X223163Y10859D01*
X223023Y10933D01*
X222885Y11011D01*
X222749Y11092D01*
X222615Y11176D01*
X222483Y11263D01*
X222353Y11354D01*
X222226Y11448D01*
X222101Y11545D01*
X221978Y11646D01*
X221858Y11749D01*
X221741Y11855D01*
X221626Y11964D01*
X221514Y12076D01*
X221405Y12191D01*
X221299Y12308D01*
X221196Y12428D01*
X221095Y12551D01*
X220998Y12676D01*
X220904Y12803D01*
X220813Y12933D01*
X220726Y13065D01*
X220642Y13199D01*
X220561Y13335D01*
X220483Y13473D01*
X220409Y13613D01*
X220339Y13755D01*
X220272Y13898D01*
X220209Y14043D01*
X220149Y14190D01*
X220093Y14338D01*
X220041Y14488D01*
X219992Y14638D01*
X219947Y14790D01*
X219906Y14943D01*
X219869Y15097D01*
X219836Y15252D01*
X219806Y15407D01*
X219781Y15564D01*
X219759Y15720D01*
X219742Y15878D01*
X219728Y16035D01*
X219718Y16193D01*
X219712Y16352D01*
X219710Y16510D01*
X118110Y12700D02*
X118013Y12575D01*
X117914Y12452D01*
X117811Y12331D01*
X117705Y12213D01*
X117597Y12098D01*
X117485Y11985D01*
X117371Y11876D01*
X117254Y11769D01*
X117135Y11665D01*
X117013Y11564D01*
X116888Y11467D01*
X116761Y11372D01*
X116632Y11280D01*
X116501Y11192D01*
X116367Y11107D01*
X116231Y11026D01*
X116093Y10948D01*
X115954Y10873D01*
X115812Y10802D01*
X115669Y10734D01*
X115524Y10670D01*
X115378Y10610D01*
X115230Y10553D01*
X115081Y10500D01*
X114931Y10451D01*
X114779Y10406D01*
X114626Y10364D01*
X114472Y10326D01*
X114318Y10292D01*
X114162Y10262D01*
X114006Y10236D01*
X113850Y10213D01*
X113692Y10195D01*
X113535Y10180D01*
X113377Y10169D01*
X113219Y10163D01*
X113060Y10160D01*
X112902Y10161D01*
X112744Y10166D01*
X112586Y10176D01*
X112428Y10189D01*
X112270Y10206D01*
X112114Y10226D01*
X111957Y10251D01*
X111801Y10280D01*
X111647Y10313D01*
X111492Y10349D01*
X111339Y10389D01*
X111187Y10433D01*
X111036Y10481D01*
X110887Y10533D01*
X110738Y10588D01*
X110591Y10647D01*
X110446Y10710D01*
X110302Y10776D01*
X110160Y10846D01*
X110020Y10919D01*
X109881Y10996D01*
X109745Y11076D01*
X109610Y11159D01*
X109478Y11246D01*
X109348Y11337D01*
X109220Y11430D01*
X109095Y11527D01*
X108972Y11626D01*
X108851Y11729D01*
X108733Y11835D01*
X108618Y11943D01*
X108505Y12055D01*
X108396Y12169D01*
X108289Y12286D01*
X108185Y12405D01*
X108084Y12527D01*
X107987Y12652D01*
X107892Y12779D01*
X107800Y12908D01*
X107712Y13039D01*
X107627Y13173D01*
X107546Y13309D01*
X107468Y13447D01*
X107393Y13586D01*
X107322Y13728D01*
X107254Y13871D01*
X107190Y14016D01*
X107130Y14162D01*
X107073Y14310D01*
X107020Y14459D01*
X106971Y14609D01*
X106926Y14761D01*
X106884Y14914D01*
X106846Y15068D01*
X106812Y15222D01*
X106782Y15378D01*
X106756Y15534D01*
X106733Y15690D01*
X106715Y15848D01*
X106700Y16005D01*
X106689Y16163D01*
X106683Y16321D01*
X106680Y16480D01*
X106681Y16638D01*
X106686Y16796D01*
X106696Y16954D01*
X106709Y17112D01*
X106726Y17270D01*
X106746Y17426D01*
X106771Y17583D01*
X106800Y17739D01*
X106833Y17893D01*
X106869Y18048D01*
X106909Y18201D01*
X106953Y18353D01*
X107001Y18504D01*
X107053Y18653D01*
X107108Y18802D01*
X107167Y18949D01*
X107230Y19094D01*
X107296Y19238D01*
X107366Y19380D01*
X107439Y19520D01*
X107516Y19659D01*
X107596Y19795D01*
X107679Y19930D01*
X107766Y20062D01*
X107857Y20192D01*
X107950Y20320D01*
X162164Y18142D02*
X162139Y17977D01*
X162117Y17812D01*
X162100Y17646D01*
X162087Y17480D01*
X162077Y17313D01*
X162072Y17146D01*
X162071Y16980D01*
X162074Y16813D01*
X162081Y16646D01*
X162092Y16480D01*
X162107Y16314D01*
X162127Y16148D01*
X162150Y15983D01*
X162177Y15818D01*
X162208Y15654D01*
X162244Y15491D01*
X162283Y15329D01*
X162326Y15168D01*
X162373Y15008D01*
X162424Y14849D01*
X162479Y14692D01*
X162537Y14536D01*
X162600Y14381D01*
X162666Y14228D01*
X162736Y14077D01*
X162809Y13927D01*
X162886Y13779D01*
X162967Y13633D01*
X163052Y13489D01*
X163139Y13347D01*
X163231Y13208D01*
X163325Y13070D01*
X163423Y12935D01*
X163524Y12803D01*
X163629Y12673D01*
X163736Y12545D01*
X163847Y12420D01*
X163960Y12298D01*
X164077Y12179D01*
X164196Y12063D01*
X164318Y11949D01*
X164443Y11839D01*
X164571Y11731D01*
X164701Y11627D01*
X164834Y11526D01*
X164969Y11428D01*
X165106Y11334D01*
X165246Y11243D01*
X165388Y11155D01*
X165532Y11071D01*
X165678Y10990D01*
X165826Y10913D01*
X165976Y10840D01*
X166127Y10770D01*
X166280Y10704D01*
X166435Y10642D01*
X166591Y10583D01*
X166749Y10529D01*
X166908Y10478D01*
X167068Y10431D01*
X167229Y10388D01*
X167391Y10349D01*
X167554Y10314D01*
X167718Y10283D01*
X167883Y10256D01*
X168048Y10233D01*
X168214Y10214D01*
X168380Y10199D01*
X168546Y10188D01*
X168713Y10181D01*
X168879Y10178D01*
X169046Y10179D01*
X169213Y10185D01*
X169379Y10194D01*
X169546Y10208D01*
X169712Y10225D01*
X169877Y10247D01*
X170042Y10272D01*
X170206Y10302D01*
X170369Y10335D01*
X170532Y10373D01*
X170693Y10414D01*
X170854Y10460D01*
X171013Y10509D01*
X171171Y10562D01*
X171328Y10619D01*
X171483Y10680D01*
X171637Y10745D01*
X171789Y10813D01*
X171940Y10885D01*
X172088Y10961D01*
X172235Y11040D01*
X172380Y11123D01*
X172522Y11209D01*
X172663Y11299D01*
X172801Y11392D01*
X172937Y11489D01*
X173071Y11588D01*
X173202Y11691D01*
X173331Y11798D01*
X173457Y11907D01*
X173580Y12019D01*
X173700Y12135D01*
X173818Y12253D01*
X173933Y12374D01*
X174044Y12498D01*
X174153Y12624D01*
X174259Y12753D01*
X174361Y12885D01*
X174460Y13019D01*
X174556Y13156D01*
X174649Y13294D01*
X174738Y13435D01*
X174823Y13578D01*
X174905Y13724D01*
X174984Y13871D01*
X175059Y14020D01*
X175130Y14171D01*
X175198Y14323D01*
X175262Y14477D01*
X115569Y77472D02*
X115422Y77410D01*
X115274Y77352D01*
X115124Y77298D01*
X114973Y77248D01*
X114821Y77201D01*
X114668Y77158D01*
X114513Y77119D01*
X114358Y77084D01*
X114202Y77053D01*
X114045Y77025D01*
X113888Y77002D01*
X113729Y76983D01*
X113571Y76967D01*
X113412Y76955D01*
X113253Y76948D01*
X113094Y76944D01*
X112935Y76945D01*
X112776Y76949D01*
X112617Y76957D01*
X112458Y76970D01*
X112300Y76986D01*
X112142Y77006D01*
X111984Y77030D01*
X111828Y77059D01*
X111672Y77091D01*
X111516Y77126D01*
X111362Y77166D01*
X111209Y77210D01*
X111057Y77257D01*
X110906Y77308D01*
X110757Y77363D01*
X110609Y77422D01*
X110462Y77484D01*
X110318Y77550D01*
X110174Y77620D01*
X110033Y77693D01*
X109893Y77770D01*
X109756Y77850D01*
X109620Y77934D01*
X109487Y78021D01*
X109356Y78111D01*
X109227Y78204D01*
X109100Y78301D01*
X108976Y78401D01*
X108855Y78504D01*
X108736Y78609D01*
X108620Y78718D01*
X108506Y78830D01*
X108395Y78944D01*
X108288Y79062D01*
X108183Y79181D01*
X108081Y79304D01*
X107982Y79429D01*
X107887Y79556D01*
X107795Y79686D01*
X107706Y79818D01*
X107620Y79952D01*
X107538Y80088D01*
X107459Y80227D01*
X107383Y80367D01*
X107311Y80509D01*
X107243Y80653D01*
X107178Y80798D01*
X107117Y80945D01*
X107060Y81094D01*
X107006Y81244D01*
X106957Y81395D01*
X106911Y81548D01*
X106868Y81701D01*
X106830Y81856D01*
X106796Y82011D01*
X106765Y82167D01*
X106738Y82324D01*
X106715Y82482D01*
X106697Y82640D01*
X106682Y82798D01*
X106671Y82957D01*
X106664Y83116D01*
X106661Y83276D01*
X106662Y83435D01*
X106667Y83594D01*
X106676Y83753D01*
X106689Y83912D01*
X106706Y84070D01*
X106727Y84228D01*
X106752Y84385D01*
X106781Y84542D01*
X106813Y84697D01*
X106850Y84852D01*
X106890Y85006D01*
X106934Y85159D01*
X106983Y85311D01*
X107034Y85462D01*
X107090Y85611D01*
X107149Y85759D01*
X107212Y85905D01*
X107279Y86049D01*
X107349Y86192D01*
X107423Y86333D01*
X107500Y86473D01*
X107581Y86610D01*
X107665Y86745D01*
X107752Y86878D01*
X107843Y87009D01*
X107937Y87137D01*
X108034Y87264D01*
X108135Y87387D01*
X108238Y87508D01*
X108344Y87627D01*
X108454Y87743D01*
X108566Y87856D01*
X108681Y87966D01*
X108798Y88073D01*
X108919Y88177D01*
X109042Y88279D01*
X109167Y88377D01*
X109295Y88472D01*
X109425Y88563D01*
X109557Y88652D01*
X109692Y88737D01*
X109828Y88819D01*
X109967Y88897D01*
X110108Y88972D01*
X110250Y89043D01*
X110394Y89111D01*
X232410Y127000D02*
X232410Y16510D01*
X171958Y48006D02*
X162052Y17780D01*
X219710Y16002D02*
X212598Y70104D01*
X156718Y98298D02*
X115570Y77470D01*
X199644Y73660D02*
X175260Y14478D01*
X162052Y55372D02*
X117602Y12192D01*
X107950Y20066D02*
X165100Y89408D01*
X168910Y121920D02*
X110236Y88900D01*
X199390Y73152D02*
X199454Y73306D01*
X199522Y73459D01*
X199593Y73609D01*
X199668Y73758D01*
X199746Y73905D01*
X199828Y74051D01*
X199914Y74194D01*
X200003Y74335D01*
X200095Y74473D01*
X200191Y74610D01*
X200290Y74744D01*
X200393Y74876D01*
X200498Y75005D01*
X200607Y75131D01*
X200719Y75255D01*
X200833Y75376D01*
X200951Y75494D01*
X201071Y75610D01*
X201195Y75722D01*
X201321Y75831D01*
X201449Y75938D01*
X201580Y76041D01*
X201714Y76140D01*
X201850Y76237D01*
X201988Y76330D01*
X202129Y76420D01*
X202271Y76506D01*
X202416Y76589D01*
X202563Y76668D01*
X202712Y76744D01*
X202862Y76816D01*
X203014Y76884D01*
X203168Y76949D01*
X203323Y77010D01*
X203480Y77067D01*
X203638Y77120D01*
X203797Y77169D01*
X203958Y77215D01*
X204119Y77256D01*
X204282Y77294D01*
X204445Y77327D01*
X204609Y77357D01*
X204774Y77382D01*
X204939Y77404D01*
X205105Y77421D01*
X205271Y77435D01*
X205438Y77444D01*
X205605Y77450D01*
X205771Y77451D01*
X205938Y77448D01*
X206105Y77441D01*
X206271Y77430D01*
X206437Y77415D01*
X206603Y77396D01*
X206768Y77373D01*
X206933Y77346D01*
X207096Y77315D01*
X207259Y77280D01*
X207422Y77241D01*
X207583Y77198D01*
X207743Y77151D01*
X207902Y77100D01*
X208059Y77046D01*
X208215Y76987D01*
X208370Y76925D01*
X208523Y76859D01*
X208675Y76789D01*
X208824Y76716D01*
X208972Y76639D01*
X209118Y76558D01*
X209262Y76474D01*
X209404Y76387D01*
X209544Y76296D01*
X209681Y76201D01*
X209816Y76103D01*
X209949Y76002D01*
X210079Y75898D01*
X210207Y75791D01*
X210332Y75680D01*
X210454Y75567D01*
X210573Y75450D01*
X210690Y75331D01*
X210804Y75209D01*
X210914Y75084D01*
X211022Y74957D01*
X211126Y74827D01*
X211227Y74694D01*
X211325Y74559D01*
X211420Y74422D01*
X211511Y74282D01*
X211599Y74140D01*
X211683Y73996D01*
X211764Y73850D01*
X211841Y73703D01*
X211914Y73553D01*
X211984Y73402D01*
X212050Y73248D01*
X212113Y73094D01*
X212171Y72938D01*
X212226Y72780D01*
X212277Y72621D01*
X212324Y72461D01*
X212367Y72300D01*
X212407Y72138D01*
X212442Y71975D01*
X212473Y71811D01*
X212500Y71647D01*
X212523Y71482D01*
X212543Y71316D01*
X212558Y71150D01*
X212569Y70984D01*
X212576Y70817D01*
X212579Y70650D01*
X212578Y70484D01*
X212573Y70317D01*
X212563Y70150D01*
X212550Y69984D01*
X212533Y69818D01*
X212511Y69653D01*
X212486Y69488D01*
X171450Y46990D02*
X171543Y47118D01*
X171634Y47248D01*
X171721Y47380D01*
X171804Y47515D01*
X171884Y47651D01*
X171961Y47790D01*
X172034Y47930D01*
X172104Y48072D01*
X172170Y48216D01*
X172233Y48361D01*
X172292Y48508D01*
X172347Y48657D01*
X172399Y48806D01*
X172447Y48957D01*
X172491Y49109D01*
X172531Y49262D01*
X172567Y49417D01*
X172600Y49571D01*
X172629Y49727D01*
X172654Y49884D01*
X172674Y50040D01*
X172691Y50198D01*
X172704Y50356D01*
X172714Y50514D01*
X172719Y50672D01*
X172720Y50830D01*
X172717Y50989D01*
X172711Y51147D01*
X172700Y51305D01*
X172685Y51462D01*
X172667Y51620D01*
X172644Y51776D01*
X172618Y51932D01*
X172588Y52088D01*
X172554Y52242D01*
X172516Y52396D01*
X172474Y52549D01*
X172429Y52701D01*
X172380Y52851D01*
X172327Y53000D01*
X172270Y53148D01*
X172210Y53294D01*
X172146Y53439D01*
X172078Y53582D01*
X172007Y53724D01*
X171932Y53863D01*
X171854Y54001D01*
X171773Y54137D01*
X171688Y54271D01*
X171600Y54402D01*
X171508Y54531D01*
X171413Y54658D01*
X171316Y54783D01*
X171215Y54905D01*
X171111Y55024D01*
X171004Y55141D01*
X170895Y55255D01*
X170782Y55367D01*
X170667Y55475D01*
X170549Y55581D01*
X170428Y55684D01*
X170305Y55783D01*
X170180Y55880D01*
X170052Y55973D01*
X169922Y56064D01*
X169790Y56151D01*
X169655Y56234D01*
X169519Y56314D01*
X169380Y56391D01*
X169240Y56464D01*
X169098Y56534D01*
X168954Y56600D01*
X168809Y56663D01*
X168662Y56722D01*
X168513Y56777D01*
X168364Y56829D01*
X168213Y56877D01*
X168061Y56921D01*
X167908Y56961D01*
X167753Y56997D01*
X167599Y57030D01*
X167443Y57059D01*
X167286Y57084D01*
X167130Y57104D01*
X166972Y57121D01*
X166814Y57134D01*
X166656Y57144D01*
X166498Y57149D01*
X166340Y57150D01*
X166181Y57147D01*
X166023Y57141D01*
X165865Y57130D01*
X165708Y57115D01*
X165550Y57097D01*
X165394Y57074D01*
X165238Y57048D01*
X165082Y57018D01*
X164928Y56984D01*
X164774Y56946D01*
X164621Y56904D01*
X164469Y56859D01*
X164319Y56810D01*
X164170Y56757D01*
X164022Y56700D01*
X163876Y56640D01*
X163731Y56576D01*
X163588Y56508D01*
X163446Y56437D01*
X163307Y56362D01*
X163169Y56284D01*
X163033Y56203D01*
X162899Y56118D01*
X162768Y56030D01*
X162639Y55938D01*
X162512Y55843D01*
X162387Y55746D01*
X162265Y55645D01*
X162146Y55541D01*
X162029Y55434D01*
X161915Y55325D01*
X161803Y55212D01*
X161695Y55097D01*
X161589Y54979D01*
X161486Y54858D01*
X161387Y54735D01*
X161290Y54610D01*
X165101Y89153D02*
X165188Y89287D01*
X165271Y89422D01*
X165351Y89560D01*
X165427Y89700D01*
X165500Y89841D01*
X165570Y89985D01*
X165636Y90130D01*
X165698Y90276D01*
X165757Y90424D01*
X165812Y90574D01*
X165863Y90725D01*
X165910Y90877D01*
X165954Y91030D01*
X165994Y91184D01*
X166030Y91339D01*
X166062Y91495D01*
X166090Y91652D01*
X166114Y91809D01*
X166135Y91967D01*
X166151Y92125D01*
X166164Y92284D01*
X166172Y92443D01*
X166177Y92602D01*
X166178Y92762D01*
X166175Y92921D01*
X166167Y93080D01*
X166156Y93239D01*
X166141Y93397D01*
X166122Y93556D01*
X166099Y93713D01*
X166072Y93870D01*
X166041Y94026D01*
X166007Y94182D01*
X165968Y94336D01*
X165926Y94490D01*
X165880Y94642D01*
X165830Y94794D01*
X165776Y94943D01*
X165719Y95092D01*
X165658Y95239D01*
X165593Y95385D01*
X165525Y95529D01*
X165453Y95671D01*
X165378Y95811D01*
X165299Y95949D01*
X165217Y96086D01*
X165132Y96220D01*
X165043Y96352D01*
X164951Y96482D01*
X164855Y96610D01*
X164757Y96735D01*
X164655Y96858D01*
X164551Y96978D01*
X164443Y97095D01*
X164333Y97210D01*
X164220Y97322D01*
X164104Y97431D01*
X163985Y97538D01*
X163864Y97641D01*
X163740Y97741D01*
X163614Y97838D01*
X163486Y97932D01*
X163355Y98023D01*
X163222Y98111D01*
X163086Y98195D01*
X162949Y98276D01*
X162810Y98353D01*
X162669Y98427D01*
X162526Y98497D01*
X162381Y98564D01*
X162235Y98627D01*
X162087Y98686D01*
X161938Y98742D01*
X161788Y98794D01*
X161636Y98843D01*
X161483Y98887D01*
X161329Y98928D01*
X161174Y98965D01*
X161018Y98998D01*
X160862Y99027D01*
X160705Y99052D01*
X160547Y99073D01*
X160388Y99091D01*
X160230Y99104D01*
X160071Y99114D01*
X159912Y99119D01*
X159752Y99121D01*
X159593Y99119D01*
X159434Y99112D01*
X159275Y99102D01*
X159117Y99088D01*
X158958Y99070D01*
X158801Y99048D01*
X158643Y99022D01*
X158487Y98992D01*
X158331Y98958D01*
X158177Y98921D01*
X158023Y98879D01*
X157870Y98834D01*
X157719Y98785D01*
X157568Y98732D01*
X157419Y98676D01*
X157272Y98616D01*
X157126Y98552D01*
X156982Y98484D01*
X156839Y98413D01*
X156698Y98339D01*
X156560Y98261D01*
X156423Y98180D01*
X156288Y98095D01*
X156155Y98007D01*
X241300Y101600D02*
X241300Y121920D01*
X241300Y127000D02*
X232410Y127000D01*
X241300Y127000D02*
X402590Y127000D01*
X245110Y120650D02*
X241300Y127000D01*
X243840Y120650D02*
X245110Y120650D01*
X241300Y127000D02*
X237490Y120650D01*
X243840Y120650D02*
X241300Y125730D01*
X243840Y120650D02*
X238760Y120650D01*
X241300Y125730D02*
X241300Y127000D01*
X241300Y125730D02*
X238760Y120650D01*
X237490Y120650D01*
X238760Y120650D02*
X241300Y121920D01*
X241300Y125730D01*
X241300Y121920D02*
X243840Y120650D01*
D13*
X306988Y160909D02*
X306988Y176911D01*
X298098Y176911D02*
X306988Y167132D01*
X303432Y170688D02*
X298098Y160909D01*
X291357Y160909D02*
X291357Y176911D01*
X282467Y176911D02*
X291357Y167132D01*
X287801Y170688D02*
X282467Y160909D01*
X276479Y173355D02*
X272034Y176911D01*
X272034Y160909D01*
X276479Y160909D02*
X267589Y160909D01*
M02*
