G04 EAGLE Gerber RS-274X export*
G75*
%MOMM*%
%FSLAX34Y34*%
%LPD*%
%INSoldermask Bottom*%
%IPPOS*%
%AMOC8*
5,1,8,0,0,1.08239X$1,22.5*%
G01*
%ADD10C,2.203450*%
%ADD11P,1.649562X8X22.500000*%
%ADD12C,1.879600*%
%ADD13C,3.505200*%
%ADD14C,1.727200*%
%ADD15C,3.759200*%
%ADD16C,2.953200*%
%ADD17R,1.981200X1.981200*%
%ADD18C,1.981200*%
%ADD19R,1.711200X1.711200*%
%ADD20C,1.711200*%
%ADD21C,2.082800*%
%ADD22C,5.283200*%
%ADD23C,1.109600*%


D10*
X1187484Y905109D03*
X84208Y894105D03*
X24207Y21695D03*
X1188703Y22971D03*
D11*
X838200Y812800D03*
X863600Y812800D03*
X838200Y762000D03*
X863600Y762000D03*
D12*
X292100Y109982D02*
X292100Y93218D01*
X317500Y93218D02*
X317500Y109982D01*
X342900Y109982D02*
X342900Y93218D01*
D13*
X317500Y251460D03*
D14*
X570397Y172720D02*
X585637Y172720D01*
X585637Y198120D02*
X570397Y198120D01*
D15*
X50800Y215900D03*
X50800Y165100D03*
D11*
X1028700Y800100D03*
X1054100Y800100D03*
X1028700Y647700D03*
X1054100Y647700D03*
D16*
X35000Y314400D03*
X525000Y314400D03*
X35000Y894400D03*
X525000Y894400D03*
D17*
X512300Y363100D03*
D18*
X537700Y363100D03*
X512300Y388500D03*
X537700Y388500D03*
X512300Y413900D03*
X537700Y413900D03*
X512300Y439300D03*
X537700Y439300D03*
X512300Y464700D03*
X537700Y464700D03*
X512300Y490100D03*
X537700Y490100D03*
X512300Y515500D03*
X537700Y515500D03*
X512300Y540900D03*
X537700Y540900D03*
X512300Y566300D03*
X537700Y566300D03*
X512300Y591700D03*
X537700Y591700D03*
X512300Y617100D03*
X537700Y617100D03*
X512300Y642500D03*
X537700Y642500D03*
X512300Y667900D03*
X537700Y667900D03*
X512300Y693300D03*
X537700Y693300D03*
X512300Y718700D03*
X537700Y718700D03*
X512300Y744100D03*
X537700Y744100D03*
X512300Y769500D03*
X537700Y769500D03*
X512300Y794900D03*
X537700Y794900D03*
X512300Y820300D03*
X537700Y820300D03*
X512300Y845700D03*
X537700Y845700D03*
D11*
X800100Y863600D03*
X901700Y863600D03*
X647700Y749300D03*
X749300Y749300D03*
X647700Y901700D03*
X749300Y901700D03*
X647700Y850900D03*
X749300Y850900D03*
X647700Y800100D03*
X749300Y800100D03*
D14*
X876300Y706120D02*
X876300Y690880D01*
X850900Y690880D02*
X850900Y706120D01*
X825500Y706120D02*
X825500Y690880D01*
X800100Y690880D02*
X800100Y706120D01*
X774700Y706120D02*
X774700Y690880D01*
X749300Y690880D02*
X749300Y706120D01*
X723900Y706120D02*
X723900Y690880D01*
X698500Y690880D02*
X698500Y706120D01*
X673100Y706120D02*
X673100Y690880D01*
X647700Y690880D02*
X647700Y706120D01*
X647700Y579120D02*
X647700Y563880D01*
X673100Y563880D02*
X673100Y579120D01*
X698500Y579120D02*
X698500Y563880D01*
X723900Y563880D02*
X723900Y579120D01*
X749300Y579120D02*
X749300Y563880D01*
X774700Y563880D02*
X774700Y579120D01*
X800100Y579120D02*
X800100Y563880D01*
X825500Y563880D02*
X825500Y579120D01*
X850900Y579120D02*
X850900Y563880D01*
X876300Y563880D02*
X876300Y579120D01*
D19*
X1168400Y774700D03*
D20*
X1168400Y800100D03*
X1168400Y825500D03*
X1168400Y850900D03*
D19*
X1168400Y609600D03*
D20*
X1168400Y635000D03*
X1168400Y660400D03*
X1168400Y685800D03*
D21*
X965200Y520700D03*
X939800Y520700D03*
X914400Y520700D03*
X889000Y520700D03*
X863600Y520700D03*
X838200Y520700D03*
X787400Y520700D03*
X762000Y520700D03*
X736600Y520700D03*
X711200Y520700D03*
X685800Y520700D03*
X660400Y520700D03*
X660400Y38100D03*
X685800Y38100D03*
X711200Y38100D03*
X736600Y38100D03*
X762000Y38100D03*
X787400Y38100D03*
X812800Y38100D03*
X838200Y38100D03*
X876300Y38100D03*
X901700Y38100D03*
X927100Y38100D03*
X952500Y38100D03*
X977900Y38100D03*
X1003300Y38100D03*
X1028700Y38100D03*
X1054100Y38100D03*
D13*
X635000Y469900D03*
X1143000Y38100D03*
D22*
X444500Y135890D03*
X190500Y135890D03*
D23*
X540136Y123676D03*
X555280Y517420D03*
X524992Y530040D03*
X504800Y333168D03*
X535088Y295308D03*
X825348Y825348D03*
M02*
