M48
;GenerationSoftware,Autodesk,EAGLE,9.6.0*%
;CreationDate,2020-04-08T21:19:56Z*%
FMAT,2
ICI,OFF
METRIC,TZ,000.000
T10C0.500
T9C0.813
T8C1.000
T7C1.016
T6C1.118
T5C2.000
T4C2.057
T3C2.540
T2C2.750
T1C3.302
%
G90
M71
T1
X31750Y25146
X63500Y46990
X114300Y3810
T2
X52500Y31440
X3500Y31440
X3500Y89440
X52500Y89440
T3
X19050Y13589
X44450Y13589
T4
X5080Y21590
X5080Y16510
T5
X118870Y2297
X118748Y90511
X8421Y89410
X2421Y2170
T6
X29210Y10160
X31750Y10160
X34290Y10160
T7
X67310Y57150
X64770Y57150
X64770Y69850
X74930Y69850
X66040Y3810
X67310Y69850
X69850Y69850
X72390Y69850
X57802Y17272
X57802Y19812
X77470Y69850
X80010Y69850
X82550Y69850
X85090Y69850
X87630Y69850
X74930Y57150
X77470Y57150
X80010Y57150
X82550Y57150
X85090Y57150
X87630Y57150
X72390Y57150
X96520Y52070
X93980Y52070
X91440Y52070
X88900Y52070
X86360Y52070
X83820Y52070
X78740Y52070
X76200Y52070
X73660Y52070
X71120Y52070
X68580Y52070
X69850Y57150
X68580Y3810
X71120Y3810
X73660Y3810
X76200Y3810
X78740Y3810
X81280Y3810
X83820Y3810
X66040Y52070
X90170Y3810
X92710Y3810
X95250Y3810
X97790Y3810
X100330Y3810
X102870Y3810
X105410Y3810
X87630Y3810
T8
X51230Y82030
X53770Y82030
X53770Y61710
X53770Y84570
X51230Y84570
X51230Y38850
X51230Y36310
X53770Y36310
X53770Y38850
X51230Y41390
X53770Y41390
X116840Y77470
X116840Y80010
X116840Y82550
X51230Y43930
X116840Y60960
X116840Y63500
X116840Y66040
X116840Y68580
X53770Y43930
X51230Y46470
X53770Y46470
X51230Y49010
X53770Y49010
X51230Y51550
X53770Y51550
X51230Y54090
X53770Y54090
X51230Y56630
X53770Y56630
X51230Y59170
X53770Y59170
X51230Y61710
X51230Y64250
X53770Y64250
X51230Y66790
X53770Y66790
X51230Y69330
X53770Y69330
X51230Y71870
X53770Y71870
X51230Y74410
X53770Y74410
X51230Y76950
X53770Y76950
X51230Y79490
X53770Y79490
X116840Y85090
T9
X90170Y86360
X64770Y74930
X74930Y74930
X83820Y81280
X64770Y90170
X74930Y90170
X64770Y85090
X74930Y85090
X64770Y80010
X74930Y80010
X105410Y64770
X102870Y64770
X105410Y80010
X102870Y80010
X80010Y86360
X86360Y76200
X83820Y76200
X86360Y81280
T10
X50480Y33317
X52499Y53004
X55528Y51742
X54014Y12368
X82535Y82535
X53509Y29531
M30